<svg width="419" height="325" viewBox="0 0 419 325" fill="none" xmlns="http://www.w3.org/2000/svg">
<rect x="1" width="191" height="49" rx="7.8733" fill="white" fill-opacity="0.93"/>
<rect x="10.4482" y="7.08594" width="34.6425" height="34.6425" rx="17.3213" fill="#04D2A5"/>
<g clip-path="url(#clip0_1030_5360)">
<path d="M34.8552 20.864V19.683C34.8552 19.2653 34.6893 18.8648 34.394 18.5695C34.0987 18.2742 33.6981 18.1083 33.2805 18.1083H22.2579C21.8403 18.1083 21.4397 18.2742 21.1444 18.5695C20.8491 18.8648 20.6832 19.2653 20.6832 19.683V30.7056C20.6832 31.1232 20.8491 31.5237 21.1444 31.819C21.4397 32.1144 21.8403 32.2803 22.2579 32.2803H25.0135" stroke="white" stroke-width="1.57466" stroke-linecap="round" stroke-linejoin="round"/>
<path d="M30.9186 16.5336V19.683" stroke="white" stroke-width="1.57466" stroke-linecap="round" stroke-linejoin="round"/>
<path d="M24.6199 16.5336V19.683" stroke="white" stroke-width="1.57466" stroke-linecap="round" stroke-linejoin="round"/>
<path d="M20.6832 22.8323H24.6199" stroke="white" stroke-width="1.57466" stroke-linecap="round" stroke-linejoin="round"/>
<path d="M32.0996 28.7373L30.9186 27.7531V25.9816" stroke="white" stroke-width="1.57466" stroke-linecap="round" stroke-linejoin="round"/>
<path d="M35.6425 27.5563C35.6425 28.8091 35.1448 30.0107 34.2589 30.8966C33.373 31.7825 32.1714 32.2802 30.9186 32.2802C29.6657 32.2802 28.4641 31.7825 27.5782 30.8966C26.6923 30.0107 26.1946 28.8091 26.1946 27.5563C26.1946 26.3034 26.6923 25.1018 27.5782 24.2159C28.4641 23.33 29.6657 22.8323 30.9186 22.8323C32.1714 22.8323 33.373 23.33 34.2589 24.2159C35.1448 25.1018 35.6425 26.3034 35.6425 27.5563Z" stroke="white" stroke-width="1.57466" stroke-linecap="round" stroke-linejoin="round"/>
</g>
<path d="M53.7384 28C53.5117 28 53.3353 27.9412 53.2093 27.8236C53.0918 27.6977 53.033 27.5213 53.033 27.2946V19.8244C53.033 19.5976 53.0918 19.4255 53.2093 19.3079C53.3353 19.1819 53.5117 19.1189 53.7384 19.1189H56.7366C57.3496 19.1189 57.8703 19.2113 58.2986 19.3961C58.7353 19.5808 59.0671 19.8454 59.2938 20.1897C59.529 20.534 59.6465 20.9497 59.6465 21.4368C59.6465 21.9743 59.487 22.4278 59.1679 22.7973C58.8487 23.1668 58.4162 23.4146 57.8703 23.5406V23.3516C58.4918 23.4356 58.9789 23.6707 59.3316 24.0571C59.6843 24.435 59.8607 24.9305 59.8607 25.5435C59.8607 26.333 59.6004 26.9418 59.0797 27.3701C58.559 27.79 57.8283 28 56.8877 28H53.7384ZM54.2927 26.9922H56.7366C57.3664 26.9922 57.8325 26.8704 58.1349 26.6269C58.4372 26.375 58.5884 25.997 58.5884 25.4931C58.5884 24.9893 58.4372 24.6155 58.1349 24.372C57.8325 24.1284 57.3664 24.0067 56.7366 24.0067H54.2927V26.9922ZM54.2927 22.9989H56.535C57.1397 22.9989 57.5974 22.8771 57.9081 22.6336C58.2189 22.39 58.3742 22.0331 58.3742 21.5628C58.3742 21.0925 58.2189 20.7356 57.9081 20.492C57.5974 20.2485 57.1397 20.1267 56.535 20.1267H54.2927V22.9989ZM63.4464 28.1134C63.0181 28.1134 62.6318 28.0294 62.2874 27.8614C61.9515 27.6935 61.687 27.4667 61.4938 27.1812C61.3007 26.8956 61.2041 26.5723 61.2041 26.2112C61.2041 25.7577 61.3175 25.4008 61.5442 25.1404C61.7794 24.8717 62.1615 24.6827 62.6906 24.5735C63.228 24.456 63.9503 24.3972 64.8573 24.3972H65.4494V25.1782H64.8699C64.2652 25.1782 63.7865 25.2076 63.4338 25.2664C63.0811 25.3252 62.8291 25.426 62.678 25.5687C62.5352 25.7031 62.4638 25.8921 62.4638 26.1356C62.4638 26.4547 62.573 26.7151 62.7913 26.9166C63.0097 27.1098 63.312 27.2064 63.6983 27.2064C64.0091 27.2064 64.282 27.135 64.5172 26.9922C64.7523 26.8411 64.9371 26.6395 65.0714 26.3875C65.2142 26.1356 65.2856 25.8459 65.2856 25.5183V24.0696C65.2856 23.591 65.1848 23.2466 64.9833 23.0367C64.7817 22.8267 64.45 22.7217 63.9881 22.7217C63.7193 22.7217 63.438 22.7553 63.1441 22.8225C62.8585 22.8897 62.5604 23.0031 62.2497 23.1626C62.1069 23.2298 61.9851 23.2508 61.8843 23.2256C61.7836 23.2004 61.7038 23.1458 61.645 23.0619C61.5862 22.9695 61.5526 22.8729 61.5442 22.7721C61.5442 22.663 61.5694 22.558 61.6198 22.4572C61.6786 22.3564 61.7752 22.2808 61.9095 22.2304C62.2791 22.0541 62.6444 21.9281 63.0055 21.8525C63.3666 21.7769 63.7067 21.7392 64.0259 21.7392C64.5886 21.7392 65.0505 21.8273 65.4116 22.0037C65.7811 22.1801 66.054 22.4488 66.2304 22.8099C66.4068 23.171 66.4949 23.6371 66.4949 24.2082V27.4457C66.4949 27.6473 66.4446 27.8068 66.3438 27.9244C66.243 28.0336 66.096 28.0882 65.9029 28.0882C65.7181 28.0882 65.5711 28.0336 65.462 27.9244C65.3528 27.8068 65.2982 27.6473 65.2982 27.4457V26.6269H65.4116C65.3444 26.9376 65.2184 27.2064 65.0337 27.4331C64.8573 27.6515 64.6347 27.8194 64.366 27.937C64.0973 28.0546 63.7907 28.1134 63.4464 28.1134ZM67.2648 30.3935C67.1136 30.4019 66.9918 30.3767 66.8994 30.3179C66.7987 30.2591 66.7315 30.1835 66.6979 30.0911C66.6559 29.9988 66.6433 29.9022 66.6601 29.8014C66.6685 29.709 66.7105 29.625 66.7861 29.5495C66.8532 29.4823 66.9456 29.4445 67.0632 29.4361C67.4831 29.4109 67.7896 29.2975 67.9828 29.096C68.1844 28.8944 68.2851 28.5753 68.2851 28.1386V22.4068C68.2851 22.1969 68.3397 22.0373 68.4489 21.9281C68.5665 21.8189 68.726 21.7643 68.9276 21.7643C69.1375 21.7643 69.2929 21.8189 69.3937 21.9281C69.5029 22.0373 69.5575 22.1969 69.5575 22.4068V28.0378C69.5575 28.5585 69.4693 28.9868 69.2929 29.3227C69.125 29.667 68.873 29.9232 68.5371 30.0911C68.2012 30.2591 67.777 30.3599 67.2648 30.3935ZM68.9276 20.4794C68.6756 20.4794 68.4783 20.4164 68.3355 20.2905C68.2012 20.1645 68.134 19.9881 68.134 19.7614C68.134 19.5262 68.2012 19.3499 68.3355 19.2323C68.4783 19.1063 68.6756 19.0433 68.9276 19.0433C69.1795 19.0433 69.3727 19.1063 69.5071 19.2323C69.6414 19.3499 69.7086 19.5262 69.7086 19.7614C69.7086 19.9881 69.6414 20.1645 69.5071 20.2905C69.3727 20.4164 69.1795 20.4794 68.9276 20.4794ZM74.0181 28.1134C73.3966 28.1134 72.8591 27.9832 72.4056 27.7229C71.9605 27.4625 71.612 27.093 71.36 26.6143C71.1081 26.1356 70.9821 25.5729 70.9821 24.9263C70.9821 24.4308 71.0535 23.9899 71.1963 23.6035C71.3391 23.2172 71.5406 22.8855 71.801 22.6084C72.0697 22.3228 72.3888 22.1087 72.7583 21.9659C73.1363 21.8147 73.5562 21.7392 74.0181 21.7392C74.6311 21.7392 75.1602 21.8693 75.6053 22.1297C76.0588 22.39 76.4116 22.7595 76.6635 23.2382C76.9154 23.7085 77.0414 24.2712 77.0414 24.9263C77.0414 25.4134 76.97 25.8543 76.8273 26.249C76.6845 26.6437 76.4787 26.9796 76.21 27.2568C75.9497 27.5339 75.6305 27.7481 75.2526 27.8992C74.8831 28.042 74.4716 28.1134 74.0181 28.1134ZM74.0181 27.1308C74.3624 27.1308 74.6647 27.0468 74.9251 26.8788C75.1854 26.7109 75.387 26.4631 75.5297 26.1356C75.6809 25.8081 75.7565 25.405 75.7565 24.9263C75.7565 24.204 75.5969 23.6581 75.2778 23.2886C74.9587 22.9191 74.5388 22.7343 74.0181 22.7343C73.6654 22.7343 73.3588 22.8183 73.0985 22.9863C72.8381 23.1458 72.6324 23.3894 72.4812 23.7169C72.3384 24.0445 72.2671 24.4476 72.2671 24.9263C72.2671 25.6401 72.4266 26.186 72.7457 26.5639C73.0649 26.9418 73.489 27.1308 74.0181 27.1308ZM84.4121 28.1134C83.9082 28.1134 83.4841 28.0252 83.1398 27.8488C82.7955 27.6725 82.5393 27.4121 82.3714 27.0678C82.2034 26.7235 82.1194 26.3036 82.1194 25.8081V22.8351H81.3636C81.1956 22.8351 81.0654 22.7931 80.9731 22.7091C80.8807 22.6168 80.8345 22.495 80.8345 22.3438C80.8345 22.1843 80.8807 22.0625 80.9731 21.9785C81.0654 21.8945 81.1956 21.8525 81.3636 21.8525H82.1194V20.555C82.1194 20.3451 82.174 20.1855 82.2832 20.0763C82.4007 19.9671 82.5603 19.9125 82.7619 19.9125C82.9634 19.9125 83.1188 19.9671 83.228 20.0763C83.3371 20.1855 83.3917 20.3451 83.3917 20.555V21.8525H84.8656C85.0336 21.8525 85.1637 21.8945 85.2561 21.9785C85.3485 22.0625 85.3947 22.1843 85.3947 22.3438C85.3947 22.495 85.3485 22.6168 85.2561 22.7091C85.1637 22.7931 85.0336 22.8351 84.8656 22.8351H83.3917V25.7073C83.3917 26.1524 83.4841 26.4883 83.6689 26.7151C83.862 26.9418 84.1728 27.0552 84.6011 27.0552C84.7522 27.0552 84.8824 27.0426 84.9916 27.0174C85.1092 26.9838 85.2057 26.9628 85.2813 26.9544C85.3737 26.9544 85.4493 26.988 85.5081 27.0552C85.5669 27.114 85.5963 27.2316 85.5963 27.4079C85.5963 27.5339 85.5711 27.6515 85.5207 27.7607C85.4787 27.8698 85.3989 27.9412 85.2813 27.9748C85.1805 28.0084 85.042 28.0378 84.8656 28.063C84.6976 28.0966 84.5465 28.1134 84.4121 28.1134ZM87.1334 28.0756C86.9319 28.0756 86.7765 28.0168 86.6673 27.8992C86.5581 27.7732 86.5036 27.6011 86.5036 27.3827V22.4698C86.5036 22.2514 86.5581 22.0835 86.6673 21.9659C86.7765 21.8483 86.9319 21.7895 87.1334 21.7895C87.335 21.7895 87.4903 21.8483 87.5995 21.9659C87.7171 22.0835 87.7759 22.2514 87.7759 22.4698V27.3827C87.7759 27.6011 87.7213 27.7732 87.6121 27.8992C87.5029 28.0168 87.3434 28.0756 87.1334 28.0756ZM87.1334 20.4794C86.8815 20.4794 86.6841 20.4164 86.5413 20.2905C86.407 20.1645 86.3398 19.9881 86.3398 19.7614C86.3398 19.5262 86.407 19.3499 86.5413 19.2323C86.6841 19.1063 86.8815 19.0433 87.1334 19.0433C87.3854 19.0433 87.5785 19.1063 87.7129 19.2323C87.8557 19.3499 87.927 19.5262 87.927 19.7614C87.927 19.9881 87.8557 20.1645 87.7129 20.2905C87.5785 20.4164 87.3854 20.4794 87.1334 20.4794ZM92.4515 28.1134C91.7797 28.1134 91.2002 27.9874 90.7131 27.7355C90.2344 27.4751 89.8607 27.1098 89.592 26.6395C89.3316 26.1608 89.2014 25.5939 89.2014 24.9389C89.2014 24.3006 89.3316 23.7421 89.592 23.2634C89.8523 22.7847 90.2092 22.411 90.6627 22.1423C91.1162 21.8735 91.6327 21.7392 92.2122 21.7392C92.6405 21.7392 93.0226 21.8105 93.3585 21.9533C93.6945 22.0877 93.98 22.2892 94.2152 22.558C94.4587 22.8183 94.6393 23.1375 94.7568 23.5154C94.8828 23.8933 94.9458 24.3174 94.9458 24.7877C94.9458 24.9305 94.9038 25.0396 94.8198 25.1152C94.7358 25.1824 94.6099 25.216 94.4419 25.216H90.2092V24.435H94.0892L93.875 24.6113C93.875 24.1914 93.812 23.8345 93.6861 23.5406C93.5685 23.2466 93.3879 23.0241 93.1444 22.8729C92.9092 22.7133 92.6153 22.6336 92.2626 22.6336C91.8679 22.6336 91.5319 22.7259 91.2548 22.9107C90.9861 23.0955 90.7803 23.3516 90.6375 23.6791C90.4948 24.0067 90.4234 24.3888 90.4234 24.8255V24.9011C90.4234 25.6401 90.5955 26.1986 90.9399 26.5765C91.2926 26.946 91.8007 27.1308 92.4641 27.1308C92.7161 27.1308 92.9806 27.0972 93.2578 27.03C93.5433 26.9628 93.812 26.8494 94.064 26.6899C94.2068 26.6059 94.3327 26.5681 94.4419 26.5765C94.5595 26.5849 94.6519 26.6227 94.719 26.6899C94.7946 26.7571 94.8408 26.8411 94.8576 26.9418C94.8744 27.0426 94.8576 27.1476 94.8072 27.2568C94.7568 27.3575 94.6687 27.4499 94.5427 27.5339C94.2571 27.7271 93.9254 27.874 93.5475 27.9748C93.1696 28.0672 92.8043 28.1134 92.4515 28.1134ZM96.9879 28.0882C96.7864 28.0882 96.631 28.0336 96.5218 27.9244C96.4127 27.8068 96.3581 27.6473 96.3581 27.4457V22.4068C96.3581 22.1969 96.4127 22.0373 96.5218 21.9281C96.631 21.8189 96.7822 21.7643 96.9753 21.7643C97.1769 21.7643 97.3281 21.8189 97.4288 21.9281C97.538 22.0373 97.5926 22.1969 97.5926 22.4068V23.4398L97.454 23.1626C97.622 22.7175 97.8823 22.369 98.2351 22.1171C98.5878 21.8651 99.0119 21.7392 99.5074 21.7392C100.02 21.7392 100.435 21.8609 100.755 22.1045C101.074 22.348 101.292 22.7217 101.41 23.2256H101.233C101.393 22.7637 101.666 22.4026 102.052 22.1423C102.438 21.8735 102.888 21.7392 103.4 21.7392C103.87 21.7392 104.257 21.8315 104.559 22.0163C104.861 22.1927 105.088 22.4656 105.239 22.8351C105.39 23.1962 105.466 23.6539 105.466 24.2082V27.4457C105.466 27.6473 105.407 27.8068 105.29 27.9244C105.18 28.0336 105.025 28.0882 104.823 28.0882C104.622 28.0882 104.467 28.0336 104.357 27.9244C104.248 27.8068 104.194 27.6473 104.194 27.4457V24.2712C104.194 23.7505 104.101 23.3684 103.916 23.1249C103.74 22.8813 103.446 22.7595 103.035 22.7595C102.573 22.7595 102.207 22.9191 101.939 23.2382C101.67 23.5574 101.536 23.9983 101.536 24.5609V27.4457C101.536 27.6473 101.481 27.8068 101.372 27.9244C101.263 28.0336 101.107 28.0882 100.906 28.0882C100.704 28.0882 100.545 28.0336 100.427 27.9244C100.318 27.8068 100.263 27.6473 100.263 27.4457V24.2712C100.263 23.7505 100.175 23.3684 99.9987 23.1249C99.8223 22.8813 99.5284 22.7595 99.1169 22.7595C98.655 22.7595 98.2897 22.9191 98.0209 23.2382C97.7606 23.5574 97.6304 23.9983 97.6304 24.5609V27.4457C97.6304 27.874 97.4162 28.0882 96.9879 28.0882ZM107.875 30.3557C107.673 30.3557 107.518 30.3011 107.409 30.1919C107.299 30.0828 107.245 29.9232 107.245 29.7132V22.4068C107.245 22.1969 107.299 22.0373 107.409 21.9281C107.518 21.8189 107.669 21.7643 107.862 21.7643C108.064 21.7643 108.219 21.8189 108.328 21.9281C108.437 22.0373 108.492 22.1969 108.492 22.4068V23.5028L108.353 23.2382C108.488 22.7847 108.752 22.4236 109.147 22.1549C109.542 21.8777 110.008 21.7392 110.545 21.7392C111.091 21.7392 111.566 21.8693 111.969 22.1297C112.38 22.39 112.695 22.7553 112.914 23.2256C113.14 23.6959 113.254 24.2628 113.254 24.9263C113.254 25.5729 113.14 26.1398 112.914 26.6269C112.695 27.1056 112.384 27.4751 111.981 27.7355C111.578 27.9874 111.1 28.1134 110.545 28.1134C110.016 28.1134 109.554 27.979 109.16 27.7103C108.765 27.4415 108.5 27.0846 108.366 26.6395H108.517V29.7132C108.517 29.9232 108.458 30.0828 108.341 30.1919C108.232 30.3011 108.076 30.3557 107.875 30.3557ZM110.23 27.1308C110.583 27.1308 110.89 27.0468 111.15 26.8788C111.41 26.7109 111.612 26.4631 111.755 26.1356C111.897 25.8081 111.969 25.405 111.969 24.9263C111.969 24.204 111.809 23.6581 111.49 23.2886C111.179 22.9191 110.759 22.7343 110.23 22.7343C109.886 22.7343 109.579 22.8183 109.311 22.9863C109.05 23.1458 108.849 23.3894 108.706 23.7169C108.563 24.0445 108.492 24.4476 108.492 24.9263C108.492 25.6401 108.651 26.186 108.971 26.5639C109.29 26.9418 109.71 27.1308 110.23 27.1308ZM117.358 28.1134C116.737 28.1134 116.199 27.9832 115.746 27.7229C115.301 27.4625 114.952 27.093 114.7 26.6143C114.448 26.1356 114.322 25.5729 114.322 24.9263C114.322 24.4308 114.394 23.9899 114.536 23.6035C114.679 23.2172 114.881 22.8855 115.141 22.6084C115.41 22.3228 115.729 22.1087 116.098 21.9659C116.476 21.8147 116.896 21.7392 117.358 21.7392C117.971 21.7392 118.5 21.8693 118.945 22.1297C119.399 22.39 119.752 22.7595 120.004 23.2382C120.255 23.7085 120.381 24.2712 120.381 24.9263C120.381 25.4134 120.31 25.8543 120.167 26.249C120.025 26.6437 119.819 26.9796 119.55 27.2568C119.29 27.5339 118.971 27.7481 118.593 27.8992C118.223 28.042 117.812 28.1134 117.358 28.1134ZM117.358 27.1308C117.702 27.1308 118.005 27.0468 118.265 26.8788C118.525 26.7109 118.727 26.4631 118.87 26.1356C119.021 25.8081 119.097 25.405 119.097 24.9263C119.097 24.204 118.937 23.6581 118.618 23.2886C118.299 22.9191 117.879 22.7343 117.358 22.7343C117.005 22.7343 116.699 22.8183 116.439 22.9863C116.178 23.1458 115.972 23.3894 115.821 23.7169C115.678 24.0445 115.607 24.4476 115.607 24.9263C115.607 25.6401 115.767 26.186 116.086 26.5639C116.405 26.9418 116.829 27.1308 117.358 27.1308ZM127.475 28.1134C126.938 28.1134 126.463 27.9874 126.052 27.7355C125.648 27.4751 125.333 27.1056 125.107 26.6269C124.88 26.1398 124.767 25.5729 124.767 24.9263C124.767 24.2628 124.88 23.6959 125.107 23.2256C125.333 22.7553 125.648 22.39 126.052 22.1297C126.463 21.8693 126.938 21.7392 127.475 21.7392C128.013 21.7392 128.474 21.8735 128.861 22.1423C129.255 22.4026 129.52 22.7553 129.654 23.2004H129.516V19.6732C129.516 19.4632 129.57 19.3037 129.68 19.1945C129.789 19.0853 129.944 19.0307 130.146 19.0307C130.347 19.0307 130.503 19.0853 130.612 19.1945C130.729 19.3037 130.788 19.4632 130.788 19.6732V27.4457C130.788 27.6473 130.734 27.8068 130.624 27.9244C130.515 28.0336 130.36 28.0882 130.158 28.0882C129.957 28.0882 129.801 28.0336 129.692 27.9244C129.583 27.8068 129.528 27.6473 129.528 27.4457V26.3372L129.667 26.6143C129.533 27.0678 129.268 27.4331 128.873 27.7103C128.487 27.979 128.021 28.1134 127.475 28.1134ZM127.803 27.1308C128.147 27.1308 128.449 27.0468 128.71 26.8788C128.97 26.7109 129.171 26.4631 129.314 26.1356C129.465 25.8081 129.541 25.405 129.541 24.9263C129.541 24.204 129.381 23.6581 129.062 23.2886C128.743 22.9191 128.323 22.7343 127.803 22.7343C127.45 22.7343 127.143 22.8183 126.883 22.9863C126.623 23.1458 126.417 23.3894 126.266 23.7169C126.123 24.0445 126.052 24.4476 126.052 24.9263C126.052 25.6401 126.211 26.186 126.53 26.5639C126.849 26.9418 127.273 27.1308 127.803 27.1308ZM135.459 28.1134C134.788 28.1134 134.208 27.9874 133.721 27.7355C133.242 27.4751 132.869 27.1098 132.6 26.6395C132.34 26.1608 132.209 25.5939 132.209 24.9389C132.209 24.3006 132.34 23.7421 132.6 23.2634C132.86 22.7847 133.217 22.411 133.671 22.1423C134.124 21.8735 134.641 21.7392 135.22 21.7392C135.648 21.7392 136.031 21.8105 136.366 21.9533C136.702 22.0877 136.988 22.2892 137.223 22.558C137.467 22.8183 137.647 23.1375 137.765 23.5154C137.891 23.8933 137.954 24.3174 137.954 24.7877C137.954 24.9305 137.912 25.0396 137.828 25.1152C137.744 25.1824 137.618 25.216 137.45 25.216H133.217V24.435H137.097L136.883 24.6113C136.883 24.1914 136.82 23.8345 136.694 23.5406C136.576 23.2466 136.396 23.0241 136.152 22.8729C135.917 22.7133 135.623 22.6336 135.27 22.6336C134.876 22.6336 134.54 22.7259 134.263 22.9107C133.994 23.0955 133.788 23.3516 133.645 23.6791C133.503 24.0067 133.431 24.3888 133.431 24.8255V24.9011C133.431 25.6401 133.603 26.1986 133.948 26.5765C134.3 26.946 134.809 27.1308 135.472 27.1308C135.724 27.1308 135.989 27.0972 136.266 27.03C136.551 26.9628 136.82 26.8494 137.072 26.6899C137.215 26.6059 137.341 26.5681 137.45 26.5765C137.567 26.5849 137.66 26.6227 137.727 26.6899C137.803 26.7571 137.849 26.8411 137.866 26.9418C137.882 27.0426 137.866 27.1476 137.815 27.2568C137.765 27.3575 137.677 27.4499 137.551 27.5339C137.265 27.7271 136.933 27.874 136.555 27.9748C136.177 28.0672 135.812 28.1134 135.459 28.1134ZM145.547 28.1134C144.875 28.1134 144.296 27.9874 143.809 27.7355C143.33 27.4751 142.956 27.1098 142.688 26.6395C142.427 26.1608 142.297 25.5939 142.297 24.9389C142.297 24.3006 142.427 23.7421 142.688 23.2634C142.948 22.7847 143.305 22.411 143.758 22.1423C144.212 21.8735 144.728 21.7392 145.308 21.7392C145.736 21.7392 146.118 21.8105 146.454 21.9533C146.79 22.0877 147.076 22.2892 147.311 22.558C147.554 22.8183 147.735 23.1375 147.852 23.5154C147.978 23.8933 148.041 24.3174 148.041 24.7877C148.041 24.9305 147.999 25.0396 147.915 25.1152C147.831 25.1824 147.705 25.216 147.537 25.216H143.305V24.435H147.185L146.971 24.6113C146.971 24.1914 146.908 23.8345 146.782 23.5406C146.664 23.2466 146.483 23.0241 146.24 22.8729C146.005 22.7133 145.711 22.6336 145.358 22.6336C144.963 22.6336 144.627 22.7259 144.35 22.9107C144.082 23.0955 143.876 23.3516 143.733 23.6791C143.59 24.0067 143.519 24.3888 143.519 24.8255V24.9011C143.519 25.6401 143.691 26.1986 144.035 26.5765C144.388 26.946 144.896 27.1308 145.56 27.1308C145.812 27.1308 146.076 27.0972 146.353 27.03C146.639 26.9628 146.908 26.8494 147.16 26.6899C147.302 26.6059 147.428 26.5681 147.537 26.5765C147.655 26.5849 147.747 26.6227 147.815 26.6899C147.89 26.7571 147.936 26.8411 147.953 26.9418C147.97 27.0426 147.953 27.1476 147.903 27.2568C147.852 27.3575 147.764 27.4499 147.638 27.5339C147.353 27.7271 147.021 27.874 146.643 27.9748C146.265 28.0672 145.9 28.1134 145.547 28.1134ZM151.583 28.1134C151.213 28.1134 150.831 28.0714 150.436 27.9874C150.05 27.9034 149.693 27.7607 149.365 27.5591C149.256 27.4835 149.181 27.3995 149.139 27.3071C149.097 27.2148 149.08 27.1224 149.088 27.03C149.105 26.9292 149.143 26.8452 149.202 26.7781C149.269 26.7025 149.349 26.6563 149.441 26.6395C149.542 26.6227 149.647 26.6437 149.756 26.7025C150.083 26.8872 150.398 27.0174 150.701 27.093C151.003 27.1602 151.301 27.1938 151.595 27.1938C152.04 27.1938 152.376 27.114 152.603 26.9544C152.83 26.7949 152.943 26.5807 152.943 26.312C152.943 26.0936 152.867 25.9256 152.716 25.8081C152.565 25.6821 152.338 25.5855 152.036 25.5183L150.839 25.279C150.319 25.1698 149.924 24.9767 149.655 24.6995C149.386 24.4224 149.252 24.0696 149.252 23.6413C149.252 23.255 149.357 22.9191 149.567 22.6336C149.777 22.348 150.071 22.1297 150.449 21.9785C150.827 21.8189 151.263 21.7392 151.759 21.7392C152.128 21.7392 152.477 21.7853 152.805 21.8777C153.132 21.9701 153.434 22.1087 153.712 22.2934C153.821 22.3522 153.892 22.432 153.926 22.5328C153.959 22.6252 153.963 22.7175 153.938 22.8099C153.921 22.9023 153.879 22.9863 153.812 23.0619C153.745 23.1291 153.661 23.171 153.56 23.1878C153.468 23.1962 153.363 23.171 153.245 23.1123C152.993 22.9527 152.742 22.8393 152.49 22.7721C152.246 22.7049 152.002 22.6714 151.759 22.6714C151.314 22.6714 150.978 22.7553 150.751 22.9233C150.533 23.0829 150.424 23.3012 150.424 23.5784C150.424 23.7883 150.491 23.9605 150.625 24.0948C150.76 24.2292 150.97 24.3258 151.255 24.3846L152.452 24.6239C152.998 24.7331 153.409 24.9179 153.686 25.1782C153.972 25.4386 154.115 25.7913 154.115 26.2364C154.115 26.8159 153.884 27.2736 153.422 27.6095C152.96 27.9454 152.347 28.1134 151.583 28.1134ZM156.16 30.3557C155.959 30.3557 155.803 30.3011 155.694 30.1919C155.585 30.0828 155.53 29.9232 155.53 29.7132V22.4068C155.53 22.1969 155.585 22.0373 155.694 21.9281C155.803 21.8189 155.954 21.7643 156.148 21.7643C156.349 21.7643 156.504 21.8189 156.614 21.9281C156.723 22.0373 156.777 22.1969 156.777 22.4068V23.5028L156.639 23.2382C156.773 22.7847 157.038 22.4236 157.432 22.1549C157.827 21.8777 158.293 21.7392 158.831 21.7392C159.377 21.7392 159.851 21.8693 160.254 22.1297C160.666 22.39 160.981 22.7553 161.199 23.2256C161.426 23.6959 161.539 24.2628 161.539 24.9263C161.539 25.5729 161.426 26.1398 161.199 26.6269C160.981 27.1056 160.67 27.4751 160.267 27.7355C159.864 27.9874 159.385 28.1134 158.831 28.1134C158.302 28.1134 157.84 27.979 157.445 27.7103C157.05 27.4415 156.786 27.0846 156.651 26.6395H156.803V29.7132C156.803 29.9232 156.744 30.0828 156.626 30.1919C156.517 30.3011 156.362 30.3557 156.16 30.3557ZM158.516 27.1308C158.869 27.1308 159.175 27.0468 159.435 26.8788C159.696 26.7109 159.897 26.4631 160.04 26.1356C160.183 25.8081 160.254 25.405 160.254 24.9263C160.254 24.204 160.095 23.6581 159.776 23.2886C159.465 22.9191 159.045 22.7343 158.516 22.7343C158.171 22.7343 157.865 22.8183 157.596 22.9863C157.336 23.1458 157.134 23.3894 156.992 23.7169C156.849 24.0445 156.777 24.4476 156.777 24.9263C156.777 25.6401 156.937 26.186 157.256 26.5639C157.575 26.9418 157.995 27.1308 158.516 27.1308ZM165.858 28.1134C165.186 28.1134 164.606 27.9874 164.119 27.7355C163.641 27.4751 163.267 27.1098 162.998 26.6395C162.738 26.1608 162.608 25.5939 162.608 24.9389C162.608 24.3006 162.738 23.7421 162.998 23.2634C163.259 22.7847 163.615 22.411 164.069 22.1423C164.522 21.8735 165.039 21.7392 165.618 21.7392C166.047 21.7392 166.429 21.8105 166.765 21.9533C167.101 22.0877 167.386 22.2892 167.621 22.558C167.865 22.8183 168.045 23.1375 168.163 23.5154C168.289 23.8933 168.352 24.3174 168.352 24.7877C168.352 24.9305 168.31 25.0396 168.226 25.1152C168.142 25.1824 168.016 25.216 167.848 25.216H163.615V24.435H167.495L167.281 24.6113C167.281 24.1914 167.218 23.8345 167.092 23.5406C166.975 23.2466 166.794 23.0241 166.551 22.8729C166.315 22.7133 166.022 22.6336 165.669 22.6336C165.274 22.6336 164.938 22.7259 164.661 22.9107C164.392 23.0955 164.187 23.3516 164.044 23.6791C163.901 24.0067 163.83 24.3888 163.83 24.8255V24.9011C163.83 25.6401 164.002 26.1986 164.346 26.5765C164.699 26.946 165.207 27.1308 165.87 27.1308C166.122 27.1308 166.387 27.0972 166.664 27.03C166.95 26.9628 167.218 26.8494 167.47 26.6899C167.613 26.6059 167.739 26.5681 167.848 26.5765C167.966 26.5849 168.058 26.6227 168.125 26.6899C168.201 26.7571 168.247 26.8411 168.264 26.9418C168.281 27.0426 168.264 27.1476 168.213 27.2568C168.163 27.3575 168.075 27.4499 167.949 27.5339C167.663 27.7271 167.332 27.874 166.954 27.9748C166.576 28.0672 166.21 28.1134 165.858 28.1134ZM170.382 28.0882C170.172 28.0882 170.012 28.0336 169.903 27.9244C169.794 27.8068 169.739 27.6473 169.739 27.4457V22.4068C169.739 22.1969 169.794 22.0373 169.903 21.9281C170.012 21.8189 170.163 21.7643 170.356 21.7643C170.558 21.7643 170.709 21.8189 170.81 21.9281C170.919 22.0373 170.974 22.1969 170.974 22.4068V23.3264H170.848C170.982 22.8225 171.23 22.4404 171.591 22.1801C171.952 21.9197 172.414 21.7685 172.977 21.7266C173.128 21.7182 173.245 21.7559 173.329 21.8399C173.422 21.9239 173.472 22.0541 173.48 22.2304C173.497 22.4068 173.459 22.5496 173.367 22.6588C173.275 22.7595 173.132 22.8183 172.939 22.8351L172.699 22.8603C172.154 22.9107 171.738 23.0829 171.452 23.3768C171.167 23.6707 171.024 24.0738 171.024 24.5861V27.4457C171.024 27.6473 170.969 27.8068 170.86 27.9244C170.759 28.0336 170.6 28.0882 170.382 28.0882ZM176.342 28.1134C175.914 28.1134 175.528 28.0294 175.183 27.8614C174.847 27.6935 174.583 27.4667 174.39 27.1812C174.196 26.8956 174.1 26.5723 174.1 26.2112C174.1 25.7577 174.213 25.4008 174.44 25.1404C174.675 24.8717 175.057 24.6827 175.586 24.5735C176.124 24.456 176.846 24.3972 177.753 24.3972H178.345V25.1782H177.766C177.161 25.1782 176.682 25.2076 176.33 25.2664C175.977 25.3252 175.725 25.426 175.574 25.5687C175.431 25.7031 175.36 25.8921 175.36 26.1356C175.36 26.4547 175.469 26.7151 175.687 26.9166C175.905 27.1098 176.208 27.2064 176.594 27.2064C176.905 27.2064 177.178 27.135 177.413 26.9922C177.648 26.8411 177.833 26.6395 177.967 26.3875C178.11 26.1356 178.181 25.8459 178.181 25.5183V24.0696C178.181 23.591 178.081 23.2466 177.879 23.0367C177.677 22.8267 177.346 22.7217 176.884 22.7217C176.615 22.7217 176.334 22.7553 176.04 22.8225C175.754 22.8897 175.456 23.0031 175.145 23.1626C175.003 23.2298 174.881 23.2508 174.78 23.2256C174.679 23.2004 174.6 23.1458 174.541 23.0619C174.482 22.9695 174.448 22.8729 174.44 22.7721C174.44 22.663 174.465 22.558 174.516 22.4572C174.574 22.3564 174.671 22.2808 174.805 22.2304C175.175 22.0541 175.54 21.9281 175.901 21.8525C176.262 21.7769 176.602 21.7392 176.922 21.7392C177.484 21.7392 177.946 21.8273 178.307 22.0037C178.677 22.1801 178.95 22.4488 179.126 22.8099C179.302 23.171 179.391 23.6371 179.391 24.2082V27.4457C179.391 27.6473 179.34 27.8068 179.24 27.9244C179.139 28.0336 178.992 28.0882 178.799 28.0882C178.614 28.0882 178.467 28.0336 178.358 27.9244C178.249 27.8068 178.194 27.6473 178.194 27.4457V26.6269H178.307C178.24 26.9376 178.114 27.2064 177.929 27.4331C177.753 27.6515 177.53 27.8194 177.262 27.937C176.993 28.0546 176.686 28.1134 176.342 28.1134Z" fill="#04D2A5"/>
<rect x="238" y="100" width="180.67" height="50.6857" rx="8.17509" fill="white" fill-opacity="0.93"/>
<rect x="247.811" y="107.357" width="35.9705" height="35.9705" rx="17.9852" fill="#04D2A5"/>
<path d="M268.248 117.167H263.343C262.891 117.167 262.525 117.533 262.525 117.985V119.62C262.525 120.071 262.891 120.437 263.343 120.437H268.248C268.699 120.437 269.065 120.071 269.065 119.62V117.985C269.065 117.533 268.699 117.167 268.248 117.167Z" stroke="white" stroke-width="1.63502" stroke-linecap="round" stroke-linejoin="round"/>
<path d="M262.525 118.802H260.89C260.457 118.802 260.041 118.975 259.734 119.281C259.428 119.588 259.255 120.004 259.255 120.437V131.882C259.255 132.316 259.428 132.732 259.734 133.039C260.041 133.345 260.457 133.517 260.89 133.517H270.701C271.134 133.517 271.55 133.345 271.857 133.039C272.163 132.732 272.336 132.316 272.336 131.882V131.474" stroke="white" stroke-width="1.63502" stroke-linecap="round" stroke-linejoin="round"/>
<path d="M269.066 118.802H270.701C270.987 118.803 271.269 118.878 271.517 119.022C271.765 119.165 271.972 119.371 272.115 119.62" stroke="white" stroke-width="1.63502" stroke-linecap="round" stroke-linejoin="round"/>
<path d="M271.044 123.389C271.203 123.229 271.393 123.103 271.601 123.016C271.809 122.93 272.032 122.886 272.258 122.886C272.483 122.886 272.707 122.93 272.915 123.016C273.123 123.103 273.313 123.229 273.472 123.389C273.631 123.548 273.758 123.737 273.844 123.945C273.93 124.154 273.975 124.377 273.975 124.603C273.975 124.828 273.93 125.051 273.844 125.26C273.758 125.468 273.631 125.657 273.472 125.817L269.842 129.43L266.613 130.247L267.422 127.018L271.044 123.389Z" stroke="white" stroke-width="1.63502" stroke-linecap="round" stroke-linejoin="round"/>
<path d="M262.525 130.247H263.343" stroke="white" stroke-width="1.63502" stroke-linecap="round" stroke-linejoin="round"/>
<path d="M292.159 128.172C291.985 128.172 291.845 128.132 291.74 128.054C291.636 127.975 291.575 127.871 291.557 127.74C291.54 127.609 291.566 127.461 291.636 127.295L295.18 119.343C295.268 119.133 295.377 118.985 295.507 118.898C295.647 118.811 295.8 118.767 295.965 118.767C296.122 118.767 296.266 118.811 296.397 118.898C296.536 118.985 296.65 119.133 296.737 119.343L300.282 127.295C300.36 127.461 300.391 127.614 300.373 127.753C300.356 127.884 300.299 127.989 300.203 128.067C300.107 128.137 299.972 128.172 299.798 128.172C299.606 128.172 299.453 128.124 299.34 128.028C299.227 127.932 299.126 127.784 299.039 127.583L298.123 125.464L298.738 125.83H293.166L293.768 125.464L292.865 127.583C292.778 127.792 292.682 127.945 292.577 128.041C292.473 128.128 292.333 128.172 292.159 128.172ZM295.939 120.363L293.964 125.045L293.637 124.732H298.254L297.953 125.045L295.965 120.363H295.939ZM303.846 128.198C303.462 128.198 303.065 128.154 302.656 128.067C302.255 127.98 301.884 127.832 301.544 127.622C301.43 127.544 301.352 127.457 301.308 127.361C301.265 127.265 301.247 127.169 301.256 127.073C301.273 126.968 301.313 126.881 301.374 126.811C301.444 126.733 301.526 126.685 301.622 126.667C301.727 126.65 301.836 126.672 301.949 126.733C302.289 126.925 302.616 127.06 302.93 127.138C303.244 127.208 303.554 127.243 303.859 127.243C304.321 127.243 304.67 127.16 304.905 126.994C305.141 126.829 305.259 126.606 305.259 126.327C305.259 126.101 305.18 125.926 305.023 125.804C304.866 125.673 304.631 125.573 304.317 125.503L303.074 125.255C302.534 125.141 302.124 124.941 301.845 124.653C301.566 124.365 301.426 123.999 301.426 123.554C301.426 123.153 301.535 122.804 301.753 122.508C301.971 122.211 302.276 121.985 302.669 121.828C303.061 121.662 303.515 121.579 304.029 121.579C304.413 121.579 304.775 121.627 305.115 121.723C305.455 121.819 305.769 121.963 306.056 122.155C306.17 122.216 306.244 122.299 306.279 122.403C306.314 122.499 306.318 122.595 306.292 122.691C306.274 122.787 306.231 122.874 306.161 122.953C306.091 123.022 306.004 123.066 305.9 123.083C305.804 123.092 305.695 123.066 305.573 123.005C305.311 122.839 305.049 122.722 304.788 122.652C304.535 122.582 304.282 122.547 304.029 122.547C303.567 122.547 303.218 122.634 302.983 122.809C302.756 122.974 302.643 123.201 302.643 123.489C302.643 123.707 302.712 123.886 302.852 124.025C302.991 124.165 303.209 124.265 303.506 124.326L304.748 124.575C305.315 124.688 305.743 124.88 306.03 125.15C306.327 125.42 306.475 125.787 306.475 126.249C306.475 126.851 306.235 127.326 305.756 127.675C305.276 128.023 304.639 128.198 303.846 128.198ZM310.94 128.198C310.243 128.198 309.641 128.067 309.135 127.805C308.638 127.535 308.25 127.156 307.971 126.667C307.701 126.17 307.566 125.582 307.566 124.902C307.566 124.239 307.701 123.659 307.971 123.162C308.241 122.665 308.612 122.277 309.083 121.998C309.554 121.719 310.09 121.579 310.692 121.579C311.136 121.579 311.533 121.653 311.882 121.802C312.231 121.941 312.527 122.15 312.771 122.429C313.024 122.7 313.212 123.031 313.334 123.424C313.465 123.816 313.53 124.256 313.53 124.745C313.53 124.893 313.487 125.006 313.399 125.085C313.312 125.154 313.181 125.189 313.007 125.189H308.612V124.378H312.641L312.418 124.562C312.418 124.126 312.353 123.755 312.222 123.45C312.1 123.145 311.913 122.913 311.66 122.756C311.416 122.591 311.11 122.508 310.744 122.508C310.334 122.508 309.985 122.604 309.698 122.796C309.419 122.988 309.205 123.254 309.057 123.594C308.908 123.934 308.834 124.33 308.834 124.784V124.862C308.834 125.63 309.013 126.21 309.371 126.602C309.737 126.986 310.264 127.178 310.953 127.178C311.215 127.178 311.49 127.143 311.777 127.073C312.074 127.003 312.353 126.885 312.615 126.72C312.763 126.633 312.894 126.593 313.007 126.602C313.129 126.611 313.225 126.65 313.295 126.72C313.373 126.79 313.421 126.877 313.439 126.981C313.456 127.086 313.439 127.195 313.386 127.308C313.334 127.413 313.242 127.509 313.112 127.596C312.815 127.797 312.471 127.949 312.078 128.054C311.686 128.15 311.307 128.198 310.94 128.198ZM317.207 128.198C316.823 128.198 316.427 128.154 316.017 128.067C315.616 127.98 315.245 127.832 314.905 127.622C314.792 127.544 314.713 127.457 314.67 127.361C314.626 127.265 314.608 127.169 314.617 127.073C314.635 126.968 314.674 126.881 314.735 126.811C314.805 126.733 314.888 126.685 314.983 126.667C315.088 126.65 315.197 126.672 315.31 126.733C315.651 126.925 315.978 127.06 316.291 127.138C316.605 127.208 316.915 127.243 317.22 127.243C317.682 127.243 318.031 127.16 318.267 126.994C318.502 126.829 318.62 126.606 318.62 126.327C318.62 126.101 318.541 125.926 318.384 125.804C318.227 125.673 317.992 125.573 317.678 125.503L316.435 125.255C315.895 125.141 315.485 124.941 315.206 124.653C314.927 124.365 314.787 123.999 314.787 123.554C314.787 123.153 314.896 122.804 315.114 122.508C315.332 122.211 315.637 121.985 316.03 121.828C316.422 121.662 316.876 121.579 317.39 121.579C317.774 121.579 318.136 121.627 318.476 121.723C318.816 121.819 319.13 121.963 319.418 122.155C319.531 122.216 319.605 122.299 319.64 122.403C319.675 122.499 319.679 122.595 319.653 122.691C319.636 122.787 319.592 122.874 319.522 122.953C319.453 123.022 319.365 123.066 319.261 123.083C319.165 123.092 319.056 123.066 318.934 123.005C318.672 122.839 318.41 122.722 318.149 122.652C317.896 122.582 317.643 122.547 317.39 122.547C316.928 122.547 316.579 122.634 316.344 122.809C316.117 122.974 316.004 123.201 316.004 123.489C316.004 123.707 316.073 123.886 316.213 124.025C316.353 124.165 316.571 124.265 316.867 124.326L318.11 124.575C318.676 124.688 319.104 124.88 319.391 125.15C319.688 125.42 319.836 125.787 319.836 126.249C319.836 126.851 319.596 127.326 319.117 127.675C318.637 128.023 318.001 128.198 317.207 128.198ZM324.079 128.198C323.434 128.198 322.876 128.063 322.405 127.792C321.943 127.522 321.581 127.138 321.319 126.641C321.058 126.144 320.927 125.56 320.927 124.889C320.927 124.374 321.001 123.916 321.149 123.515C321.297 123.114 321.507 122.77 321.777 122.482C322.056 122.185 322.387 121.963 322.771 121.815C323.163 121.658 323.599 121.579 324.079 121.579C324.716 121.579 325.265 121.714 325.727 121.985C326.198 122.255 326.564 122.639 326.826 123.136C327.087 123.624 327.218 124.208 327.218 124.889C327.218 125.394 327.144 125.852 326.996 126.262C326.848 126.672 326.634 127.021 326.355 127.308C326.085 127.596 325.753 127.818 325.361 127.975C324.977 128.124 324.55 128.198 324.079 128.198ZM324.079 127.178C324.437 127.178 324.751 127.09 325.021 126.916C325.291 126.742 325.5 126.484 325.649 126.144C325.806 125.804 325.884 125.386 325.884 124.889C325.884 124.139 325.718 123.572 325.387 123.188C325.056 122.804 324.62 122.613 324.079 122.613C323.713 122.613 323.395 122.7 323.124 122.874C322.854 123.04 322.64 123.293 322.483 123.633C322.335 123.973 322.261 124.391 322.261 124.889C322.261 125.63 322.427 126.197 322.758 126.589C323.089 126.981 323.53 127.178 324.079 127.178ZM329.369 128.172C329.151 128.172 328.985 128.115 328.872 128.002C328.759 127.88 328.702 127.714 328.702 127.505V122.272C328.702 122.054 328.759 121.889 328.872 121.775C328.985 121.662 329.142 121.605 329.343 121.605C329.552 121.605 329.709 121.662 329.814 121.775C329.927 121.889 329.984 122.054 329.984 122.272V123.227H329.853C329.993 122.704 330.25 122.307 330.625 122.037C331 121.767 331.479 121.61 332.064 121.566C332.221 121.557 332.343 121.597 332.43 121.684C332.526 121.771 332.578 121.906 332.587 122.089C332.604 122.272 332.565 122.421 332.469 122.534C332.373 122.639 332.225 122.7 332.024 122.717L331.776 122.743C331.209 122.796 330.777 122.974 330.481 123.28C330.184 123.585 330.036 124.003 330.036 124.535V127.505C330.036 127.714 329.979 127.88 329.866 128.002C329.761 128.115 329.596 128.172 329.369 128.172ZM336.487 128.198C335.79 128.198 335.188 128.067 334.682 127.805C334.185 127.535 333.797 127.156 333.518 126.667C333.248 126.17 333.113 125.582 333.113 124.902C333.113 124.239 333.248 123.659 333.518 123.162C333.789 122.665 334.159 122.277 334.63 121.998C335.101 121.719 335.637 121.579 336.239 121.579C336.684 121.579 337.08 121.653 337.429 121.802C337.778 121.941 338.074 122.15 338.319 122.429C338.572 122.7 338.759 123.031 338.881 123.424C339.012 123.816 339.077 124.256 339.077 124.745C339.077 124.893 339.034 125.006 338.946 125.085C338.859 125.154 338.728 125.189 338.554 125.189H334.159V124.378H338.188L337.965 124.562C337.965 124.126 337.9 123.755 337.769 123.45C337.647 123.145 337.46 122.913 337.207 122.756C336.963 122.591 336.657 122.508 336.291 122.508C335.881 122.508 335.533 122.604 335.245 122.796C334.966 122.988 334.752 123.254 334.604 123.594C334.456 123.934 334.382 124.33 334.382 124.784V124.862C334.382 125.63 334.56 126.21 334.918 126.602C335.284 126.986 335.812 127.178 336.501 127.178C336.762 127.178 337.037 127.143 337.325 127.073C337.621 127.003 337.9 126.885 338.162 126.72C338.31 126.633 338.441 126.593 338.554 126.602C338.676 126.611 338.772 126.65 338.842 126.72C338.92 126.79 338.968 126.877 338.986 126.981C339.003 127.086 338.986 127.195 338.933 127.308C338.881 127.413 338.79 127.509 338.659 127.596C338.362 127.797 338.018 127.949 337.625 128.054C337.233 128.15 336.854 128.198 336.487 128.198ZM342.754 128.198C342.371 128.198 341.974 128.154 341.564 128.067C341.163 127.98 340.792 127.832 340.452 127.622C340.339 127.544 340.26 127.457 340.217 127.361C340.173 127.265 340.156 127.169 340.164 127.073C340.182 126.968 340.221 126.881 340.282 126.811C340.352 126.733 340.435 126.685 340.531 126.667C340.635 126.65 340.744 126.672 340.858 126.733C341.198 126.925 341.525 127.06 341.839 127.138C342.153 127.208 342.462 127.243 342.767 127.243C343.229 127.243 343.578 127.16 343.814 126.994C344.049 126.829 344.167 126.606 344.167 126.327C344.167 126.101 344.088 125.926 343.931 125.804C343.774 125.673 343.539 125.573 343.225 125.503L341.983 125.255C341.442 125.141 341.032 124.941 340.753 124.653C340.474 124.365 340.334 123.999 340.334 123.554C340.334 123.153 340.443 122.804 340.661 122.508C340.879 122.211 341.185 121.985 341.577 121.828C341.969 121.662 342.423 121.579 342.937 121.579C343.321 121.579 343.683 121.627 344.023 121.723C344.363 121.819 344.677 121.963 344.965 122.155C345.078 122.216 345.152 122.299 345.187 122.403C345.222 122.499 345.226 122.595 345.2 122.691C345.183 122.787 345.139 122.874 345.069 122.953C345 123.022 344.912 123.066 344.808 123.083C344.712 123.092 344.603 123.066 344.481 123.005C344.219 122.839 343.958 122.722 343.696 122.652C343.443 122.582 343.19 122.547 342.937 122.547C342.475 122.547 342.126 122.634 341.891 122.809C341.664 122.974 341.551 123.201 341.551 123.489C341.551 123.707 341.621 123.886 341.76 124.025C341.9 124.165 342.118 124.265 342.414 124.326L343.657 124.575C344.224 124.688 344.651 124.88 344.939 125.15C345.235 125.42 345.383 125.787 345.383 126.249C345.383 126.851 345.144 127.326 344.664 127.675C344.184 128.023 343.548 128.198 342.754 128.198ZM353.114 128.198C352.46 128.198 351.894 128.063 351.414 127.792C350.943 127.513 350.577 127.125 350.315 126.628C350.054 126.122 349.923 125.529 349.923 124.849C349.923 124.344 349.997 123.89 350.145 123.489C350.293 123.079 350.503 122.735 350.773 122.456C351.052 122.177 351.388 121.963 351.78 121.815C352.181 121.658 352.626 121.579 353.114 121.579C353.42 121.579 353.738 121.627 354.069 121.723C354.409 121.81 354.723 121.959 355.011 122.168C355.124 122.238 355.194 122.325 355.22 122.429C355.255 122.525 355.259 122.626 355.233 122.73C355.216 122.835 355.168 122.927 355.089 123.005C355.02 123.075 354.932 123.118 354.828 123.136C354.723 123.145 354.61 123.114 354.488 123.044C354.278 122.896 354.065 122.791 353.847 122.73C353.629 122.661 353.42 122.626 353.219 122.626C352.905 122.626 352.626 122.678 352.382 122.783C352.146 122.879 351.946 123.022 351.78 123.214C351.614 123.397 351.488 123.628 351.401 123.908C351.322 124.187 351.283 124.505 351.283 124.862C351.283 125.577 351.449 126.14 351.78 126.55C352.12 126.951 352.6 127.151 353.219 127.151C353.42 127.151 353.629 127.121 353.847 127.06C354.065 126.999 354.278 126.894 354.488 126.746C354.61 126.676 354.723 126.65 354.828 126.667C354.932 126.685 355.015 126.733 355.076 126.811C355.146 126.881 355.19 126.968 355.207 127.073C355.233 127.169 355.229 127.269 355.194 127.374C355.159 127.478 355.085 127.566 354.972 127.635C354.693 127.836 354.387 127.98 354.056 128.067C353.733 128.154 353.42 128.198 353.114 128.198ZM358.397 128.198C357.953 128.198 357.551 128.111 357.194 127.936C356.845 127.762 356.57 127.526 356.37 127.23C356.169 126.933 356.069 126.598 356.069 126.223C356.069 125.752 356.187 125.381 356.422 125.111C356.666 124.832 357.063 124.636 357.612 124.522C358.171 124.4 358.92 124.339 359.862 124.339H360.477V125.15H359.875C359.247 125.15 358.75 125.181 358.384 125.242C358.018 125.303 357.756 125.407 357.599 125.556C357.451 125.695 357.377 125.891 357.377 126.144C357.377 126.476 357.49 126.746 357.717 126.955C357.944 127.156 358.258 127.256 358.659 127.256C358.982 127.256 359.265 127.182 359.509 127.034C359.753 126.877 359.945 126.667 360.085 126.406C360.233 126.144 360.307 125.843 360.307 125.503V123.999C360.307 123.502 360.202 123.145 359.993 122.927C359.784 122.708 359.439 122.599 358.96 122.599C358.681 122.599 358.389 122.634 358.083 122.704C357.787 122.774 357.477 122.892 357.155 123.057C357.006 123.127 356.88 123.149 356.775 123.123C356.671 123.097 356.588 123.04 356.527 122.953C356.466 122.857 356.431 122.756 356.422 122.652C356.422 122.538 356.448 122.429 356.501 122.325C356.562 122.22 356.662 122.142 356.801 122.089C357.185 121.906 357.565 121.775 357.939 121.697C358.314 121.618 358.668 121.579 358.999 121.579C359.583 121.579 360.063 121.671 360.438 121.854C360.821 122.037 361.105 122.316 361.288 122.691C361.471 123.066 361.563 123.55 361.563 124.143V127.505C361.563 127.714 361.51 127.88 361.406 128.002C361.301 128.115 361.148 128.172 360.948 128.172C360.756 128.172 360.603 128.115 360.49 128.002C360.377 127.88 360.32 127.714 360.32 127.505V126.654H360.438C360.368 126.977 360.237 127.256 360.045 127.491C359.862 127.718 359.631 127.893 359.352 128.015C359.073 128.137 358.755 128.198 358.397 128.198ZM365.436 128.198C364.756 128.198 364.241 128.002 363.892 127.609C363.552 127.208 363.382 126.633 363.382 125.883V119.434C363.382 119.216 363.439 119.05 363.552 118.937C363.666 118.824 363.827 118.767 364.036 118.767C364.246 118.767 364.407 118.824 364.52 118.937C364.642 119.05 364.703 119.216 364.703 119.434V125.804C364.703 126.24 364.791 126.567 364.965 126.785C365.148 126.994 365.41 127.099 365.75 127.099C365.828 127.099 365.898 127.099 365.959 127.099C366.02 127.09 366.081 127.082 366.142 127.073C366.247 127.064 366.321 127.095 366.365 127.164C366.408 127.226 366.43 127.356 366.43 127.557C366.43 127.74 366.391 127.884 366.312 127.989C366.234 128.084 366.107 128.145 365.933 128.172C365.854 128.18 365.772 128.185 365.684 128.185C365.597 128.193 365.514 128.198 365.436 128.198ZM368.034 128.159C367.825 128.159 367.664 128.098 367.55 127.975C367.437 127.845 367.38 127.666 367.38 127.439V122.338C367.38 122.111 367.437 121.937 367.55 121.815C367.664 121.693 367.825 121.632 368.034 121.632C368.244 121.632 368.405 121.693 368.518 121.815C368.64 121.937 368.701 122.111 368.701 122.338V127.439C368.701 127.666 368.645 127.845 368.531 127.975C368.418 128.098 368.252 128.159 368.034 128.159ZM368.034 120.271C367.773 120.271 367.568 120.206 367.42 120.075C367.28 119.944 367.21 119.761 367.21 119.526C367.21 119.282 367.28 119.098 367.42 118.976C367.568 118.845 367.773 118.78 368.034 118.78C368.296 118.78 368.497 118.845 368.636 118.976C368.784 119.098 368.858 119.282 368.858 119.526C368.858 119.761 368.784 119.944 368.636 120.075C368.497 120.206 368.296 120.271 368.034 120.271ZM371.607 128.172C371.398 128.172 371.232 128.115 371.11 128.002C370.997 127.88 370.94 127.714 370.94 127.505V122.717H370.208C370.042 122.717 369.911 122.674 369.815 122.586C369.719 122.49 369.672 122.364 369.672 122.207C369.672 122.041 369.719 121.915 369.815 121.828C369.911 121.741 370.042 121.697 370.208 121.697H371.32L370.94 122.05V121.579C370.94 120.733 371.15 120.088 371.568 119.643C371.987 119.199 372.601 118.937 373.412 118.859L373.805 118.832C373.962 118.815 374.088 118.837 374.184 118.898C374.28 118.95 374.346 119.029 374.38 119.133C374.415 119.229 374.42 119.329 374.393 119.434C374.367 119.539 374.319 119.63 374.25 119.709C374.189 119.779 374.11 119.818 374.014 119.827L373.661 119.853C373.173 119.888 372.815 120.031 372.588 120.284C372.37 120.537 372.261 120.908 372.261 121.396V121.906L372.078 121.697H375.662C375.88 121.697 376.046 121.762 376.159 121.893C376.273 122.015 376.329 122.185 376.329 122.403V127.439C376.329 127.666 376.273 127.845 376.159 127.975C376.055 128.098 375.889 128.159 375.662 128.159C375.453 128.159 375.292 128.098 375.178 127.975C375.065 127.845 375.008 127.666 375.008 127.439V122.717H372.261V127.505C372.261 127.949 372.043 128.172 371.607 128.172ZM375.688 120.271C375.436 120.271 375.239 120.206 375.1 120.075C374.96 119.944 374.891 119.761 374.891 119.526C374.891 119.282 374.96 119.098 375.1 118.976C375.239 118.845 375.436 118.78 375.688 118.78C375.95 118.78 376.146 118.845 376.277 118.976C376.417 119.098 376.486 119.282 376.486 119.526C376.486 119.761 376.417 119.944 376.277 120.075C376.146 120.206 375.95 120.271 375.688 120.271ZM380.986 128.198C380.332 128.198 379.765 128.063 379.286 127.792C378.815 127.513 378.449 127.125 378.187 126.628C377.926 126.122 377.795 125.529 377.795 124.849C377.795 124.344 377.869 123.89 378.017 123.489C378.165 123.079 378.375 122.735 378.645 122.456C378.924 122.177 379.26 121.963 379.652 121.815C380.053 121.658 380.498 121.579 380.986 121.579C381.291 121.579 381.61 121.627 381.941 121.723C382.281 121.81 382.595 121.959 382.883 122.168C382.996 122.238 383.066 122.325 383.092 122.429C383.127 122.525 383.131 122.626 383.105 122.73C383.088 122.835 383.04 122.927 382.961 123.005C382.892 123.075 382.804 123.118 382.7 123.136C382.595 123.145 382.482 123.114 382.36 123.044C382.15 122.896 381.937 122.791 381.719 122.73C381.501 122.661 381.291 122.626 381.091 122.626C380.777 122.626 380.498 122.678 380.254 122.783C380.018 122.879 379.818 123.022 379.652 123.214C379.486 123.397 379.36 123.628 379.273 123.908C379.194 124.187 379.155 124.505 379.155 124.862C379.155 125.577 379.321 126.14 379.652 126.55C379.992 126.951 380.472 127.151 381.091 127.151C381.291 127.151 381.501 127.121 381.719 127.06C381.937 126.999 382.15 126.894 382.36 126.746C382.482 126.676 382.595 126.65 382.7 126.667C382.804 126.685 382.887 126.733 382.948 126.811C383.018 126.881 383.062 126.968 383.079 127.073C383.105 127.169 383.101 127.269 383.066 127.374C383.031 127.478 382.957 127.566 382.844 127.635C382.565 127.836 382.259 127.98 381.928 128.067C381.605 128.154 381.291 128.198 380.986 128.198ZM386.269 128.198C385.824 128.198 385.423 128.111 385.066 127.936C384.717 127.762 384.442 127.526 384.242 127.23C384.041 126.933 383.941 126.598 383.941 126.223C383.941 125.752 384.059 125.381 384.294 125.111C384.538 124.832 384.935 124.636 385.484 124.522C386.042 124.4 386.792 124.339 387.734 124.339H388.349V125.15H387.747C387.119 125.15 386.622 125.181 386.256 125.242C385.89 125.303 385.628 125.407 385.471 125.556C385.323 125.695 385.249 125.891 385.249 126.144C385.249 126.476 385.362 126.746 385.589 126.955C385.816 127.156 386.13 127.256 386.531 127.256C386.853 127.256 387.137 127.182 387.381 127.034C387.625 126.877 387.817 126.667 387.957 126.406C388.105 126.144 388.179 125.843 388.179 125.503V123.999C388.179 123.502 388.074 123.145 387.865 122.927C387.656 122.708 387.311 122.599 386.832 122.599C386.553 122.599 386.26 122.634 385.955 122.704C385.659 122.774 385.349 122.892 385.027 123.057C384.878 123.127 384.752 123.149 384.647 123.123C384.543 123.097 384.46 123.04 384.399 122.953C384.338 122.857 384.303 122.756 384.294 122.652C384.294 122.538 384.32 122.429 384.373 122.325C384.434 122.22 384.534 122.142 384.673 122.089C385.057 121.906 385.436 121.775 385.811 121.697C386.186 121.618 386.54 121.579 386.871 121.579C387.455 121.579 387.935 121.671 388.31 121.854C388.693 122.037 388.977 122.316 389.16 122.691C389.343 123.066 389.435 123.55 389.435 124.143V127.505C389.435 127.714 389.382 127.88 389.278 128.002C389.173 128.115 389.02 128.172 388.82 128.172C388.628 128.172 388.475 128.115 388.362 128.002C388.249 127.88 388.192 127.714 388.192 127.505V126.654H388.31C388.24 126.977 388.109 127.256 387.917 127.491C387.734 127.718 387.503 127.893 387.224 128.015C386.945 128.137 386.627 128.198 386.269 128.198ZM393.687 128.198C393.129 128.198 392.636 128.067 392.209 127.805C391.79 127.535 391.463 127.151 391.228 126.654C390.993 126.149 390.875 125.56 390.875 124.889C390.875 124.2 390.993 123.611 391.228 123.123C391.463 122.634 391.79 122.255 392.209 121.985C392.636 121.714 393.129 121.579 393.687 121.579C394.245 121.579 394.725 121.719 395.126 121.998C395.536 122.268 395.81 122.634 395.95 123.097H395.806V119.434C395.806 119.216 395.863 119.05 395.976 118.937C396.089 118.824 396.251 118.767 396.46 118.767C396.669 118.767 396.831 118.824 396.944 118.937C397.066 119.05 397.127 119.216 397.127 119.434V127.505C397.127 127.714 397.07 127.88 396.957 128.002C396.844 128.115 396.682 128.172 396.473 128.172C396.264 128.172 396.103 128.115 395.989 128.002C395.876 127.88 395.819 127.714 395.819 127.505V126.353L395.963 126.641C395.824 127.112 395.549 127.491 395.139 127.779C394.738 128.058 394.254 128.198 393.687 128.198ZM394.027 127.178C394.385 127.178 394.699 127.09 394.969 126.916C395.239 126.742 395.449 126.484 395.597 126.144C395.754 125.804 395.832 125.386 395.832 124.889C395.832 124.139 395.667 123.572 395.335 123.188C395.004 122.804 394.568 122.613 394.027 122.613C393.661 122.613 393.343 122.7 393.072 122.874C392.802 123.04 392.588 123.293 392.431 123.633C392.283 123.973 392.209 124.391 392.209 124.889C392.209 125.63 392.375 126.197 392.706 126.589C393.037 126.981 393.478 127.178 394.027 127.178ZM401.755 128.198C401.11 128.198 400.552 128.063 400.081 127.792C399.619 127.522 399.257 127.138 398.995 126.641C398.734 126.144 398.603 125.56 398.603 124.889C398.603 124.374 398.677 123.916 398.825 123.515C398.973 123.114 399.183 122.77 399.453 122.482C399.732 122.185 400.063 121.963 400.447 121.815C400.84 121.658 401.276 121.579 401.755 121.579C402.392 121.579 402.941 121.714 403.403 121.985C403.874 122.255 404.24 122.639 404.502 123.136C404.764 123.624 404.894 124.208 404.894 124.889C404.894 125.394 404.82 125.852 404.672 126.262C404.524 126.672 404.31 127.021 404.031 127.308C403.761 127.596 403.429 127.818 403.037 127.975C402.653 128.124 402.226 128.198 401.755 128.198ZM401.755 127.178C402.113 127.178 402.427 127.09 402.697 126.916C402.967 126.742 403.177 126.484 403.325 126.144C403.482 125.804 403.56 125.386 403.56 124.889C403.56 124.139 403.395 123.572 403.063 123.188C402.732 122.804 402.296 122.613 401.755 122.613C401.389 122.613 401.071 122.7 400.8 122.874C400.53 123.04 400.316 123.293 400.159 123.633C400.011 123.973 399.937 124.391 399.937 124.889C399.937 125.63 400.103 126.197 400.434 126.589C400.765 126.981 401.206 127.178 401.755 127.178ZM408.615 128.198C408.231 128.198 407.834 128.154 407.424 128.067C407.023 127.98 406.653 127.832 406.313 127.622C406.199 127.544 406.121 127.457 406.077 127.361C406.034 127.265 406.016 127.169 406.025 127.073C406.042 126.968 406.082 126.881 406.143 126.811C406.212 126.733 406.295 126.685 406.391 126.667C406.496 126.65 406.605 126.672 406.718 126.733C407.058 126.925 407.385 127.06 407.699 127.138C408.013 127.208 408.323 127.243 408.628 127.243C409.09 127.243 409.439 127.16 409.674 126.994C409.91 126.829 410.027 126.606 410.027 126.327C410.027 126.101 409.949 125.926 409.792 125.804C409.635 125.673 409.4 125.573 409.086 125.503L407.843 125.255C407.302 125.141 406.893 124.941 406.614 124.653C406.334 124.365 406.195 123.999 406.195 123.554C406.195 123.153 406.304 122.804 406.522 122.508C406.74 122.211 407.045 121.985 407.438 121.828C407.83 121.662 408.283 121.579 408.798 121.579C409.182 121.579 409.543 121.627 409.884 121.723C410.224 121.819 410.538 121.963 410.825 122.155C410.939 122.216 411.013 122.299 411.048 122.403C411.083 122.499 411.087 122.595 411.061 122.691C411.043 122.787 411 122.874 410.93 122.953C410.86 123.022 410.773 123.066 410.668 123.083C410.572 123.092 410.463 123.066 410.341 123.005C410.08 122.839 409.818 122.722 409.557 122.652C409.304 122.582 409.051 122.547 408.798 122.547C408.336 122.547 407.987 122.634 407.751 122.809C407.525 122.974 407.411 123.201 407.411 123.489C407.411 123.707 407.481 123.886 407.621 124.025C407.76 124.165 407.978 124.265 408.275 124.326L409.517 124.575C410.084 124.688 410.511 124.88 410.799 125.15C411.096 125.42 411.244 125.787 411.244 126.249C411.244 126.851 411.004 127.326 410.524 127.675C410.045 128.023 409.408 128.198 408.615 128.198Z" fill="#04D2A5"/>
<rect y="275" width="175.002" height="49.0957" rx="7.91866" fill="white" fill-opacity="0.93"/>
<rect x="9.50195" y="282.127" width="34.842" height="34.842" rx="17.421" fill="#04D2A5"/>
<path d="M26.1064 292.284V291.265L25.4184 292.017L24.9977 292.476C24.9192 292.552 24.8142 292.595 24.7048 292.595C24.593 292.595 24.4858 292.55 24.4068 292.471C24.3277 292.392 24.2833 292.285 24.2833 292.173C24.2833 292.062 24.3273 291.955 24.4057 291.876L26.2155 290.098C26.2528 290.063 26.2967 290.035 26.3446 290.016L26.3446 290.016L26.3519 290.013C26.4483 289.974 26.5564 289.974 26.6528 290.013L26.6528 290.013L26.6602 290.016C26.7076 290.035 26.7511 290.062 26.7882 290.097L28.598 291.907L28.5992 291.908C28.6363 291.945 28.6657 291.988 28.6858 292.037C28.7059 292.085 28.7163 292.137 28.7163 292.189C28.7163 292.241 28.7059 292.293 28.6858 292.341C28.6657 292.39 28.6363 292.433 28.5992 292.47L28.5963 292.473C28.5582 292.511 28.5126 292.542 28.4623 292.562C28.412 292.582 28.3581 292.592 28.3039 292.59C28.2497 292.589 28.1964 292.576 28.1472 292.553C28.0981 292.53 28.0542 292.498 28.0183 292.457L28.0115 292.449L28.0044 292.442L27.5768 292.007L26.8983 291.316V292.284V295.127C26.8983 295.232 26.8566 295.333 26.7823 295.407C26.7081 295.481 26.6074 295.523 26.5024 295.523C26.3974 295.523 26.2967 295.481 26.2224 295.407C26.1482 295.333 26.1064 295.232 26.1064 295.127V292.284ZM25.4025 298.232C25.7281 298.014 26.1108 297.898 26.5024 297.898C27.0274 297.898 27.531 298.107 27.9022 298.478C28.2735 298.849 28.482 299.353 28.482 299.878C28.482 300.27 28.3659 300.652 28.1484 300.978C27.9309 301.303 27.6217 301.557 27.26 301.707C26.8982 301.857 26.5002 301.896 26.1162 301.82C25.7321 301.743 25.3794 301.555 25.1025 301.278C24.8257 301.001 24.6371 300.648 24.5608 300.264C24.4844 299.88 24.5236 299.482 24.6734 299.12C24.8232 298.759 25.077 298.449 25.4025 298.232ZM25.8425 300.866C26.0378 300.996 26.2675 301.066 26.5024 301.066C26.8174 301.066 27.1195 300.941 27.3423 300.718C27.565 300.495 27.6902 300.193 27.6902 299.878C27.6902 299.643 27.6205 299.413 27.49 299.218C27.3595 299.023 27.174 298.871 26.9569 298.781C26.7399 298.691 26.5011 298.667 26.2707 298.713C26.0402 298.759 25.8286 298.872 25.6625 299.038C25.4964 299.204 25.3832 299.416 25.3374 299.646C25.2916 299.877 25.3151 300.116 25.405 300.333C25.4949 300.55 25.6471 300.735 25.8425 300.866ZM21.422 300.098C21.3785 300.033 21.3553 299.956 21.3553 299.878C21.3553 299.773 21.397 299.672 21.4712 299.598C21.5455 299.524 21.6462 299.482 21.7512 299.482C21.8295 299.482 21.906 299.505 21.9712 299.549C22.0363 299.592 22.087 299.654 22.117 299.726C22.147 299.799 22.1548 299.878 22.1395 299.955C22.1242 300.032 22.0865 300.103 22.0312 300.158C21.9758 300.213 21.9052 300.251 21.8284 300.266C21.7516 300.282 21.672 300.274 21.5997 300.244C21.5273 300.214 21.4655 300.163 21.422 300.098ZM31.5828 299.658C31.6263 299.723 31.6495 299.8 31.6495 299.878C31.6495 299.983 31.6078 300.084 31.5335 300.158C31.4593 300.232 31.3586 300.274 31.2536 300.274C31.1753 300.274 31.0987 300.251 31.0336 300.207C30.9685 300.164 30.9177 300.102 30.8878 300.03C30.8578 299.957 30.85 299.878 30.8652 299.801C30.8805 299.724 30.9182 299.653 30.9736 299.598C31.029 299.543 31.0995 299.505 31.1763 299.49C31.2531 299.474 31.3327 299.482 31.4051 299.512C31.4774 299.542 31.5393 299.593 31.5828 299.658ZM29.6698 294.731H32.8373C33.3623 294.731 33.8659 294.939 34.2371 295.311C34.6084 295.682 34.817 296.186 34.817 296.711V303.045C34.817 303.57 34.6084 304.074 34.2371 304.445C33.8659 304.817 33.3623 305.025 32.8373 305.025H20.1675C19.6424 305.025 19.1389 304.817 18.7676 304.445C18.3964 304.074 18.1878 303.57 18.1878 303.045V296.711C18.1878 296.186 18.3964 295.682 18.7676 295.311C19.1389 294.939 19.6424 294.731 20.1675 294.731H23.3349C23.4399 294.731 23.5406 294.773 23.6149 294.847C23.6891 294.921 23.7309 295.022 23.7309 295.127C23.7309 295.232 23.6891 295.333 23.6149 295.407C23.5406 295.481 23.4399 295.523 23.3349 295.523H20.1675C19.8524 295.523 19.5503 295.648 19.3276 295.871C19.1048 296.093 18.9797 296.396 18.9797 296.711V303.045C18.9797 303.36 19.1048 303.663 19.3276 303.885C19.5503 304.108 19.8524 304.233 20.1675 304.233H32.8373C33.1523 304.233 33.4544 304.108 33.6772 303.885C33.9 303.663 34.0251 303.36 34.0251 303.045V296.711C34.0251 296.396 33.9 296.093 33.6772 295.871C33.4544 295.648 33.1523 295.523 32.8373 295.523H29.6698C29.5648 295.523 29.4641 295.481 29.3899 295.407C29.3156 295.333 29.2739 295.232 29.2739 295.127C29.2739 295.022 29.3156 294.921 29.3899 294.847C29.4641 294.773 29.5648 294.731 29.6698 294.731Z" fill="black" stroke="white" stroke-width="0.791865"/>
<path d="M54.6978 304.089C54.4866 304.089 54.3219 304.03 54.2036 303.911C54.0938 303.793 54.0389 303.628 54.0389 303.417V295.739C54.0389 295.52 54.0981 295.355 54.2163 295.245C54.3346 295.127 54.4993 295.068 54.7104 295.068H57.7385C58.7014 295.068 59.4447 295.308 59.9684 295.79C60.4921 296.263 60.754 296.93 60.754 297.792C60.754 298.662 60.4921 299.337 59.9684 299.819C59.4447 300.292 58.7014 300.528 57.7385 300.528H55.3566V303.417C55.3566 303.628 55.3017 303.793 55.1919 303.911C55.0821 304.03 54.9174 304.089 54.6978 304.089ZM55.3566 299.477H57.5485C58.182 299.477 58.6592 299.337 58.9802 299.059C59.3096 298.772 59.4743 298.349 59.4743 297.792C59.4743 297.243 59.3096 296.829 58.9802 296.55C58.6592 296.263 58.182 296.119 57.5485 296.119H55.3566V299.477ZM63.6957 304.114C63.265 304.114 62.8764 304.03 62.5301 303.861C62.1922 303.692 61.9262 303.464 61.7319 303.176C61.5376 302.889 61.4405 302.564 61.4405 302.201C61.4405 301.745 61.5545 301.386 61.7826 301.124C62.0191 300.854 62.4034 300.664 62.9355 300.554C63.4761 300.436 64.2025 300.376 65.1148 300.376H65.7102V301.162H65.1274C64.5193 301.162 64.0378 301.192 63.6831 301.251C63.3283 301.31 63.0749 301.411 62.9229 301.555C62.7793 301.69 62.7075 301.88 62.7075 302.125C62.7075 302.446 62.8173 302.708 63.0369 302.91C63.2565 303.105 63.5606 303.202 63.9491 303.202C64.2617 303.202 64.5362 303.13 64.7727 302.986C65.0092 302.834 65.195 302.632 65.3301 302.378C65.4737 302.125 65.5455 301.833 65.5455 301.504V300.047C65.5455 299.566 65.4442 299.219 65.2415 299.008C65.0387 298.797 64.7051 298.691 64.2405 298.691C63.9703 298.691 63.6873 298.725 63.3917 298.793C63.1045 298.86 62.8046 298.974 62.4921 299.135C62.3485 299.202 62.226 299.223 62.1247 299.198C62.0233 299.173 61.9431 299.118 61.8839 299.033C61.8248 298.941 61.791 298.843 61.7826 298.742C61.7826 298.632 61.8079 298.527 61.8586 298.425C61.9177 298.324 62.0149 298.248 62.15 298.197C62.5217 298.02 62.8891 297.893 63.2523 297.817C63.6155 297.741 63.9576 297.703 64.2786 297.703C64.8445 297.703 65.309 297.792 65.6722 297.969C66.0439 298.147 66.3184 298.417 66.4958 298.78C66.6732 299.143 66.7618 299.612 66.7618 300.186V303.443C66.7618 303.645 66.7112 303.806 66.6098 303.924C66.5084 304.034 66.3606 304.089 66.1664 304.089C65.9805 304.089 65.8327 304.034 65.7229 303.924C65.6131 303.806 65.5582 303.645 65.5582 303.443V302.619H65.6722C65.6047 302.932 65.478 303.202 65.2921 303.43C65.1148 303.649 64.8909 303.818 64.6206 303.937C64.3503 304.055 64.042 304.114 63.6957 304.114ZM71.3244 306.395C70.8683 306.395 70.4248 306.348 69.994 306.255C69.5717 306.162 69.1874 306.01 68.8411 305.799C68.7144 305.732 68.6299 305.647 68.5877 305.546C68.5455 305.453 68.5328 305.356 68.5497 305.254C68.575 305.153 68.6215 305.064 68.689 304.988C68.7566 304.912 68.8369 304.862 68.9298 304.836C69.0311 304.811 69.1367 304.828 69.2465 304.887C69.6182 305.09 69.9687 305.225 70.2981 305.292C70.636 305.368 70.9485 305.406 71.2357 305.406C71.8269 305.406 72.2704 305.254 72.566 304.95C72.8617 304.655 73.0095 304.215 73.0095 303.633V302.34H73.1235C72.9968 302.805 72.7307 303.172 72.3253 303.443C71.9199 303.713 71.4511 303.848 70.9189 303.848C70.3615 303.848 69.8758 303.721 69.4619 303.468C69.048 303.206 68.7271 302.847 68.499 302.391C68.2709 301.926 68.1569 301.386 68.1569 300.769C68.1569 300.305 68.2203 299.887 68.347 299.515C68.4821 299.143 68.6679 298.822 68.9044 298.552C69.1494 298.282 69.4408 298.075 69.7787 297.931C70.125 297.779 70.5051 297.703 70.9189 297.703C71.4595 297.703 71.9283 297.838 72.3253 298.109C72.7307 298.379 72.9926 298.746 73.1108 299.211L72.9841 299.426V298.375C72.9841 298.163 73.039 298.003 73.1488 297.893C73.2671 297.783 73.4234 297.728 73.6176 297.728C73.8203 297.728 73.9766 297.783 74.0864 297.893C74.1962 298.003 74.2511 298.163 74.2511 298.375V303.481C74.2511 304.443 74.0019 305.17 73.5036 305.66C73.0052 306.15 72.2788 306.395 71.3244 306.395ZM71.223 302.847C71.5947 302.847 71.9114 302.763 72.1733 302.594C72.4351 302.425 72.6378 302.184 72.7814 301.871C72.925 301.559 72.9968 301.192 72.9968 300.769C72.9968 300.136 72.8363 299.633 72.5153 299.261C72.2028 298.89 71.772 298.704 71.223 298.704C70.8598 298.704 70.5473 298.788 70.2854 298.957C70.0236 299.126 69.8167 299.367 69.6646 299.68C69.521 299.984 69.4492 300.347 69.4492 300.769C69.4492 301.411 69.6097 301.918 69.9307 302.29C70.2517 302.661 70.6824 302.847 71.223 302.847ZM78.7331 304.114C78.108 304.114 77.5674 303.983 77.1113 303.721C76.6637 303.459 76.3131 303.088 76.0597 302.606C75.8063 302.125 75.6796 301.559 75.6796 300.909C75.6796 300.41 75.7514 299.967 75.895 299.578C76.0386 299.19 76.2413 298.856 76.5032 298.577C76.7735 298.29 77.0944 298.075 77.4661 297.931C77.8462 297.779 78.2685 297.703 78.7331 297.703C79.3497 297.703 79.8818 297.834 80.3295 298.096C80.7856 298.358 81.1404 298.729 81.3937 299.211C81.6471 299.684 81.7738 300.25 81.7738 300.909C81.7738 301.398 81.702 301.842 81.5585 302.239C81.4149 302.636 81.2079 302.974 80.9376 303.252C80.6758 303.531 80.3548 303.747 79.9747 303.899C79.6031 304.042 79.1892 304.114 78.7331 304.114ZM78.7331 303.126C79.0794 303.126 79.3835 303.041 79.6453 302.872C79.9072 302.703 80.1099 302.454 80.2535 302.125C80.4055 301.795 80.4815 301.39 80.4815 300.909C80.4815 300.182 80.321 299.633 80.0001 299.261C79.6791 298.89 79.2568 298.704 78.7331 298.704C78.3783 298.704 78.07 298.788 77.8082 298.957C77.5463 299.118 77.3394 299.363 77.1874 299.692C77.0438 300.022 76.972 300.427 76.972 300.909C76.972 301.627 77.1325 302.176 77.4534 302.556C77.7744 302.936 78.2009 303.126 78.7331 303.126ZM85.3775 304.114C85.0059 304.114 84.6216 304.072 84.2246 303.987C83.836 303.903 83.477 303.759 83.1476 303.557C83.0378 303.481 82.9618 303.396 82.9196 303.303C82.8773 303.21 82.8604 303.117 82.8689 303.024C82.8858 302.923 82.9238 302.839 82.9829 302.771C83.0505 302.695 83.1307 302.649 83.2237 302.632C83.325 302.615 83.4306 302.636 83.5404 302.695C83.8698 302.881 84.1866 303.012 84.4906 303.088C84.7947 303.155 85.0946 303.189 85.3902 303.189C85.8379 303.189 86.1757 303.109 86.4038 302.948C86.6318 302.788 86.7459 302.573 86.7459 302.302C86.7459 302.083 86.6699 301.914 86.5178 301.795C86.3658 301.669 86.1377 301.572 85.8336 301.504L84.63 301.263C84.1063 301.154 83.7093 300.959 83.439 300.68C83.1687 300.402 83.0336 300.047 83.0336 299.616C83.0336 299.228 83.1392 298.89 83.3504 298.603C83.5615 298.315 83.8571 298.096 84.2372 297.944C84.6173 297.783 85.0566 297.703 85.5549 297.703C85.9266 297.703 86.2771 297.75 86.6065 297.842C86.9359 297.935 87.24 298.075 87.5187 298.261C87.6285 298.32 87.7003 298.4 87.7341 298.501C87.7679 298.594 87.7721 298.687 87.7468 298.78C87.7299 298.873 87.6877 298.957 87.6201 299.033C87.5525 299.101 87.4681 299.143 87.3667 299.16C87.2738 299.169 87.1682 299.143 87.0499 299.084C86.7966 298.924 86.5432 298.81 86.2898 298.742C86.0448 298.674 85.7999 298.641 85.5549 298.641C85.1072 298.641 84.7694 298.725 84.5413 298.894C84.3217 299.055 84.2119 299.274 84.2119 299.553C84.2119 299.764 84.2795 299.937 84.4146 300.072C84.5498 300.207 84.7609 300.305 85.0481 300.364L86.2517 300.604C86.8008 300.714 87.2147 300.9 87.4934 301.162C87.7806 301.424 87.9242 301.779 87.9242 302.226C87.9242 302.809 87.6919 303.269 87.2273 303.607C86.7628 303.945 86.1462 304.114 85.3775 304.114ZM93.7022 304.089C93.4995 304.089 93.339 304.034 93.2208 303.924C93.111 303.806 93.0561 303.645 93.0561 303.443V298.805H92.3465C92.1861 298.805 92.0594 298.763 91.9664 298.679C91.8735 298.586 91.8271 298.463 91.8271 298.311C91.8271 298.151 91.8735 298.028 91.9664 297.944C92.0594 297.859 92.1861 297.817 92.3465 297.817H93.4235L93.0561 298.159V297.703C93.0561 296.867 93.263 296.238 93.6769 295.815C94.0908 295.384 94.6947 295.131 95.4887 295.055L95.8814 295.03C96.025 295.013 96.1391 295.034 96.2235 295.093C96.308 295.152 96.3629 295.228 96.3882 295.321C96.4136 295.414 96.4136 295.511 96.3882 295.613C96.3713 295.705 96.3291 295.79 96.2615 295.866C96.194 295.942 96.1095 295.984 96.0081 295.993L95.7674 296.005C95.2691 296.048 94.9059 296.191 94.6778 296.436C94.4497 296.673 94.3357 297.036 94.3357 297.526V298.02L94.1583 297.817H95.5647C95.7421 297.817 95.873 297.859 95.9575 297.944C96.0504 298.028 96.0968 298.151 96.0968 298.311C96.0968 298.463 96.0504 298.586 95.9575 298.679C95.873 298.763 95.7421 298.805 95.5647 298.805H94.3357V303.443C94.3357 303.873 94.1245 304.089 93.7022 304.089ZM99.0742 304.114C98.4154 304.114 97.9171 303.924 97.5792 303.544C97.2498 303.155 97.0851 302.598 97.0851 301.871V295.625C97.0851 295.414 97.14 295.254 97.2498 295.144C97.3596 295.034 97.5158 294.979 97.7186 294.979C97.9213 294.979 98.0775 295.034 98.1873 295.144C98.3056 295.254 98.3647 295.414 98.3647 295.625V301.795C98.3647 302.218 98.4492 302.535 98.6181 302.746C98.7955 302.948 99.0489 303.05 99.3783 303.05C99.4543 303.05 99.5219 303.05 99.581 303.05C99.6402 303.041 99.6993 303.033 99.7584 303.024C99.8598 303.016 99.9316 303.046 99.9738 303.113C100.016 303.172 100.037 303.299 100.037 303.493C100.037 303.671 99.9991 303.81 99.9231 303.911C99.8471 304.004 99.7246 304.063 99.5557 304.089C99.4797 304.097 99.3994 304.101 99.315 304.101C99.2305 304.11 99.1503 304.114 99.0742 304.114ZM103.818 304.114C103.142 304.114 102.559 303.987 102.07 303.734C101.588 303.472 101.212 303.105 100.942 302.632C100.68 302.15 100.549 301.58 100.549 300.921C100.549 300.279 100.68 299.718 100.942 299.236C101.204 298.755 101.563 298.379 102.019 298.109C102.475 297.838 102.994 297.703 103.577 297.703C104.008 297.703 104.392 297.775 104.73 297.918C105.068 298.054 105.355 298.256 105.592 298.527C105.837 298.788 106.018 299.109 106.137 299.49C106.263 299.87 106.327 300.296 106.327 300.769C106.327 300.913 106.284 301.023 106.2 301.099C106.115 301.166 105.989 301.2 105.82 301.2H101.563V300.414H105.465L105.25 300.592C105.25 300.169 105.186 299.81 105.06 299.515C104.941 299.219 104.76 298.995 104.515 298.843C104.278 298.683 103.983 298.603 103.628 298.603C103.231 298.603 102.893 298.696 102.614 298.881C102.344 299.067 102.137 299.325 101.994 299.654C101.85 299.984 101.778 300.368 101.778 300.807V300.883C101.778 301.627 101.951 302.188 102.298 302.568C102.652 302.94 103.163 303.126 103.831 303.126C104.084 303.126 104.35 303.092 104.629 303.024C104.916 302.957 105.186 302.843 105.44 302.682C105.583 302.598 105.71 302.56 105.82 302.568C105.938 302.577 106.031 302.615 106.099 302.682C106.175 302.75 106.221 302.834 106.238 302.936C106.255 303.037 106.238 303.143 106.187 303.252C106.137 303.354 106.048 303.447 105.921 303.531C105.634 303.725 105.3 303.873 104.92 303.975C104.54 304.068 104.173 304.114 103.818 304.114ZM107.888 304.076C107.736 304.076 107.609 304.034 107.508 303.949C107.415 303.856 107.364 303.742 107.355 303.607C107.355 303.472 107.415 303.324 107.533 303.164L109.674 300.49V301.124L107.672 298.628C107.537 298.476 107.474 298.332 107.482 298.197C107.491 298.054 107.546 297.94 107.647 297.855C107.748 297.771 107.871 297.728 108.014 297.728C108.175 297.728 108.306 297.758 108.407 297.817C108.517 297.868 108.618 297.956 108.711 298.083L110.396 300.224H109.94L111.638 298.083C111.731 297.956 111.828 297.868 111.929 297.817C112.039 297.758 112.17 297.728 112.322 297.728C112.474 297.728 112.597 297.775 112.689 297.868C112.791 297.952 112.842 298.066 112.842 298.21C112.85 298.345 112.791 298.489 112.664 298.641L110.662 301.099V300.528L112.804 303.164C112.93 303.316 112.989 303.464 112.981 303.607C112.981 303.742 112.93 303.856 112.829 303.949C112.727 304.034 112.601 304.076 112.449 304.076C112.297 304.076 112.166 304.046 112.056 303.987C111.955 303.928 111.853 303.84 111.752 303.721L109.94 301.441H110.371L108.572 303.721C108.479 303.831 108.378 303.92 108.268 303.987C108.166 304.046 108.04 304.076 107.888 304.076ZM115.074 304.076C114.871 304.076 114.715 304.017 114.605 303.899C114.495 303.772 114.44 303.599 114.44 303.379V298.438C114.44 298.218 114.495 298.049 114.605 297.931C114.715 297.813 114.871 297.754 115.074 297.754C115.276 297.754 115.433 297.813 115.542 297.931C115.661 298.049 115.72 298.218 115.72 298.438V303.379C115.72 303.599 115.665 303.772 115.555 303.899C115.445 304.017 115.285 304.076 115.074 304.076ZM115.074 296.436C114.82 296.436 114.622 296.373 114.478 296.246C114.343 296.119 114.275 295.942 114.275 295.714C114.275 295.477 114.343 295.3 114.478 295.182C114.622 295.055 114.82 294.992 115.074 294.992C115.327 294.992 115.521 295.055 115.657 295.182C115.8 295.3 115.872 295.477 115.872 295.714C115.872 295.942 115.8 296.119 115.657 296.246C115.521 296.373 115.327 296.436 115.074 296.436ZM120.841 304.114C120.3 304.114 119.831 303.979 119.434 303.709C119.037 303.43 118.771 303.062 118.636 302.606L118.775 302.378V303.443C118.775 303.645 118.72 303.806 118.611 303.924C118.501 304.034 118.349 304.089 118.155 304.089C117.952 304.089 117.796 304.034 117.686 303.924C117.576 303.806 117.521 303.645 117.521 303.443V295.625C117.521 295.414 117.576 295.254 117.686 295.144C117.796 295.034 117.952 294.979 118.155 294.979C118.357 294.979 118.514 295.034 118.623 295.144C118.742 295.254 118.801 295.414 118.801 295.625V299.173H118.649C118.784 298.725 119.05 298.37 119.447 298.109C119.844 297.838 120.308 297.703 120.841 297.703C121.398 297.703 121.879 297.834 122.285 298.096C122.69 298.358 123.003 298.725 123.222 299.198C123.451 299.671 123.565 300.241 123.565 300.909C123.565 301.559 123.451 302.129 123.222 302.619C123.003 303.1 122.686 303.472 122.272 303.734C121.867 303.987 121.39 304.114 120.841 304.114ZM120.524 303.126C120.879 303.126 121.187 303.041 121.449 302.872C121.711 302.703 121.913 302.454 122.057 302.125C122.2 301.795 122.272 301.39 122.272 300.909C122.272 300.182 122.112 299.633 121.791 299.261C121.478 298.89 121.056 298.704 120.524 298.704C120.178 298.704 119.869 298.788 119.599 298.957C119.337 299.118 119.134 299.363 118.991 299.692C118.847 300.022 118.775 300.427 118.775 300.909C118.775 301.627 118.936 302.176 119.257 302.556C119.578 302.936 120 303.126 120.524 303.126ZM126.996 304.114C126.337 304.114 125.839 303.924 125.501 303.544C125.171 303.155 125.007 302.598 125.007 301.871V295.625C125.007 295.414 125.062 295.254 125.171 295.144C125.281 295.034 125.437 294.979 125.64 294.979C125.843 294.979 125.999 295.034 126.109 295.144C126.227 295.254 126.286 295.414 126.286 295.625V301.795C126.286 302.218 126.371 302.535 126.54 302.746C126.717 302.948 126.97 303.05 127.3 303.05C127.376 303.05 127.444 303.05 127.503 303.05C127.562 303.041 127.621 303.033 127.68 303.024C127.781 303.016 127.853 303.046 127.895 303.113C127.938 303.172 127.959 303.299 127.959 303.493C127.959 303.671 127.921 303.81 127.845 303.911C127.769 304.004 127.646 304.063 127.477 304.089C127.401 304.097 127.321 304.101 127.237 304.101C127.152 304.11 127.072 304.114 126.996 304.114ZM131.719 304.114C131.043 304.114 130.46 303.987 129.97 303.734C129.489 303.472 129.113 303.105 128.843 302.632C128.581 302.15 128.45 301.58 128.45 300.921C128.45 300.279 128.581 299.718 128.843 299.236C129.105 298.755 129.464 298.379 129.92 298.109C130.376 297.838 130.895 297.703 131.478 297.703C131.909 297.703 132.293 297.775 132.631 297.918C132.969 298.054 133.256 298.256 133.493 298.527C133.738 298.788 133.919 299.109 134.038 299.49C134.164 299.87 134.228 300.296 134.228 300.769C134.228 300.913 134.185 301.023 134.101 301.099C134.016 301.166 133.89 301.2 133.721 301.2H129.464V300.414H133.366L133.151 300.592C133.151 300.169 133.087 299.81 132.961 299.515C132.842 299.219 132.661 298.995 132.416 298.843C132.179 298.683 131.884 298.603 131.529 298.603C131.132 298.603 130.794 298.696 130.515 298.881C130.245 299.067 130.038 299.325 129.894 299.654C129.751 299.984 129.679 300.368 129.679 300.807V300.883C129.679 301.627 129.852 302.188 130.199 302.568C130.553 302.94 131.064 303.126 131.732 303.126C131.985 303.126 132.251 303.092 132.53 303.024C132.817 302.957 133.087 302.843 133.341 302.682C133.484 302.598 133.611 302.56 133.721 302.568C133.839 302.577 133.932 302.615 133.999 302.682C134.076 302.75 134.122 302.834 134.139 302.936C134.156 303.037 134.139 303.143 134.088 303.252C134.038 303.354 133.949 303.447 133.822 303.531C133.535 303.725 133.201 303.873 132.821 303.975C132.441 304.068 132.074 304.114 131.719 304.114ZM137.789 304.114C137.418 304.114 137.033 304.072 136.636 303.987C136.248 303.903 135.889 303.759 135.559 303.557C135.449 303.481 135.373 303.396 135.331 303.303C135.289 303.21 135.272 303.117 135.281 303.024C135.297 302.923 135.335 302.839 135.395 302.771C135.462 302.695 135.542 302.649 135.635 302.632C135.737 302.615 135.842 302.636 135.952 302.695C136.281 302.881 136.598 303.012 136.902 303.088C137.206 303.155 137.506 303.189 137.802 303.189C138.25 303.189 138.587 303.109 138.815 302.948C139.043 302.788 139.158 302.573 139.158 302.302C139.158 302.083 139.081 301.914 138.929 301.795C138.777 301.669 138.549 301.572 138.245 301.504L137.042 301.263C136.518 301.154 136.121 300.959 135.851 300.68C135.58 300.402 135.445 300.047 135.445 299.616C135.445 299.228 135.551 298.89 135.762 298.603C135.973 298.315 136.269 298.096 136.649 297.944C137.029 297.783 137.468 297.703 137.967 297.703C138.338 297.703 138.689 297.75 139.018 297.842C139.348 297.935 139.652 298.075 139.93 298.261C140.04 298.32 140.112 298.4 140.146 298.501C140.18 298.594 140.184 298.687 140.158 298.78C140.142 298.873 140.099 298.957 140.032 299.033C139.964 299.101 139.88 299.143 139.778 299.16C139.685 299.169 139.58 299.143 139.462 299.084C139.208 298.924 138.955 298.81 138.701 298.742C138.456 298.674 138.212 298.641 137.967 298.641C137.519 298.641 137.181 298.725 136.953 298.894C136.733 299.055 136.624 299.274 136.624 299.553C136.624 299.764 136.691 299.937 136.826 300.072C136.961 300.207 137.173 300.305 137.46 300.364L138.663 300.604C139.212 300.714 139.626 300.9 139.905 301.162C140.192 301.424 140.336 301.779 140.336 302.226C140.336 302.809 140.104 303.269 139.639 303.607C139.174 303.945 138.558 304.114 137.789 304.114Z" fill="#04D2A5"/>
<defs>
<clipPath id="clip0_1030_5360">
<rect width="18.8959" height="18.8959" fill="white" transform="translate(18.3213 14.959)"/>
</clipPath>
</defs>
</svg>
