<svg width="36" height="35" viewBox="0 0 36 35" fill="none" xmlns="http://www.w3.org/2000/svg">
<rect x="0.501953" y="0.126709" width="34.842" height="34.842" rx="17.421" fill="#04D2A5"/>
<path d="M17.5273 12.3296V11.3106L16.8393 12.0623L16.4186 12.522C16.3401 12.5978 16.2351 12.6403 16.1257 12.6403C16.0139 12.6403 15.9067 12.5959 15.8277 12.5168C15.7486 12.4378 15.7042 12.3306 15.7042 12.2187C15.7042 12.1074 15.7482 12.0007 15.8266 11.9217L17.6364 10.1435C17.6737 10.1082 17.7176 10.0804 17.7655 10.0619L17.7655 10.0619L17.7728 10.0589C17.8692 10.0193 17.9773 10.0193 18.0737 10.0589L18.0737 10.059L18.0811 10.0619C18.1285 10.0803 18.172 10.1077 18.2091 10.1425L20.0189 11.9523L20.0201 11.9535C20.0572 11.9903 20.0866 12.0341 20.1067 12.0823C20.1268 12.1306 20.1372 12.1823 20.1372 12.2346C20.1372 12.2869 20.1268 12.3386 20.1067 12.3869C20.0866 12.4351 20.0572 12.4789 20.0201 12.5157L20.0172 12.5185C19.9791 12.5571 19.9335 12.5874 19.8832 12.6076C19.8329 12.6278 19.779 12.6375 19.7248 12.636C19.6706 12.6345 19.6173 12.6219 19.5681 12.599C19.519 12.576 19.4751 12.5433 19.4392 12.5027L19.4324 12.495L19.4253 12.4877L18.9977 12.0522L18.3192 11.3612V12.3296V15.1724C18.3192 15.2774 18.2775 15.3781 18.2032 15.4524C18.129 15.5266 18.0283 15.5683 17.9233 15.5683C17.8183 15.5683 17.7176 15.5266 17.6433 15.4524C17.5691 15.3781 17.5273 15.2774 17.5273 15.1724V12.3296ZM16.8234 18.2776C17.149 18.06 17.5317 17.9439 17.9233 17.9439C18.4483 17.9439 18.9519 18.1525 19.3231 18.5238C19.6944 18.895 19.9029 19.3986 19.9029 19.9236C19.9029 20.3151 19.7868 20.6979 19.5693 21.0234C19.3518 21.349 19.0426 21.6027 18.6809 21.7526C18.3191 21.9024 17.9211 21.9416 17.5371 21.8652C17.153 21.7888 16.8003 21.6003 16.5234 21.3234C16.2466 21.0466 16.058 20.6938 15.9817 20.3098C15.9053 19.9258 15.9445 19.5277 16.0943 19.166C16.2441 18.8043 16.4979 18.4951 16.8234 18.2776ZM17.2634 20.9112C17.4587 21.0417 17.6884 21.1114 17.9233 21.1114C18.2383 21.1114 18.5404 20.9862 18.7632 20.7635C18.9859 20.5407 19.1111 20.2386 19.1111 19.9236C19.1111 19.6887 19.0414 19.459 18.9109 19.2637C18.7804 19.0684 18.5949 18.9161 18.3778 18.8262C18.1608 18.7363 17.922 18.7128 17.6916 18.7586C17.4611 18.8044 17.2495 18.9176 17.0834 19.0837C16.9173 19.2498 16.8041 19.4615 16.7583 19.6919C16.7125 19.9223 16.736 20.1611 16.8259 20.3781C16.9158 20.5952 17.068 20.7807 17.2634 20.9112ZM12.8429 20.1436C12.7994 20.0784 12.7762 20.0019 12.7762 19.9236C12.7762 19.8186 12.8179 19.7179 12.8921 19.6436C12.9664 19.5694 13.0671 19.5277 13.1721 19.5277C13.2504 19.5277 13.3269 19.5509 13.3921 19.5944C13.4572 19.6379 13.5079 19.6997 13.5379 19.7721C13.5679 19.8444 13.5757 19.924 13.5604 20.0008C13.5451 20.0776 13.5074 20.1482 13.4521 20.2036C13.3967 20.2589 13.3261 20.2966 13.2493 20.3119C13.1725 20.3272 13.0929 20.3194 13.0206 20.2894C12.9482 20.2594 12.8864 20.2087 12.8429 20.1436ZM23.0037 19.7036C23.0472 19.7687 23.0704 19.8453 23.0704 19.9236C23.0704 20.0286 23.0287 20.1293 22.9544 20.2036C22.8802 20.2778 22.7795 20.3195 22.6745 20.3195C22.5962 20.3195 22.5196 20.2963 22.4545 20.2528C22.3894 20.2093 22.3386 20.1475 22.3087 20.0751C22.2787 20.0028 22.2709 19.9232 22.2861 19.8463C22.3014 19.7695 22.3391 19.699 22.3945 19.6436C22.4499 19.5883 22.5204 19.5505 22.5972 19.5353C22.674 19.52 22.7536 19.5278 22.826 19.5578C22.8983 19.5878 22.9602 19.6385 23.0037 19.7036ZM21.0907 14.7765H24.2582C24.7832 14.7765 25.2868 14.985 25.658 15.3563C26.0293 15.7276 26.2379 16.2311 26.2379 16.7561V23.091C26.2379 23.6161 26.0293 24.1196 25.658 24.4909C25.2868 24.8621 24.7832 25.0707 24.2582 25.0707H11.5884C11.0633 25.0707 10.5598 24.8621 10.1885 24.4909C9.81727 24.1196 9.6087 23.6161 9.6087 23.091V16.7561C9.6087 16.2311 9.81727 15.7276 10.1885 15.3563C10.5598 14.985 11.0633 14.7765 11.5884 14.7765H14.7558C14.8608 14.7765 14.9615 14.8182 15.0358 14.8924C15.11 14.9667 15.1518 15.0674 15.1518 15.1724C15.1518 15.2774 15.11 15.3781 15.0358 15.4524C14.9615 15.5266 14.8608 15.5683 14.7558 15.5683H11.5884C11.2733 15.5683 10.9712 15.6935 10.7485 15.9162C10.5257 16.139 10.4006 16.4411 10.4006 16.7561V23.091C10.4006 23.4061 10.5257 23.7082 10.7485 23.9309C10.9712 24.1537 11.2733 24.2788 11.5884 24.2788H24.2582C24.5732 24.2788 24.8753 24.1537 25.0981 23.9309C25.3208 23.7082 25.446 23.4061 25.446 23.091V16.7561C25.446 16.4411 25.3208 16.139 25.0981 15.9162C24.8753 15.6935 24.5732 15.5683 24.2582 15.5683H21.0907C20.9857 15.5683 20.885 15.5266 20.8108 15.4524C20.7365 15.3781 20.6948 15.2774 20.6948 15.1724C20.6948 15.0674 20.7365 14.9667 20.8108 14.8924C20.885 14.8182 20.9857 14.7765 21.0907 14.7765Z" fill="black" stroke="white" stroke-width="0.791865"/>
</svg>
