<svg width="331" height="167" viewBox="0 0 331 167" fill="none" xmlns="http://www.w3.org/2000/svg">
<g clip-path="url(#clip0_2860_5998)">
<path d="M35.0916 21.0448C35.0916 21.1131 35.1139 21.1517 35.1525 21.1517C35.1838 21.1475 35.2134 21.1352 35.2386 21.1161L46.3438 13.9096C46.5314 13.7782 46.7562 13.7105 46.9852 13.7166H49.4259C49.8001 13.7166 50.0525 13.966 50.0525 14.3401V19.0005C50.0525 19.5646 49.9277 19.8913 49.4289 20.1897L46.4685 21.9713C46.4391 21.9917 46.4047 22.004 46.369 22.0069C46.3334 22.0069 46.2978 21.9787 46.2978 21.8762V16.4379C46.2978 16.3741 46.2799 16.3325 46.2369 16.3325C46.2054 16.336 46.1755 16.3484 46.1508 16.3682L38.0357 21.6402C37.8519 21.7652 37.6343 21.831 37.4121 21.8287H32.0317C31.6546 21.8287 31.4052 21.5793 31.4052 21.2022V14.4856C31.4052 14.4366 31.3829 14.3906 31.3399 14.3906C31.309 14.3948 31.2798 14.4071 31.2553 14.4262L25.9001 17.6375C25.8467 17.6732 25.8318 17.6984 25.8318 17.7237C25.8318 17.7444 25.8437 17.7667 25.8793 17.8053L29.7053 21.6283C29.7558 21.6788 29.7914 21.7174 29.7914 21.7604C29.7914 21.7961 29.7335 21.8243 29.6667 21.8243H26.2089C25.9372 21.8243 25.7279 21.7857 25.5809 21.6387L23.2619 19.3226C23.2531 19.3121 23.2422 19.3035 23.23 19.2974C23.2177 19.2912 23.2043 19.2877 23.1906 19.287C23.1654 19.2884 23.1409 19.2961 23.1194 19.3093L19.2444 21.6402C19.0591 21.7646 18.8395 21.828 18.6164 21.8213H15.0518C14.6702 21.8243 14.4208 21.5719 14.4208 21.1992V16.6265C14.4208 16.0623 14.5455 15.7357 15.0473 15.4388L18.0285 13.6468C18.0516 13.6321 18.0783 13.6239 18.1057 13.623C18.1532 13.623 18.1769 13.6676 18.1769 13.7715V19.8942C18.1769 19.9581 18.1918 19.9878 18.2378 19.9878C18.2698 19.9828 18.3003 19.9706 18.3269 19.9521L28.3869 13.8962C28.5819 13.7649 28.8143 13.7004 29.0491 13.7121H34.4651C34.8392 13.7121 35.0916 13.9615 35.0916 14.3357L35.0886 21.0433L35.0916 21.0448Z" fill="black"/>
</g>
<g clip-path="url(#clip1_2860_5998)">
<path d="M115.753 14.0646L105.73 14.0661C105.474 14.0661 105.308 13.9905 105.308 13.6385V12.1505C105.308 11.7215 105.077 11.4949 104.658 11.4949H93.1815C92.7525 11.4949 92.5316 11.7372 92.5316 12.1462V13.6342C92.5316 13.9478 92.3834 14.0618 92.1083 14.0618L85.5393 14.0632C85.0361 14.0632 84.7425 14.3026 84.5915 14.6176L81.3917 20.8689C81.3504 20.9487 81.3262 21.0413 81.3262 21.1354C81.3262 21.382 81.4872 21.7026 81.9362 21.7026L92.1069 21.7012C92.4205 21.7012 92.5302 21.8437 92.5302 22.1288V23.6153C92.5302 24.0643 92.7896 24.2667 93.1815 24.2667H104.656C105.047 24.2667 105.308 24.0771 105.308 23.6196L105.306 22.1331C105.306 21.8295 105.435 21.7055 105.728 21.7055L112.108 21.7041C112.547 21.7041 112.863 21.5886 113.084 21.1796L116.247 15.001C116.316 14.8671 116.362 14.7915 116.362 14.6333C116.362 14.2114 116 14.0646 115.753 14.0646ZM113.226 16.5546L111.701 19.5377C111.606 19.7115 111.436 19.7172 111.317 19.7172H103.751C103.438 19.7172 103.324 19.8583 103.324 20.1434V21.8594C103.324 22.143 103.198 22.2813 102.893 22.2813H94.9446C94.6781 22.2813 94.5156 22.1872 94.5156 21.8551V20.1405C94.5156 19.827 94.3716 19.7158 94.0866 19.7158H84.8095C84.5815 19.7158 84.4247 19.5733 84.4247 19.3737C84.4247 19.3153 84.439 19.2626 84.4646 19.2127L85.9896 16.231C86.0481 16.127 86.1436 16.0515 86.373 16.0515L94.0866 16.0529C94.3531 16.0529 94.5184 15.946 94.5184 15.6224V13.9064C94.5184 13.6028 94.651 13.4817 94.9446 13.4817L102.892 13.4803C103.177 13.4803 103.319 13.6071 103.319 13.9107V15.6253C103.319 15.9203 103.456 16.05 103.751 16.05H112.88C113.171 16.05 113.266 16.241 113.266 16.3935C113.266 16.4491 113.252 16.5047 113.226 16.5546Z" fill="black"/>
</g>
<g clip-path="url(#clip2_2860_5998)">
<path d="M165.555 11.1555C155.797 11.1555 147.958 14.0883 147.958 17.7611C147.958 21.4065 155.852 24.3666 165.555 24.3666C175.258 24.3666 183.152 21.4065 183.152 17.7611C183.179 14.1431 175.258 11.1555 165.555 11.1555ZM165.555 23.7911C156.236 23.7911 148.699 21.105 148.699 17.7611C148.699 14.4446 156.263 11.7311 165.555 11.7311C174.874 11.7311 182.412 14.4172 182.412 17.7611C182.439 21.105 174.874 23.7911 165.555 23.7911ZM172.49 19.1041C172.49 19.1315 172.49 19.1589 172.49 19.1589C172.49 19.1863 172.544 19.2138 172.572 19.2412C172.572 19.2412 172.599 19.2686 172.572 19.296C172.462 19.5427 172.352 19.6797 172.215 19.8716C172.078 20.0634 171.941 20.2005 171.777 20.3375C171.53 20.5568 171.146 20.7761 170.845 20.639C170.708 20.5568 170.653 20.3923 170.653 20.2279C170.653 19.8168 170.845 19.3782 171.201 18.9397C171.612 18.4189 172.106 18.1448 172.407 18.3093C172.736 18.4463 172.654 18.83 172.49 19.1041ZM163.773 16.3632C163.746 16.1988 163.801 16.0069 163.965 15.8699C164.048 15.7876 164.157 15.7876 164.239 15.8425C164.322 15.8973 164.267 16.0617 164.212 16.1988C164.13 16.3358 163.993 16.4455 163.856 16.4455C163.801 16.418 163.773 16.418 163.773 16.3632ZM165.555 12.2519C156.565 12.2519 149.274 14.7461 149.274 17.7885C149.274 20.8035 156.565 23.2977 165.555 23.2977C174.545 23.2977 181.836 20.8035 181.836 17.7611C181.836 14.7187 174.545 12.2519 165.555 12.2519ZM157.195 21.4065C156.236 21.4065 155.386 20.8309 155.277 19.7893C155.222 19.2138 155.386 18.7204 155.715 18.2819C155.989 17.8981 156.483 17.5966 156.894 17.5144C157.031 17.487 157.195 17.5144 157.278 17.5966C157.387 17.7337 157.36 17.8707 157.25 17.9529C156.949 18.1174 156.565 18.3915 156.373 18.7478C156.209 19.0493 156.181 19.433 156.428 19.7619C156.812 20.3375 157.881 20.3649 158.895 19.433C159.141 19.2138 159.361 18.9945 159.58 18.7204C160.018 18.227 160.155 18.0352 160.758 17.2129V17.1855C160.758 17.1855 160.758 17.1855 160.731 17.1581C160.347 17.1581 159.991 17.2951 159.662 17.5418C159.58 17.624 159.443 17.5966 159.361 17.5144C159.306 17.4048 159.333 17.2677 159.443 17.2129C159.964 16.8292 160.567 16.7744 161.142 16.6647C161.142 16.6647 161.197 16.6647 161.224 16.6099C161.471 16.3084 161.663 16.0069 161.91 15.7054C162.184 15.3765 162.513 15.1024 162.759 14.8557C163.116 14.5542 163.362 14.4446 163.582 14.3076C163.636 14.2801 163.582 14.2253 163.554 14.2253C162.239 13.9786 160.868 13.6497 159.58 14.1431C158.675 14.472 158.292 15.1846 158.484 15.678C158.621 16.0069 159.059 16.0617 159.498 15.8699C159.854 15.7054 160.155 15.4313 160.402 15.075C160.539 14.8831 160.786 15.0202 160.649 15.3491C160.265 16.2536 159.525 16.9662 158.648 16.9936C157.881 17.021 157.415 16.4729 157.415 15.7876C157.415 14.4446 158.922 13.5401 160.512 13.4031C162.43 13.2386 164.239 13.7594 166.131 13.9786C167.583 14.1431 168.981 14.1705 170.434 13.8142C170.598 13.7868 170.735 13.8964 170.708 14.0609C170.681 14.3075 170.489 14.5542 170.023 14.8283C169.475 15.1298 168.899 15.212 168.296 15.212C166.843 15.212 165.5 14.6639 164.102 14.3624C164.102 14.4172 164.13 14.4994 164.075 14.5268C163.308 15.1024 162.595 15.678 162.129 16.4729C162.102 16.5003 162.129 16.5003 162.156 16.5003C162.567 16.4729 162.924 16.4729 163.308 16.4455C163.362 16.4455 163.362 16.418 163.362 16.3632C163.335 16.0891 163.417 15.7602 163.664 15.541C163.911 15.3217 164.239 15.2943 164.431 15.4587C164.678 15.6506 164.651 15.9795 164.514 16.2262C164.376 16.4729 164.157 16.6099 163.965 16.6921C163.965 16.6921 163.911 16.6921 163.938 16.7469C163.938 16.8018 164.239 16.9662 164.267 17.021C164.294 17.0484 164.267 17.1307 164.239 17.1581C164.212 17.1855 164.157 17.2129 164.102 17.2129C164.048 17.2129 164.02 17.1855 163.965 17.1581C163.828 17.0759 163.664 16.9662 163.582 16.8292C163.554 16.7744 163.527 16.7744 163.445 16.7744C163.033 16.8018 162.403 16.8566 161.964 16.9114C161.855 16.9114 161.855 16.9388 161.827 16.9936C161.142 18.1174 160.402 19.3508 159.58 20.1731C158.703 21.1598 157.963 21.4065 157.195 21.4065ZM175.916 15.8699C175.779 16.0891 173.202 20.036 173.038 20.4198C172.983 20.5568 172.983 20.639 173.038 20.7213C173.175 20.9131 173.476 20.8035 173.668 20.6664C174.216 20.2827 174.6 19.8168 175.039 19.4056C175.066 19.3782 175.093 19.3782 175.121 19.4056C175.176 19.4604 175.285 19.5427 175.34 19.5975C175.367 19.6249 175.367 19.6523 175.34 19.6797C174.929 20.2005 174.463 20.6664 174.024 21.0227C173.339 21.5435 172.654 21.6806 172.298 21.3517C172.161 21.2146 172.106 21.0502 172.106 20.8857C172.106 20.8035 172.051 20.8035 172.024 20.8309C171.612 21.242 170.9 21.6806 170.269 21.3517C169.721 21.0776 169.612 20.4472 169.721 19.899C169.721 19.899 169.721 19.8168 169.639 19.8442C169.529 19.9264 169.392 20.0086 169.2 20.0908C168.981 20.1731 168.872 20.2005 168.652 20.2005C168.378 20.2005 168.159 20.0908 167.994 19.8168C167.912 19.6797 167.857 19.4604 167.857 19.296C167.857 19.2686 167.83 19.2412 167.803 19.296C167.364 19.9538 166.953 20.6116 166.514 21.2968C166.487 21.3242 166.46 21.3517 166.432 21.3517C166.158 21.3517 165.857 21.3517 165.582 21.3517C165.528 21.3517 165.5 21.3242 165.528 21.2694C165.692 20.9679 166.514 19.7619 167.09 18.7204C167.254 18.4463 167.227 18.2819 167.117 18.227C167.008 18.1448 166.761 18.2544 166.542 18.4189C165.994 18.83 165.528 19.4878 165.281 19.7893C165.144 19.9538 165.007 20.2279 164.651 20.6116C164.075 21.242 163.308 21.5983 162.595 21.3517C162.184 21.2146 161.91 20.8857 161.8 20.502C161.773 20.4198 161.745 20.3923 161.69 20.4472C161.581 20.5842 161.334 20.8035 161.115 20.9405C161.087 20.9679 161.033 20.9953 160.978 20.9679C160.923 20.9405 160.786 20.7487 160.758 20.6664C160.731 20.6116 160.758 20.5842 160.786 20.5568C161.087 20.3101 161.224 20.1457 161.361 20.0086C161.444 19.899 161.526 19.7619 161.608 19.5427C161.773 19.1041 162.184 18.2819 162.979 17.8433C163.28 17.6789 163.582 17.5692 163.938 17.5144C164.075 17.487 164.212 17.5144 164.239 17.624C164.267 17.6789 164.294 17.7885 164.322 17.8433C164.349 17.8981 164.322 17.9255 164.267 17.9529C163.801 18.1448 163.335 18.4189 163.006 18.8574C162.622 19.3508 162.54 19.9538 162.787 20.2827C162.979 20.5294 163.253 20.5842 163.554 20.4746C163.993 20.3375 164.349 19.9538 164.541 19.4878C164.733 18.9945 164.788 18.4463 164.623 17.9255C164.596 17.8433 164.623 17.7611 164.678 17.7337C164.788 17.6514 164.952 17.5692 164.979 17.5418C165.089 17.487 165.199 17.5144 165.254 17.5966C165.418 17.8159 165.5 18.1448 165.5 18.5011C165.5 18.5834 165.528 18.5834 165.582 18.5285C165.857 18.227 166.131 17.9255 166.405 17.6789C166.679 17.4596 167.035 17.2951 167.337 17.2951C167.748 17.2951 167.967 17.5966 167.94 18.09C167.94 18.1448 167.994 18.1448 168.022 18.1174C168.159 17.9255 168.241 17.8433 168.378 17.7337C168.68 17.487 168.954 17.3774 169.283 17.4048C169.666 17.4322 169.968 17.7885 169.913 18.1722C169.886 18.4189 169.721 18.6656 169.502 18.7752C169.31 18.8848 169.063 18.8574 168.899 18.7204C168.762 18.6108 168.735 18.4189 168.762 18.2544C168.762 18.227 168.735 18.1722 168.68 18.227C168.296 18.6108 168.269 19.1041 168.515 19.3508C168.789 19.5975 169.173 19.433 169.475 19.2412C170.023 18.8848 170.434 18.4189 170.9 18.0352C171.229 17.7885 171.585 17.5692 171.996 17.5144C172.215 17.487 172.435 17.487 172.654 17.5966C172.955 17.7063 173.12 17.9529 173.147 18.1722C173.147 18.227 173.202 18.2544 173.23 18.1996C173.449 17.8433 174.71 15.9795 174.819 15.7876C174.847 15.7328 174.874 15.7054 174.956 15.7054C175.23 15.7054 175.587 15.7054 175.833 15.7054C175.916 15.815 175.916 15.8425 175.916 15.8699Z" fill="black"/>
</g>
<g clip-path="url(#clip3_2860_5998)">
<path d="M232.13 19.1163C232.076 19.1163 231.974 19.048 231.8 18.7302C231.073 17.3767 230.075 16.1875 228.868 15.2369C227.921 14.4939 226.869 13.8946 225.747 13.4582C225.577 13.3892 225.406 13.3219 225.235 13.2563C223.733 12.6625 222.175 12.0493 220.729 11.212C220.569 11.1212 220.41 11.0272 220.254 10.9299C220.542 10.4251 220.878 9.94258 221.249 9.50164C221.787 8.85782 222.414 8.29261 223.109 7.8225C223.856 7.32327 224.663 6.92116 225.511 6.62587C227.32 5.98153 229.486 5.6653 232.13 5.66233C234.777 5.6653 236.942 5.98153 238.75 6.62735C239.599 6.92162 240.407 7.32327 241.154 7.8225C241.849 8.29254 242.475 8.85719 243.014 9.50016C243.385 9.94258 243.719 10.4251 244.008 10.9299C243.856 11.0249 243.694 11.1214 243.533 11.2149C242.084 12.0523 240.53 12.6654 239.025 13.2578L238.512 13.4597C237.391 13.8965 236.341 14.4958 235.395 15.2383C234.187 16.189 233.189 17.3788 232.462 18.7332C232.289 19.0494 232.185 19.1163 232.13 19.1163ZM232.13 29.6172C229.837 29.6142 227.976 29.4257 226.444 29.0426C224.94 28.6685 223.69 28.0925 222.619 27.2789C221.799 26.6488 221.098 25.8757 220.552 24.997C220.041 24.1771 219.637 23.2949 219.35 22.3721C218.902 20.9379 218.669 19.4457 218.657 17.9434C218.657 16.9427 218.726 15.994 218.857 15.1211C220.499 16.0059 222.053 16.4498 223.43 16.8432L223.749 16.9323C225.664 17.4831 227.184 18.2047 228.403 19.1415C229.109 19.6878 229.725 20.3188 230.229 21.0181C230.777 21.7723 231.214 22.6334 231.531 23.5791C231.674 24.0082 231.828 24.2739 232.13 24.2739C232.437 24.2739 232.587 24.0067 232.731 23.5791C233.298 21.8164 234.389 20.2687 235.859 19.143C237.077 18.2047 238.598 17.4831 240.514 16.9323L240.834 16.8432C242.209 16.4498 243.764 16.0059 245.404 15.1211C245.538 15.9955 245.606 16.9427 245.606 17.9419C245.606 18.6219 245.538 20.4124 244.916 22.3721C244.629 23.2947 244.225 24.1768 243.715 24.997C243.167 25.8763 242.465 26.6494 241.642 27.2789C240.569 28.0925 239.318 28.6685 237.82 29.0426C236.284 29.4257 234.424 29.6142 232.13 29.6172ZM246.519 8.00659C243.685 4.96306 239.111 3.56748 232.13 3.56006C225.152 3.56748 220.578 4.96157 217.743 8.00511C215.637 10.2633 214.315 13.3885 214.315 17.6286C214.315 19.9729 214.894 25.9427 219.607 29.0248C222.428 30.8688 226.071 32.0624 232.13 32.0713C238.192 32.0624 241.833 30.8688 244.656 29.0248C249.367 25.9427 249.947 19.9714 249.947 17.6286C249.947 13.4003 248.615 10.2529 246.518 8.00362L246.519 8.00659Z" fill="black"/>
</g>
<g clip-path="url(#clip4_2860_5998)">
<path fill-rule="evenodd" clip-rule="evenodd" d="M287.172 12.2483C283.759 12.2483 280.891 15.0661 280.948 18.4733C281.005 21.817 283.776 24.4967 287.172 24.4967C288.63 24.4967 289.974 24.0026 291.036 23.1739C292.098 24.0025 293.441 24.4967 294.9 24.4967C296.358 24.4967 297.701 24.0026 298.763 23.1739C299.826 24.0025 301.169 24.4967 302.627 24.4967C304.086 24.4967 305.429 24.0026 306.491 23.1739C307.553 24.0025 308.897 24.4967 310.355 24.4967C313.751 24.4967 316.522 21.8174 316.578 18.4733C316.636 15.0659 313.768 12.2483 310.355 12.2483C308.908 12.2483 307.56 12.754 306.491 13.5961C305.421 12.754 304.073 12.2483 302.627 12.2483C301.181 12.2483 299.833 12.754 298.763 13.5961C297.694 12.754 296.346 12.2483 294.9 12.2483C293.453 12.2483 292.105 12.754 291.036 13.5962C289.966 12.754 288.618 12.2483 287.172 12.2483ZM294.9 23.1068C293.831 23.1068 292.843 22.7642 292.044 22.1842C292.87 21.1637 293.372 19.877 293.396 18.4733C293.42 17.0102 292.906 15.656 292.04 14.5868C292.846 13.9926 293.839 13.6381 294.9 13.6381C295.96 13.6381 296.953 13.9926 297.759 14.5867C296.893 15.656 296.378 17.0105 296.403 18.4734C296.427 19.877 296.929 21.1638 297.755 22.1843C296.956 22.7643 295.968 23.1068 294.9 23.1068ZM291.986 18.4501C292.004 17.3817 291.646 16.3848 291.036 15.5785C290.426 16.3848 290.067 17.3817 290.086 18.4501C290.103 19.4796 290.454 20.4284 291.036 21.1972C291.618 20.4284 291.969 19.4797 291.986 18.4501ZM288.676 18.4733C288.651 17.0102 289.166 15.656 290.031 14.5868C289.225 13.9926 288.232 13.6381 287.172 13.6381C284.536 13.6381 282.314 15.8295 282.358 18.4501C282.402 21.0327 284.543 23.1068 287.172 23.1068C288.241 23.1068 289.229 22.7643 290.028 22.1842C289.202 21.1637 288.7 19.877 288.676 18.4733ZM301.123 18.4733C301.148 17.0102 300.633 15.656 299.768 14.5867C300.574 13.9926 301.567 13.6381 302.627 13.6381C303.687 13.6381 304.68 13.9926 305.486 14.5868C304.621 15.656 304.106 17.0102 304.131 18.4733C304.155 19.877 304.657 21.1637 305.483 22.1842C304.684 22.7643 303.696 23.1068 302.627 23.1068C301.559 23.1068 300.571 22.7642 299.772 22.1842C300.597 21.1637 301.099 19.877 301.123 18.4733ZM305.541 18.4501C305.523 17.3817 305.881 16.3847 306.491 15.5784C307.101 16.3847 307.459 17.3817 307.441 18.4501C307.424 19.4797 307.073 20.4284 306.491 21.1972C305.909 20.4284 305.558 19.4796 305.541 18.4501ZM310.355 23.1068C309.286 23.1068 308.298 22.7642 307.499 22.1842C308.325 21.1638 308.827 19.8771 308.851 18.4734C308.876 17.0101 308.361 15.6559 307.496 14.5867C308.301 13.9926 309.295 13.6381 310.355 13.6381C312.991 13.6381 315.213 15.8293 315.169 18.4501C315.125 21.0332 312.984 23.1068 310.355 23.1068ZM299.714 18.4827C299.732 17.4143 299.373 16.4174 298.763 15.6111C298.153 16.4174 297.795 17.4143 297.813 18.4827C297.83 19.5123 298.181 20.4611 298.763 21.2298C299.345 20.4611 299.696 19.5124 299.714 18.4827Z" fill="black"/>
</g>
<g clip-path="url(#clip5_2860_5998)">
<path d="M44.5389 75.1861C41.2901 73.2939 36.9293 72.0188 32.1959 72.0188C27.4624 72.0188 23.1424 73.2939 19.8936 75.1861C16.5575 77.1598 14.4208 79.9195 14.4208 82.6734C14.4208 85.3923 16.5168 88.1055 19.8936 90.0792C23.1016 91.9714 27.4624 93.2057 32.1959 93.2057C36.9293 93.2057 41.3308 91.9714 44.5389 90.0792C47.9157 88.1055 50.0525 85.3865 50.0525 82.6734C50.0525 79.8787 47.9157 77.1598 44.5389 75.1861ZM40.7952 77.7769L41.4939 76.0477L42.274 77.7769L45.6916 78.4756L42.274 79.1801L41.5754 81.0723L40.7952 79.1801L37.6687 78.4756L40.7952 77.7769ZM39.6017 83.6224L36.184 84.4026L35.4854 86.2133L34.7052 84.321L31.5787 83.6224L34.7052 82.9237L35.4039 81.1945L36.184 82.9237L39.6017 83.6224ZM16.6856 80.5774L24.0099 79.0112L25.6517 74.8134L27.3809 78.8074L35.4039 80.5774L27.4624 82.2192L25.7333 86.5859L24.0099 82.1377L16.6856 80.5774ZM30.0999 89.0952L29.3954 90.9467L28.6152 89.0137L25.4887 88.3966L28.6152 87.6921L29.3139 85.8814L30.0999 87.6106L33.4709 88.3966L30.0999 89.0952ZM39.1475 88.4781L38.3674 90.3295L37.5872 88.4781L34.5422 87.7794L37.5872 87.0749L38.3674 85.3516L39.066 86.9934L42.5651 87.7794L39.1475 88.4781ZM44.4573 84.4026L43.7587 86.2133L42.9727 84.321L39.9335 83.6224L42.9727 82.9237L43.7587 81.1945L44.4573 82.9237L47.8691 83.6224L44.4573 84.4026Z" fill="black"/>
</g>
<g clip-path="url(#clip6_2860_5998)">
<path d="M111.601 87.8346L111.586 87.8761C109.735 93.2847 104.631 96.9117 98.876 96.9117C93.1215 96.9117 88.0083 93.2773 86.1644 87.8702L86.1495 87.8271H82.1068V88.3156L83.789 88.5131C84.8282 88.6318 85.0465 89.0921 85.33 89.6711L85.4013 89.8136C87.8331 95.0025 93.1274 98.3533 98.8819 98.3533C104.638 98.3533 109.932 95.0025 112.364 89.821L112.435 89.68C112.717 89.101 112.937 88.6407 113.976 88.5205L115.66 88.3215V87.8346H111.601ZM86.1644 79.0113C88.0158 73.6027 93.1215 69.9697 98.876 69.9697C104.631 69.9697 109.742 73.6027 111.588 79.0113L111.602 79.0528H115.653V78.5659L113.969 78.3684C112.93 78.2482 112.711 77.7894 112.428 77.2089L112.358 77.0664C109.926 71.8924 104.629 68.5415 98.876 68.5415C93.1141 68.5415 87.8257 71.8924 85.3939 77.0812L85.3226 77.2223C85.0405 77.8013 84.8208 78.2615 83.7815 78.3818L82.0994 78.5792V79.0677H86.1436L86.1644 79.0113ZM106.745 81.3659L104.157 85.5155H105.273L105.734 84.7732H108.752L109.212 85.5155H110.321L107.733 81.3659H106.745ZM108.278 83.9878H106.207L107.246 82.3191L108.278 83.9878ZM112.45 82.4052L115.525 85.5155H116.684V81.3659H115.773V84.4614L112.711 81.3659H111.531V85.5155H112.45V82.4052ZM81.0527 85.5155H81.9717V82.4052L85.0539 85.5155H86.2134V81.3659H85.2944V84.4614L82.233 81.3659H81.0527V85.5155ZM88.2429 81.3659H89.1619V85.5155H88.2414L88.2429 81.3659ZM94.9031 84.6381C94.8734 84.6455 94.7605 84.6455 94.719 84.6455H91.0638V85.4948H94.7754C94.8036 85.4948 95.0233 85.4948 95.0649 85.4873C95.8221 85.4161 96.168 84.7866 96.168 84.2358C96.168 83.6701 95.8072 83.0629 95.1213 82.9991C94.9877 82.9842 94.8749 82.9842 94.8244 82.9842H92.3999C92.3099 82.9871 92.2198 82.9802 92.1312 82.9634C91.9397 82.9129 91.8699 82.7437 91.8699 82.6027C91.8699 82.475 91.9397 82.3057 92.1372 82.2493C92.221 82.2316 92.3069 82.2246 92.3925 82.2285H95.8918V81.3941H92.3361C92.1876 81.3941 92.0748 81.4001 91.9828 81.4149C91.6931 81.4506 91.4271 81.5927 91.2364 81.8136C91.0457 82.0344 90.9439 82.3183 90.9509 82.6101C90.9509 83.1193 91.2686 83.7132 91.9679 83.8126C92.0956 83.826 92.2723 83.826 92.3509 83.826H94.7115C94.7546 83.826 94.86 83.826 94.8808 83.8334C95.1495 83.8676 95.2416 84.0665 95.2416 84.2432C95.2438 84.3392 95.2105 84.4326 95.148 84.5056C95.0855 84.5785 94.9983 84.6257 94.9031 84.6381ZM101.817 84.6381C101.787 84.6455 101.675 84.6455 101.626 84.6455H97.9778V85.4948H101.689C101.718 85.4948 101.937 85.4948 101.979 85.4873C102.736 85.4161 103.082 84.7866 103.082 84.2358C103.082 83.6701 102.721 83.0629 102.035 82.9991C101.902 82.9842 101.789 82.9842 101.738 82.9842H99.314C99.2239 82.9871 99.1338 82.9802 99.0452 82.9634C98.8537 82.9129 98.7839 82.7437 98.7839 82.6027C98.7839 82.475 98.8537 82.3057 99.0512 82.2493C99.1351 82.2316 99.2209 82.2246 99.3065 82.2285H102.806V81.3941H99.2501C99.1017 81.3941 98.9888 81.4001 98.8968 81.4149C98.6071 81.4506 98.3411 81.5927 98.1504 81.8136C97.9597 82.0344 97.858 82.3183 97.8649 82.6101C97.8649 83.1193 98.1827 83.7132 98.8834 83.8126C99.0096 83.826 99.1863 83.826 99.265 83.826H101.626C101.669 83.826 101.774 83.826 101.795 83.8334C102.064 83.8676 102.156 84.0665 102.156 84.2432C102.156 84.3388 102.122 84.4314 102.06 84.5039C101.998 84.5765 101.912 84.6242 101.817 84.6381Z" fill="black"/>
</g>
<g clip-path="url(#clip7_2860_5998)">
<path d="M153.815 76.3359H156.709V83.9285C156.709 85.2349 156.148 87.9741 152.133 87.9741C148.119 87.9756 147.684 85.4235 147.684 83.9923V82.5908H150.484V83.9611C150.484 84.7999 151.045 85.5794 152.102 85.5794C153.16 85.5794 153.814 84.987 153.814 83.9908L153.815 76.3359ZM160.069 82.7793C160.069 81.9375 160.41 81.2531 161.375 81.2531C162.371 81.2531 162.806 81.9999 162.806 82.7778H160.069V82.7793ZM161.189 79.5101C158.544 79.5101 157.361 81.9375 157.361 84.0235C157.361 86.1079 158.7 88.13 161.437 88.13C163.834 88.1612 165.421 86.6053 165.421 85.4547H162.775C162.775 85.4547 162.463 86.2 161.531 86.2C160.597 86.2 160.069 85.6714 160.069 84.3961H165.452C165.452 80.3816 163.461 79.5116 161.189 79.5116M168.72 82.7778C168.72 81.9375 169.061 81.2531 170.026 81.2531C171.022 81.2531 171.457 81.9999 171.457 82.7778H168.721H168.72ZM169.839 79.5116C167.195 79.5116 166.012 81.9375 166.012 84.022C166.012 86.1079 167.351 88.13 170.088 88.13C172.485 88.1612 174.072 86.6053 174.072 85.4547H171.426C171.426 85.4547 171.114 86.2 170.182 86.2C169.25 86.2 168.718 85.6714 168.718 84.3961H174.102C174.102 80.3816 172.111 79.5116 169.839 79.5116ZM177.427 83.9285C177.46 82.3428 178.082 81.6896 178.922 81.6896C180.291 81.6896 180.54 82.7467 180.54 83.8364C180.54 84.9247 180.353 86.3559 179.047 86.3559C177.74 86.3559 177.397 85.517 177.427 83.9285ZM177.491 90.5574V87.2274C177.602 87.3758 177.666 87.4471 177.864 87.6015C178.175 87.8435 178.704 88.2547 179.887 88.2547C182.034 88.2547 183.278 86.3885 183.278 83.8364C183.278 80.5375 181.194 79.6051 179.856 79.6051C178.518 79.6051 178.015 80.2257 177.834 80.444C177.625 80.6964 177.556 80.8389 177.46 81.0453V79.8219H174.783V90.5574H177.491ZM182.191 89.3133V90.1922H182.346V89.8448H182.468C182.551 89.8448 182.609 89.8552 182.641 89.8745C182.696 89.9072 182.723 89.974 182.723 90.0749V90.1447L182.726 90.1744L182.729 90.1833L182.73 90.1922H182.876L182.87 90.1818C182.864 90.1449 182.861 90.1077 182.861 90.0705V90.0051C182.861 89.9606 182.845 89.9161 182.813 89.8686C182.795 89.8445 182.772 89.8245 182.746 89.8099C182.72 89.7953 182.691 89.7865 182.661 89.7839C182.705 89.778 182.749 89.7634 182.788 89.7409C182.846 89.7038 182.874 89.6459 182.874 89.5672C182.874 89.4573 182.83 89.3831 182.739 89.3445C182.661 89.3202 182.58 89.3101 182.499 89.3148L182.191 89.3133ZM182.665 89.4514C182.704 89.4736 182.724 89.5167 182.724 89.5805C182.724 89.6488 182.693 89.6934 182.632 89.7171C182.585 89.7328 182.535 89.7398 182.485 89.7379H182.346V89.4187H182.479C182.564 89.4187 182.626 89.4306 182.665 89.4514ZM183.081 90.3229C183.156 90.2491 183.216 90.1605 183.257 90.0628C183.297 89.965 183.317 89.86 183.315 89.7542C183.317 89.6492 183.297 89.5449 183.256 89.4479C183.216 89.3508 183.156 89.2631 183.081 89.1901C183.007 89.1147 182.919 89.0551 182.821 89.015C182.724 88.975 182.619 88.9552 182.514 88.957C182.409 88.9553 182.304 88.9751 182.207 89.0151C182.11 89.0552 182.023 89.1148 181.949 89.1901C181.874 89.2632 181.815 89.351 181.774 89.448C181.734 89.5451 181.715 89.6493 181.716 89.7542C181.716 89.9769 181.793 90.167 181.948 90.3229C182.021 90.3989 182.109 90.4592 182.206 90.4998C182.303 90.5404 182.408 90.5605 182.514 90.5589C182.619 90.5603 182.724 90.5399 182.822 90.499C182.919 90.4582 183.007 90.3977 183.081 90.3214M182.027 89.2673C182.162 89.1336 182.324 89.0654 182.514 89.0654C182.704 89.0654 182.867 89.1322 183.001 89.2673C183.134 89.4009 183.201 89.5642 183.201 89.7542C183.201 89.9472 183.134 90.1105 183.002 90.2442C182.939 90.31 182.863 90.362 182.779 90.397C182.695 90.432 182.605 90.4492 182.514 90.4476C182.423 90.4493 182.333 90.4323 182.249 90.3975C182.165 90.3628 182.089 90.3111 182.027 90.2457C181.962 90.1816 181.911 90.1052 181.877 90.021C181.843 89.9368 181.826 89.8466 181.828 89.7557C181.826 89.665 181.843 89.5748 181.878 89.4909C181.912 89.4069 181.962 89.3308 182.027 89.2673Z" fill="black"/>
</g>
<g clip-path="url(#clip8_2860_5998)">
<path d="M231.91 68.8223L226.282 77.8631L237.583 97.5847L249.46 97.5403L243.433 87.7904H220.653L214.803 97.6733H225.883L237.76 77.6859L231.91 68.8223Z" fill="black"/>
</g>
<g clip-path="url(#clip9_2860_5998)">
<path d="M316.435 75.8311C315.947 71.052 312.768 70.0468 309.971 69.5881C308.566 69.3505 306.066 69.1442 304.454 69.0848C303.049 68.9957 299.75 68.9512 298.76 68.9512C297.783 68.9512 294.47 68.9957 293.065 69.0848C291.468 69.1442 288.953 69.352 287.548 69.5881C284.753 70.0617 281.571 71.0653 281.084 75.8296C280.965 77.1316 280.935 78.833 280.95 80.6517C280.995 83.6685 281.247 85.7099 281.396 87.1307C281.498 88.1062 281.898 91.0205 282.416 92.5289C283.125 94.6 283.776 95.2058 284.53 95.8278C285.921 96.9517 288.198 97.3066 288.672 97.3956C291.245 97.8544 296.452 97.942 298.745 97.942C301.038 97.942 306.243 97.8678 308.817 97.3956C309.306 97.3066 311.583 96.9651 312.959 95.8278C313.714 95.2058 314.364 94.6 315.074 92.5289C315.593 91.0205 316.006 88.1062 316.11 87.1307C316.258 85.7099 316.524 83.6685 316.554 80.6517C316.613 78.833 316.569 77.1331 316.435 75.8311ZM314.689 83.8467C314.408 87.6623 314.068 89.9412 313.58 91.5966C313.151 93.0471 312.634 94.0077 311.85 94.704C310.563 95.8724 308.788 96.1233 307.753 96.2718C305.505 96.6117 301.732 96.7157 298.76 96.7157C295.786 96.7157 292.014 96.5969 289.766 96.2703C288.731 96.1233 286.956 95.8724 285.669 94.704C284.899 94.0077 284.368 93.0322 283.954 91.5966C283.465 89.956 283.125 87.6623 282.845 83.8467C282.681 81.5544 282.711 77.8264 282.963 75.8296C283.347 72.8424 284.827 71.3474 287.992 70.7862C289.471 70.519 291.466 70.3274 293.346 70.2384C294.854 70.1344 297.354 70.0899 298.745 70.1047C300.135 70.0899 302.635 70.1493 304.144 70.2384C306.036 70.3274 308.019 70.5204 309.497 70.7862C312.677 71.3474 314.158 72.8573 314.527 75.8296C314.823 77.8264 314.867 81.5544 314.691 83.8467M306.967 71.3919C306.154 75.0457 305.829 76.7174 305.162 79.3645C304.527 81.9092 304.023 84.2609 303.18 85.3996C302.309 86.5532 301.153 86.8056 300.37 86.8932C299.955 86.9377 299.66 86.9526 298.787 86.9674C297.901 86.9674 297.604 86.9377 297.189 86.8932C296.406 86.8041 295.237 86.5532 294.38 85.3996C293.522 84.2609 293.034 81.9092 292.398 79.3645C291.702 76.7322 291.392 75.0457 290.563 71.3919C290.563 71.3919 289.75 71.4216 289.38 71.4513C288.892 71.481 288.507 71.5256 288.093 71.5849C288.093 71.5849 288.568 79.0988 288.774 82.2789C288.997 85.6223 289.395 91.2714 289.765 95.5324C289.765 95.5324 290.445 95.6363 291.585 95.7106C292.783 95.7833 293.314 95.7833 293.314 95.7833C293.803 93.9052 294.424 91.3011 295.105 90.1921C295.666 89.2894 296.539 89.187 297.028 89.1276C297.797 89.0237 298.447 89.0088 298.759 89.0088C299.054 88.994 299.704 89.0088 300.488 89.1276C300.977 89.2018 301.85 89.2909 302.411 90.1921C303.107 91.3011 303.713 93.9037 304.201 95.7833C304.201 95.7833 304.733 95.7685 305.931 95.7091C306.541 95.6827 307.148 95.6232 307.751 95.5309C308.121 91.2714 308.52 85.6357 308.742 82.2789C308.949 79.0988 309.423 71.5849 309.423 71.5849C309.007 71.5256 308.624 71.481 308.136 71.4513C307.794 71.4216 306.967 71.3919 306.967 71.3919Z" fill="black"/>
</g>
<g clip-path="url(#clip10_2860_5998)">
<path d="M98.8686 137.552C89.0298 137.552 81.0527 142.713 81.0527 149.076C81.0527 155.444 89.0298 160.606 98.8686 160.606C108.707 160.606 116.684 155.446 116.684 149.076C116.684 142.707 108.707 137.552 98.8686 137.552ZM98.8686 155.659C97.4047 155.659 96.211 152.776 96.1368 149.149C97.9545 149.308 99.7826 149.308 101.6 149.149C101.526 152.775 100.332 155.659 98.8686 155.659ZM96.3165 146.27C96.7143 143.706 97.7076 141.886 98.8686 141.886C100.03 141.886 101.021 143.706 101.421 146.27C99.7226 146.421 98.0145 146.421 96.3165 146.27ZM98.8686 139.218C96.9578 139.218 95.3277 142.081 94.7264 146.076C91.1038 145.512 88.5755 144.223 88.5755 142.727C88.5755 140.707 93.1838 139.073 98.8686 139.073C104.555 139.073 109.162 140.709 109.162 142.727C109.162 144.223 106.633 145.512 103.011 146.076C102.409 142.082 100.779 139.22 98.8686 139.22V139.218ZM83.6063 148.646C83.6063 146.693 84.3591 144.86 85.667 143.286C85.6537 143.396 85.6448 143.509 85.6448 143.622C85.6448 146.082 89.3341 148.18 94.4829 148.952C94.4785 149.13 94.4785 149.311 94.4785 149.492C94.4785 154.08 95.7642 157.962 97.5413 159.28C89.732 158.81 83.6063 154.228 83.6063 148.646ZM100.196 159.28C101.973 157.962 103.259 154.078 103.259 149.492C103.259 149.309 103.256 149.131 103.254 148.953C108.4 148.181 112.092 146.085 112.092 143.622C112.092 143.509 112.083 143.396 112.07 143.286C113.378 144.864 114.129 146.693 114.129 148.646C114.129 154.228 108.005 158.81 100.196 159.28Z" fill="black"/>
</g>
<g clip-path="url(#clip11_2860_5998)">
<path d="M173.784 133.268C171.29 131.976 168.484 131.263 165.499 131.263C162.515 131.263 159.709 131.976 157.215 133.268C151.559 136.252 147.684 142.22 147.684 149.079C147.684 155.938 151.559 161.907 157.26 164.891C159.709 166.138 162.515 166.895 165.499 166.895C168.484 166.895 171.245 166.138 173.739 164.846C179.44 161.907 183.315 155.938 183.315 149.079C183.315 142.22 179.44 136.252 173.784 133.268ZM149.465 149.079C149.465 143.245 152.583 138.167 157.26 135.317C159.531 133.936 162.159 133.134 165.054 133.045L163.05 147.609L157.26 152.108L151.38 156.696C150.178 154.424 149.465 151.841 149.465 149.079ZM173.784 162.797C171.334 164.267 168.528 165.114 165.499 165.114C162.471 165.114 159.62 164.267 157.215 162.797C155.033 161.506 153.251 159.724 151.915 157.586L157.215 155.404L165.499 152.019L173.784 155.359L179.129 157.542C177.792 159.724 175.922 161.506 173.784 162.797ZM173.784 152.108L168.038 147.654L165.989 133.045C168.795 133.134 171.468 133.936 173.739 135.317C178.416 138.123 181.534 143.245 181.534 149.079C181.534 151.841 180.866 154.424 179.618 156.696L173.784 152.108Z" fill="black"/>
</g>
<g clip-path="url(#clip12_2860_5998)">
<path d="M232.132 166.895C236.89 166.895 241.364 165.042 244.729 161.677C248.094 158.312 249.948 153.838 249.948 149.079C249.948 144.321 248.094 139.847 244.729 136.482C241.364 133.117 236.89 131.263 232.132 131.263C222.308 131.263 214.316 139.256 214.316 149.079C214.316 153.838 216.169 158.312 219.534 161.677C222.899 165.042 227.373 166.895 232.132 166.895Z" fill="black"/>
<path d="M214.933 149.079C214.933 144.485 216.722 140.166 219.971 136.918C223.219 133.669 227.538 131.88 232.132 131.88C236.726 131.88 241.045 133.669 244.294 136.918C247.543 140.166 249.332 144.485 249.332 149.079C249.332 158.563 241.616 166.279 232.132 166.279C227.538 166.279 223.219 164.49 219.971 161.241C216.722 157.992 214.933 153.673 214.933 149.079Z" fill="white"/>
<path d="M232.132 132.589C223.025 132.589 215.641 139.972 215.641 149.079C215.641 158.187 223.025 165.57 232.132 165.57C241.239 165.57 248.622 158.187 248.622 149.079C248.622 139.972 241.239 132.589 232.132 132.589Z" fill="black"/>
<path d="M232.132 159.613C226.314 159.613 221.598 154.897 221.598 149.08C221.598 143.262 226.314 138.546 232.132 138.546C237.949 138.546 242.665 143.262 242.665 149.08C242.665 154.897 237.949 159.613 232.132 159.613Z" fill="white"/>
<path d="M222.276 149.08H232.132V139.224C226.689 139.224 222.276 143.636 222.276 149.08ZM232.132 149.08V158.936C237.575 158.936 241.988 154.523 241.988 149.08H232.132Z" fill="black"/>
<path d="M224.391 139.029C224.042 138.69 223.502 138.588 222.995 138.902C223.092 138.651 223.053 138.395 223.001 138.254C222.783 137.856 222.707 137.806 222.527 137.655C221.944 137.166 221.332 137.583 220.893 138.106L218.775 140.63L222.105 143.424L224.338 140.762C224.849 140.154 224.927 139.551 224.391 139.029ZM232.684 137.83L233.827 134.799V137.83H234.696V133.489H233.39L232.203 136.597H232.215L231.028 133.489H229.722V137.83H230.591V134.799L231.734 137.83H232.684ZM244.367 139.636L242.731 141.952L245.268 140.748L245.939 141.577L241.947 143.512L241.159 142.531L242.729 140.235L242.72 140.224L240.147 141.282L239.351 140.307L242.075 136.805L242.746 137.634L241.041 139.865L243.647 138.746L244.367 139.636Z" fill="white"/>
<path d="M221.356 138.73C221.504 138.555 221.837 138.562 222.051 138.742C222.286 138.939 222.287 139.219 222.129 139.408L220.871 140.907L220.084 140.246L221.356 138.73ZM223.594 140.499L222.268 142.079L221.436 141.381L222.773 139.788C222.924 139.608 223.261 139.556 223.488 139.746C223.745 139.962 223.77 140.289 223.594 140.499Z" fill="black"/>
</g>
<defs>
<clipPath id="clip0_2860_5998">
<rect width="35.6317" height="35.6317" fill="white" transform="translate(14.4208)"/>
</clipPath>
<clipPath id="clip1_2860_5998">
<rect width="35.6317" height="35.6317" fill="white" transform="translate(81.0525)"/>
</clipPath>
<clipPath id="clip2_2860_5998">
<rect width="35.6317" height="35.6317" fill="white" transform="translate(147.684)"/>
</clipPath>
<clipPath id="clip3_2860_5998">
<rect width="35.6317" height="35.6317" fill="white" transform="translate(214.316)"/>
</clipPath>
<clipPath id="clip4_2860_5998">
<rect width="35.6317" height="35.6317" fill="white" transform="translate(280.948)"/>
</clipPath>
<clipPath id="clip5_2860_5998">
<rect width="35.6317" height="35.6317" fill="white" transform="translate(14.4208 65.6316)"/>
</clipPath>
<clipPath id="clip6_2860_5998">
<rect width="35.6317" height="35.6317" fill="white" transform="translate(81.0525 65.6316)"/>
</clipPath>
<clipPath id="clip7_2860_5998">
<rect width="35.6317" height="35.6317" fill="white" transform="translate(147.684 65.6316)"/>
</clipPath>
<clipPath id="clip8_2860_5998">
<rect width="35.6317" height="35.6317" fill="white" transform="translate(214.316 65.6316)"/>
</clipPath>
<clipPath id="clip9_2860_5998">
<rect width="35.6317" height="35.6317" fill="white" transform="translate(280.948 65.6316)"/>
</clipPath>
<clipPath id="clip10_2860_5998">
<rect width="35.6317" height="35.6317" fill="white" transform="translate(81.0525 131.263)"/>
</clipPath>
<clipPath id="clip11_2860_5998">
<rect width="35.6317" height="35.6317" fill="white" transform="translate(147.684 131.263)"/>
</clipPath>
<clipPath id="clip12_2860_5998">
<rect width="35.6317" height="35.6317" fill="white" transform="translate(214.316 131.263)"/>
</clipPath>
</defs>
</svg>
