<svg width="37" height="37" viewBox="0 0 37 37" fill="none" xmlns="http://www.w3.org/2000/svg">
<rect x="0.810547" y="0.357422" width="35.9705" height="35.9705" rx="17.9852" fill="#04D2A5"/>
<path d="M21.248 10.1672H16.3429C15.8914 10.1672 15.5254 10.5332 15.5254 10.9847V12.6198C15.5254 13.0713 15.8914 13.4373 16.3429 13.4373H21.248C21.6995 13.4373 22.0655 13.0713 22.0655 12.6198V10.9847C22.0655 10.5332 21.6995 10.1672 21.248 10.1672Z" stroke="white" stroke-width="1.63502" stroke-linecap="round" stroke-linejoin="round"/>
<path d="M15.5254 11.8022H13.8904C13.4568 11.8022 13.0409 11.9745 12.7343 12.2811C12.4276 12.5878 12.2554 13.0036 12.2554 13.4373V24.8824C12.2554 25.3161 12.4276 25.7319 12.7343 26.0386C13.0409 26.3452 13.4568 26.5174 13.8904 26.5174H23.7005C24.1342 26.5174 24.55 26.3452 24.8567 26.0386C25.1633 25.7319 25.3355 25.3161 25.3355 24.8824V24.4737" stroke="white" stroke-width="1.63502" stroke-linecap="round" stroke-linejoin="round"/>
<path d="M22.0656 11.8022H23.7006C23.9873 11.8025 24.2689 11.8782 24.5171 12.0217C24.7654 12.1652 24.9715 12.3714 25.1149 12.6198" stroke="white" stroke-width="1.63502" stroke-linecap="round" stroke-linejoin="round"/>
<path d="M24.0439 16.3887C24.2034 16.2293 24.3926 16.1028 24.6009 16.0166C24.8092 15.9303 25.0325 15.8859 25.258 15.8859C25.4834 15.8859 25.7067 15.9303 25.915 16.0166C26.1233 16.1028 26.3125 16.2293 26.472 16.3887C26.6314 16.5481 26.7578 16.7374 26.8441 16.9457C26.9304 17.154 26.9748 17.3773 26.9748 17.6027C26.9748 17.8282 26.9304 18.0514 26.8441 18.2597C26.7578 18.468 26.6314 18.6573 26.472 18.8167L22.8422 22.4301L19.613 23.2476L20.4224 20.0185L24.0439 16.3887Z" stroke="white" stroke-width="1.63502" stroke-linecap="round" stroke-linejoin="round"/>
<path d="M15.5254 23.2474H16.3429" stroke="white" stroke-width="1.63502" stroke-linecap="round" stroke-linejoin="round"/>
</svg>
