<svg width="322" height="321" viewBox="0 0 322 321" fill="none" xmlns="http://www.w3.org/2000/svg">
<path fill-rule="evenodd" clip-rule="evenodd" d="M215.752 127.354C241.694 129.422 275.301 108.988 290.811 129.868C306.342 150.776 277.916 177.239 271.557 202.483C266.439 222.803 273.012 247.033 257.694 261.345C241.513 276.463 216.604 279.006 195.02 273.994C174.998 269.344 164.073 250.501 149.337 236.18C129.636 217.035 95.6652 205.098 95.8773 177.646C96.092 149.859 124.602 129.424 150.245 118.666C171.354 109.81 192.926 125.535 215.752 127.354Z" fill="#05BC94" fill-opacity="0.26"/>
<path d="M160.809 151.247C160.914 151.413 161.059 151.549 161.23 151.642C161.402 151.735 161.595 151.783 161.79 151.781C161.986 151.778 162.177 151.726 162.347 151.628C162.516 151.531 162.658 151.391 162.758 151.223C162.865 151.068 162.935 150.889 162.961 150.702C162.988 150.515 162.971 150.325 162.912 150.145C162.853 149.966 162.754 149.802 162.621 149.668C162.488 149.533 162.327 149.431 162.148 149.369C160.968 149.023 160.073 150.511 160.809 151.247Z" fill="black"/>
<path d="M162.569 167.422C162.681 167.269 162.75 167.089 162.769 166.901C162.788 166.713 162.756 166.522 162.677 166.35C162.598 166.178 162.475 166.03 162.319 165.922C162.164 165.813 161.983 165.748 161.794 165.732C161.613 165.752 161.439 165.814 161.286 165.913C161.133 166.012 161.006 166.146 160.914 166.304C160.823 166.462 160.77 166.639 160.76 166.821C160.749 167.003 160.782 167.185 160.855 167.352C160.947 167.493 161.071 167.609 161.217 167.692C161.363 167.775 161.526 167.822 161.694 167.829C161.862 167.836 162.029 167.803 162.181 167.732C162.333 167.661 162.466 167.555 162.569 167.422Z" fill="black"/>
<path d="M161.818 181.813C161.638 181.834 161.464 181.896 161.312 181.996C161.16 182.096 161.034 182.229 160.942 182.387C160.851 182.544 160.798 182.72 160.787 182.902C160.776 183.084 160.808 183.265 160.88 183.432C161.017 183.661 161.239 183.828 161.497 183.896C161.756 183.964 162.031 183.929 162.264 183.797C162.496 183.665 162.669 183.448 162.743 183.191C162.818 182.935 162.79 182.659 162.664 182.423C162.592 182.254 162.475 182.108 162.326 182.001C162.177 181.893 162.001 181.828 161.818 181.813Z" fill="black"/>
<path d="M231.986 114.953C233.084 109.631 229.564 106.044 238.066 101.853C241.838 99.9945 242.318 99.9961 242.785 99.0363C242.816 98.9788 242.834 98.9151 242.838 98.8499C242.841 98.7846 242.83 98.7193 242.806 98.6587C242.781 98.5981 242.744 98.5437 242.696 98.4993C242.648 98.455 242.59 98.4219 242.528 98.4023C241.591 98.3121 240.654 98.5717 239.897 99.131C234.665 101.712 230.572 103.49 230.648 109.483C230.572 111.318 230.722 113.155 231.094 114.953C231.122 115.049 231.181 115.134 231.262 115.194C231.342 115.254 231.44 115.286 231.54 115.286C231.64 115.286 231.738 115.254 231.818 115.194C231.899 115.134 231.958 115.049 231.986 114.953Z" fill="black"/>
<path d="M241.729 103.168C246.155 101.78 250.251 99.5038 253.767 96.4782C254.651 95.6484 255.786 94.7881 255.762 93.4961C255.756 93.4436 255.74 93.3929 255.714 93.3467C255.688 93.3006 255.654 93.26 255.612 93.2273C255.571 93.1946 255.523 93.1705 255.472 93.1563C255.421 93.1421 255.368 93.1381 255.316 93.1446C254.144 93.4319 253.505 94.5731 252.64 95.374C249.22 98.5422 245.077 100.232 241.347 102.324C241.292 102.349 241.242 102.384 241.2 102.429C241.159 102.473 241.126 102.525 241.105 102.582C241.083 102.639 241.073 102.7 241.075 102.761C241.077 102.821 241.091 102.881 241.116 102.937C241.141 102.992 241.177 103.042 241.221 103.084C241.266 103.125 241.318 103.158 241.375 103.179C241.432 103.201 241.492 103.211 241.553 103.209C241.614 103.207 241.674 103.193 241.729 103.168Z" fill="black"/>
<path d="M246.66 105.14C250.748 103.644 254.522 101.399 257.787 98.5197C258.943 97.7032 259.88 96.6152 260.516 95.3514C260.573 95.2214 260.587 95.0764 260.555 94.9381C260.523 94.7997 260.447 94.6752 260.339 94.583C260.231 94.4909 260.097 94.4359 259.955 94.4263C259.813 94.4167 259.672 94.4529 259.553 94.5297C258.486 95.3301 257.509 96.245 256.641 97.2582C253.147 100.388 249.544 102.038 246.195 104.23C246.096 104.304 246.027 104.409 246 104.528C245.972 104.648 245.987 104.773 246.043 104.882C246.099 104.991 246.191 105.077 246.304 105.124C246.417 105.171 246.543 105.177 246.66 105.14Z" fill="black"/>
<path d="M249.641 107.981C253.268 106.641 256.642 104.696 259.619 102.229C260.443 101.574 261.467 100.945 261.706 99.8583C261.72 99.7842 261.717 99.7078 261.697 99.6351C261.677 99.5623 261.641 99.495 261.591 99.4384C261.541 99.3817 261.479 99.3372 261.409 99.3082C261.34 99.2792 261.264 99.2664 261.189 99.2709C259.927 99.4394 260.15 99.937 255.571 103.192C253.528 104.646 251.345 105.845 249.185 107.135C248.702 107.394 249.105 108.153 249.641 107.981Z" fill="black"/>
<path d="M93.9735 78.8938C94.386 75.061 91.8998 67.2367 84.748 61.1698C84.1007 60.4378 83.2504 59.9149 82.3051 59.6675C82.1997 59.6674 82.0956 59.6919 82.0011 59.7389C81.9067 59.7858 81.8244 59.8541 81.7608 59.9382C81.6972 60.0224 81.6539 60.1202 81.6345 60.2238C81.615 60.3275 81.6199 60.4343 81.6487 60.5358C82.0355 61.4298 83.4335 62.2162 85.5456 64.2931C92.1261 70.7677 92.078 75.7367 93.2496 78.9885C93.362 79.4347 93.9253 79.34 93.9735 78.8938Z" fill="black"/>
<path d="M69.4876 58.0015C72.0774 61.6328 75.5526 64.5417 79.5831 66.4518C80.5926 66.898 81.9713 67.662 83.0804 67.1564C83.1864 67.0886 83.2622 66.9826 83.2921 66.8603C83.322 66.7381 83.3036 66.6091 83.2409 66.5C82.5539 65.5659 81.0565 65.399 80.0485 64.9271C75.1806 62.6464 73.3204 59.5953 70.189 57.3435C70.0956 57.2895 69.9873 57.2671 69.8802 57.2794C69.773 57.2918 69.6727 57.3383 69.5941 57.4121C69.5154 57.4859 69.4626 57.5831 69.4434 57.6892C69.4243 57.7954 69.4398 57.9049 69.4876 58.0015Z" fill="black"/>
<path d="M63.9247 59.1507C65.3981 61.9884 73.3525 69.7341 76.7888 69.5511C76.8963 69.5483 77.0007 69.5141 77.089 69.4526C77.1773 69.3911 77.2456 69.3051 77.2856 69.2052C77.3255 69.1054 77.3353 68.996 77.3138 68.8906C77.2923 68.7852 77.2403 68.6884 77.1644 68.6122C76.1122 67.8674 74.9879 67.2302 73.8083 66.7103C69.1394 63.8534 66.435 59.7462 64.5812 58.4702C64.1639 58.1829 63.7161 58.743 63.9247 59.1507Z" fill="black"/>
<path d="M60.5202 63.8005C62.4026 65.692 64.443 67.4193 66.6192 68.9638C68.0027 70.0456 70.3235 71.9235 72.2062 71.5238C72.2783 71.5016 72.3436 71.4613 72.3958 71.4068C72.4479 71.3522 72.4852 71.2851 72.504 71.212C72.5229 71.1389 72.5226 71.0622 72.5034 70.9892C72.4841 70.9162 72.4464 70.8494 72.394 70.7951C71.6489 70.1248 70.7797 69.6068 69.8356 69.2704C66.8952 67.6349 63.9565 64.534 61.1253 62.9788C60.6373 62.6498 60.1189 63.3544 60.5202 63.8005Z" fill="black"/>
<path d="M131.746 90.421C132.564 89.7523 133.13 88.8251 133.351 87.7919C133.573 86.7587 133.436 85.6809 132.963 84.7358C132.491 83.7906 131.711 83.0344 130.752 82.5913C129.792 82.1483 128.711 82.0449 127.685 82.2981C126.651 80.0912 125.69 77.8618 124.635 75.655C126.186 75.49 127.741 75.9273 128.979 76.8764C129.052 76.949 129.15 76.9906 129.253 76.9926C129.356 76.9946 129.455 76.9567 129.531 76.887C129.607 76.8173 129.653 76.721 129.659 76.6182C129.666 76.5155 129.632 76.4142 129.566 76.3355C128.885 75.5383 128.011 74.9295 127.028 74.5678C126.044 74.206 124.983 74.1034 123.949 74.2698C123.456 73.2844 122.934 72.3246 122.376 71.3584C122.333 71.2861 122.266 71.2315 122.187 71.2045C122.108 71.1775 122.021 71.1798 121.943 71.2111C121.866 71.2424 121.802 71.3006 121.763 71.375C121.725 71.4495 121.714 71.5353 121.734 71.6168C121.997 72.6247 122.297 73.6359 122.65 74.6454C122.345 74.7721 122.053 74.9296 121.78 75.1157C121.265 73.9649 120.751 72.8125 120.161 71.6874C120.112 71.6083 120.037 71.5488 119.949 71.5192C119.861 71.4896 119.766 71.4918 119.679 71.5254C119.593 71.559 119.521 71.6219 119.476 71.7031C119.431 71.7843 119.416 71.8787 119.434 71.9699C119.767 73.355 120.182 74.719 120.678 76.0546C120.001 76.7624 119.547 77.6527 119.371 78.6155C119.195 79.5783 119.305 80.5716 119.687 81.4728C120.069 82.374 120.707 83.1436 121.521 83.6867C122.335 84.2298 123.291 84.5226 124.27 84.529C125.382 86.9879 127.356 90.9907 127.438 91.1721C124.717 91.6263 124.123 91.1721 121.241 90.4691C121.142 90.4431 121.038 90.4492 120.943 90.4864C120.848 90.5236 120.767 90.59 120.712 90.6761C120.657 90.7621 120.631 90.8634 120.638 90.9653C120.644 91.0671 120.683 91.1643 120.748 91.2427C122.467 92.9745 125.679 93.1206 128.096 92.4866C128.524 93.7025 129.26 94.7864 130.232 95.6324C130.283 95.6633 130.341 95.6803 130.401 95.6818C130.46 95.6832 130.519 95.669 130.571 95.6406C130.624 95.6121 130.668 95.5705 130.699 95.5198C130.73 95.469 130.747 95.411 130.749 95.3515C130.591 94.135 130.14 92.975 129.434 91.9714C130.755 91.3535 130.33 91.1577 130.718 91.8767C131.052 92.7567 131.631 93.5226 132.386 94.0836C132.446 94.1179 132.513 94.1366 132.582 94.1379C132.651 94.1392 132.719 94.1231 132.779 94.0911C132.84 94.059 132.892 94.0121 132.93 93.9547C132.968 93.8972 132.99 93.8312 132.996 93.7626C132.944 92.8137 132.618 91.9003 132.057 91.1336C131.979 90.8858 131.874 90.6469 131.746 90.421ZM131.019 88.9893C130.919 88.7582 129.824 86.7086 128.388 83.7072C131.134 83.2225 133.052 86.3732 131.019 88.9893ZM123.225 76.0771C124.115 78.3241 125.173 80.5614 126.229 82.7442C125.878 82.8389 125.549 82.932 125.196 83.0027C124.257 80.8664 123.388 78.7061 122.467 76.5698C122.697 76.373 122.952 76.2073 123.225 76.0771ZM121.369 77.8618C122.05 79.5519 122.778 81.2195 123.53 82.8855C123.019 82.7534 122.545 82.506 122.144 82.1624C121.743 81.8189 121.427 81.3881 121.218 80.9032C121.009 80.4183 120.915 79.8922 120.941 79.365C120.967 78.8378 121.114 78.3236 121.369 77.8618ZM128.834 90.6826C127.94 88.893 126.671 86.2415 125.854 84.4231C126.213 84.3501 126.567 84.2481 126.91 84.1181C127.712 85.7841 129.704 89.7517 129.892 90.1032C129.552 90.3189 129.199 90.5124 128.834 90.6826Z" fill="black"/>
<path d="M214.568 12.2943C214.803 11.3313 215.023 10.394 215.178 9.4294C215.228 9.12445 214.801 8.86604 214.639 9.19507C213.09 12.3344 213.979 11.9236 212.644 11.731C212.965 10.6508 213.268 9.56903 213.536 8.4664C213.626 8.09083 213.09 7.83403 212.902 8.20799C212.324 9.38598 211.806 10.5929 211.352 11.8241C210.492 11.9447 209.685 12.3065 209.022 12.8675C208.36 13.4286 207.87 14.1659 207.61 14.9939C207.349 15.822 207.329 16.7069 207.551 17.546C207.773 18.3852 208.228 19.1442 208.864 19.7351C208.039 22.6016 207.365 25.29 207.128 26.1679C205.073 25.1407 204.784 24.1312 203.465 22.3641C203.234 22.0559 202.642 22.1073 202.663 22.576C202.867 23.6826 203.358 24.7161 204.087 25.573C204.816 26.4299 205.758 27.0801 206.818 27.4584C206.426 28.5398 206.282 29.6955 206.396 30.8401C206.409 30.8899 206.435 30.9354 206.472 30.9721C206.508 31.0088 206.553 31.0354 206.603 31.0495C206.652 31.0636 206.705 31.0645 206.755 31.0523C206.805 31.0401 206.851 31.0151 206.888 30.9797C207.436 30.3297 207.502 29.8434 207.993 27.8821C208.314 27.9527 208.673 27.9993 209.002 28.0426C208.652 28.9786 208.547 29.9884 208.696 30.9765C208.715 31.0334 208.748 31.0847 208.792 31.1259C208.836 31.1671 208.889 31.1969 208.947 31.2127C209.005 31.2286 209.066 31.23 209.124 31.2168C209.183 31.2036 209.238 31.1762 209.283 31.137C209.981 30.4388 209.981 29.5015 210.387 28.0137C215.328 27.3203 215.872 21.5648 212.405 20.0802C212.992 17.9664 213.626 15.8783 214.214 13.7645C214.777 14.1347 215.261 14.6142 215.636 15.1747C216.011 15.7352 216.269 16.3652 216.397 17.0275C216.472 17.4255 217.085 17.3099 217.101 16.9344C217.151 16.0022 216.94 15.0745 216.493 14.2551C216.046 13.4357 215.379 12.7568 214.568 12.2943ZM210.813 13.4435C210.272 14.9939 209.803 16.5893 209.357 18.1622C209.093 17.7694 208.919 17.3224 208.85 16.8539C208.781 16.3855 208.818 15.9075 208.957 15.455C209.097 15.0025 209.336 14.587 209.657 14.2389C209.978 13.8909 210.373 13.6191 210.813 13.4435ZM208.347 26.5435C208.742 24.9626 209.066 23.616 209.967 20.4862C210.246 20.6291 210.537 20.7473 210.837 20.8393C209.988 23.9193 209.404 26.4681 209.357 26.6848C209.017 26.6621 208.68 26.6149 208.347 26.5435ZM211.188 26.383L210.766 26.5226C210.887 26.1021 211.057 25.1664 212.081 21.3578C212.523 21.6632 212.868 22.0893 213.075 22.5853C213.282 23.0813 213.342 23.6263 213.248 24.1555C213.154 24.6846 212.91 25.1756 212.545 25.57C212.179 25.9643 211.709 26.2454 211.188 26.3798V26.383ZM210.367 19.1284C210.976 17.1093 211.634 15.1159 212.268 13.1177C212.537 13.1178 212.806 13.1414 213.071 13.1883C212.366 15.2748 211.787 17.4143 211.217 19.504C210.925 19.3971 210.641 19.2705 210.367 19.1252V19.1284Z" fill="black"/>
<path d="M220.25 88.8479C217.981 85.9075 212.315 83.4776 209.052 86.1948C208.998 86.2515 208.962 86.3223 208.948 86.399C208.934 86.4756 208.942 86.5547 208.972 86.6267C209.002 86.6988 209.051 86.7607 209.115 86.8051C209.18 86.8495 209.255 86.8745 209.333 86.877C223.398 85.1211 222.428 100.332 216.612 103.474C204.77 109.869 198.942 93.167 207.463 87.3232C207.528 87.2795 207.575 87.2129 207.593 87.1365C207.611 87.0602 207.6 86.9798 207.561 86.9114C207.523 86.8431 207.46 86.7918 207.385 86.7679C207.31 86.7439 207.229 86.7491 207.158 86.7823C199.531 90.6632 201.433 103.604 209.294 105.891C211.409 106.457 213.65 106.329 215.687 105.526C217.724 104.723 219.449 103.288 220.61 101.431C222.613 97.6 223.052 92.48 220.25 88.8479Z" fill="#00B478"/>
<path d="M207.572 99.0142C208.021 99.6033 208.59 100.09 209.242 100.442C209.894 100.794 210.613 101.003 211.352 101.056C211.307 101.813 211.416 102.572 211.673 103.287C211.795 103.566 212.207 103.447 212.283 103.216C212.48 102.53 212.544 101.812 212.471 101.102C217.958 100.76 218.401 95.7496 215.241 94.671C214.294 94.4469 213.314 94.4066 212.352 94.5523C212.398 93.3325 212.469 92.0886 212.469 90.8608C213.7 90.8099 214.926 91.06 216.039 91.5894C216.411 91.7371 216.554 91.1914 216.297 91.002C215.192 90.161 213.833 89.7222 212.445 89.7581C212.421 89.2413 212.371 88.7486 212.304 88.2559C212.256 87.9028 211.694 87.9349 211.623 88.2559C211.507 88.7909 211.412 89.3542 211.341 89.9459C207.689 90.9892 207.254 95.3756 211.27 95.7913C211.27 95.862 211.294 98.4203 211.318 99.6433C210.261 99.309 209.257 98.8265 208.336 98.2101C207.88 97.9517 207.243 98.5214 207.572 99.0142ZM215.79 97.9565C215.467 98.558 214.974 99.0507 214.373 99.3725C213.771 99.6944 213.087 99.8311 212.408 99.7653C212.408 99.7412 212.362 97.0882 212.362 95.7978C214.503 95.7978 216.51 95.939 215.79 97.9565ZM211.025 94.4833C208.847 93.9648 209.874 91.9939 211.259 91.2428C211.108 94.6951 211.554 94.6085 211.025 94.4833Z" fill="#00B478"/>
<path d="M130.361 17.4112C127.075 15.3247 120.63 14.7132 118.27 18.4914C118.009 18.9119 118.51 19.2522 118.882 19.1013C121.915 17.8815 125.055 17.0854 128.202 18.3742C134.351 20.8925 135.194 30.4759 131.841 33.9861C121.371 44.9402 109.867 28.6623 116.98 20.2232C117.045 20.1579 117.082 20.0692 117.082 19.9768C117.082 19.8844 117.045 19.7958 116.98 19.7305C116.948 19.6981 116.909 19.6724 116.867 19.6549C116.825 19.6374 116.779 19.6284 116.734 19.6284C116.641 19.6284 116.553 19.6651 116.487 19.7305C108.111 27.4971 119.363 45.8278 131.558 36.2812C132.567 35.5612 133.416 34.6416 134.054 33.5794C134.692 32.5172 135.105 31.3352 135.267 30.1068C135.929 25.417 134.563 20.0868 130.361 17.4112Z" fill="#00B478"/>
<path d="M123.671 27.7664C123.756 28.0232 124.016 29.0119 124.938 31.7789C123.738 31.7713 122.545 31.5974 121.394 31.2621C120.83 31.1401 120.245 31.8928 120.784 32.3182C121.44 32.792 122.189 33.1226 122.982 33.2885C123.774 33.4544 124.592 33.4519 125.384 33.2812C125.583 34.0805 125.943 34.8312 126.44 35.488C126.492 35.5378 126.558 35.5714 126.629 35.5848C126.7 35.5982 126.773 35.5908 126.84 35.5635C126.907 35.5363 126.965 35.4902 127.006 35.431C127.048 35.3718 127.071 35.3019 127.074 35.2296C127.071 34.4542 126.903 33.6883 126.581 32.9826C129.542 31.9956 131.518 28.9814 129.868 26.5963C128.467 24.5724 126.323 25.5403 124.398 26.1502C124.047 24.8822 123.742 23.5677 123.365 22.2773C124.619 21.8228 125.968 21.6936 127.286 21.9017C127.708 21.9483 127.735 21.3319 127.38 21.1971C125.966 20.65 124.403 20.617 122.967 21.104C122.784 20.5913 122.572 20.0892 122.333 19.6001C122.29 19.5303 122.226 19.4761 122.15 19.4456C122.073 19.4152 121.99 19.4102 121.91 19.4313C121.831 19.4524 121.761 19.4985 121.71 19.5628C121.659 19.627 121.63 19.706 121.628 19.7879C121.666 20.4122 121.752 21.0325 121.887 21.6433C118.458 23.8646 119.28 28.6138 123.671 27.7664ZM128.976 28.0874C129.331 29.8015 127.591 31.0695 126.183 31.5157C126.146 31.5339 126.105 31.5416 126.064 31.5381C125.62 30.1771 125.174 28.792 124.75 27.4069C125.151 27.4117 128.464 25.6221 128.976 28.0874ZM122.191 23.0413C123.11 26.4984 123.406 26.4455 123.225 26.4455C120.962 26.8564 120.349 24.741 122.191 23.0461V23.0413Z" fill="#00B478"/>
<path d="M177.577 105.54C178.903 101.112 177.976 100.863 178.001 98.2612C177.992 98.0877 177.928 97.9216 177.818 97.7868C177.708 97.6521 177.559 97.5557 177.391 97.5117C168.342 95.5616 163.013 88.7628 162.859 81.054C162.972 79.923 163.003 78.7853 162.952 77.6498C162.941 77.5048 162.883 77.3672 162.788 77.2575C162.692 77.1477 162.564 77.0715 162.422 77.04C162.28 77.0085 162.132 77.0235 161.999 77.0827C161.866 77.1419 161.756 77.2423 161.684 77.3689C160.588 79.3174 161.203 83.5963 161.825 85.7727C162.769 89.0002 164.563 91.9147 167.02 94.2109C169.476 96.5072 172.505 98.1006 175.789 98.8245C176.399 98.9658 176.495 98.8486 176.752 99.412C177.135 101.375 177.222 103.385 177.009 105.375C177.007 105.75 177.473 105.867 177.577 105.54Z" fill="black"/>
<path d="M173.082 90.3277C170.18 88.6521 168.046 85.15 168.505 79.5052C168.872 78.1126 168.976 76.6634 168.81 75.2327C168.78 75.1461 168.729 75.0684 168.661 75.0069C168.593 74.9454 168.511 74.902 168.422 74.8809C168.333 74.8597 168.24 74.8615 168.151 74.8859C168.063 74.9104 167.983 74.9568 167.917 75.0208C166.877 76.2149 166.985 78.425 166.908 79.9738C166.609 85.9733 169.394 89.7643 172.8 91.0082C172.888 91.0386 172.985 91.0341 173.071 90.9955C173.157 90.9569 173.224 90.8872 173.26 90.8005C173.296 90.7138 173.298 90.6167 173.265 90.5288C173.232 90.441 173.166 90.3691 173.082 90.3277Z" fill="black"/>
<path d="M175.489 87.2284C173.209 81.1294 175.058 79.4281 175.302 76.2887C175.319 76.1926 175.305 76.0933 175.262 76.0056C175.219 75.9179 175.149 75.8464 175.062 75.8016C174.975 75.7569 174.876 75.7412 174.78 75.7569C174.683 75.7727 174.595 75.819 174.526 75.889C172.063 78.4153 172.761 84.601 174.785 87.5799C175.035 87.9089 175.64 87.6537 175.489 87.2284Z" fill="black"/>
<path d="M179.238 88.2624C178.114 82.0671 180.272 78.9662 180.201 77.557C180.183 77.228 179.755 76.9455 179.472 77.1814C178.156 78.2825 177.867 80.6547 177.736 82.2757C177.555 84.3803 177.852 86.4985 178.604 88.4726C178.618 88.5142 178.64 88.5527 178.668 88.5859C178.697 88.6191 178.732 88.6463 178.771 88.666C178.81 88.6856 178.853 88.6974 178.897 88.7006C178.941 88.7037 178.984 88.6983 179.026 88.6845C179.068 88.6707 179.106 88.6488 179.139 88.6201C179.173 88.5914 179.2 88.5565 179.219 88.5173C179.239 88.4781 179.251 88.4354 179.254 88.3917C179.257 88.3479 179.252 88.304 179.238 88.2624Z" fill="black"/>
<path d="M161.584 97.2291C161.342 97.2034 161.097 97.2395 160.873 97.3337C160.648 97.428 160.451 97.5775 160.3 97.7683C159.091 99.4167 160.595 100.89 161.638 100.187C162.149 99.8333 162.581 99.3775 162.906 98.8485C163.012 98.6513 163.056 98.4274 163.034 98.205C163.013 97.9826 162.926 97.7716 162.784 97.5985C162.643 97.4254 162.454 97.298 162.24 97.2323C162.026 97.1665 161.798 97.1654 161.584 97.2291Z" fill="black"/>
<path d="M168.251 101.361C168.008 101.334 167.761 101.369 167.535 101.464C167.309 101.559 167.111 101.709 166.959 101.901C165.587 103.773 167.738 106.028 169.566 102.98C169.67 102.784 169.714 102.561 169.692 102.339C169.671 102.118 169.584 101.908 169.444 101.735C169.304 101.563 169.116 101.435 168.904 101.369C168.692 101.302 168.465 101.299 168.251 101.361Z" fill="black"/>
<path d="M165.035 100.07C163.706 100.581 162.467 101.303 161.366 102.206C160.221 102.798 159.182 103.575 158.291 104.506C156.901 106.691 163.449 108.063 162.658 106.479C162.072 105.516 160.863 105.439 160.122 105.047C162.115 103.838 163.945 102.378 165.568 100.704C165.786 100.351 165.341 99.9802 165.035 100.07Z" fill="black"/>
<path d="M164.142 108.076C157.722 108.639 157.562 107.365 156.395 106.525C156.337 106.475 156.266 106.443 156.191 106.432C156.115 106.421 156.037 106.433 155.968 106.465C155.899 106.497 155.84 106.549 155.799 106.614C155.759 106.679 155.738 106.754 155.739 106.83C155.774 109.649 160.104 109.788 162.757 109.625C158.56 115.271 154.864 114.3 155.268 111.08C155.405 109.999 156.222 109.032 155.878 107.957C155.557 106.954 153.245 108.731 153.578 112.066C153.962 115.905 159.238 118.004 164.776 109.154C164.837 109.044 164.867 108.919 164.865 108.794C164.863 108.668 164.828 108.545 164.764 108.436C164.7 108.328 164.61 108.237 164.501 108.174C164.392 108.111 164.268 108.077 164.142 108.076Z" fill="black"/>
<path d="M217.381 142.749C216.066 142.007 211.492 139.218 209.328 139.181C208.775 138.718 207.74 139.783 206.653 140.096C203.802 140.917 200.53 138.972 197.943 138.218C194.049 137.081 190.622 138.572 187.732 141.246C184.682 144.066 181.954 148.498 177.402 148.899C173.434 149.249 169.162 144.838 169.396 140.895C169.886 140.895 170.571 139.657 170.781 139.368C171.208 138.784 170.178 138.152 169.796 138.805C169.658 139.041 169.444 139.608 169.208 139.768C168.727 140.099 168.16 139.653 165.735 140.238C165.328 139.584 164.763 139.043 164.092 138.666C164.053 138.645 164.009 138.637 163.965 138.641C163.922 138.645 163.88 138.662 163.846 138.69C163.812 138.717 163.787 138.754 163.773 138.795C163.76 138.837 163.759 138.882 163.771 138.924C164.052 139.734 164.509 140.472 165.109 141.084C165.109 141.538 163.62 143.01 165.578 149.371C167.356 155.149 169.356 158.856 175.274 159.482C184.703 160.49 185.674 153.088 192.105 150.867C199.353 148.363 205.106 158.76 213.773 150.679C215.892 148.892 217.293 146.398 217.716 143.659C217.719 143.604 217.712 143.55 217.694 143.498C217.734 143.356 217.725 143.205 217.668 143.069C217.611 142.932 217.51 142.82 217.381 142.749ZM166.181 146.833C165.839 145 165.721 143.132 165.828 141.27C166.609 141.016 167.426 140.889 168.247 140.895C168.14 141.908 168.255 142.933 168.583 143.897C168.911 144.862 169.445 145.744 170.147 146.482C169.632 146.504 169.091 146.602 168.598 146.623C168.253 146.636 166.342 146.519 166.181 146.833ZM166.366 147.565C167.087 147.747 167.833 147.81 168.574 147.75C169.353 147.818 170.135 147.664 170.829 147.304C172.1 148.797 173.852 149.8 175.782 150.143C173.357 152.355 172.972 152.624 168.857 154.017C167.819 151.953 166.986 149.792 166.371 147.565H166.366ZM179.397 157.985C176.905 158.455 174.331 158.202 171.979 157.256C170.947 156.684 170.069 155.871 169.42 154.886C172.019 154.521 176.241 152.34 177.59 150.167C179.893 149.898 182.045 148.883 183.718 147.278C183.53 147.912 183.459 148.616 183.294 149.226C182.321 152.865 181.315 154.159 179.402 157.985H179.397ZM191.37 149.44C191.367 149.473 191.375 149.506 191.394 149.533C187.221 151.138 184.441 155.632 180.877 157.422C182.656 155.118 183.943 152.472 184.656 149.65C184.857 148.915 185.52 146.819 184.817 146.294C187.385 143.768 190.019 140.195 193.762 139.415C191.784 141.585 191.322 146.498 191.38 149.44H191.37ZM199.751 150.262C197.416 149.058 194.733 148.709 192.168 149.275C192.48 146.682 193.103 144.136 194.023 141.693C194.405 140.89 195.307 139.784 195.174 139.274C197.543 139.303 199.475 140.558 202.029 141.317C200.631 144.098 199.855 147.15 199.756 150.262H199.751ZM207.545 152.139C205.136 152.21 202.747 151.677 200.596 150.589C201.127 147.496 202.092 144.493 203.461 141.668C205.174 142.085 206.98 141.851 208.531 141.012C208.597 141.905 208.731 142.792 208.93 143.665C209.076 146.556 208.605 149.444 207.55 152.139H207.545ZM212.945 149.157C211.762 150.415 210.286 151.358 208.648 151.904C211.195 147.679 210.648 141.94 209.704 140.612C209.519 140.351 210.338 140.73 210.338 140.73C210.338 140.73 214.561 143.074 216.277 143.734C215.521 145.736 214.392 147.577 212.949 149.157H212.945Z" fill="black"/>
<path d="M259.924 106.033C256.117 108.052 252.647 110.564 248.421 111.715C246.895 112.113 244.478 112.183 243.446 113.522C243.168 113.907 242.975 114.347 242.878 114.812C242.781 115.277 242.782 115.757 242.882 116.221C242.087 116.263 241.299 116.397 240.534 116.621C237.17 117.017 233.762 116.778 230.487 115.916C230.435 115.869 230.373 115.834 230.306 115.816C230.238 115.797 230.167 115.794 230.099 115.808C230.03 115.822 229.965 115.851 229.91 115.895C229.855 115.938 229.811 115.994 229.782 116.058C229.031 117.855 223.694 142.198 225.58 151.411C225.675 151.952 226.383 151.732 226.449 151.294C226.999 147.058 226.558 143.418 227.951 133.499C230.437 116.517 230.431 120.41 230.699 117.128C233.805 118.232 237.139 118.539 240.394 118.021C241.38 117.879 242.787 117.86 243.492 117.106C244.627 125.161 247.635 135.523 248.147 148.445C248.41 154.661 248.445 162.248 243.569 166.193C236.09 172.313 213.18 166.657 203.926 163.946C204.378 162.014 204.361 160.001 203.877 158.077C203.853 157.993 203.802 157.919 203.732 157.867C203.663 157.815 203.578 157.786 203.491 157.786C203.403 157.786 203.319 157.815 203.249 157.867C203.179 157.919 203.128 157.993 203.104 158.077C202.825 159.573 202.652 161.087 202.587 162.607C199.525 186.768 195.085 192.128 194.723 194.16C187.277 190.644 163.151 191.401 155.307 191.717C151.691 191.859 147.255 191.695 144.085 193.736C138.61 184.315 136.984 156.472 135.211 145.586C135.14 145.116 134.381 145.235 134.389 145.704C134.437 148.475 134.647 151.244 134.835 154.014C129.915 152.461 125.179 150.375 120.711 147.793C93.4262 130.873 89.9738 95.9887 84.6757 86.2624C87.7027 86.1196 93.707 82.8133 95.4292 80.7621C96.7004 82.8165 106.704 92.8895 117.674 112.392C118.036 113.223 118.528 113.992 119.13 114.669C119.223 114.756 119.341 114.811 119.467 114.826C119.593 114.841 119.721 114.815 119.831 114.751C119.941 114.688 120.028 114.592 120.08 114.476C120.131 114.359 120.144 114.23 120.116 114.106C119.822 112.287 109.523 95.3275 99.2234 83.2113C98.4867 82.3414 95.8738 78.7173 94.715 79.3368C93.8495 79.9139 93.0188 80.5415 92.2272 81.2163C90.2885 82.5703 88.1602 83.6304 85.9115 84.3621C85.5557 83.2207 85.1003 82.1127 84.5505 81.051C84.1452 79.9468 83.4275 78.9843 82.4849 78.2807C78.9121 75.7593 77.0038 78.4798 60.1593 68.7727C59.7131 68.5159 59.1498 69.1724 59.5719 69.5255C63.587 72.7493 68.1555 75.2152 73.0539 76.8025C78.7324 78.7895 81.5203 78.1636 83.0306 81.4747C83.4592 82.6623 83.9609 83.8223 84.5329 84.9479C83.7897 85.362 83.2216 85.537 83.3355 86.0714C84.1707 89.3337 85.1817 92.5484 86.3642 95.7014C87.3272 98.7766 88.2661 101.876 89.2532 104.929C94.5352 121.434 102.584 137.85 118.153 148.382C123.162 151.957 128.876 154.422 134.914 155.613C135.511 162.88 138.095 189.117 143.037 194.488C142.776 195.112 142.648 195.784 142.661 196.46C141.982 197.139 129.723 220.93 122.871 245.478C119.472 257.631 116.862 272.333 117.236 283.438C117.205 287.652 118.273 291.801 120.336 295.476C124.598 302.217 132.58 304.785 139.328 298.787C138.271 293.434 139.167 288.033 139.844 282.612C141.591 267.739 145.025 253.113 150.079 239.017C151.799 234.069 153.822 229.232 156.137 224.533C156.263 224.332 156.456 224.183 156.683 224.113C156.909 224.042 157.153 224.055 157.371 224.148C157.589 224.241 157.766 224.409 157.871 224.622C157.976 224.834 158.002 225.077 157.944 225.307C156.154 231.269 146.869 245.273 141.042 284.067C140.291 289.184 139.276 294.749 140.266 299.914C140.951 301.689 141.901 303.351 143.083 304.843C150.24 313.991 163.91 315.05 175.058 309.844C182.664 306.298 187.946 299.75 192.923 293.2C203.407 279.397 208.652 266.971 216.281 251.576C216.403 251.35 216.435 251.086 216.369 250.838C216.304 250.59 216.147 250.375 215.929 250.239C214.003 248.83 212.077 247.445 210.151 246.037C210.644 245.395 211.09 244.722 211.583 244.111C211.961 243.719 212.314 243.304 212.639 242.867C212.793 243.002 212.914 243.171 212.992 243.36C217.428 247.263 227.42 245.247 234.872 245.872C239.313 246.234 246.453 250.082 249.872 244.816C250.317 244.22 250.596 243.519 250.683 242.781C250.769 242.043 250.66 241.295 250.365 240.614C249.962 239.811 234.095 230.993 233.369 230.589C231.582 229.394 229.659 228.417 227.641 227.677C227.072 227.546 226.482 227.528 225.906 227.625C225.33 227.722 224.778 227.932 224.283 228.242C224.15 227.398 224.306 226.286 223.908 225.799C223.333 225.1 215.241 221.559 212.734 220.683C211.846 220.371 209.599 223.167 208.391 226.316C208.193 226.414 207.98 226.592 207.803 226.477C207.518 226.295 207.643 226.429 207.591 226.007C207.647 225.245 207.608 224.48 207.474 223.729C207.028 222.626 205.245 222.063 204.282 221.546C198.355 218.384 198.225 218.336 197.498 217.884C197.523 218.298 197.591 219.311 197.591 219.762C205.482 224.081 205.805 223.885 206.019 224.48C206.331 225.34 205.357 227.66 207.311 228.026C208.216 228.196 207.731 227.291 206.489 232.886C206.062 234.287 206.071 235.784 206.513 237.181C205.846 237.858 205.226 238.579 204.657 239.341C204.24 238.977 204.007 239.317 202.028 239.02C202.483 237.254 199.125 234.375 196.488 234.911C196.426 234.928 196.37 234.961 196.325 235.007C196.281 235.052 196.248 235.109 196.232 235.171C196.216 235.233 196.216 235.298 196.233 235.359C196.25 235.421 196.282 235.477 196.328 235.523C197.591 236.527 199.974 236.405 200.623 238.598C200.693 238.81 200.717 238.949 200.764 239.115C199.963 240.011 199.213 240.952 198.517 241.931C197.882 242.553 197.379 243.295 197.037 244.114C196.661 243.856 196.31 243.621 195.934 243.387C195.536 243.06 195.083 242.806 194.596 242.636C194.48 242.607 194.358 242.613 194.246 242.653C194.133 242.692 194.035 242.764 193.962 242.859C193.89 242.954 193.847 243.067 193.839 243.186C193.83 243.305 193.857 243.424 193.915 243.528C194.255 243.945 194.669 244.295 195.137 244.56C195.488 244.819 195.817 245.077 196.169 245.311C194.591 246.485 193.115 247.789 191.755 249.208C185.93 268.176 175.384 291.942 172.387 294.63C172.265 294.744 172.109 294.815 171.944 294.833C171.778 294.851 171.61 294.816 171.466 294.731C171.322 294.647 171.209 294.519 171.144 294.365C171.078 294.212 171.064 294.041 171.103 293.879C171.926 291.865 172.932 289.931 174.108 288.101C180.656 275.035 186.059 261.426 190.256 247.427C194.628 232.955 195.525 226.637 196.336 217.965L196.194 218.107C196.493 211.414 196.148 204.708 195.162 198.081C196.464 192.22 195.141 197.568 197.721 191.18C200.913 183.315 202.462 173.637 203.707 165.169C211.411 167.965 225.882 170.857 234.414 170.403C240.889 170.082 245.633 168.36 248.147 162.328C251.848 153.515 248.219 133.002 246.315 123.71C244.529 114.875 243.529 114.692 246.363 114.061C251.711 113.156 256.598 110.477 260.237 106.455C260.265 106.434 260.288 106.409 260.306 106.379C260.324 106.349 260.335 106.317 260.34 106.282C260.345 106.248 260.344 106.214 260.335 106.18C260.327 106.147 260.312 106.115 260.292 106.087C260.271 106.06 260.245 106.036 260.216 106.019C260.186 106.001 260.153 105.989 260.119 105.984C260.085 105.979 260.05 105.981 260.017 105.989C259.983 105.997 259.952 106.012 259.924 106.033ZM209.046 228.929C209.772 226.384 211.073 224.039 212.848 222.074C213.284 221.638 212.337 222.155 220.666 225.971C221.253 226.168 221.812 226.437 222.332 226.774C222.688 227.119 222.216 227.445 222.849 229.615C222.911 229.827 223.054 230.007 223.247 230.117C223.44 230.226 223.667 230.257 223.882 230.202C224.916 229.802 226.441 229.591 227.145 228.676C227.145 228.652 227.169 228.652 227.169 228.629C228.822 229.958 230.617 231.099 232.522 232.032C248.715 241.341 247.448 240.763 248.978 241.376C248.784 245.236 246.169 246.435 242.381 245.742C239.276 244.808 236.067 244.264 232.827 244.122C228.163 243.989 222.945 244.7 218.154 244.005C216.534 243.771 215.453 242.971 213.857 242.666C214.178 241.209 212.638 239.474 211.65 238.493C210.687 237.53 209.092 236.333 207.707 236.803C207.613 236.73 207.497 236.689 207.378 236.686C207.524 234.029 208.089 231.411 209.052 228.929H209.046ZM207.848 237.943C208.417 238.009 208.965 238.196 209.455 238.492C209.945 238.788 210.366 239.185 210.689 239.657C211.345 240.222 211.839 240.951 212.121 241.769C211.394 242.005 210.899 242.849 210.477 243.413C209.963 244.048 209.5 244.723 209.092 245.432C207.519 244.283 205.946 243.154 204.397 242.005C205.478 240.592 206.632 239.236 207.855 237.943H207.848ZM201.393 239.869C202.107 240.358 202.974 240.574 203.834 240.479C203.663 240.738 203.507 241.006 203.364 241.281C203.271 241.211 203.203 241.164 203.105 241.094C202.956 241.007 202.786 240.962 202.613 240.962C202.44 240.962 202.27 241.007 202.12 241.094C197.404 244.093 199.014 243.845 201.399 239.869H201.393ZM152.399 224.233C150.02 222.57 148.128 223.313 146.881 222.949C146.816 222.931 146.756 222.897 146.709 222.849C146.662 222.801 146.628 222.741 146.612 222.675C146.595 222.61 146.597 222.541 146.616 222.476C146.635 222.412 146.671 222.353 146.72 222.307C148.486 220.898 151.463 222.402 152.895 223.622C153.227 223.906 152.763 224.483 152.405 224.233H152.399ZM158.783 221.111C158.743 221.239 158.664 221.35 158.556 221.429C158.448 221.508 158.318 221.551 158.185 221.551C158.051 221.551 157.921 221.508 157.813 221.429C157.706 221.35 157.626 221.239 157.586 221.111C156.488 214.049 160.297 198.312 161.883 196.715C162.141 196.715 162.375 196.715 162.634 196.691C163.027 197.184 160.908 203.379 159.934 208.969C158.819 215.484 159.279 217.718 158.798 221.111H158.783ZM168.433 226.557C166.617 226.464 165.662 225.127 162.046 224.914C161.355 224.95 160.661 224.903 159.981 224.774C159.908 224.753 159.844 224.711 159.795 224.654C159.746 224.597 159.714 224.527 159.705 224.452C159.695 224.377 159.707 224.301 159.739 224.233C159.772 224.166 159.823 224.108 159.888 224.069C161.392 223.471 163.054 223.396 164.606 223.857C165.991 224.14 168.009 224.66 168.76 225.971C168.796 226.029 168.816 226.095 168.818 226.163C168.819 226.231 168.803 226.298 168.771 226.358C168.738 226.417 168.69 226.467 168.632 226.502C168.573 226.537 168.507 226.556 168.439 226.557H168.433ZM193.646 197.346C177.701 194.822 161.489 194.467 145.449 196.29H143.923C143.923 194.55 143.923 195.25 144.229 194.834C148.633 193.512 149.821 193.096 169.394 193.096C175.799 192.951 182.204 193.399 188.527 194.435C191.922 195.065 192.379 195.39 193.809 195.703C193.817 196.257 193.764 196.811 193.652 197.354L193.646 197.346Z" fill="black"/>
<path d="M223.842 140.613C222.208 138.205 206.896 128.456 190.137 125.33C186.314 124.401 182.369 124.076 178.446 124.367C178.172 123.885 174.578 120.786 173.657 120.823C173.204 120.629 173.164 121.102 172.854 121.715C172.805 120.097 173.1 118.487 173.719 116.992C176.008 118.05 180.006 117.088 181 114.649C181.352 113.763 181.479 112.804 181.368 111.857C181.257 110.91 180.913 110.006 180.366 109.225C182.464 108.354 184.266 106.895 185.555 105.023C186.298 104.046 186.812 102.914 187.06 101.711C187.308 100.508 187.282 99.2655 186.986 98.0737C186.01 94.4657 181.869 92.766 182.877 87.6284C183.343 86.4782 183.743 85.3025 184.075 84.107C184.259 82.8102 181.269 83.7058 180.929 88.6139C180.507 95.0066 187.31 97.1364 184.991 102.98C183.844 105.962 181.041 107.025 179.873 108.686C179.873 108.708 179.849 108.708 179.849 108.733C178.672 107.554 175.581 107.198 175.247 109.375C175.201 109.696 175.435 110.102 175.811 110.033C176.683 109.717 177.646 109.759 178.488 110.15C178.985 110.651 179.327 111.286 179.473 111.977C179.619 112.668 179.562 113.387 179.309 114.047C178.94 114.658 178.415 115.16 177.788 115.502C177.162 115.845 176.455 116.015 175.742 115.995C175.088 115.952 174.461 115.724 173.933 115.337C173.405 114.95 172.998 114.421 172.759 113.811C172.737 113.743 172.693 113.684 172.634 113.644C172.575 113.603 172.505 113.583 172.433 113.586C172.362 113.588 172.294 113.614 172.238 113.659C172.182 113.704 172.143 113.766 172.126 113.835C172.032 114.225 172.021 114.63 172.094 115.024C172.168 115.419 172.323 115.793 172.551 116.124C171.943 117.17 171.612 118.353 171.588 119.563C171.325 120.905 171.472 122.296 172.01 123.553C171.409 124.551 170.743 125.509 170.015 126.418C168.099 128.793 167.274 129.147 166.704 129.915C166.577 129.535 163.086 127.458 161.086 124.47C161.603 123.694 161.298 122.404 161.181 121.534C161.115 120.99 161.022 120.45 160.902 119.916C164.336 119.657 167.617 118.39 170.336 116.276C170.877 115.807 170.219 114.992 169.633 115.173C167.742 115.754 157.064 120.951 153.317 116.183C149.896 111.727 153.445 105.452 156.345 100.947C158.547 97.8105 160.971 94.8368 163.6 92.0486C163.951 91.6264 163.41 90.9251 162.942 91.2749C159.608 94.0064 156.772 97.2944 154.56 100.993C152.26 104.561 149.773 108.928 150.405 113.342C150.568 114.97 151.264 116.5 152.385 117.692C153.506 118.885 154.988 119.674 156.604 119.939C156.669 119.939 158.109 119.96 159.592 120C159.863 120.892 159.972 121.825 159.913 122.755C159.2 121.686 159.096 120.374 157.238 121.582C156.497 122.078 155.839 122.688 155.289 123.389C154.185 120.807 150.663 120.69 148.709 122.497C145.463 119.043 143.855 121.577 142.37 121.213C140.629 120.796 140.473 120.558 132.464 117.926C123.746 114.998 119.857 113.753 116.499 118.513C116.289 118.794 116.731 119.072 116.97 118.865C120.682 115.655 120.308 115.368 133.145 119.757C143.218 123.142 142.733 123.089 143.356 123.02C144.611 122.895 145.121 120.64 148.171 124.288C148.259 124.374 148.365 124.439 148.481 124.478C148.598 124.518 148.722 124.53 148.844 124.514C148.966 124.499 149.082 124.456 149.186 124.389C149.289 124.322 149.375 124.233 149.439 124.128C150.776 122.014 153.195 122.789 154.321 124.62C154.386 124.73 154.482 124.819 154.596 124.875C154.711 124.932 154.839 124.954 154.966 124.939C155.093 124.924 155.212 124.873 155.31 124.791C155.408 124.709 155.481 124.601 155.519 124.479C156.172 123.714 156.928 123.042 157.766 122.484C158 122.343 158.212 122.109 158.4 122.202C159.898 125.661 162.411 128.583 165.606 130.583C163.928 132.609 162.739 134.995 162.133 137.555C159.897 134.947 158.248 131.889 157.297 128.588C157.129 127.424 156.86 126.277 156.494 125.16C156.457 125.101 156.403 125.054 156.339 125.025C156.276 124.996 156.205 124.986 156.136 124.996C156.067 125.006 156.002 125.035 155.949 125.081C155.896 125.127 155.858 125.187 155.838 125.254C155.405 127.057 156.998 134.453 161.988 139.504C162.073 139.584 162.177 139.641 162.291 139.669C162.404 139.698 162.523 139.697 162.636 139.666C162.748 139.636 162.851 139.577 162.935 139.495C163.018 139.413 163.079 139.311 163.112 139.199C163.726 136.293 164.898 133.535 166.563 131.076C166.674 131.15 166.804 131.19 166.938 131.193C168.711 133.856 170.334 136.617 171.798 139.462C171.835 139.529 171.887 139.586 171.95 139.628C172.013 139.671 172.086 139.698 172.161 139.708C172.237 139.717 172.314 139.708 172.386 139.682C172.457 139.655 172.522 139.613 172.573 139.557C174.961 136.826 176.63 133.543 177.43 130.005C177.939 128.839 178.149 127.564 178.04 126.296C178.02 126.222 177.98 126.155 177.926 126.102C177.872 126.048 177.804 126.01 177.73 125.991C177.656 125.972 177.578 125.973 177.505 125.993C177.431 126.014 177.365 126.053 177.311 126.108C176.746 126.981 176.407 127.981 176.326 129.018C175.703 132.382 174.34 135.566 172.336 138.338C171.076 135.706 169.559 133.206 167.805 130.874C169.765 129.62 173.816 124.242 174.048 122.141C176.417 123.982 177.367 125.19 177.757 125.351C179.027 125.985 187.436 124.951 201.775 130.116C215.676 135.141 220.694 140.468 223.442 141.314C223.725 141.271 224.03 140.895 223.842 140.613Z" fill="black"/>
<path d="M183.557 44.7136C182.555 43.4039 172.235 38.2599 171.232 39.0319C170.72 39.6201 170.278 40.2666 169.917 40.9579C167.508 44.4274 164.166 47.144 160.278 48.7934C156.39 50.4428 152.114 50.9575 147.945 50.2781C147.917 50.2201 147.871 50.1731 147.814 50.1447C147.756 50.1163 147.691 50.1083 147.628 50.1219C147.565 50.1355 147.509 50.1699 147.468 50.2195C147.428 50.2692 147.405 50.3311 147.404 50.3953C147.861 55.6131 149.836 60.5829 153.086 64.691C153.415 65.2361 153.826 65.7272 154.305 66.1468C154.801 66.4485 155.429 66.1387 155.973 66.0055C163.176 64.248 170.238 60.9289 174.912 55.0193C177.292 52.0131 178.405 48.3264 183.457 45.2063C183.534 45.1532 183.588 45.0721 183.607 44.9801C183.625 44.8881 183.607 44.7925 183.557 44.7136ZM179.918 45.699C179.958 45.7955 179.974 45.9001 179.965 46.004C180.146 46.455 179.064 46.9237 177.336 48.9395C176.495 49.9837 175.711 51.0729 174.989 52.2025C170.88 58.4042 167.837 61.2756 157.546 64.7215C156.893 64.9398 156.798 63.919 155.432 63.5242C155.093 63.4562 154.744 63.4405 154.4 63.4776C154.345 63.532 154.278 63.5732 154.205 63.5982C154.131 63.6233 154.053 63.6316 153.976 63.6225C153.899 63.6135 153.825 63.5872 153.76 63.5457C153.694 63.5043 153.639 63.4486 153.598 63.3829C152.387 61.5003 149.672 56.3755 149.513 54.1333C149.176 53.4624 150.983 53.7 151.084 52.0677C151.092 51.9839 151.121 51.9036 151.169 51.8343C151.217 51.7649 151.281 51.7088 151.356 51.6712C151.432 51.6337 151.515 51.6159 151.599 51.6195C151.683 51.6232 151.765 51.6482 151.837 51.6921C153.775 51.647 155.703 51.3952 157.588 50.941C167.598 48.1804 168.823 44.4552 170.588 41.9963C170.851 41.6336 171.111 41.8759 171.293 41.7861C171.559 41.8049 171.826 41.749 172.062 41.6245C172.299 41.5 172.496 41.3119 172.631 41.0815C172.909 40.6834 173.273 40.3383 173.617 40.6818C175.757 41.5308 177.843 42.5112 179.862 43.6174C180.391 43.9769 179.416 44.5258 179.918 45.699Z" fill="#00B478"/>
<path d="M173.564 41.5693C173.318 41.9334 172.982 42.2268 172.588 42.4205C172.193 42.6142 171.755 42.7014 171.317 42.6736C170.677 44.2149 169.67 45.5764 168.383 46.6395C165.27 49.2173 161.595 51.0267 157.654 51.9216C155.82 52.5735 153.856 52.775 151.927 52.509C151.822 52.9112 151.622 53.282 151.342 53.5895C151.063 53.897 150.713 54.1321 150.322 54.2745C151.659 56.7912 151.218 57.645 154.266 62.5852C154.834 62.4285 155.436 62.4358 156.001 62.6062C156.566 62.7766 157.071 63.1031 157.458 63.5482C168.29 59.6481 170.215 57.2759 174.197 51.5284C175.444 49.4125 177.085 47.5557 179.032 46.0585C178.896 45.7618 178.832 45.4373 178.844 45.1112C178.857 44.7851 178.945 44.4663 179.103 44.1807C178.162 43.8163 173.739 41.6624 173.564 41.5693Z" fill="#00B478"/>
<path d="M96.5322 45.0427C96.5322 44.9256 96.415 44.7603 96.2738 44.7843C84.4177 46.0138 73.6433 36.6085 73.5967 28.5161C73.5963 28.46 73.5739 28.4064 73.5342 28.3667C73.4946 28.3271 73.4409 28.3046 73.3849 28.3042C72.852 28.3363 73.0639 28.2031 67.8685 31.5912C60.2736 36.5491 60.8723 35.8605 60.8723 36.0515C61.4325 42.9257 72.3978 55.7433 87.87 56.0755C89.2776 56.106 90.6868 55.8653 92.0719 56.0049C92.3303 56.0049 92.3785 55.9295 94.8662 49.9717C95.7563 48.4615 96.3236 46.7832 96.5322 45.0427ZM92.6128 50.5575C91.9868 52.002 91.7284 53.4866 90.9917 53.3037C89.9645 53.0501 89.6516 53.6792 89.3017 54.0789C89.3039 54.1493 89.2913 54.2194 89.2647 54.2846C89.238 54.3498 89.198 54.4087 89.1471 54.4574C89.0963 54.5062 89.0358 54.5436 88.9695 54.5675C88.9032 54.5913 88.8326 54.6009 88.7624 54.5957C83.3603 54.4046 78.1011 52.8104 73.5021 49.9701C69.9951 47.7391 65.4417 43.449 63.8303 39.6178C63.7696 39.5894 63.7155 39.5485 63.6715 39.4979C63.6275 39.4473 63.5946 39.3881 63.5748 39.3241C63.555 39.26 63.5488 39.1925 63.5566 39.1259C63.5644 39.0593 63.586 38.9951 63.6201 38.9373C63.8785 38.4911 64.2268 38.1862 64.2765 37.6533C64.3712 36.6422 63.7581 35.9568 64.3712 35.8702C65.8574 34.7916 67.4207 34.6793 70.6628 32.0182C70.743 31.9537 70.8393 31.9125 70.9412 31.8989C71.0432 31.8853 71.1469 31.8999 71.2412 31.9411C71.3355 31.9822 71.4167 32.0484 71.476 32.1325C71.5353 32.2165 71.5704 32.3152 71.5777 32.4178C72.592 33.904 73.5037 33.0213 73.5037 33.896C75.2964 37.0815 77.7358 39.8566 80.6652 42.043C89.2086 48.2383 92.5871 44.9015 92.3078 46.5739C92.7123 47.6493 93.3591 47.1308 93.7876 47.5594C93.9947 48.3908 93.6496 48.1725 92.6128 50.5575Z" fill="#00B478"/>
<path d="M91.4377 47.0842C86.0047 47.5047 79.2172 43.0813 75.6621 38.7751C74.4536 37.4944 73.4979 35.9969 72.8453 34.3614C72.4519 34.3212 72.0758 34.1788 71.7545 33.9482C71.4332 33.7175 71.1779 33.4068 71.014 33.0469C69.1438 34.5149 67.0411 35.6595 64.7931 36.4334C65.0701 36.8885 65.1965 37.4193 65.1544 37.9503C65.1124 38.4814 64.9039 38.9857 64.5587 39.3914C67.0009 43.2349 70.2239 46.5219 74.0186 49.0391C78.4207 51.8127 83.4901 53.3459 88.6915 53.4769C88.9072 53.0432 89.2639 52.6957 89.7032 52.4915C90.1424 52.2874 90.638 52.2387 91.1086 52.3534C91.2582 51.6252 91.4864 50.9154 91.7892 50.2364C92.9897 47.2896 92.8854 48.8674 91.8373 47.8193C91.6549 47.6044 91.5188 47.3541 91.4377 47.0842Z" fill="#00B478"/>
<path d="M256.637 77.6273C254.469 73.1815 253.616 71.6632 252.318 69.246C252.029 68.71 251.66 67.3393 250.862 67.4147C250.188 67.4789 250.196 68.0375 247.999 68.917C246.357 70.6825 241.048 71.1945 238.632 71.2186C235.462 71.2491 231.658 69.9619 230.156 66.8979C230.127 66.8414 230.118 66.7764 230.132 66.7143C230.146 66.6522 230.182 66.5971 230.233 66.5587C230.283 66.5202 230.346 66.501 230.41 66.5043C230.473 66.5077 230.533 66.5334 230.58 66.5769C233.148 69.1224 234.785 70.4289 238.818 70.3342C241.635 70.3646 244.429 69.8297 247.036 68.7613C241.269 59.7155 241.739 55.8812 240.65 56.4365C238.594 57.2958 236.415 57.8265 234.194 58.0094C227.935 58.9162 227.046 58.3096 227.105 58.9949C228.57 76.1283 244.335 85.3008 255.018 81.4649C255.674 81.229 257.295 80.7362 257.6 80.0332C257.887 79.5903 256.806 77.9724 256.637 77.6273ZM229.688 64.4808C229.469 64.0442 228.904 62.3477 229.405 62.1792C230.322 61.7571 230.898 61.3109 230.978 60.3961C230.981 60.2846 231.026 60.1784 231.105 60.0996C231.184 60.0207 231.29 59.9752 231.402 59.9723C237.992 59.5085 237.786 57.7253 238.913 59.1281C238.984 59.1987 239.03 59.2886 239.054 59.2886C239.259 59.5093 239.524 59.6649 239.816 59.736C240.108 59.807 240.415 59.7904 240.698 59.6882C241.398 59.5005 241.125 60.1698 243.303 64.2657C244.503 66.5239 246.192 68.6088 245.11 68.6088C244.21 68.6088 240.919 61.5468 240.557 60.7203C240.121 60.797 239.673 60.7548 239.26 60.598C238.847 60.4412 238.483 60.1757 238.208 59.8295C238.138 59.6883 238.069 59.6176 237.998 59.5936C237.761 59.5358 235.27 60.3736 234.641 60.4859C233.708 60.6429 232.768 60.7501 231.824 60.8069C231.74 61.2626 231.524 61.6835 231.202 62.0174C230.881 62.3512 230.469 62.5833 230.017 62.6848C230.389 64.1774 230.894 64.7713 230.79 65.2913C230.768 65.3558 230.723 65.4101 230.664 65.4446C230.606 65.479 230.536 65.4913 230.469 65.4791C230.274 65.3793 230.103 65.2383 229.969 65.0659C229.834 64.8935 229.738 64.6939 229.688 64.4808Z" fill="#00B478"/>
<path d="M112.553 263.826C111.727 272.089 111.107 279.909 111.107 288.4C111.107 295.7 111.534 302.345 118.335 305.746" stroke="#191919" stroke-width="3" stroke-linecap="round"/>
<path d="M61.2372 28.2053C64.3546 27.8589 67.7612 23.8591 70.6331 22.4232C74.483 20.4982 76.4429 20.2549 80.7518 20.2549" stroke="#191919" stroke-width="3" stroke-linecap="round"/>
<path d="M158.087 28.9283C166.437 28.9283 170.84 28.2569 177.923 23.106C184.67 18.1987 190.363 12.0995 192.057 3.63159" stroke="#191919" stroke-width="3" stroke-linecap="round"/>
<path d="M246.264 20.2551C246.264 27.1819 246.017 33.799 249.316 40.1712C251.307 44.0174 255.342 48.2158 258.993 50.571C264.64 54.2146 273.108 53.2238 279.511 53.5022" stroke="#191919" stroke-width="3" stroke-linecap="round"/>
<path d="M239.677 228.777C241.897 230.82 244.595 232.204 246.97 234.045C247.88 234.75 248.839 235.703 249.941 236.07" stroke="#191919" stroke-width="3" stroke-linecap="round"/>
<path d="M204.365 176.554C204.365 175.414 204.742 174.339 204.742 173.165C204.742 172.443 204.662 171.179 205.16 170.571C205.787 169.805 208.453 171.89 209.03 172.224C210.275 172.943 211.413 173.165 212.837 173.165" stroke="#191919" stroke-width="3" stroke-linecap="round"/>
</svg>
