<svg width="473" height="440" viewBox="0 0 473 440" fill="none" xmlns="http://www.w3.org/2000/svg">
<path fill-rule="evenodd" clip-rule="evenodd" d="M219.032 181.701C209.014 143.596 163.01 105.791 185.092 73.187C207.203 40.5399 259.231 67.9268 298.482 64.3903C330.078 61.5435 361.415 40.0357 389.525 54.7678C419.219 70.3296 435.309 104.652 438.939 138C442.306 168.937 420.844 193.97 407.749 222.188C390.242 259.914 390.171 314.425 350.837 327.848C311.024 341.436 267.567 310.915 239.372 279.651C216.161 253.915 227.846 215.227 219.032 181.701Z" fill="#05BC94" fill-opacity="0.26"/>
<path d="M148.106 100.806C147.518 99.929 146.732 99.2019 145.812 98.6834C144.891 98.1649 143.862 97.8695 142.807 97.8211C141.039 97.9236 139.365 98.652 138.085 99.8759C137.783 98.6645 137.132 97.5684 136.214 96.7233C135.295 95.8782 134.148 95.3214 132.915 95.1217C130.661 94.929 128.396 95.3251 126.341 96.2711C124.285 97.2171 122.511 98.6806 121.192 100.518C118.864 93.0251 107.281 93.2583 104.01 103.279C100.188 101.37 94.5914 102.932 91.6786 108.836C88.4732 115.399 87.9914 126.194 93.2516 136.713C93.6036 137.322 94.4066 136.776 94.1514 136.167C94.1184 136.103 94.0854 136.006 94.0546 135.947C95.0538 135.169 96.2827 134.743 97.5492 134.738C98.8157 134.732 100.049 135.145 101.055 135.914C101.215 136.012 101.404 136.053 101.591 136.03C101.778 136.007 101.951 135.921 102.082 135.786C106.639 130.778 109.049 124.181 108.795 117.414C117.366 119.895 126.455 119.971 135.067 117.634C139.368 116.776 143.348 114.743 146.564 111.76C149.198 108.9 150.555 104.238 148.106 100.806ZM140.783 112.594C138.484 113.742 137.304 111.877 139.082 110.634C140.183 110.043 141.143 109.22 141.895 108.222C142.648 107.225 143.175 106.076 143.44 104.854C143.519 104.577 143.697 104.338 143.94 104.184C144.184 104.03 144.476 103.971 144.76 104.018C145.045 104.049 145.308 104.185 145.498 104.399C145.687 104.613 145.791 104.89 145.788 105.176C145.594 106.718 145.041 108.194 144.171 109.483C143.302 110.771 142.141 111.837 140.783 112.594Z" fill="#00B478"/>
<path d="M173.767 230.138C173.285 226.477 172.931 222.752 172.258 219.122C172.161 218.546 171.23 218.682 171.23 219.252C171.6 225.785 172.328 232.293 173.413 238.746C173.431 239.679 173.673 240.593 174.119 241.413C174.195 241.487 174.289 241.54 174.392 241.567C174.494 241.595 174.602 241.596 174.705 241.57C174.808 241.544 174.903 241.493 174.981 241.42C175.058 241.348 175.116 241.256 175.148 241.155C175.41 240.544 175.135 240.057 173.767 230.138Z" fill="black"/>
<path d="M118.945 136.873C118.945 138.807 120.646 140.279 122.155 138.767C122.508 138.422 122.735 137.969 122.799 137.48C122.863 136.991 122.761 136.494 122.509 136.07C122.313 135.705 122.003 135.415 121.626 135.243C121.249 135.071 120.826 135.027 120.422 135.119C120.018 135.21 119.655 135.43 119.388 135.747C119.122 136.064 118.966 136.459 118.945 136.873Z" fill="black"/>
<path d="M135.099 138.222C136.267 140.411 138.366 139.014 138.566 137.419C138.652 136.939 138.549 136.443 138.278 136.037C136.637 133.908 133.674 135.553 135.099 138.222Z" fill="black"/>
<path d="M122.797 148.113C124.378 148.93 126.065 149.522 127.809 149.873C128.617 149.949 129.427 149.75 130.107 149.308C130.788 148.867 131.3 148.208 131.56 147.44C131.923 145.78 131.934 144.062 131.591 142.397C131.216 138.003 130.453 133.651 129.311 129.391C129.054 128.876 128.348 129.171 128.315 129.646C128.309 130.545 128.417 131.441 128.636 132.312C129.433 136.71 129.98 141.15 130.275 145.609C130.242 146.929 129.729 148.179 128.251 148.249C126.454 148.346 124.878 147.061 123.242 146.516C123.041 146.487 122.836 146.533 122.666 146.644C122.497 146.755 122.373 146.924 122.319 147.119C122.264 147.315 122.283 147.523 122.371 147.706C122.459 147.889 122.61 148.033 122.797 148.113Z" fill="black"/>
<path d="M121.127 154.151C119.008 153.445 118.463 151.133 117.53 149.397C117.178 148.755 116.309 149.237 116.406 149.879C117.039 153.938 119.875 156.919 124.275 155.982C127.615 155.322 127.923 153.837 127.135 153.542C126.031 153.247 123.776 155.064 121.127 154.151Z" fill="black"/>
<path d="M114.416 128.812C114.721 128.121 115.098 127.464 115.54 126.852C116.349 125.661 117.441 124.69 118.719 124.027C119.394 123.673 120.1 123.512 120.776 123.16C120.893 123.087 120.983 122.978 121.033 122.849C121.084 122.721 121.091 122.579 121.055 122.446C121.019 122.313 120.942 122.195 120.834 122.109C120.725 122.023 120.593 121.974 120.455 121.97C119.203 122.148 118.009 122.609 116.963 123.318C115.917 124.026 115.045 124.964 114.416 126.06C113.986 126.794 113.693 127.599 113.549 128.438C113.243 128.961 114.202 129.309 114.416 128.812Z" fill="black"/>
<path d="M134.134 123.288C135.244 123.966 136.269 124.774 137.185 125.697C138.036 126.629 138.672 127.736 139.049 128.94C139.209 129.455 139.531 130.803 140.334 130.385C141.009 130.033 140.655 128.876 140.494 128.33C139.794 126.265 138.441 124.484 136.64 123.255C135.978 122.851 135.249 122.569 134.488 122.421C134.379 122.397 134.265 122.413 134.165 122.465C134.066 122.517 133.989 122.602 133.946 122.706C133.904 122.809 133.9 122.924 133.934 123.031C133.968 123.138 134.039 123.229 134.134 123.288Z" fill="black"/>
<path d="M245.065 181.258C244.961 180.092 244.558 178.973 243.893 178.009C243.229 177.045 242.327 176.269 241.274 175.758C239.352 174.996 237.328 174.52 235.268 174.343C233.183 173.994 231.052 174.016 228.974 174.407C228.204 174.568 228.428 175.661 229.167 175.727C232.85 175.633 236.526 176.065 240.086 177.012C241.358 177.469 242.412 178.386 243.041 179.581C243.627 180.768 243.914 182.08 243.877 183.403C243.813 183.843 244.486 183.885 244.616 183.5C244.923 182.793 245.076 182.028 245.065 181.258Z" fill="black"/>
<path d="M235.012 168.218C236.564 168.751 237.961 169.656 239.08 170.854C240.2 172.052 241.008 173.507 241.434 175.091C241.472 175.237 241.567 175.362 241.697 175.438C241.827 175.514 241.982 175.535 242.128 175.497C242.274 175.459 242.399 175.364 242.475 175.234C242.551 175.104 242.572 174.949 242.534 174.803C242.316 172.982 241.555 171.27 240.35 169.888C237.04 166.72 232.661 164.91 228.08 164.815C227.31 164.782 226.025 164.685 225.544 165.424C225.48 165.536 225.455 165.666 225.472 165.794C225.49 165.922 225.549 166.04 225.64 166.131C226.155 166.676 227.279 166.516 227.986 166.516C230.419 166.601 232.81 167.18 235.012 168.218Z" fill="black"/>
<path d="M235.237 160.255C236.715 161.134 237.988 162.32 238.968 163.732C239.949 165.145 240.615 166.751 240.922 168.443C241.019 169.022 241.886 168.861 241.916 168.316C241.902 166.853 241.574 165.411 240.953 164.086C240.333 162.762 239.434 161.586 238.319 160.64C235.086 157.921 231.118 156.222 226.919 155.758C225.975 155.438 224.958 155.404 223.995 155.661C223.913 155.708 223.843 155.773 223.791 155.851C223.738 155.929 223.704 156.018 223.692 156.111C223.679 156.205 223.689 156.3 223.719 156.389C223.75 156.478 223.801 156.559 223.868 156.625C224.638 157.3 225.892 157.234 226.855 157.428C229.804 157.827 232.649 158.787 235.237 160.255Z" fill="black"/>
<path d="M227.625 150.907C230.412 150.969 233.101 151.952 235.27 153.703C236.814 154.681 238.067 156.056 238.898 157.685C239.094 158.243 239.364 158.772 239.701 159.258C239.763 159.32 239.84 159.364 239.924 159.386C240.008 159.409 240.097 159.409 240.182 159.387C240.266 159.365 240.343 159.321 240.406 159.26C240.468 159.198 240.513 159.122 240.537 159.038C240.652 158.36 240.55 157.664 240.246 157.047C239.052 154.055 235.105 151.571 232.058 150.366C230.59 149.702 228.924 149.623 227.401 150.146C226.983 150.26 227.207 150.902 227.625 150.907Z" fill="black"/>
<path d="M229.295 186.139C231.682 184.202 234.452 182.791 237.422 181.997C240.625 181.196 239.895 181.682 239.895 181.321C239.694 180.922 239.35 180.612 238.931 180.455C235.669 179.624 232.308 179.246 228.943 179.33C227.914 179.25 226.947 178.804 226.216 178.074C225.486 177.345 225.04 176.378 224.959 175.348C224.882 174.339 225.171 173.336 225.773 172.522C226.375 171.708 227.249 171.138 228.237 170.915C230.518 170.39 231.889 170.746 229.841 170.337C228.959 170.208 228.068 170.154 227.176 170.176C220.317 170.176 220.068 161.249 227.465 161.249H227.786C225.146 160.683 223.43 160.908 221.626 159.385C221.004 158.848 220.552 158.14 220.327 157.349C220.101 156.558 220.112 155.718 220.358 154.934C220.604 154.149 221.074 153.453 221.71 152.932C222.346 152.411 223.12 152.087 223.938 152C223.701 151.42 223.603 150.792 223.653 150.167C223.704 149.542 223.901 148.937 224.228 148.403C223.843 147.697 223.489 146.99 223.104 146.282C220.214 146.207 217.335 146.687 214.625 147.697C211.891 149.014 209.553 151.03 207.849 153.542C209.759 157.361 209.169 156.109 210.835 159.385C210.835 158.989 210.822 159.385 210.932 157.715C211.031 156.649 211.524 155.658 212.313 154.934C213.103 154.21 214.133 153.805 215.204 153.797C216.134 153.793 217.037 154.101 217.771 154.672C218.505 155.243 219.025 156.044 219.25 156.945C220.073 161.526 219.057 166.246 216.423 170.082C218.607 174.191 225.287 186.718 226.508 188.806C227.308 187.792 228.246 186.894 229.295 186.139Z" fill="black"/>
<path d="M220.849 144.54C221.267 144.54 221.716 144.507 222.134 144.54C221.619 143.543 219.21 139.079 218.504 137.827C218.159 137.029 217.576 136.356 216.834 135.9C212.874 133.731 205.887 137.427 203.055 140.879C201.808 142.265 202.382 142.458 203.025 143.833C203.537 144.861 206.325 150.482 207.231 152.248C208.894 148.42 213.673 144.848 220.849 144.54Z" fill="black"/>
<path d="M240.28 183.216C239.425 183.302 238.577 183.449 237.743 183.656C234.955 184.435 232.347 185.755 230.067 187.541C228.453 188.795 228.017 189.42 227.368 189.95C228.215 190.797 235.259 193.494 238.834 195.41C238.935 195.47 239.047 195.506 239.163 195.515C239.279 195.524 239.396 195.507 239.504 195.465C239.612 195.422 239.71 195.356 239.788 195.27C239.867 195.184 239.925 195.082 239.959 194.97C240.865 192.303 241.636 189.591 242.271 186.846C241.621 186.501 241.086 185.974 240.732 185.329C240.378 184.684 240.221 183.949 240.28 183.216Z" fill="black"/>
<path d="M121.064 376.62C123.877 365.643 128.258 355.128 134.07 345.4H132.691C134.901 349.116 136.659 353.084 137.924 357.218C140.014 363.394 143.644 375.133 144.766 377.934C144.826 378.107 144.949 378.251 145.111 378.337C145.273 378.422 145.462 378.442 145.638 378.393C145.815 378.344 145.965 378.229 146.06 378.072C146.154 377.915 146.185 377.728 146.146 377.549C145.569 375.236 144.766 373.019 144.027 370.74C140.947 361.247 138.039 350.803 134.006 344.56C133.933 344.442 133.832 344.345 133.711 344.277C133.59 344.21 133.454 344.174 133.315 344.174C133.177 344.174 133.041 344.21 132.92 344.277C132.799 344.345 132.697 344.442 132.625 344.56C125.019 357.08 120.786 370.181 120.003 376.29C119.939 377.007 120.841 377.3 121.064 376.62Z" fill="black"/>
<path d="M185.361 311.714C190.973 325.825 195.766 340.248 199.716 354.911C201.916 363.163 201.795 364.687 202.928 367.435C203.186 368.014 204.116 368.014 204.085 367.275C203.956 365.363 203.633 363.469 203.122 361.623C199.621 346.463 194.905 331.61 189.022 317.207C188.254 315.19 187.353 313.226 186.325 311.329C186.262 311.218 186.162 311.135 186.043 311.093C185.923 311.051 185.793 311.053 185.675 311.1C185.557 311.147 185.461 311.235 185.403 311.348C185.345 311.461 185.33 311.591 185.361 311.714Z" fill="black"/>
<path d="M300.883 236.658C300.81 235.708 299.521 235.47 298.474 235.47C294.718 235.349 269.278 235.343 260.319 235.69C260.209 235.657 260.092 235.655 259.981 235.685C259.869 235.714 259.768 235.773 259.689 235.856C259.609 235.939 259.554 236.043 259.529 236.155C259.505 236.268 259.512 236.385 259.549 236.493C258.487 242.783 258.977 266.695 259.646 273.781C259.719 274.74 261.014 274.969 262.053 274.969C266.057 275.097 291.425 275.088 300.207 274.749C300.318 274.783 300.435 274.785 300.546 274.756C300.657 274.727 300.759 274.668 300.838 274.585C300.918 274.502 300.974 274.399 300.999 274.287C301.024 274.174 301.017 274.057 300.98 273.948C302.031 267.725 301.543 243.683 300.883 236.658ZM261.347 273.398C261.252 271.055 261.058 268.71 260.962 266.358C260.211 247.57 261.113 240.913 260.801 236.812C261.925 236.843 299.116 237.004 299.116 237.004C299.239 240.013 299.635 244.457 299.726 251.304C300.018 266.149 299.387 269.964 299.662 273.592C289.115 273.288 261.127 273.398 261.347 273.398Z" fill="black"/>
<path d="M326.189 83.8486C326.275 83.8486 425.156 84.0994 427.195 83.9124C427.926 83.9124 428.058 83.8486 428.295 83.8486C428.999 83.8486 429.228 82.8212 428.516 82.6606C428.249 82.6606 428.157 82.5968 427.873 82.5968C427.77 82.5968 427.358 82.533 427.358 82.533C427.268 82.533 425.464 82.401 424.756 82.3724C422.155 82.3086 326.128 82.4692 326.128 82.4692C325.259 82.5 325.259 83.9454 326.189 83.8486Z" fill="#00B478"/>
<path d="M428.577 132.633C428.311 132.633 428.218 132.569 427.935 132.569C427.833 132.569 427.42 132.506 427.42 132.506C427.33 132.506 425.528 132.374 424.819 132.345C422.217 132.281 326.189 132.442 326.189 132.442C325.258 132.536 325.258 133.982 326.189 133.918C326.279 133.918 425.154 134.169 427.195 133.982C427.926 133.982 428.058 133.918 428.295 133.918C428.9 133.918 429.365 132.814 428.577 132.633Z" fill="#00B478"/>
<path d="M428.577 183.088C428.311 183.088 428.218 183.024 427.935 183.024C427.833 183.024 427.42 182.961 427.42 182.961C427.33 182.961 425.528 182.826 424.819 182.8C422.217 182.734 326.189 182.895 326.189 182.895C325.258 182.991 325.258 184.435 326.189 184.373C326.279 184.373 425.154 184.624 427.195 184.437C427.926 184.437 428.058 184.373 428.295 184.373C428.9 184.373 429.365 183.26 428.577 183.088Z" fill="#00B478"/>
<path d="M384.898 243.146C380.938 242.926 325.96 243.21 326.222 243.21C325.291 243.307 325.258 244.75 326.222 244.688C326.818 244.62 384.361 245.036 386.282 244.719H386.41C386.465 244.721 386.52 244.711 386.57 244.688C386.588 244.691 386.606 244.689 386.622 244.683C386.639 244.677 386.654 244.668 386.667 244.655C386.731 244.655 386.795 244.622 386.858 244.622C387.604 244.622 387.807 243.593 387.078 243.434C387.032 243.434 386.682 243.337 386.597 243.337C386.579 243.34 386.561 243.338 386.545 243.333C386.528 243.327 386.513 243.319 386.5 243.307C386.436 243.307 386.403 243.307 386.37 243.274C386.305 243.272 386.241 243.262 386.179 243.243C385.829 243.243 385.349 243.17 384.898 243.146Z" fill="#00B478"/>
<path d="M386.979 244.655C386.962 244.653 386.944 244.655 386.927 244.661C386.911 244.666 386.895 244.676 386.883 244.688C386.857 244.655 387.082 244.623 386.979 244.655Z" fill="#00B478"/>
<path d="M428.577 199.307C428.311 199.307 428.218 199.243 427.935 199.243C427.833 199.243 427.42 199.18 427.42 199.18C427.33 199.18 425.528 199.047 424.819 199.019C422.217 198.955 326.189 199.116 326.189 199.116C325.258 199.21 325.258 200.656 326.189 200.592C326.279 200.592 425.154 200.843 427.195 200.656C427.926 200.656 428.058 200.592 428.295 200.592C428.9 200.592 429.365 199.487 428.577 199.307Z" fill="#00B478"/>
<path d="M428.577 256.988C428.232 256.988 427.811 256.819 424.819 256.698C422.217 256.634 326.189 256.795 326.189 256.795C325.258 256.892 325.258 258.335 326.189 258.273C326.528 258.238 424.918 258.544 427.195 258.337C427.926 258.337 428.058 258.273 428.295 258.273C428.929 258.28 429.354 257.129 428.577 256.988Z" fill="#00B478"/>
<path d="M369.098 97.9484C368.925 97.867 368.74 97.8129 368.55 97.7878H368.52C367.697 97.3764 325.936 97.724 326.159 97.724C325.259 97.8516 325.195 99.264 326.159 99.2002C327.188 99.121 367.666 99.5918 368.938 99.1694C369.002 99.1694 369.032 99.1364 369.098 99.1364C369.185 99.1218 369.263 99.0765 369.318 99.0088H369.349C369.644 98.6546 369.644 98.076 369.098 97.9484ZM368.55 97.8208C368.68 97.8208 368.968 97.9154 368.616 97.8208H368.55Z" fill="#00B478"/>
<path d="M278.594 102.124C278.971 102.494 279.478 102.702 280.007 102.702C280.535 102.702 281.042 102.494 281.419 102.124C290.028 92.1996 309.553 69.5242 310.741 68.1118C312.086 66.6526 313.163 64.9672 313.922 63.1332C314.338 62.075 312.958 61.206 312.092 61.7208C309.346 63.6246 306.955 65.9938 305.025 68.7212C302.907 71.1962 281.87 95.5062 279.91 97.7876C277.952 95.7636 269.086 86.836 268.446 86.1936C267.788 85.4957 267.003 84.929 266.134 84.5238C264.976 83.7516 263.531 85.263 264.237 86.418C265.401 88.1626 262.288 85.395 278.594 102.124Z" fill="#00B478"/>
<path d="M270.307 142.461C271.504 143.739 278.819 151.358 281.292 153.901C281.669 154.272 282.176 154.479 282.705 154.479C283.234 154.479 283.741 154.272 284.119 153.901C292.725 143.977 312.252 121.304 313.44 119.891C314.784 118.431 315.86 116.746 316.619 114.913C317.037 113.852 315.656 112.986 314.789 113.5C312.043 115.404 309.652 117.773 307.722 120.501C305.604 122.974 284.567 147.286 282.607 149.565C280.649 147.543 271.785 138.613 271.143 137.971C270.485 137.272 269.701 136.706 268.831 136.301C267.674 135.531 266.228 137.04 266.934 138.198C268.012 139.806 266.367 138.253 270.307 142.461Z" fill="#00B478"/>
<path d="M316.556 168.925C313.817 170.838 311.427 173.206 309.49 175.928C307.371 178.401 286.335 202.713 284.375 204.992C282.417 202.968 273.553 194.04 272.91 193.398C272.254 192.699 271.47 192.133 270.6 191.728C269.443 190.958 267.998 192.467 268.704 193.622C268.933 193.995 269.137 194.381 269.316 194.78C270.068 196.003 282.846 209.106 283.061 209.328C283.438 209.699 283.945 209.907 284.474 209.907C285.002 209.907 285.509 209.699 285.886 209.328C294.495 199.404 314.022 176.731 315.21 175.316C316.554 173.857 317.631 172.172 318.389 170.338C318.835 169.279 317.46 168.417 316.556 168.925Z" fill="#00B478"/>
<path d="M297.959 88.4397C298.152 101.123 297.611 105.399 297.864 108.704C296.74 108.673 259.549 108.512 259.549 108.512C259.355 103.793 258.689 98.5993 258.937 79.6067C258.97 77.0701 259.195 74.4696 259.003 71.9308C260.128 71.9638 297.283 72.1245 297.283 72.1245C297.669 71.7065 298.023 71.2892 298.344 70.8727C298.014 70.5427 296.997 70.6153 296.672 70.6153C292.903 70.4921 267.515 70.4877 258.519 70.8353C258.409 70.8025 258.292 70.8007 258.181 70.83C258.07 70.8594 257.969 70.9188 257.889 71.0017C257.809 71.0846 257.754 71.1878 257.729 71.3001C257.704 71.4124 257.71 71.5294 257.747 71.6383C256.682 77.9369 257.18 101.857 257.844 108.926C257.919 109.885 259.212 110.114 260.253 110.114C264.024 110.235 289.412 110.242 298.408 109.894C298.518 109.928 298.635 109.93 298.746 109.901C298.858 109.872 298.959 109.813 299.039 109.73C299.118 109.647 299.174 109.544 299.198 109.431C299.223 109.319 299.216 109.202 299.178 109.093C299.777 101.551 299.959 93.9806 299.723 86.4178C299.116 87.0602 298.54 87.7665 297.959 88.4397Z" fill="black"/>
<path d="M298.441 142.846C298.535 152.509 298.1 157.696 298.313 160.51C297.189 160.479 259.998 160.319 259.998 160.319C259.804 155.619 259.138 150.405 259.388 131.413C259.419 128.876 259.646 126.276 259.452 123.737C260.576 123.77 297.767 123.931 297.767 123.931C297.798 124.734 297.831 125.567 297.895 126.37C298.474 125.697 299.052 125.022 299.598 124.379C299.47 123.361 299.653 122.421 297.125 122.421C293.81 122.314 267.891 122.296 258.97 122.641C258.86 122.608 258.743 122.606 258.632 122.636C258.52 122.665 258.419 122.724 258.34 122.807C258.26 122.89 258.205 122.994 258.18 123.106C258.156 123.219 258.163 123.336 258.2 123.444C257.129 129.776 257.661 153.989 258.295 160.732C258.37 161.68 259.655 161.92 260.704 161.92C264.019 162.026 289.938 162.046 298.859 161.7C298.969 161.734 299.086 161.736 299.197 161.708C299.309 161.679 299.41 161.619 299.49 161.536C299.569 161.453 299.625 161.35 299.649 161.238C299.674 161.125 299.667 161.008 299.629 160.899C300.193 154.216 300.387 147.505 300.207 140.8C299.64 141.46 299.019 142.14 298.441 142.846Z" fill="black"/>
<path d="M299.341 199.276C299.341 211.394 298.971 211.816 299.213 215.013C298.089 214.98 260.898 214.819 260.898 214.819C260.704 210.1 260.038 204.919 260.288 185.915C260.319 183.377 260.544 180.776 260.352 178.24C261.476 178.27 298.667 178.431 298.667 178.431C298.731 179.846 298.828 181.258 298.887 182.703C299.497 182.028 300.075 181.355 300.621 180.712C300.401 177.852 300.841 176.955 298.021 176.955C294.696 176.847 268.714 176.832 259.866 177.175C259.756 177.142 259.639 177.14 259.527 177.17C259.416 177.199 259.315 177.258 259.236 177.341C259.156 177.424 259.1 177.527 259.075 177.64C259.05 177.752 259.057 177.869 259.094 177.978C258.02 184.336 258.561 208.558 259.191 215.263C259.265 216.225 260.559 216.454 261.6 216.454C264.937 216.561 290.89 216.575 299.754 216.234C299.864 216.267 299.982 216.269 300.093 216.239C300.204 216.21 300.305 216.151 300.385 216.068C300.465 215.985 300.52 215.881 300.544 215.769C300.569 215.656 300.562 215.539 300.524 215.431C301.261 211.072 301.136 196.324 301.136 197.254C300.52 197.894 299.95 198.601 299.341 199.276Z" fill="black"/>
<path d="M142.452 291.705C136.182 293.544 129.733 294.708 123.215 295.174C121.015 295.306 118.111 295.271 118.333 295.271C117.775 295.223 117.212 295.256 116.663 295.368C116.523 295.416 116.401 295.507 116.314 295.628C116.228 295.749 116.182 295.893 116.182 296.042C116.182 296.191 116.228 296.335 116.314 296.456C116.401 296.577 116.523 296.668 116.663 296.716C117.206 296.866 117.771 296.92 118.333 296.877C125.581 296.963 132.801 295.967 139.754 293.922C140.824 293.585 141.865 293.166 142.87 292.668C143.384 292.413 142.964 291.599 142.452 291.705Z" fill="black"/>
<path d="M139.498 299.2C133.174 300.812 126.688 301.707 120.164 301.866C119.246 301.741 118.312 301.829 117.434 302.122C117.349 302.174 117.279 302.248 117.231 302.335C117.183 302.422 117.157 302.52 117.157 302.62C117.157 302.72 117.183 302.818 117.231 302.905C117.279 302.992 117.349 303.065 117.434 303.118C118.342 303.477 119.326 303.598 120.294 303.47C126.978 303.54 133.622 302.423 139.916 300.17C140.43 299.895 140.012 299.09 139.498 299.2Z" fill="black"/>
<path d="M234.498 194.651C233.257 195.704 232.194 196.95 231.352 198.343C230.453 199.587 229.945 201.072 229.896 202.607C224.217 201.919 218.874 199.548 214.553 195.8C213.431 194.823 212.463 193.743 211.398 192.72C212.014 191.957 212.461 191.073 212.712 190.125C212.963 189.177 213.01 188.187 212.852 187.22C212.289 181.801 208.122 177.562 210.476 172.605C212.115 169.228 214.711 167.462 215.741 162.201C216.074 160.722 216.085 159.189 215.774 157.705C215.725 157.567 215.629 157.451 215.503 157.376C215.377 157.301 215.229 157.273 215.084 157.296C214.94 157.318 214.808 157.391 214.711 157.5C214.614 157.61 214.558 157.75 214.553 157.896C214.631 160.446 214.138 162.982 213.11 165.317C211.108 169.569 206.906 172.203 208.549 178.611C209.192 181.084 210.443 183.299 211.086 185.772C211.683 187.679 211.573 189.737 210.778 191.569C210.713 191.494 210.632 191.434 210.542 191.393C210.451 191.353 210.353 191.333 210.253 191.334C210.154 191.336 210.056 191.36 209.967 191.403C209.878 191.447 209.8 191.509 209.737 191.587C206.27 195.311 203.025 199.26 199.877 203.275C195.554 187.303 187.816 169.868 171.873 164.577C161.709 161.214 150.177 163.528 139.628 166.084C137.473 166.472 135.412 167.269 133.558 168.432L132.735 168.993C132.254 167.517 131.937 165.993 131.791 164.448C133.457 164.46 135.115 164.211 136.704 163.708C141.522 162.105 144.058 157.348 144.958 152.662C146.477 141.458 146.423 130.097 144.798 118.908C144.637 118.072 144.358 117.299 144.188 116.466C144.058 115.889 143.064 116.026 143.128 116.593C143.255 117.975 143.222 119.356 143.348 120.773C144.407 130.3 144.481 139.911 143.568 149.452C143.086 153.819 141.808 158.829 137.72 161.205C135.537 162.279 133.106 162.745 130.68 162.556C122.787 162.298 115.109 159.912 108.46 155.65C107.723 155.362 107.25 156.413 107.723 156.902C108.682 157.79 109.763 158.536 110.933 159.117C116.493 162.193 122.672 163.983 129.015 164.353C129.433 164.386 129.818 164.386 130.236 164.417C130.175 166.331 130.49 168.239 131.164 170.031C128.52 171.78 125.568 173.013 122.465 173.666C118.252 174.56 113.884 174.424 109.735 173.267C105.585 172.111 101.776 169.969 98.6328 167.024C99.7894 161.085 100.194 155.024 99.8362 148.984C99.8351 148.728 99.7329 148.483 99.5521 148.302C99.3712 148.121 99.1262 148.019 98.8704 148.018C97.5504 147.982 96.2816 147.499 95.2722 146.648C94.2629 145.796 93.5729 144.627 93.3154 143.332C92.3606 138.617 97.2754 133.502 100.701 136.554C100.83 136.674 100.998 136.744 101.174 136.752C101.35 136.759 101.523 136.704 101.663 136.596C101.802 136.488 101.898 136.334 101.935 136.161C101.971 135.989 101.944 135.809 101.86 135.654C101.396 134.862 100.671 134.257 99.8092 133.941C98.9477 133.624 98.003 133.617 97.1368 133.92C95.8243 134.383 94.6452 135.16 93.703 136.184C92.7607 137.208 92.084 138.447 91.7322 139.794C91.3804 141.14 91.3643 142.552 91.6852 143.906C92.0061 145.26 92.6542 146.515 93.5728 147.56C94.7556 148.792 96.3156 149.594 98.0058 149.84C98.2882 155.4 97.8885 160.973 96.8156 166.436C88.955 163.158 80.1396 160.749 71.6366 162.463C63.7593 164.291 56.5706 168.337 50.9214 174.123C45.0413 180.253 40.0574 187.183 36.1176 194.709C27.496 210.136 20.7977 226.562 16.1724 243.619C11.8142 259.833 7.09081 281.862 16.267 295.231C20.6715 301.309 26.8218 305.902 33.9 308.4C42.4118 311.676 51.5968 312.543 60.6212 313.24C63.3888 313.46 66.1212 313.641 68.8206 313.77C63.7538 328.023 60.0198 342.714 57.6666 357.656C56.1266 367.719 56.1508 368.058 56.285 370.343C56.2864 370.453 56.327 370.559 56.3995 370.641C56.4719 370.724 56.5715 370.777 56.6802 370.793C56.7889 370.808 56.8995 370.784 56.9921 370.725C57.0846 370.666 57.153 370.576 57.1848 370.471C57.4625 369.588 57.6772 368.687 57.8272 367.774C61.3362 342.335 64.2644 333.535 70.0108 313.821C78.5571 314.292 87.1291 313.795 95.5638 312.34C95.716 312.306 95.8549 312.228 95.9638 312.117C96.0728 312.005 96.147 311.864 96.1776 311.711C106.716 313.019 117.396 312.624 127.809 310.541C130.805 310.017 133.741 309.2 136.576 308.101C136.992 307.91 136.77 307.074 136.255 307.137C132.775 307.577 117.584 312.901 96.0896 310.158C95.9282 307.198 96.0527 304.228 96.4614 301.292C97.2446 293.753 98.3688 289.036 98.4414 287.027C103.603 288.072 108.9 281.747 113.742 280.867C114.136 280.811 114.511 280.668 114.842 280.449C114.922 280.397 114.986 280.323 115.025 280.236C115.064 280.149 115.078 280.052 115.064 279.958C115.05 279.863 115.01 279.775 114.948 279.702C114.886 279.63 114.804 279.577 114.713 279.549C113.971 279.263 113.613 279.4 112.499 279.679C110.36 280.401 108.336 281.429 106.491 282.731C104.101 284.591 101.198 285.674 98.173 285.833C97.6944 285.187 97.1454 284.597 96.5362 284.073C89.7492 277.55 76.3644 268.712 60.4386 262.488C60.6938 260.339 60.63 258.121 60.7246 255.939C61.1022 248.87 62.1236 241.85 63.776 234.966C64.5764 232.393 65.2308 229.777 65.7362 227.13C65.7335 227.002 65.689 226.877 65.6095 226.776C65.53 226.676 65.4198 226.603 65.2956 226.57C65.1714 226.538 65.0398 226.546 64.9209 226.595C64.8019 226.643 64.702 226.729 64.6362 226.84C63.303 228.705 61.2702 238.269 60.8126 240.651C59.772 246.329 58.584 257.283 59.2418 262.009C51.8974 259.236 44.2882 257.224 36.5334 256.003C35.3784 255.809 34.8966 257.576 36.0538 257.763C56.2874 261.126 75.3555 269.507 91.5158 282.139C89.2872 286.253 86.3282 300.694 87.3358 311.654C76.2755 312.419 65.1676 312.139 54.1598 310.818C42.1522 309.584 29.7178 306.924 21.0476 298.1C15.1186 292.096 12.9868 284.966 12.857 276.487C12.2894 249.761 30.5912 201.436 47.6786 180.4C55.3038 171.052 65.8 163.636 77.8032 163.636C84.2367 163.898 90.5553 165.426 96.3976 168.133C96.0038 173.362 99.6976 180.18 107.158 183.293C116.094 187.033 127.486 184.813 131.631 176.675C132.591 175.008 133.038 173.095 132.915 171.175C133.718 170.63 134.488 169.987 135.355 169.505C137.3 168.558 139.377 167.908 141.515 167.578C149.82 165.66 158.62 163.785 167.119 165.264C174.932 166.723 181.88 171.141 186.516 177.597C193.855 186.976 196.971 199.828 199.171 204.235C192.157 212.929 185.883 222.195 180.416 231.937C180.343 232.06 180.323 232.207 180.359 232.346C180.395 232.484 180.485 232.603 180.608 232.675C180.732 232.747 180.879 232.768 181.017 232.732C181.155 232.696 181.274 232.606 181.346 232.483C182.851 230.113 188.844 220.985 192.126 216.328C197.259 209.055 203.029 201.79 204.49 200.143C207.209 202.559 210.168 204.69 213.323 206.501C218.351 209.585 224.097 211.301 229.993 211.479C228.373 227.843 225.238 236.649 223.184 245.619C223.087 246.098 223.793 246.455 224.017 245.973C225.234 243.412 226.182 240.731 226.844 237.974C229.957 226.75 231.794 215.212 232.32 203.577C232.285 203.352 232.173 203.147 232.004 202.995C231.835 202.843 231.619 202.754 231.392 202.743C231.233 202.743 231.077 202.721 230.921 202.71C231.518 200.683 232.543 198.808 233.926 197.21C234.498 196.648 234.976 195.997 235.341 195.283C235.526 194.81 234.883 194.425 234.498 194.651ZM92.5432 283.034C94.0558 284.17 95.4352 285.474 96.655 286.919C96.655 288.732 93.4386 305.164 94.3758 310.783C92.6158 311.104 90.8096 311.359 89.043 311.553C88.8824 309.755 88.757 308.053 88.757 306.319C88.854 298.412 90.1301 290.564 92.5432 283.034ZM97.8232 168.925C102.147 172.785 107.544 175.237 113.295 175.954C119.047 176.671 124.881 175.62 130.02 172.94C130.46 172.72 130.9 172.458 131.305 172.233C128.832 188.333 99.834 187.066 97.8122 168.925H97.8232ZM230.111 209.776C228.322 209.746 226.538 209.563 224.779 209.231C215.424 207.293 208.617 201.172 205.218 199.274C206.857 197.316 208.56 195.391 210.23 193.43C212.012 195.885 214.247 197.976 216.815 199.59C220.902 202.306 225.605 203.952 230.494 204.375C230.392 206.178 230.26 207.978 230.1 209.776H230.111Z" fill="black"/>
<path d="M114.64 288.75C116.59 289.105 118.567 289.299 120.549 289.329C125.588 289.494 130.632 289.312 135.645 288.783C136.644 288.784 137.63 288.565 138.534 288.141C138.614 288.092 138.678 288.021 138.718 287.937C138.758 287.852 138.772 287.757 138.758 287.665C138.744 287.572 138.704 287.486 138.641 287.416C138.579 287.347 138.497 287.297 138.406 287.274C137.42 287.08 136.405 287.08 135.419 287.274C123.473 288.468 116.419 287.467 114.609 287.819C114.127 287.883 114.224 288.618 114.64 288.75Z" fill="black"/>
<path d="M148.363 259.171C146.701 260.769 145.234 262.559 143.994 264.504C146.209 264.825 148.394 265.21 150.579 265.604C151.373 264.411 153.476 262.253 154.539 260.852C152.536 260.105 150.469 259.542 148.363 259.171Z" fill="#00B478"/>
<path d="M139.04 273.68C137.538 275.431 136.245 277.351 135.186 279.4C137.403 279.53 139.649 279.69 141.867 279.882C142.549 278.518 143.99 276.96 145.334 274.776C143.27 274.236 141.165 273.869 139.04 273.68Z" fill="#00B478"/>
<path d="M117.949 285.089C122.569 274.389 134.139 257.079 141.201 247.802C141.522 247.386 141.843 246.774 142.358 246.647C145.988 245.639 200.904 252.741 211.343 255.062C211.946 254.254 213.803 251.944 213.847 251.88C214.168 251.495 214.137 250.725 213.526 250.629C203.604 248.959 137.186 242.049 137.186 242.049C137.098 242.035 137.009 242.042 136.926 242.07C136.842 242.097 136.766 242.144 136.704 242.207C135.485 243.364 124.115 264.368 116.464 285.083L117.949 285.089Z" fill="#00B478"/>
<path d="M221.843 258.916C204.582 253.636 149.004 247.518 143.303 247.731C142.762 247.751 142.802 247.663 142.186 248.446C140.556 250.516 130.966 263.809 124.383 274.652C122.345 278.018 120.49 281.491 118.826 285.056C120.146 285.056 121.794 285.122 122.617 285.122C126.961 285.127 131.303 284.901 135.623 284.447C136.785 284.244 137.975 284.277 139.123 284.544C139.591 284.674 140.023 284.909 140.387 285.231C140.75 285.554 141.036 285.954 141.221 286.403C141.407 286.852 141.488 287.337 141.459 287.822C141.429 288.306 141.289 288.778 141.051 289.201C141.532 289.058 142.028 288.972 142.529 288.944C143.271 288.952 143.988 289.211 144.564 289.677C145.141 290.143 145.544 290.79 145.708 291.513C145.86 292.214 145.769 292.947 145.449 293.589C145.129 294.231 144.6 294.745 143.948 295.046C142.744 295.619 141.499 296.102 140.223 296.492C140.894 296.617 141.507 296.952 141.973 297.45C142.44 297.947 142.735 298.58 142.818 299.256C142.9 299.933 142.764 300.619 142.43 301.213C142.096 301.807 141.581 302.28 140.96 302.562C139.913 303.008 138.841 303.394 137.748 303.717C138.397 304.017 138.946 304.499 139.328 305.103C139.71 305.708 139.91 306.41 139.903 307.125C139.897 307.84 139.684 308.539 139.29 309.136C138.897 309.733 138.339 310.204 137.685 310.493C132.222 313.111 115.476 315.665 107.142 315.113C106.33 317.819 104.282 326.064 104.157 326.61C104.114 326.772 104.108 326.942 104.141 327.107C104.174 327.272 104.245 327.427 104.347 327.56C104.449 327.694 104.58 327.802 104.731 327.877C104.881 327.951 105.047 327.991 105.215 327.991C112.057 328.517 144.425 337.383 168.227 342.313C168.346 342.338 168.47 342.334 168.587 342.303C168.704 342.271 168.813 342.212 168.904 342.131C168.994 342.05 169.065 341.949 169.109 341.836C169.154 341.723 169.171 341.601 169.16 341.48C178.246 317.777 191.222 295.755 207.552 276.32C210.219 273.117 217.734 264.499 222.134 260.102C222.231 260.02 222.303 259.912 222.342 259.792C222.381 259.671 222.386 259.542 222.356 259.419C222.325 259.296 222.262 259.183 222.171 259.094C222.081 259.006 221.967 258.944 221.843 258.916ZM146.96 274.716C145.991 276.341 144.941 277.917 143.814 279.437C143.017 280.595 142.837 281.596 142.014 281.268C141.981 281.235 141.917 281.235 141.887 281.204C139.348 280.984 136.78 280.786 134.242 280.658C134.132 280.652 134.025 280.618 133.932 280.56C133.839 280.501 133.761 280.421 133.707 280.325C133.653 280.229 133.623 280.121 133.622 280.011C133.62 279.901 133.645 279.792 133.696 279.695C134.802 277.121 136.47 274.828 138.578 272.983C138.617 272.939 138.668 272.906 138.725 272.889C138.782 272.872 138.842 272.871 138.899 272.886C139.488 272.742 140.093 272.677 140.699 272.692C142.679 272.855 144.638 273.224 146.542 273.792C146.64 273.81 146.732 273.851 146.811 273.913C146.89 273.974 146.952 274.054 146.993 274.144C147.035 274.235 147.053 274.335 147.047 274.434C147.041 274.534 147.011 274.631 146.96 274.716ZM153.769 263.892C152.91 264.842 152.106 265.839 151.36 266.88C151.245 266.99 151.096 267.056 150.938 267.068C150.78 267.079 150.622 267.035 150.493 266.944L150.46 266.911C147.893 266.429 145.354 266.013 142.784 265.626C142.69 265.6 142.604 265.554 142.53 265.489C142.457 265.425 142.4 265.345 142.363 265.255C142.326 265.165 142.31 265.068 142.316 264.971C142.322 264.874 142.351 264.78 142.399 264.695C143.762 262.192 145.672 260.029 147.987 258.368C148.041 258.339 148.1 258.322 148.161 258.317C148.222 258.311 148.283 258.318 148.341 258.337C149.586 258.209 150.844 258.34 152.035 258.722C153.286 259.056 154.519 259.452 155.729 259.91C155.828 259.939 155.919 259.991 155.995 260.061C156.071 260.131 156.13 260.217 156.167 260.314C156.205 260.41 156.219 260.514 156.21 260.616C156.201 260.719 156.168 260.819 156.114 260.907C155.411 261.964 154.623 262.962 153.758 263.892H153.769ZM180.426 285.672C179.306 285.743 179.148 285.417 174.266 284.194C165.653 282.042 162.421 281.695 155.606 280.372C155.124 280.276 155.254 279.473 155.736 279.539C163.153 280.365 170.49 281.805 177.67 283.842C178.717 284.012 179.727 284.36 180.657 284.869C180.732 284.923 180.789 284.998 180.819 285.086C180.849 285.173 180.85 285.267 180.824 285.356C180.797 285.444 180.743 285.522 180.67 285.578C180.596 285.634 180.507 285.665 180.415 285.668L180.426 285.672ZM187.299 271.927C186.145 271.914 184.999 271.741 183.893 271.412C182.793 271.192 176.314 269.839 174.13 269.421C169.699 268.554 165.266 267.848 160.866 266.82C160.353 266.691 160.481 265.857 160.996 265.921C166.434 266.541 177.329 268.745 180.972 269.551C183.216 269.799 185.419 270.339 187.523 271.157C187.599 271.206 187.656 271.279 187.687 271.363C187.717 271.448 187.719 271.541 187.693 271.627C187.666 271.713 187.612 271.788 187.539 271.841C187.466 271.894 187.378 271.922 187.288 271.92L187.299 271.927Z" fill="#00B478"/>
</svg>
