<svg width="363" height="362" viewBox="0 0 363 362" fill="none" xmlns="http://www.w3.org/2000/svg">
<path d="M232.986 95.2169C232.442 94.6467 232.329 95.0359 230.298 95.559C229.416 95.7864 228.499 95.8533 227.592 95.7563C222.075 95.4214 221.24 87.9606 220.984 82.308L220.407 78.4744C220.42 78.3614 220.409 78.2469 220.375 78.1383C220.341 78.0298 220.285 77.9294 220.21 77.8437C220.135 77.758 220.043 77.6888 219.939 77.6406C219.836 77.5924 219.724 77.5662 219.61 77.5637C219.496 77.5612 219.383 77.5824 219.277 77.626C219.172 77.6695 219.077 77.7346 218.998 77.8169C218.919 77.8991 218.859 77.9969 218.82 78.1039C218.781 78.2109 218.765 78.3247 218.773 78.4382C217.673 85.1786 218.466 96.0766 225.467 97.9989C225.687 100.258 225.648 99.8089 226.135 103.416C226.147 103.638 226.247 103.846 226.413 103.995C226.579 104.143 226.797 104.22 227.02 104.208C227.242 104.196 227.451 104.096 227.6 103.931C227.749 103.765 227.826 103.548 227.814 103.326L227.919 98.5925C229.077 98.6921 230.242 98.49 231.299 98.0061C232.235 97.407 233.743 96.0151 232.986 95.2169Z" fill="#191919"/>
<path d="M238.369 67.464C236.019 65.9582 233.278 65.1699 230.485 65.1961C225.833 46.9458 202.605 56.2058 206.708 67.0676C208.106 70.7365 211.206 72.4976 214.631 73.8334C220.554 76.3678 227.099 77.0879 233.434 75.9022C233.815 78.3511 234.829 80.6589 236.374 82.5992C236.497 82.735 236.654 82.8352 236.828 82.8891C237.003 82.943 237.189 82.9485 237.367 82.9051C237.957 82.744 239.024 83.6146 239.409 84.3821C239.602 84.8265 239.69 85.3096 239.665 85.7934C239.64 86.2773 239.504 86.7488 239.266 87.1713C238.287 89.2057 236.362 88.7876 236.362 90.375C236.44 94.1425 236.9 97.8925 237.734 101.568C237.751 101.79 237.855 101.996 238.024 102.141C238.194 102.286 238.414 102.358 238.636 102.341C238.858 102.324 239.065 102.22 239.21 102.051C239.356 101.882 239.428 101.663 239.411 101.441C239.484 95.3489 239.213 94.3353 239.159 91.2021C240.551 90.4377 241.599 89.1731 242.09 87.6655C242.581 86.1579 242.478 84.5205 241.801 83.0861C243.916 76.9357 242.123 70.5464 238.369 67.464Z" fill="#191919"/>
<path d="M230.824 80.6016C231.474 80.6016 231.996 81.3943 231.996 82.3663C231.996 83.3383 231.474 84.1293 230.824 84.1293C230.174 84.1293 229.651 83.3365 229.651 82.3663C229.651 81.3962 230.174 80.6016 230.824 80.6016Z" fill="#191919"/>
<path d="M225.771 85.528C226.794 85.5986 227.725 85.5497 227.793 86.4113C227.842 87.0484 227.419 87.2837 225.615 87.8593C224.84 88.1344 224.135 88.3607 223.52 87.8231C223.248 87.5707 223.086 87.2215 223.07 86.8511C223.034 86.1126 222.979 85.3579 222.979 84.5832C222.979 80.9379 224.504 79.4844 225.253 79.7433C226.277 80.1378 225.771 82.2935 225.771 85.528Z" fill="#191919"/>
<path d="M269.265 111.794C263.528 107.294 258.223 102.903 250.841 101.355C248.145 100.992 245.426 100.818 242.705 100.834C242.491 102.787 241.85 104.669 240.827 106.348C239.805 108.027 238.425 109.462 236.786 110.552C230.488 114.096 223.355 109.544 221.32 103.354C208.877 103.232 186.98 123.017 186.224 148.719C189.995 147.854 193.847 149.889 197.05 151.615C202.194 154.368 207.481 156.799 212.534 159.695C214.316 155.325 216.683 151.215 219.571 147.478C223.207 149.859 226.593 152.601 229.677 155.661C235.523 153.753 246.277 149.309 246.277 149.309C249.942 147.848 253.881 147.193 257.823 147.388C261.766 147.584 265.62 148.626 269.122 150.442C276.852 143.686 279.948 131.401 287.256 126.509C287.256 126.216 279.985 120.174 269.265 111.794Z" fill="#00B478"/>
<path d="M208.979 132.673C210.029 136.039 211.633 139.208 213.725 142.049C216.168 145.182 216.811 145.904 217.551 145.432C218.277 144.916 217.983 144.357 215.927 140.628C214.187 137.857 212.712 134.929 211.524 131.882C210.304 128.898 210.048 128.722 209.449 128.842C208.336 129.066 208.748 131.817 208.979 132.673Z" fill="#191919"/>
<path d="M260.343 157.44C262.591 157.327 264.818 157.919 266.712 159.132C266.887 159.261 267.106 159.317 267.322 159.288C267.538 159.259 267.735 159.148 267.87 158.978C268.006 158.808 268.07 158.592 268.049 158.376C268.029 158.159 267.924 157.959 267.759 157.818C266.785 156.858 265.577 156.168 264.255 155.815C262.932 155.461 261.54 155.458 260.216 155.803C258.991 156.236 259.412 157.425 260.343 157.44Z" fill="#191919"/>
<path d="M255.856 163.171C258.263 162.851 260.71 163.073 263.02 163.819C263.22 163.914 263.45 163.926 263.659 163.854C263.869 163.782 264.042 163.631 264.141 163.433C264.24 163.236 264.258 163.007 264.19 162.797C264.122 162.586 263.975 162.411 263.779 162.308C262.56 161.47 261.143 160.965 259.668 160.842C258.193 160.719 256.711 160.982 255.37 161.605C254.411 162.152 254.702 163.263 255.856 163.171Z" fill="#191919"/>
<path d="M317.511 166.615C319.707 165.6 321.604 164.039 323.019 162.082C324.435 160.125 325.322 157.838 325.595 155.44C325.693 154.173 325.828 150.933 324.548 151.031C323.617 151.069 323.807 152.001 323.503 153.729C323.093 156.062 322.195 158.282 320.867 160.245C319.655 161.902 318.098 163.277 316.302 164.276C313.812 165.813 313.186 165.994 313.415 166.778C313.738 167.925 316.713 166.97 317.511 166.615Z" fill="#191919"/>
<path d="M332.95 158.433C333.465 156.806 333.751 155.117 333.799 153.412C333.871 152.328 333.73 151.24 333.383 150.21C332.857 148.813 332.416 147.73 331.568 148.014C330.677 148.335 331.245 148.666 331.044 153.263C330.9 154.769 330.666 156.265 330.342 157.743C330.244 158.259 329.924 160.588 330.846 160.856C331.757 161.168 332.734 159.082 332.95 158.433Z" fill="#191919"/>
<path d="M340.231 152.07C340.318 150.054 339.843 148.055 338.859 146.292C338.031 145.072 337.265 144.012 336.477 144.511C335.809 144.904 336.134 145.613 336.477 146.582C336.604 147.031 336.675 147.487 336.802 147.948C337.201 149.277 337.414 150.654 337.434 152.041C337.445 152.292 337.252 155.48 338.209 155.748C339.165 156.016 340.164 153.992 340.231 152.07Z" fill="#191919"/>
<path d="M76.5752 89.5033C79.9112 89.2065 83.9423 89.3224 86.9516 89.3586C95.914 89.4997 128.648 89.1269 140.857 89.3766C141.08 89.3886 141.298 89.312 141.464 89.1635C141.63 89.015 141.73 88.8068 141.742 88.5848C141.754 88.3628 141.677 88.1451 141.528 87.9796C141.379 87.8141 141.17 87.7144 140.948 87.7024C135.187 87.2227 129.223 86.7666 123.408 86.5874C111.316 86.2254 84.8679 86.754 84.6483 86.7684C81.8523 86.9404 79.0723 87.3137 76.3302 87.8852C76.126 87.9295 75.9464 88.0496 75.8278 88.2211C75.7093 88.3927 75.6606 88.6028 75.6918 88.8089C75.723 89.0149 75.8317 89.2013 75.9958 89.3303C76.1599 89.4593 76.367 89.5212 76.5752 89.5033Z" fill="#00B478"/>
<path d="M44.4102 115.477C58.8467 115.728 72.5989 117.005 96.3192 115.962C126.918 114.604 144.023 113.933 155.091 113.984C161.351 113.958 167.592 113.26 174.021 113.622C174.244 113.639 174.465 113.567 174.635 113.421C174.806 113.276 174.911 113.07 174.929 112.847C174.942 112.625 174.868 112.407 174.723 112.238C174.578 112.069 174.374 111.963 174.152 111.942C167.812 111.352 161.465 111.835 155.132 111.654C126.978 111.013 96.7947 113.394 80.6993 113.562C74.6717 113.616 47.443 113.743 44.4102 113.813C44.189 113.813 43.9768 113.901 43.8204 114.057C43.664 114.213 43.5762 114.425 43.5762 114.645C43.5762 114.866 43.664 115.077 43.8204 115.233C43.9768 115.389 44.189 115.477 44.4102 115.477Z" fill="#00B478"/>
<path d="M43.998 146.531C52.2181 146.674 55.1421 147.204 69.9271 147.358C101.043 147.745 124.139 145.036 154.688 145.036C160.946 145.01 167.197 144.312 173.616 144.674C173.835 144.683 174.049 144.608 174.212 144.463C174.376 144.318 174.477 144.115 174.493 143.897C174.509 143.679 174.44 143.464 174.3 143.296C174.159 143.129 173.959 143.022 173.741 142.999C167.374 142.4 160.949 142.907 154.724 142.73C135.28 142.187 120.734 143.117 95.8072 144.223C80.5049 144.916 52.8443 144.625 44.0198 144.889C43.9116 144.887 43.8041 144.906 43.7034 144.945C43.6028 144.985 43.5111 145.044 43.4337 145.119C43.3563 145.195 43.2947 145.285 43.2526 145.384C43.2105 145.483 43.1887 145.59 43.1885 145.698C43.1875 145.915 43.2716 146.123 43.4229 146.279C43.5743 146.435 43.7807 146.525 43.998 146.531Z" fill="#00B478"/>
<path d="M44.4858 177.614C51.6006 177.748 71.2662 179.205 96.3948 178.101C104.642 177.723 149.284 175.815 155.166 175.797C155.39 175.796 155.604 175.71 155.765 175.556C155.926 175.402 156.022 175.192 156.032 174.97C156.034 174.748 155.947 174.535 155.792 174.377C155.637 174.219 155.425 174.128 155.203 174.125C147.317 173.871 139.452 173.805 131.608 173.926C126.889 174.016 85.955 175.654 80.775 175.69C74.9833 175.743 46.9234 175.888 44.4877 175.96C44.2677 175.96 44.0567 176.047 43.9011 176.202C43.7456 176.357 43.6582 176.568 43.6582 176.787C43.6582 177.007 43.7456 177.217 43.9011 177.372C44.0567 177.527 44.2659 177.614 44.4858 177.614Z" fill="#00B478"/>
<path d="M43.8843 207.342C50.6978 207.483 71.3126 208.92 95.7933 207.845C104.041 207.449 148.682 205.559 154.565 205.523C154.789 205.525 155.005 205.44 155.167 205.285C155.329 205.131 155.423 204.919 155.431 204.696C155.432 204.474 155.345 204.261 155.19 204.103C155.035 203.945 154.823 203.854 154.601 203.85C123.383 202.853 105.445 205.17 80.1861 205.434C74.3781 205.47 46.3164 205.631 43.8988 205.704C43.7907 205.701 43.6833 205.721 43.5827 205.76C43.4822 205.8 43.3906 205.859 43.3133 205.934C43.2361 206.01 43.1747 206.1 43.1328 206.199C43.0909 206.298 43.0693 206.405 43.0693 206.513C43.0693 206.73 43.1546 206.938 43.307 207.093C43.4594 207.248 43.6666 207.338 43.8843 207.342Z" fill="#00B478"/>
<path d="M103.828 242.421C103.701 242.286 103.548 242.177 103.379 242.101C103.21 242.025 103.027 241.983 102.841 241.978C102.655 241.973 102.471 242.005 102.297 242.072C102.124 242.138 101.966 242.239 101.831 242.367C98.9953 244.663 96.3266 247.158 93.8454 249.833C91.0198 246.956 87.4301 244.942 83.4975 244.028C79.5649 243.113 75.4523 243.336 71.642 244.67C67.8318 246.003 64.4819 248.393 61.9851 251.558C59.4883 254.723 57.9482 258.532 57.5454 262.539C57.248 265.38 57.5156 268.252 58.3328 270.99C59.15 273.728 60.5007 276.279 62.3077 278.495C64.1147 280.712 66.3425 282.551 68.8634 283.908C71.3843 285.265 74.1488 286.112 76.9986 286.402C95.2884 288.295 107.598 267.92 96.6914 253.199C98.8821 250.484 101.278 247.208 103.784 244.401C104.051 244.143 104.205 243.79 104.213 243.42C104.221 243.049 104.083 242.691 103.828 242.421ZM96.4572 266.517C96.1533 269.319 95.1636 272.003 93.5752 274.334C91.9868 276.664 89.8483 278.57 87.348 279.883C84.8477 281.196 82.0621 281.876 79.2364 281.863C76.4107 281.85 73.6315 281.145 71.1432 279.809C68.655 278.474 66.534 276.549 64.9669 274.204C63.3997 271.859 62.4345 269.166 62.1561 266.362C61.8777 263.558 62.2947 260.728 63.3704 258.123C64.446 255.517 66.1474 253.215 68.3247 251.418C71.6442 248.641 75.8655 247.167 80.1972 247.271C84.5289 247.376 88.6736 249.053 91.8544 251.987C87.6625 256.438 83.7544 261.146 80.1531 266.085C79.0641 264.751 76.1764 261.728 75.1001 260.363C74.916 260.044 74.6121 259.81 74.2552 259.714C73.8983 259.618 73.5177 259.667 73.1971 259.85C72.8765 260.034 72.6422 260.337 72.5457 260.693C72.4492 261.049 72.4984 261.428 72.6825 261.748C74.124 265.279 76.1086 268.563 78.565 271.484C78.7983 271.78 79.1004 272.015 79.4453 272.168C79.7902 272.322 80.1674 272.389 80.5441 272.364C80.9208 272.339 81.2858 272.222 81.6073 272.025C81.9288 271.828 82.1972 271.555 82.3892 271.231C85.4002 266.199 90.4568 260.776 94.6386 255.703C96.3597 259.031 96.9991 262.812 96.4572 266.517Z" fill="#00B478"/>
<path d="M44.8475 238.031C45.3666 248.487 45.9546 247.506 45.029 254.766C45.0372 254.948 45.0094 255.13 44.9472 255.301C44.885 255.472 44.7895 255.629 44.6663 255.764C44.4175 256.035 44.0707 256.197 43.7022 256.214C43.3337 256.23 42.9737 256.1 42.7014 255.852C42.4291 255.604 42.2668 255.258 42.2502 254.891C41.595 251.951 40.4752 249.075 40.0323 235.6C40.0223 235.265 40.0841 234.932 40.2136 234.623C40.3431 234.314 40.5373 234.036 40.7831 233.807C41.029 233.579 41.3209 233.406 41.6394 233.299C41.9578 233.193 42.2954 233.155 42.6296 233.189C47.4901 233.732 52.4306 232.979 60.4039 233.513C60.589 233.507 60.7736 233.538 60.9468 233.603C61.1199 233.669 61.2782 233.768 61.4125 233.896C61.5468 234.023 61.6543 234.176 61.7289 234.345C61.8034 234.514 61.8435 234.696 61.8468 234.881C61.8548 235.065 61.826 235.248 61.762 235.42C61.698 235.593 61.6002 235.75 61.4742 235.884C61.3483 236.018 61.1967 236.126 61.0285 236.201C60.8603 236.276 60.6788 236.316 60.4946 236.32C55.7084 236.928 51.5285 238.177 44.8475 238.031Z" fill="#00B478"/>
<path d="M119.608 283.598C119.053 271.86 119.359 273.565 119.86 269.453C119.836 269.088 119.957 268.729 120.197 268.453C120.437 268.176 120.776 268.006 121.142 267.978C121.324 267.961 121.507 267.981 121.681 268.037C121.855 268.093 122.016 268.183 122.154 268.302C122.293 268.422 122.405 268.568 122.485 268.732C122.565 268.895 122.612 269.074 122.621 269.256C124.329 275.086 123.799 274.081 124.425 285.776C124.44 286.094 124.39 286.412 124.279 286.711C124.167 287.009 123.996 287.282 123.775 287.513C123.554 287.743 123.289 287.926 122.995 288.052C122.701 288.177 122.385 288.241 122.065 288.241C119.809 288.169 117.499 288.241 115.19 288.168C112.882 288.096 110.571 287.863 108.279 287.79C107.905 287.819 107.536 287.698 107.252 287.455C106.968 287.212 106.792 286.866 106.763 286.494C106.747 286.311 106.767 286.126 106.823 285.951C106.879 285.776 106.969 285.613 107.088 285.472C107.207 285.332 107.353 285.216 107.517 285.132C107.681 285.048 107.861 284.997 108.045 284.983C111.841 284.127 115.716 283.663 119.608 283.598Z" fill="#00B478"/>
<path d="M202.333 249.138C201.856 252.363 201.634 253.205 201.141 257.63C200.727 261.612 198.687 285.81 198.632 287.07C198.507 290.274 198.434 293.441 198.398 296.645C198.391 296.753 198.406 296.861 198.441 296.963C198.477 297.065 198.533 297.159 198.605 297.239C198.677 297.319 198.765 297.385 198.863 297.431C198.961 297.477 199.067 297.503 199.175 297.508C199.284 297.515 199.393 297.501 199.497 297.466C199.6 297.431 199.696 297.376 199.778 297.304C199.86 297.232 199.927 297.144 199.975 297.046C200.024 296.949 200.052 296.842 200.059 296.733C204.663 251.426 203.974 255.607 203.974 249.245C203.985 249.029 203.911 248.818 203.767 248.657C203.624 248.496 203.422 248.398 203.206 248.384C202.991 248.37 202.778 248.441 202.614 248.582C202.451 248.723 202.35 248.923 202.333 249.138Z" fill="#191919"/>
<path d="M215.108 255.342C213.999 259.42 213.36 260.468 209.893 279.707C208.9 285.17 208.225 290.685 207.873 296.226C207.847 296.338 207.845 296.455 207.867 296.568C207.888 296.681 207.933 296.788 207.999 296.882C208.065 296.977 208.15 297.057 208.248 297.117C208.347 297.177 208.457 297.215 208.571 297.23C208.685 297.246 208.802 297.237 208.912 297.204C209.023 297.172 209.126 297.117 209.214 297.043C209.302 296.968 209.373 296.876 209.424 296.773C209.474 296.67 209.502 296.557 209.506 296.442C216.585 257.121 215.835 265.639 216.707 255.648C216.729 255.445 216.674 255.24 216.552 255.076C216.43 254.911 216.25 254.798 216.049 254.76C215.847 254.721 215.638 254.76 215.464 254.868C215.29 254.976 215.162 255.145 215.108 255.342Z" fill="#191919"/>
<path d="M202.666 308.993C200.251 310.157 197.588 310.716 194.907 310.622C191.76 310.763 186.531 311.116 183.973 309.355C183.467 309.093 183.065 308.667 182.834 308.148C182.603 307.628 182.557 307.045 182.703 306.495C183.792 303.152 190.988 304.504 195.279 302.41C196.291 301.82 197.159 301.014 197.822 300.05C198.477 299.163 199.065 299.612 204.463 299.347C208.227 299.179 208.403 298.763 209.082 299.311C209.226 299.43 209.344 299.578 209.428 299.746C209.512 299.913 209.56 300.096 209.568 300.283C209.568 301.525 209.55 302.712 209.443 303.881C209.271 306.017 208.782 308.115 207.991 310.108C207.925 310.233 207.828 310.339 207.71 310.415C207.591 310.492 207.454 310.537 207.313 310.546C207.172 310.556 207.031 310.528 206.903 310.467C206.776 310.406 206.666 310.314 206.584 310.198C205.77 310.229 204.965 310.316 203.697 310.271C203.487 310.259 203.286 310.178 203.127 310.041C202.967 309.905 202.857 309.719 202.813 309.514L202.666 308.993ZM207.022 301.831C204.571 302.09 202.107 302.222 199.642 302.227C198.807 303.327 197.75 304.241 196.538 304.908C192.669 306.837 188.117 306.301 185.748 307.246C187.511 308.251 192.816 308.106 194.843 308.075C197.562 308.375 200.308 307.835 202.709 306.528C202.849 306.433 203.009 306.373 203.177 306.355C203.345 306.337 203.515 306.359 203.671 306.422C203.828 306.484 203.967 306.583 204.076 306.712C204.186 306.84 204.262 306.993 204.298 307.157L204.55 308.433C204.762 308.433 206.579 308.482 206.77 308.488C207.067 306.282 207.156 304.052 207.022 301.831ZM185.387 307.031C185.387 306.922 185.369 306.833 185.296 306.886C185.224 306.938 185.314 306.995 185.387 307.031Z" fill="#191919"/>
<path d="M266.34 270.146C266.567 272.006 266.934 273.847 267.44 275.652C268.017 277.811 271.752 290.821 272.113 291.956C272.672 293.683 273.25 295.357 273.81 297.066C273.837 297.171 273.883 297.27 273.948 297.357C274.012 297.444 274.093 297.517 274.186 297.573C274.279 297.629 274.382 297.666 274.489 297.682C274.597 297.699 274.706 297.694 274.811 297.667C274.917 297.641 275.016 297.595 275.103 297.531C275.191 297.466 275.264 297.386 275.32 297.293C275.377 297.2 275.414 297.098 275.43 296.991C275.446 296.883 275.441 296.774 275.415 296.669C274.382 290.102 272.831 283.626 270.778 277.302C270.076 274.67 269.116 272.114 267.91 269.671C267.843 269.468 267.7 269.298 267.509 269.199C267.319 269.1 267.097 269.08 266.892 269.142C266.687 269.204 266.514 269.344 266.41 269.531C266.307 269.719 266.282 269.939 266.34 270.146Z" fill="#191919"/>
<path d="M281.384 306.402C280.306 308.515 280.13 309.677 279.237 309.731C277.129 309.859 276.182 309.894 275.646 309.894C275.397 309.889 275.159 309.79 274.981 309.616C274.804 309.442 274.699 309.206 274.69 308.958C274.401 306.656 274.467 302.746 274.347 300.769C274.341 300.471 274.436 300.18 274.616 299.941C274.796 299.703 275.051 299.532 275.34 299.455C278.239 298.732 281.188 298.221 284.162 297.926C285.359 297.801 285.518 299.144 290.479 301.057C298.054 303.932 304.004 303.066 306.485 304.818C308.046 306.049 307.177 308.076 305.365 309.048C303.063 309.849 300.639 310.245 298.201 310.218C294.513 310.462 289.126 311.4 285.571 309.313C284.025 308.437 282.69 307.117 281.384 306.402ZM283.91 300.733C281.583 300.963 279.27 301.318 276.981 301.796C276.981 302.52 276.726 306.359 276.692 307.95C277.378 307.986 278.207 308.022 278.732 308.058C279.137 306.865 279.644 305.709 280.248 304.603C281.478 303.113 285.348 307.22 287.772 307.771C291.402 308.556 293.448 307.952 298.004 307.553C300.004 307.519 301.992 307.235 303.922 306.708C301.637 306.024 291.45 306.013 283.91 300.733ZM304.5 306.384C304.59 306.312 304.643 306.241 304.554 306.187C304.465 306.133 304.481 306.254 304.5 306.384Z" fill="#191919"/>
<path d="M265.766 218.949C264.298 211.656 261.047 206.098 253.731 200.072C246.7 194.289 212.625 172.645 195.484 161.635C190.852 158.659 185.828 154.435 180.218 156.056C178.541 156.577 177.043 157.556 175.894 158.882C174.746 160.209 173.994 161.83 173.722 163.561C172.633 168.086 173.359 173.746 173.632 177.38C175.831 206.521 175.02 213.604 178.071 221.271C179.598 225.273 182.271 228.739 185.758 231.238C201.946 242.989 243.936 270.662 245.863 271.889C247.983 273.327 250.404 274.262 252.942 274.624C263.12 275.85 265.465 265.529 266.24 255.317C266.583 250.817 266.222 240.435 266.258 238.618C266.478 230.12 267.131 225.591 265.766 218.949ZM264.569 255.255C263.785 263.971 261.946 273.813 253.208 272.631C249.108 272.049 246.424 269.639 243.226 267.484C230.234 258.504 192.809 233.061 187.36 229.065C184.299 226.858 181.952 223.806 180.61 220.284C177.888 213.356 178.614 208.072 176.407 177.186C175.911 170.531 174.534 160.648 181.008 158.741C185.289 157.452 190.177 161.544 193.963 163.977C212.258 175.742 245.615 196.896 252.014 202.145C259.105 207.915 261.951 213.015 263.382 219.455C264.834 225.982 264.211 230.797 264.211 238.585C264.215 243.165 264.609 254.846 264.569 255.255Z" fill="#191919"/>
<path d="M347.812 107.896C346.236 105.715 344.189 103.914 341.821 102.628C339.454 101.341 336.827 100.602 334.134 100.464C321.538 99.4779 308.399 106.546 299.001 114.807C285.305 126.718 281.02 139.026 269.235 152.093C268.989 152.368 268.859 152.727 268.872 153.095C263.166 148.485 254.534 149.475 247.339 151.191C240.923 152.787 234.703 155.08 228.788 158.028C226.481 155.554 223.857 153.394 220.983 151.604C220.895 151.544 220.795 151.501 220.689 151.48C220.584 151.458 220.475 151.457 220.37 151.477C220.264 151.497 220.163 151.537 220.073 151.596C219.983 151.655 219.906 151.731 219.845 151.819C219.785 151.908 219.742 152.008 219.721 152.113C219.699 152.218 219.698 152.326 219.718 152.432C219.738 152.537 219.778 152.637 219.837 152.727C219.896 152.817 219.973 152.894 220.061 152.954C222.731 155.385 225.256 157.968 227.623 160.692C227.838 160.905 228.118 161.039 228.419 161.075C228.72 161.111 229.024 161.045 229.283 160.889C232.428 159.189 235.719 157.774 239.117 156.661C248.263 153.32 263.487 149.059 269.765 156.449C269.522 156.486 269.292 156.582 269.095 156.729C268.898 156.876 268.741 157.07 268.637 157.292C268.533 157.515 268.486 157.759 268.501 158.004C268.515 158.249 268.589 158.487 268.718 158.696C268.845 158.913 269.313 159.543 269.386 159.65C269.567 160.384 267.618 160.259 267.437 160.279C267.189 160.284 266.947 160.351 266.733 160.474C266.518 160.596 266.338 160.771 266.21 160.982C265.605 161.986 266.582 163.246 265.847 164.185C265.531 164.66 264.837 164.661 264.44 164.761C264.23 164.807 264.033 164.897 263.86 165.025C263.687 165.152 263.544 165.315 263.438 165.501C263.332 165.688 263.267 165.895 263.247 166.108C263.227 166.321 263.252 166.536 263.32 166.739C263.453 167.282 263.97 168.006 263.699 168.719C263.563 169.165 262.961 169.385 262.502 169.481C262.489 169.276 262.401 169.083 262.254 168.94C262.106 168.797 261.911 168.714 261.705 168.707C257.712 168.202 253.091 168.678 246.221 172.289C244.242 173.16 242.45 174.404 240.943 175.952C197.871 150.99 196.517 149.476 191.355 148.92C187.615 148.858 183.918 149.729 180.6 151.454C180.409 151.547 180.263 151.711 180.19 151.91C180.118 152.109 180.126 152.328 180.213 152.521C180.299 152.714 180.457 152.867 180.654 152.946C180.851 153.026 181.071 153.026 181.268 152.947C184.341 151.518 187.716 150.857 191.103 151.021C195.385 151.588 200.071 155.204 203.877 157.445C240.163 178.812 249.548 183.907 258.607 190.376C264.052 194.242 269.843 198.07 272.611 204.179C276.92 213.761 275.782 225.494 276.256 235.832C276.619 243.93 277.043 252.206 273.043 259.279C271.202 262.115 268.889 264.616 266.204 266.675C266.034 266.819 265.929 267.024 265.911 267.246C265.893 267.468 265.964 267.687 266.108 267.857C266.252 268.026 266.458 268.132 266.681 268.15C266.903 268.168 267.123 268.097 267.293 267.953C270.186 265.812 272.705 263.21 274.747 260.251C277.833 255.02 275.836 253.476 277.637 264.619C279.519 277.119 280.02 283.624 282.256 296.002C282.288 296.215 282.402 296.407 282.573 296.537C282.745 296.667 282.96 296.726 283.174 296.7C283.388 296.674 283.584 296.566 283.719 296.398C283.854 296.231 283.919 296.017 283.899 295.803C283.523 291.821 283.695 289.998 282.617 280.4C280.267 260.671 279.23 259.531 278.25 255.927C278.223 255.788 278.159 255.659 278.065 255.553C277.971 255.446 277.851 255.366 277.716 255.321C277.581 255.276 277.437 255.268 277.298 255.296C277.159 255.325 277.03 255.389 276.924 255.484C279.078 249.196 278.929 242.39 278.739 235.755C278.332 223.792 280.191 208.291 272.078 198.163C273.152 196.065 273.646 194.362 274.628 192.644C276.303 189.759 282.454 184.18 285.038 182.045C289.927 177.97 295.297 174.506 301.027 171.728C312.441 166.137 312.643 167.599 317.376 159.42C319.436 155.8 319.917 150.634 323.15 148.299C324.115 147.575 325.021 147.394 325.785 148.317C326.107 148.83 326.39 149.365 326.633 149.919C326.746 150.126 326.922 150.292 327.136 150.392C327.351 150.492 327.591 150.521 327.823 150.475C328.055 150.429 328.266 150.309 328.425 150.135C328.585 149.96 328.683 149.739 328.707 149.504C328.873 147.828 329.561 146.246 330.675 144.979C331.29 144.406 331.809 144.321 332.622 145.215C332.733 145.343 332.875 145.44 333.034 145.496C333.194 145.552 333.366 145.565 333.532 145.534C333.698 145.503 333.854 145.429 333.982 145.319C334.111 145.209 334.208 145.068 334.265 144.909C335.441 141.651 338.516 140.82 340.383 145.736C340.378 145.891 340.415 146.045 340.492 146.18C340.569 146.315 340.682 146.426 340.818 146.501C340.954 146.576 341.109 146.612 341.264 146.605C341.42 146.598 341.57 146.547 341.699 146.46C348.34 142.02 353.635 134.308 353.916 126.431C353.781 119.783 351.656 113.329 347.812 107.896ZM250.425 176.008C249.534 176.652 248.556 177.167 247.521 177.538C247.08 177.719 245.922 177.648 245.435 178.55C244.557 178.025 243.662 177.529 242.782 177.013C246.375 175.083 250.117 173.443 253.973 172.108C253.049 173.621 251.845 174.945 250.425 176.008Z" fill="#191919"/>
<path d="M265.603 208.938C267.696 208.4 269.68 207.506 271.468 206.294C272.417 205.661 271.896 204.502 270.8 204.765C268.673 205.241 266.67 206.154 264.917 207.445C264.037 208.151 264.48 209.148 265.603 208.938Z" fill="#191919"/>
<path d="M231.802 214.256C230.221 205.53 224.027 197.747 214.732 197.412C214.431 197.401 214.135 197.483 213.883 197.647C210.941 198.094 208.181 199.347 205.911 201.267C204.399 198.091 202.898 194.909 201.243 191.797C197.345 184.67 196.432 183.605 195.127 184.257C193.949 184.8 193.961 186.036 197.201 193.721C198.248 196.207 199.421 198.608 200.575 201.065C202.753 205.705 202.608 205.009 202.407 205.333C195.099 216.958 201.232 238.394 218.881 236.805C228.991 235.873 233.666 224.039 231.802 214.256ZM227.345 221.994C226.345 226.906 223.473 231.657 218.451 232.13C207.16 233.156 201.873 220.727 204.899 210.607C205.211 209.554 204.303 209.905 211.874 222.624C212.075 222.967 212.368 223.248 212.719 223.437C213.07 223.625 213.466 223.714 213.864 223.694C214.262 223.674 214.647 223.545 214.977 223.321C215.307 223.098 215.569 222.788 215.734 222.426C216.823 219.503 218.723 214.886 220.174 211.899C220.267 211.741 220.329 211.566 220.355 211.384C220.38 211.202 220.37 211.017 220.324 210.839C220.278 210.661 220.197 210.493 220.086 210.346C219.976 210.2 219.837 210.076 219.678 209.982C219.519 209.889 219.344 209.828 219.161 209.802C218.979 209.776 218.793 209.787 218.614 209.833C218.436 209.878 218.268 209.959 218.121 210.069C217.974 210.18 217.85 210.318 217.756 210.477C216.306 212.551 214.969 214.702 213.75 216.92C213.387 216.218 207.919 205.41 207.71 204.974C209.486 202.636 212.007 200.97 214.859 200.252C224.406 201.271 229.216 213.172 227.345 221.994Z" fill="#00B478"/>
<path d="M169.146 304.755C149.938 304.413 35.0031 303.91 17.6608 303.91C16.4679 303.902 15.3055 303.534 14.3271 302.853C13.3487 302.173 12.6005 301.212 12.1813 300.098C11.2375 297.526 12.4137 298.046 12.6859 262.291C12.9037 234.719 14.5989 72.8182 14.5445 60.9428C14.5336 59.4067 15.1297 57.928 16.2038 56.8268C17.2778 55.7256 18.7434 55.0903 20.2835 55.0585C42.5318 54.5535 153.719 53.5761 187.115 53.3661C188.718 53.3507 190.264 53.9581 191.426 55.0598C192.588 56.1615 193.275 57.671 193.34 59.2686C193.988 77.0609 192.966 94.8658 194.892 112.569C194.899 112.681 194.928 112.791 194.978 112.891C195.028 112.991 195.097 113.081 195.183 113.153C195.268 113.226 195.367 113.281 195.474 113.315C195.582 113.349 195.694 113.36 195.806 113.349C195.918 113.339 196.027 113.305 196.125 113.252C196.224 113.198 196.311 113.125 196.38 113.037C196.45 112.949 196.501 112.848 196.531 112.74C196.56 112.632 196.568 112.519 196.553 112.408C194.776 95.0323 195.912 76.8581 195.398 59.1943C195.312 57.0564 194.399 55.0346 192.852 53.5523C191.304 52.0699 189.242 51.2418 187.097 51.2412C153.715 51.2955 42.4882 51.8711 20.2381 52.3272C17.9804 52.3746 15.8316 53.3039 14.2539 54.9152C12.6762 56.5264 11.7958 58.6908 11.802 60.9428C11.8383 72.8001 9.90714 151.87 9.70931 179.565C9.4298 218.413 10.7747 258.048 9.07769 297.647C9.02085 298.807 9.20097 299.965 9.60711 301.053C10.0133 302.141 10.6369 303.135 11.4402 303.975C12.2435 304.814 13.2097 305.483 14.28 305.939C15.3503 306.395 16.5024 306.629 17.6663 306.627C34.5567 306.609 154.572 306.051 169.097 306.393C169.31 306.392 169.514 306.308 169.666 306.16C169.819 306.012 169.907 305.81 169.914 305.598C169.92 305.386 169.844 305.179 169.7 305.022C169.557 304.865 169.359 304.769 169.146 304.755Z" fill="#00B478"/>
<path d="M254.257 129.748C255.615 133.56 257.407 137.203 259.598 140.608C259.936 141.134 262.836 145.515 263.84 144.8C264.748 144.191 263.96 143.377 260.825 137.379C257.068 130.352 255.722 125.201 254.222 125.7C253.224 126.048 253.999 128.873 254.257 129.748Z" fill="#191919"/>
<path d="M268.945 177.568V176.006" stroke="white" stroke-width="4.36532" stroke-linecap="round"/>
<path d="M268.945 176.006C269.932 173.055 274.07 169.544 276.779 168.193" stroke="white" stroke-width="4.36532" stroke-linecap="round"/>
<path d="M309.682 136.944C312.149 135.011 315.244 133.647 318.299 133.038" stroke="white" stroke-width="4.36532" stroke-linecap="round"/>
<path d="M288.87 291.046C288.87 279.27 287.657 269.374 284.628 258.046" stroke="white" stroke-width="4.36532" stroke-linecap="round"/>
<path d="M351.373 104.116C351.24 102.257 350.328 100.415 348.833 99.279C346.272 97.3332 342.406 96.0551 339.268 95.5335C333.384 94.5557 326.888 94.942 321.083 96.1129C316.422 97.0529 311.259 99.3068 307.735 102.539C306.656 103.529 305.425 104.46 304.25 105.328C303.318 106.017 302.768 107.495 301.764 107.996" stroke="white" stroke-width="4.36532" stroke-linecap="round"/>
</svg>
