<svg width="303" height="321" viewBox="0 0 303 321" fill="none" xmlns="http://www.w3.org/2000/svg">
<path fill-rule="evenodd" clip-rule="evenodd" d="M124.517 282.076C94.4758 278.796 54.7745 301.375 37.4797 276.612C20.1623 251.817 54.0542 222.065 62.2909 192.98C68.9212 169.567 62.1138 141.221 80.3789 125.128C99.6728 108.129 128.672 106.022 153.554 112.572C176.637 118.648 188.679 140.89 205.298 158.012C227.516 180.903 266.541 195.91 265.364 227.767C264.172 260.013 230.387 282.765 200.258 294.382C175.455 303.946 150.95 284.961 124.517 282.076Z" fill="#05BC94" fill-opacity="0.26"/>
<path d="M225.894 128.583C225.107 126.729 223.449 124.629 224.96 117.652C225.404 115.607 225.938 110.986 222.471 111.342C219.984 111.564 218.428 114.852 217.806 116.896C217.006 119.341 216.696 122.673 218.385 124.761C218.739 125.205 219.451 124.805 219.451 124.317C219.406 122.007 218.474 116.23 221.405 114.23C221.76 113.519 223.405 113.697 223.05 115.207C222.384 117.963 221.583 126.583 225.182 129.159C225.494 129.433 226.064 128.98 225.894 128.583Z" fill="#191919"/>
<path d="M250.843 60.9997C241.177 64.5399 236.979 57.0457 235.823 54.1126C233.114 47.4038 235.068 40.1603 236.667 33.4515C236.7 33.3288 236.683 33.1981 236.621 33.0876C236.558 32.9771 236.455 32.8956 236.333 32.8606C236.211 32.8256 236.08 32.8399 235.968 32.9004C235.856 32.9609 235.773 33.0628 235.736 33.1842C233.024 40.7826 231.336 49.4473 235.113 57.2239C235.986 58.8502 237.194 60.2731 238.657 61.399C240.119 62.5249 241.804 63.3282 243.6 63.756C243.389 66.4371 243.463 69.1331 243.822 71.7984C243.857 71.919 243.93 72.025 244.03 72.1004C244.13 72.1758 244.252 72.2166 244.378 72.2166C244.503 72.2166 244.625 72.1758 244.725 72.1004C244.826 72.025 244.899 71.919 244.933 71.7984C245.186 69.2116 245.171 66.6055 244.888 64.0218C246.071 64.2707 247.296 64.2438 248.467 63.9434C249.638 63.643 250.725 63.0771 251.642 62.2895C252.083 61.6672 251.556 60.7384 250.843 60.9997Z" fill="#191919"/>
<path d="M241.987 56.7342C243.498 58.2445 246.298 57.9334 247.941 56.8671C249.451 55.8899 251.096 53.7121 250.296 51.8831C250.119 51.4828 249.318 51.3499 249.229 51.7502C248.163 56.1497 244.076 55.9262 242.342 55.8824C242.243 55.8802 242.145 55.9081 242.061 55.9624C241.978 56.0168 241.912 56.0951 241.874 56.1871C241.836 56.2791 241.826 56.3806 241.846 56.4782C241.866 56.5758 241.916 56.665 241.987 56.7342Z" fill="#191919"/>
<path d="M238.711 38.2917C237.609 40.2082 235.467 48.4229 236.179 50.2005C236.888 51.9343 239.911 53.5338 241.066 51.3559C241.126 51.2383 241.151 51.1064 241.14 50.975C241.129 50.8437 241.082 50.7179 241.004 50.6119C240.925 50.5058 240.819 50.4236 240.697 50.3744C240.574 50.3253 240.441 50.3111 240.311 50.3334C236.623 51.4012 237.734 45.2693 239.288 38.4699C239.377 38.1587 238.89 37.982 238.711 38.2917Z" fill="#191919"/>
<path d="M244.878 39.5843C243.902 39.8109 243.945 41.0508 244.123 41.806C244.676 44.153 246.559 43.5398 246.434 42.2938C246.345 41.9389 245.813 39.3668 244.878 39.5843Z" fill="#191919"/>
<path d="M243.546 36.4265C247.413 36.3812 247.411 38.2917 248.123 38.7811C248.24 38.8496 248.372 38.886 248.508 38.8865C248.643 38.887 248.777 38.8516 248.894 38.784C249.011 38.7163 249.109 38.6188 249.176 38.5013C249.244 38.3838 249.279 38.2505 249.278 38.115C249.189 36.8705 245.945 33.7608 243.279 35.4931C243.187 35.5516 243.116 35.6384 243.077 35.7406C243.038 35.8428 243.033 35.9548 243.063 36.0599C243.093 36.1649 243.157 36.2574 243.244 36.3235C243.331 36.3896 243.437 36.4257 243.546 36.4265Z" fill="#191919"/>
<path d="M260.434 60.822C260.849 58.2344 261.087 55.6215 261.146 53.0016C261.141 52.8574 261.086 52.7195 260.99 52.6119C260.894 52.5042 260.763 52.4337 260.62 52.4125C260.478 52.3913 260.332 52.4208 260.209 52.4958C260.086 52.5709 259.993 52.6868 259.946 52.8233C259.189 56.2353 258.845 59.7262 258.924 63.2204C257.414 68.5533 250.437 70.8188 247.637 71.441C247.415 71.4863 247.015 72.4635 247.282 72.8184C249.698 76.0709 251.09 79.9691 251.282 84.0159C251.294 84.1349 251.335 84.2491 251.401 84.3486C251.467 84.4481 251.557 84.53 251.662 84.587C251.767 84.644 251.885 84.6745 252.004 84.6758C252.124 84.677 252.242 84.6491 252.348 84.5944C256.613 83.6157 260.655 79.3083 262.701 75.6624C263.102 74.951 261.901 73.9738 261.546 74.7743C259.724 78.6392 254.169 81.8396 252.836 82.9934C252.946 81.0245 252.634 79.0549 251.922 77.2161C251.209 75.3773 250.113 73.7117 248.705 72.3306C254.17 72.1071 260.301 67.709 261.057 62.0604C264.612 64.9044 263.591 67.9265 263.546 69.4368C263.552 69.5852 263.605 69.7278 263.697 69.8441C263.79 69.9604 263.917 70.0444 264.06 70.084C264.203 70.1236 264.355 70.1168 264.494 70.0646C264.633 70.0123 264.752 69.9173 264.834 69.7933C265.856 68.1531 264.878 60.1997 260.434 60.822Z" fill="#191919"/>
<path d="M257.491 40.3368C257.555 40.1804 257.653 40.0401 257.777 39.9257C257.901 39.8112 258.049 39.7256 258.21 39.6747C258.372 39.6238 258.542 39.609 258.709 39.6313C258.877 39.6536 259.037 39.7124 259.18 39.8036C260.992 40.7098 261.428 46.6227 258.157 47.7131C258.551 49.0513 259.268 50.2719 260.246 51.2669C260.746 51.74 261.393 52.0285 262.079 52.085C262.765 52.1416 263.451 51.9628 264.022 51.5781C265.948 47.1603 267.307 42.5164 268.066 37.7571C268.769 29.0336 265.339 22.9047 256.691 21.5394C253.536 21.0062 243.098 4.69933 230.607 7.98729C224.299 9.63051 219.454 19.9837 227.674 27.4039C237.718 36.4658 247.493 31.1797 247.493 31.1797C248.606 32.7069 250.071 33.9427 251.764 34.7818C252.883 35.3205 254.085 35.6661 255.319 35.8043C254.073 38.7173 253.54 41.8855 253.764 45.0459C253.809 45.8464 254.031 46.8236 254.786 47.0456C255.452 47.2676 256.163 46.6907 256.431 46.0246C256.78 45.2241 256.92 41.3185 257.491 40.3368Z" fill="#191919"/>
<path d="M243.049 73.085C242.265 73.1492 241.522 73.4584 240.924 73.9689C240.326 74.4793 239.903 75.1651 239.717 75.9289C238.072 81.4823 241.493 85.1705 243.049 85.2159C246.825 85.3926 248.469 80.6381 248.469 76.373C248.425 74.0184 245.269 72.8917 243.049 73.085Z" fill="white"/>
<path d="M240.521 130.582C239.047 131.951 233.234 129.471 231.723 128.805C230.968 128.45 230.745 107.565 239.677 86.6806C239.72 86.5477 240.432 87.1337 241.276 87.3028C242.12 87.472 243.409 87.3028 243.321 87.4372C239.187 96.0128 241.045 130.09 240.521 130.582Z" fill="white"/>
<path d="M228.889 93.8806C227.795 98.2499 226.311 102.589 225.555 107.078C225.526 107.19 225.542 107.309 225.601 107.409C225.659 107.509 225.755 107.581 225.866 107.611C225.978 107.64 226.098 107.624 226.198 107.566C226.297 107.507 226.37 107.412 226.4 107.3C227.955 103.033 228.843 98.5897 229.999 94.1917C230.023 94.1177 230.032 94.0396 230.025 93.9621C230.018 93.8846 229.996 93.8093 229.959 93.7407C229.922 93.672 229.872 93.6116 229.811 93.5629C229.751 93.5141 229.681 93.4782 229.606 93.4572C229.531 93.4362 229.453 93.4306 229.375 93.4407C229.298 93.4507 229.224 93.4763 229.157 93.5159C229.09 93.5554 229.032 93.6081 228.986 93.6708C228.939 93.7335 228.906 93.8048 228.889 93.8806Z" fill="#191919"/>
<path d="M242.264 67.7075C242.62 67.3979 241.996 66.9071 241.641 67.0853C237.331 69.307 233.732 76.6833 234.709 81.6598C226.978 84.6805 219.734 97.8776 216.668 101.877C213.248 106.366 204.093 115.252 187.119 117.785C186.631 117.874 186.72 118.673 187.253 118.673C197.74 118.273 209.026 113.608 216.046 105.654C219.423 101.788 226.978 87.7479 237.82 81.8819C237.942 81.8096 238.033 81.6957 238.078 81.5612C238.122 81.4268 238.115 81.2808 238.06 81.1506C238.005 81.0203 237.904 80.9146 237.777 80.853C237.649 80.7914 237.504 80.7781 237.367 80.8156C237.066 80.8682 236.77 80.9424 236.479 81.0376C236.71 78.8597 237.129 72.1705 242.264 67.7075Z" fill="#191919"/>
<path d="M190.523 128.005C194.042 129.812 198.087 130.315 201.942 129.427C202.055 129.392 202.152 129.318 202.216 129.218C202.279 129.118 202.305 128.999 202.289 128.882C202.274 128.765 202.217 128.657 202.129 128.578C202.041 128.498 201.928 128.453 201.809 128.449C198.122 128.496 194.445 128.048 190.878 127.116C190.39 126.939 190.032 127.788 190.523 128.005Z" fill="#191919"/>
<path d="M287.253 99.2124C284.549 89.2579 278.494 78.95 269.924 73.0401C269.211 72.5523 268.369 73.6624 268.989 74.2484C286.951 90.6368 287.525 113.076 285.482 121.653C281.215 139.248 266.464 152.756 248.068 153.557C239.358 153.912 228.028 151.423 222.651 143.869C224.721 142.754 226.401 141.033 227.465 138.936C228.529 136.84 228.927 134.468 228.605 132.139C238.825 139.248 250.023 135.471 254.333 133.249C258.511 131.055 262.001 127.748 264.417 123.694C266.832 119.639 268.078 114.996 268.018 110.277C268.018 110.112 267.953 109.954 267.836 109.837C267.719 109.72 267.561 109.655 267.396 109.655C267.231 109.655 267.073 109.72 266.956 109.837C266.839 109.954 266.774 110.112 266.774 110.277C266.491 114.601 265.136 118.786 262.832 122.455C260.527 126.125 257.346 129.162 253.573 131.295C249.707 133.383 240.465 136.804 227.801 129.961C227.134 128.984 226.335 129.561 226.468 130.006C228.646 137.159 223.935 141.47 222.157 143.158C221.892 142.714 221.624 142.27 221.358 141.781C222.006 141.496 222.583 141.071 223.047 140.536C223.136 140.439 223.195 140.318 223.218 140.187C223.24 140.057 223.224 139.923 223.173 139.802C223.121 139.68 223.036 139.576 222.927 139.501C222.818 139.426 222.69 139.385 222.558 139.381C221.18 139.337 218.027 141.344 214.071 140.625C212.449 140.381 210.845 140.024 209.271 139.559C207.672 139.026 204.162 136.538 206.962 134.626C207.109 134.54 207.231 134.416 207.315 134.268C207.4 134.12 207.444 133.953 207.444 133.782C207.444 133.612 207.4 133.444 207.315 133.296C207.231 133.148 207.109 133.024 206.962 132.938C206.294 131.471 206.56 130.761 207.761 130.761C207.899 130.722 208.026 130.652 208.133 130.557C208.241 130.462 208.325 130.344 208.381 130.211C208.436 130.079 208.461 129.936 208.454 129.793C208.446 129.65 208.407 129.51 208.338 129.384C205.628 125.74 211.627 124.273 214.077 124.584C214.477 124.63 214.699 124.051 214.255 123.918C211.899 123.385 209.545 122.985 207.545 124.719C206.906 125.262 206.443 125.982 206.213 126.789C205.984 127.595 205.999 128.452 206.257 129.25C205.858 129.433 205.504 129.704 205.222 130.041C204.94 130.378 204.737 130.773 204.626 131.198C204.516 131.624 204.501 132.068 204.583 132.5C204.665 132.931 204.842 133.34 205.101 133.694C202.701 136.271 205.012 140.092 208.078 141.337C211.996 142.871 216.283 143.196 220.387 142.27C225.137 156.745 255.341 161.451 273.618 145.691C273.531 145.958 271.442 150.624 270.82 152.8C270.776 152.949 270.788 153.109 270.854 153.249C270.92 153.389 271.036 153.501 271.179 153.561C271.322 153.622 271.482 153.627 271.629 153.577C271.776 153.527 271.899 153.425 271.975 153.289C272.952 151.468 275.751 144.668 276.286 143.203C281.706 137.41 285.559 130.329 287.478 122.631C289.397 114.933 289.32 106.872 287.253 99.2124Z" fill="#191919"/>
<path d="M274.77 286.283C274.543 284.862 274.326 281.529 270.726 280.417C272.149 280.151 273.214 279.618 273.348 278.996C274.815 271.265 270.726 158.267 269.527 157.645C268.328 157.023 261.128 163.511 227.843 158.224C227.621 157.156 226.11 152.003 225.532 150.491C225.49 150.368 225.403 150.266 225.289 150.206C225.175 150.145 225.042 150.13 224.917 150.164C224.793 150.199 224.686 150.279 224.618 150.389C224.551 150.5 224.528 150.632 224.555 150.758C225.062 153.688 225.76 156.583 226.643 159.423C225.435 168.938 225.532 278.374 225.843 279.04C226.06 279.501 226.37 279.913 226.752 280.25C227.134 280.588 227.58 280.844 228.065 281.003C227.442 281.092 226.822 281.18 226.198 281.314C226.743 281.66 227.181 282.151 227.464 282.732C227.747 283.312 227.863 283.96 227.799 284.602C227.76 284.718 227.689 284.82 227.594 284.897C227.499 284.974 227.385 285.023 227.263 285.036C227.142 285.05 227.019 285.029 226.909 284.976C226.8 284.923 226.707 284.839 226.643 284.735C226.467 284.095 226.153 283.5 225.723 282.994C225.293 282.487 224.758 282.081 224.154 281.802C223.889 281.891 222.689 282.246 222.333 282.381C223.133 282.69 224.333 284.557 224.021 285.401C223.99 285.511 223.927 285.61 223.84 285.684C223.753 285.759 223.646 285.806 223.533 285.82C223.419 285.835 223.304 285.815 223.201 285.765C223.099 285.714 223.013 285.634 222.955 285.536C222.777 285.268 222.022 283.314 220.777 282.914C220.066 283.18 219.356 283.491 218.645 283.758C218.823 283.891 220.555 285.758 220.511 286.602C220.468 287.09 219.667 287.535 219.489 287.046C218.929 286.021 218.191 285.103 217.311 284.335C214.705 285.608 212.209 287.094 209.847 288.778C209.428 289.097 209.097 289.517 208.886 289.999C208.674 290.481 208.589 291.009 208.639 291.533C208.995 292.956 238.721 293 238.943 291.757C239.196 290.213 239.226 288.642 239.032 287.09C238.945 285.943 238.575 284.835 237.955 283.866C237.335 282.896 236.484 282.096 235.479 281.536C236.07 281.496 236.645 281.329 237.166 281.047C237.478 280.736 248.763 194.933 248.763 190.579C248.763 199.51 262.627 278.338 263.294 279.269C264.095 280.044 265.158 280.488 266.271 280.514C264.978 280.654 263.699 280.907 262.45 281.269C262.921 281.465 263.322 281.8 263.6 282.228C263.877 282.656 264.019 283.159 264.006 283.669C263.979 283.741 263.938 283.807 263.885 283.862C263.831 283.918 263.767 283.961 263.696 283.99C263.625 284.02 263.549 284.034 263.472 284.032C263.395 284.03 263.32 284.013 263.25 283.98C262.938 283.713 262.228 282.07 261.517 281.536C260.284 281.887 259.081 282.332 257.917 282.868C258.479 283.045 258.967 283.402 259.304 283.885C259.642 284.367 259.811 284.948 259.784 285.536C259.758 285.619 259.711 285.694 259.648 285.755C259.585 285.815 259.507 285.858 259.423 285.88C259.338 285.902 259.249 285.903 259.165 285.881C259.08 285.86 259.002 285.817 258.938 285.758C258.357 284.875 257.703 284.043 256.984 283.269C256.717 283.402 255.074 284.202 254.451 284.513C254.963 284.679 255.416 284.99 255.755 285.408C256.094 285.826 256.305 286.333 256.362 286.868C256.32 287.005 256.228 287.122 256.105 287.196C255.983 287.269 255.837 287.295 255.696 287.268C255.252 287.09 254.895 285.891 253.518 285.003C251.728 285.973 249.993 287.041 248.319 288.201C247.519 288.735 245.031 291.045 246.587 291.977C246.898 292.154 273.602 292.821 274.091 291.488C274.596 289.801 274.825 288.043 274.77 286.283Z" fill="#191919"/>
<path d="M156.019 179.995C151.035 177.551 145.622 175.062 140.023 177.062C135.429 179.033 131.616 182.47 129.181 186.837C129.091 186.991 129.061 187.172 129.096 187.347C129.131 187.522 129.228 187.678 129.369 187.787C129.51 187.896 129.686 187.95 129.864 187.939C130.042 187.927 130.21 187.852 130.336 187.726C131.821 186.241 133.215 184.668 134.512 183.015C141.026 176.16 146.937 177.651 155.656 180.839C156.144 181.016 156.455 180.261 156.019 179.995Z" fill="#191919"/>
<path d="M137.965 182.306C136.382 183.602 134.911 185.029 133.567 186.571C133.495 186.695 133.465 186.84 133.484 186.982C133.502 187.124 133.567 187.256 133.669 187.358C133.77 187.459 133.902 187.524 134.044 187.542C134.187 187.561 134.331 187.532 134.455 187.46C135.986 186.099 137.401 184.613 138.684 183.016C139.166 182.572 138.493 181.861 137.965 182.306Z" fill="#191919"/>
<path d="M139.916 183.816C138.613 184.776 137.433 185.896 136.406 187.147C136.342 187.265 136.317 187.401 136.336 187.534C136.356 187.667 136.417 187.79 136.512 187.885C136.607 187.98 136.731 188.042 136.864 188.061C136.997 188.08 137.132 188.056 137.25 187.992C138.504 186.966 139.623 185.787 140.582 184.482C140.804 184.083 140.273 183.55 139.916 183.816Z" fill="#191919"/>
<path d="M141.439 185.013C140.734 185.703 140.066 186.43 139.439 187.191C139.128 187.635 139.75 188.258 140.194 187.947C140.95 187.313 141.663 186.631 142.328 185.903C142.437 185.783 142.495 185.626 142.491 185.465C142.487 185.303 142.421 185.149 142.307 185.035C142.193 184.921 142.039 184.855 141.877 184.851C141.716 184.847 141.559 184.905 141.439 185.013Z" fill="#191919"/>
<path d="M142.089 173.64C140.449 168.367 137.73 152.311 139.913 141.601C140.046 140.935 139.023 140.891 138.801 141.468C133.559 154.398 138.847 168.84 140.979 173.995C141.245 174.617 142.325 174.39 142.089 173.64Z" fill="#191919"/>
<path d="M167.081 91.3467C167.131 92.1018 167.17 93.3463 167.969 93.745C168.033 93.7836 168.103 93.8086 168.177 93.8182C168.25 93.8279 168.325 93.8221 168.396 93.8012C168.467 93.7803 168.533 93.7447 168.59 93.6968C168.646 93.6489 168.692 93.5897 168.724 93.523C169.177 92.7241 168.548 91.7454 168.147 91.0355C168.082 90.9265 167.983 90.8422 167.865 90.7958C167.746 90.7494 167.616 90.7435 167.494 90.7791C167.372 90.8147 167.265 90.8897 167.191 90.9924C167.116 91.0951 167.077 91.2197 167.081 91.3467Z" fill="#191919"/>
<path d="M166.709 89.4822C167.996 89.2602 168.086 90.1936 168.441 90.2812C168.56 90.3095 168.684 90.299 168.796 90.2511C168.908 90.2032 169.002 90.1206 169.063 90.0154C169.418 89.304 168.219 87.7046 166.309 88.5051C166.2 88.5712 166.118 88.6739 166.079 88.7948C166.039 88.9156 166.044 89.0467 166.092 89.1644C166.14 89.2821 166.229 89.3788 166.342 89.437C166.455 89.4953 166.585 89.5113 166.709 89.4822Z" fill="#191919"/>
<path d="M157.157 93.17C157.169 94.1558 157.35 95.1324 157.69 96.0577C157.805 96.1648 157.955 96.2244 158.112 96.2244C158.269 96.2244 158.42 96.1648 158.534 96.0577C159.333 95.2134 158.713 93.7469 158.312 92.8588C158.09 92.2804 157.107 92.5477 157.157 93.17Z" fill="#191919"/>
<path d="M156.802 90.3267C155.656 91.0094 154.625 92.7704 155.594 94.0149C155.905 94.3698 156.395 94.104 156.528 93.7476C156.706 93.3488 156.084 92.1043 157.461 91.2148C158.047 90.8598 157.385 89.9793 156.802 90.3267Z" fill="#191919"/>
<path d="M159.743 88.5925C159.383 88.262 158.961 88.0064 158.501 87.8407C158.041 87.675 157.553 87.6025 157.065 87.6273C156.577 87.6522 156.099 87.774 155.658 87.9856C155.218 88.1972 154.824 88.4944 154.499 88.8599C152.41 91.4365 153.388 95.9689 155.165 98.4126C156.854 100.769 159.92 100.991 161.297 98.1906C161.969 96.6069 162.18 94.8656 161.905 93.1674C161.63 91.4692 160.88 89.8833 159.743 88.5925ZM159.92 97.4808C158.455 101.559 153.092 94.3695 155.076 90.6375C157.476 86.9493 160.098 89.4821 160.409 94.1475C160.434 95.2782 160.269 96.4051 159.92 97.4808Z" fill="#191919"/>
<path d="M172.147 90.1493C171.315 87.4791 168.059 84.9946 165.526 86.4611C163.437 87.8839 164.105 91.7049 164.771 93.7107C164.678 93.5554 164.574 93.407 164.46 93.2666C164.238 92.9993 163.705 93.1322 163.837 93.5324C164.657 95.6066 165.296 97.7476 165.748 99.9316C165.571 101.309 164.194 100.998 163.304 101.264C163.169 101.309 163.051 101.395 162.968 101.511C162.884 101.627 162.839 101.766 162.839 101.909C162.839 102.051 162.884 102.19 162.968 102.306C163.051 102.422 163.169 102.509 163.304 102.554C163.704 102.723 164.137 102.8 164.571 102.781C165.005 102.761 165.43 102.645 165.813 102.44C166.196 102.236 166.529 101.948 166.787 101.599C167.045 101.249 167.221 100.846 167.304 100.419C167.367 99.1747 167.107 97.9348 166.548 96.8204C166.919 97.2722 167.4 97.6208 167.945 97.8324C168.49 98.0441 169.08 98.1117 169.658 98.0286C169.702 100.028 171.436 104.472 168.148 110.336C167.024 112.337 165.188 113.842 163.005 114.55C160.822 115.258 158.452 115.118 156.367 114.157C156.256 114.098 156.125 114.084 156.004 114.119C155.882 114.154 155.779 114.234 155.716 114.344C155.653 114.453 155.634 114.583 155.665 114.706C155.695 114.829 155.772 114.935 155.88 115.002C156.873 115.722 158.015 116.212 159.222 116.435C160.429 116.658 161.67 116.609 162.856 116.291C162.914 117.825 163.214 119.339 163.744 120.779C163.806 120.878 163.896 120.957 164.001 121.008C164.107 121.059 164.225 121.078 164.342 121.064C164.458 121.05 164.568 121.003 164.659 120.929C164.75 120.855 164.818 120.757 164.855 120.646C164.861 119.031 164.606 117.425 164.1 115.891C171.307 113.253 173.836 103.026 171.12 97.3143C173.124 95.7556 172.824 92.3242 172.147 90.1493ZM166.638 94.4598C165.718 92.9495 164.768 88.2116 165.97 87.2616C166.638 86.7285 168.859 86.0624 170.413 90.2822C171.121 91.8871 171.17 93.7061 170.548 95.3463C169.569 97.0364 167.503 95.8719 166.638 94.4598Z" fill="#191919"/>
<path d="M156.576 106.899C158.465 109.492 163.108 110.809 165.064 107.521C165.135 107.391 165.163 107.241 165.142 107.093C165.121 106.946 165.053 106.809 164.948 106.704C164.842 106.599 164.706 106.531 164.558 106.51C164.411 106.489 164.261 106.516 164.13 106.588C162.975 107.121 160.575 109.832 157.554 106.144C157.109 105.57 156.127 106.281 156.576 106.899Z" fill="#191919"/>
<path d="M165.422 68.8196C160.461 65.8624 155.605 67.131 150.848 69.8421C147.203 71.6907 144.097 74.4477 141.828 77.8467C140.182 77.743 138.541 78.1312 137.116 78.9619C135.691 79.7926 134.545 81.0284 133.823 82.5121C133.042 83.982 132.576 85.5983 132.453 87.2582C132.331 88.9181 132.555 90.5854 133.112 92.154C137.2 102.907 144.088 107.307 146.222 107.573C149.516 110.858 150.271 118.897 150.404 121.564C150.335 121.582 150.272 121.616 150.218 121.662C150.164 121.708 150.121 121.765 150.093 121.83C149.026 125.518 152.714 129.429 156.048 130.362C159.691 131.384 164.401 129.607 165.69 125.873C165.912 125.251 165.022 124.763 164.578 125.207C162.445 127.429 159.869 129.339 156.573 128.495C153.462 127.74 152.344 125.475 151.329 122.896C152.055 117.244 150.853 111.513 147.916 106.629C148.138 106.096 148.671 103.696 148.982 103.696C148.289 103.705 147.604 103.553 146.979 103.253C146.355 102.952 145.808 102.511 145.383 101.963C144.97 101.404 144.729 100.736 144.689 100.042C144.649 99.3472 144.813 98.6562 145.16 98.0533C145.541 97.4713 146.124 97.05 146.796 96.8698C147.468 96.6896 148.183 96.763 148.804 97.0761C148.175 93.2979 148.145 89.4442 148.715 85.6566C155.291 86.3664 158.668 85.7004 161.69 84.3683C163.225 83.7493 164.614 82.817 165.769 81.6309C166.923 80.4448 167.817 79.031 168.395 77.4797C168.875 75.9072 168.846 74.2231 168.312 72.6678C167.778 71.1126 166.767 69.7658 165.422 68.8196Z" fill="#191919"/>
<path d="M111.882 181.55C109.514 180.342 103.528 177.596 97.9296 183.106C97.5309 183.46 98.2407 184.305 98.5972 183.995C102.596 180.521 109.305 181.73 111.483 182.485C112.016 182.705 112.377 181.805 111.882 181.55Z" fill="#191919"/>
<path d="M210.526 187.013C202.617 187.059 194.753 187.324 186.843 187.592C188.976 186.615 198.04 183.725 203.284 167.418C205.461 160.575 205.461 147.784 189.82 128.315C187.496 125.32 184.529 122.886 181.137 121.194C177.745 119.502 174.015 118.595 170.225 118.54C169.647 118.54 169.647 119.384 170.225 119.473C189.198 122.05 199.507 147.511 201.106 155.288C202.751 163.33 198.53 183.769 177.378 187.99C173.291 188.125 162.093 188.48 160.582 188.524C160.938 187.059 159.339 180.437 158.36 178.971C165.114 178.172 184.266 175.283 185.287 157.509C185.333 156.887 184.221 156.931 184.132 157.509C181.377 172.928 163.959 176.349 157.961 177.994C157.783 178.037 156.983 178.349 157.206 178.882C158.414 181.637 158.583 187.235 158.895 188.569C158.05 188.614 157.162 188.614 156.318 188.658C156.743 188.329 157.117 187.94 157.43 187.503C157.828 186.969 157.162 186.294 156.629 186.436C154.629 186.924 150.364 189.813 144.547 187.059C144.435 187.001 144.306 186.988 144.186 187.023C144.066 187.058 143.963 187.138 143.9 187.247C143.838 187.355 143.819 187.484 143.848 187.605C143.877 187.727 143.952 187.833 144.057 187.901C144.648 188.297 145.273 188.639 145.924 188.924C97.7827 190.054 29.9317 190.427 24.3949 189.99C24.2713 189.986 24.1482 190.008 24.0333 190.053C23.9183 190.099 23.8139 190.168 23.7265 190.255C23.6391 190.343 23.5704 190.447 23.5249 190.562C23.4793 190.677 23.4577 190.8 23.4615 190.923C23.343 194.064 23.4025 197.209 23.6397 200.343C23.6397 200.485 23.6959 200.62 23.7959 200.72C23.8959 200.82 24.0315 200.876 24.1729 200.876C24.3143 200.876 24.4499 200.82 24.5498 200.72C24.6498 200.62 24.706 200.485 24.706 200.343C24.9733 197.545 25.0171 194.745 25.2391 191.946C26.2616 191.99 189.424 191.368 210.531 188.524C211.416 188.347 211.46 187.009 210.526 187.013Z" fill="#191919"/>
<path d="M218.341 199.725C217.633 195.732 217.097 191.681 216.165 187.727C215.898 186.661 214.076 186.839 214.209 187.995C214.609 191.681 215.319 195.326 215.987 198.969C166.353 201.501 38.6483 202.035 24.5178 202.346C24.3527 202.346 24.1945 202.411 24.0778 202.528C23.9611 202.645 23.8955 202.803 23.8955 202.968C23.8955 203.133 23.9611 203.291 24.0778 203.408C24.1945 203.525 24.3527 203.59 24.5178 203.59C27.4508 203.723 30.3838 203.812 33.3607 203.901C32.9604 205.324 34.1611 272.107 35.0945 285.883C35.1042 286.124 35.2067 286.351 35.3805 286.518C35.5544 286.685 35.7861 286.779 36.0271 286.779C36.2682 286.779 36.4999 286.685 36.6737 286.518C36.8476 286.351 36.9501 286.124 36.9597 285.883C37.2271 271.931 35.5385 206.44 34.6943 203.947C43.9812 204.123 194.125 204.478 208.21 201.458C208.077 214.477 209.677 272.686 209.811 279.573C209.811 279.773 209.891 279.965 210.032 280.107C210.174 280.248 210.366 280.328 210.566 280.328C210.766 280.328 210.958 280.248 211.1 280.107C211.242 279.965 211.321 279.773 211.321 279.573C212.904 263.169 209.278 197.005 209.278 201.414C211.943 201.325 214.609 201.236 217.319 201.103C217.482 201.093 217.641 201.048 217.785 200.97C217.929 200.893 218.055 200.784 218.152 200.653C218.25 200.522 218.317 200.371 218.35 200.21C218.382 200.05 218.38 199.884 218.341 199.725Z" fill="#191919"/>
<path d="M9.28529 294.504C46.1672 294.614 272.026 293.748 292.772 292.948C292.919 292.948 293.06 292.889 293.165 292.785C293.269 292.681 293.328 292.54 293.328 292.392C293.328 292.245 293.269 292.103 293.165 291.999C293.06 291.895 292.919 291.836 292.772 291.836C256.024 291.571 30.1277 293.17 9.28529 293.392C9.13788 293.392 8.99651 293.451 8.89228 293.555C8.78805 293.659 8.72949 293.8 8.72949 293.948C8.72949 294.095 8.78805 294.237 8.89228 294.341C8.99651 294.445 9.13788 294.504 9.28529 294.504Z" fill="white"/>
<path d="M110.056 67.5293C105.587 61.1497 95.3049 60.3311 89.4388 65.1294C84.6843 70.2403 84.195 77.7496 87.7503 81.838C89.4433 83.7832 91.6062 85.2625 94.033 86.1349C96.4597 87.0074 99.0694 87.2439 101.613 86.8221C110.473 85.1048 115.253 74.9449 110.056 67.5293ZM106.191 69.5742C102.952 72.3865 99.9249 78.905 98.8148 80.9016C98.68 81.1225 98.4906 81.3051 98.2649 81.4317C98.0391 81.5584 97.7846 81.6249 97.5258 81.6249C97.267 81.6249 97.0125 81.5584 96.7867 81.4317C96.561 81.3051 96.3716 81.1225 96.2367 80.9016C94.7446 78.638 92.7915 76.7147 90.5051 75.2576C89.7499 74.8135 90.2393 73.4361 91.1273 73.7911C93.3454 74.5952 95.3726 75.8505 97.081 77.4777C98.7695 73.6566 101.31 68.7255 105.388 68.1923C106.146 68.1138 106.643 69.1816 106.191 69.5742Z" fill="white"/>
<path d="M125.578 20.7871C94.6078 21.8081 34.6211 23.3637 33.4219 24.0313C32.3556 24.652 33.0655 29.5847 33.2875 32.4724C28.9332 32.696 24.5276 32.9618 20.2247 33.3167C20.1794 33.3167 19.5134 33.3167 19.4696 34.161C18.9802 41.4482 19.4243 76.8637 22.3573 94.548V94.6371C22.345 94.7316 22.3531 94.8277 22.381 94.9189C22.4089 95.0101 22.456 95.0942 22.519 95.1657C22.5821 95.2372 22.6597 95.2944 22.7467 95.3335C22.8337 95.3726 22.928 95.3926 23.0234 95.3922C31.1111 95.8816 67.3255 95.9254 70.9246 95.214C75.1411 99.9277 79.0589 104.9 82.6552 110.103C82.7536 110.257 82.8939 110.38 83.0598 110.458C83.2256 110.536 83.4101 110.565 83.5918 110.541C83.7735 110.518 83.9447 110.444 84.0856 110.327C84.2265 110.21 84.3312 110.055 84.3875 109.881C86.5201 104.771 89.0982 99.7948 90.8305 94.551C91.0525 93.8396 90.0301 93.4394 89.6313 94.0616C87.1141 98.4182 84.9713 102.981 83.2261 107.7C79.8591 102.885 76.0348 98.4058 71.8066 94.3259C71.5936 94.1424 71.3537 93.9926 71.0952 93.8819C67.4523 93.1268 31.7273 93.5255 23.9945 94.0148C21.0237 74.2417 22.0024 54.3343 20.85 34.4358C35.5575 34.7017 111.94 31.8139 112.652 31.8592C112.652 33.5432 116.228 84.1162 117.05 89.0006C108.474 90.2904 99.8985 91.1346 91.2776 91.7554C91.1302 91.7554 90.9888 91.8139 90.8846 91.9182C90.7803 92.0224 90.7218 92.1638 90.7218 92.3112C90.7218 92.4586 90.7803 92.6 90.8846 92.7042C90.9888 92.8084 91.1302 92.867 91.2776 92.867C100.121 93.2155 108.976 92.5594 117.672 90.9111C117.805 90.8673 118.56 90.7344 118.649 90.0668C118.661 86.6198 118.439 83.1758 117.983 79.7589C120.96 79.7589 126.959 79.6698 128.691 79.7151C128.601 70.5536 126.874 24.5644 125.578 20.7871Z" fill="white"/>
<path d="M29.5124 45.0088C40.1375 45.7851 82.4777 44.8759 92.698 43.2765C93.4532 43.1421 93.2749 41.9429 92.5198 41.9429C87.276 41.9429 39.9985 43.5876 29.5124 43.9863C29.3816 43.9934 29.2585 44.0504 29.1685 44.1455C29.0784 44.2406 29.0282 44.3666 29.0282 44.4976C29.0282 44.6285 29.0784 44.7545 29.1685 44.8496C29.2585 44.9447 29.3816 45.0017 29.5124 45.0088Z" fill="#191919"/>
<path d="M29.9987 55.4458C50.619 55.245 71.2303 54.1575 91.8522 53.0912C93.1405 53.0459 93.1405 51.0463 91.8522 51.0916C71.2349 51.9796 50.5722 52.9568 29.9987 54.4686C29.4217 54.5562 29.3764 55.4519 29.9987 55.4458Z" fill="#191919"/>
<path d="M30.1615 65.7094C37.7735 66.4253 68.8634 65.5312 76.4618 64.5978C77.5734 64.4649 77.6701 62.7764 76.4618 62.7764C68.7758 62.8655 37.7977 63.9756 30.1615 64.8198C30.0583 64.8399 29.9652 64.8952 29.8983 64.9764C29.8314 65.0575 29.7948 65.1594 29.7948 65.2646C29.7948 65.3698 29.8314 65.4717 29.8983 65.5529C29.9652 65.634 30.0583 65.6894 30.1615 65.7094Z" fill="#191919"/>
<path d="M29.9964 77.3059C37.9512 77.6608 69.8098 76.0161 77.7631 75.6612C79.0076 75.6174 79.0076 73.6615 77.7631 73.7068C69.6331 74.1056 37.6401 75.4392 29.8635 76.5508C29.4632 76.5946 29.5976 77.2606 29.9964 77.3059Z" fill="#191919"/>
<path d="M110.867 127.116C110.813 126.922 110.697 126.752 110.536 126.631C110.375 126.51 110.178 126.447 109.977 126.45C104.778 126.095 57.279 127.384 46.4802 127.116C46.2242 127.126 45.9812 127.232 45.8 127.413C45.6188 127.595 45.5128 127.837 45.5031 128.094C46.3926 143.78 47.1916 159.508 48.2579 175.194C48.2579 175.418 48.3468 175.633 48.5051 175.791C48.6635 175.95 48.8782 176.039 49.1021 176.039C54.8413 175.906 60.5669 175.862 66.3424 175.551C66.4722 175.551 66.5966 175.499 66.6884 175.407C66.7802 175.316 66.8317 175.191 66.8317 175.061C66.8317 174.932 66.7802 174.807 66.6884 174.715C66.5966 174.624 66.4722 174.572 66.3424 174.572C60.8781 174.35 55.4122 174.35 49.9464 174.35C49.2804 159.247 48.347 144.18 47.5027 129.072C57.9888 129.294 104.156 128.006 109.222 128.228C109.489 130.049 111.533 165.996 112.111 173.062C108.734 172.929 98.4683 174.35 90.9666 174.661C90.3459 174.706 90.2568 175.906 90.9666 176.039C94.5657 176.528 109.229 175.194 112.564 174.528C112.697 174.647 112.862 174.724 113.038 174.75C113.214 174.776 113.394 174.749 113.555 174.673C113.716 174.597 113.851 174.476 113.944 174.323C114.036 174.171 114.082 173.995 114.074 173.817C113.449 166.264 111.237 128.803 110.867 127.116Z" fill="#191919"/>
<path d="M112.682 127.118C112.748 134.67 114.903 169.997 115.526 171.686C115.791 172.397 116.947 172.574 117.125 171.686C117.525 169.908 114.503 134.627 113.57 127.118C113.526 126.585 112.677 126.541 112.682 127.118Z" fill="#191919"/>
<path d="M94.1639 184.082C92.1642 183.283 77.1456 183.949 75.6338 183.994C74.924 179.817 70.4353 159.066 70.3915 159.021C71.3053 157.4 72.6932 156.097 74.3689 155.287C76.0445 154.477 77.9278 154.199 79.766 154.49C83.8107 155.245 88.1196 161.333 88.2087 161.377C87.8538 164.851 87.3207 175.908 86.5202 182.928C86.4311 183.639 87.4989 183.728 87.7647 183.106C89.053 179.862 89.8535 164.529 89.3641 160.753C89.053 157.331 83.0993 153.021 79.0562 152.709C74.7896 152.407 69.3252 156.576 69.1017 159.596C69.0141 161.641 73.5466 180.082 74.5675 184.08C71.7896 184.063 69.0138 184.242 66.2608 184.613C65.4165 184.837 65.8077 185.458 65.9044 185.769C66.2701 187.031 66.7306 188.264 67.2818 189.457C67.5038 189.857 68.2589 189.679 68.1713 189.235C68.0822 188.436 67.5929 186.258 67.5038 185.903C87.8931 185.014 91.2324 185.814 93.01 185.547C92.5407 186.542 92.2401 187.608 92.1204 188.702C92.1657 189.191 92.788 189.59 93.1867 189.146C93.7637 188.527 95.3193 184.438 94.1639 184.082Z" fill="#191919"/>
<path d="M146.49 123.073C134.826 126.094 131.871 139.647 131.071 149.912C130.538 156.708 130.405 163.82 127.597 170.174C125.11 175.913 120.133 180.704 113.69 181.282C113.645 181.282 112.846 181.371 112.712 181.726C112.437 182.495 112.361 183.32 112.49 184.126C111.956 184.17 101.248 184.971 96.4485 185.371C95.8278 185.415 95.7825 186.437 96.4485 186.393C101.115 186.081 119.955 186.481 124.577 185.991C125.465 185.904 125.909 184.394 124.799 184.259C121.198 183.858 117.566 183.814 113.956 184.126C113.904 183.725 113.875 183.322 113.867 182.918C126.309 182.741 131.285 169.1 132.352 158.702C133.64 146.438 132.574 129.33 146.75 124.132C147.376 123.828 147.156 122.9 146.49 123.073Z" fill="#191919"/>
<path d="M19.1069 28.9741C15.3473 28.9741 11.5878 28.9741 7.82827 28.9741C7.33352 28.9741 7.75226 29.14 7.94762 29.5112C8.61961 30.788 8.8119 31.9676 9.02177 33.3901C9.46572 36.399 10.0021 39.2417 10.3943 42.2817C10.6193 44.0252 9.97658 45.1096 9.97658 46.6977" stroke="black" stroke-width="4.75244" stroke-linecap="round"/>
<path d="M123.147 14.3987C125.432 14.3987 128.573 14.9072 130.834 14.3258C132.454 13.9093 132.983 12.863 132.983 14.9451C132.983 17.8328 132.655 20.6935 132.655 23.5788" stroke="black" stroke-width="4.75244" stroke-linecap="round"/>
<path d="M283.403 72.3081C284.57 74.0575 287.114 79.2638 288.164 82.1811C291.329 90.9713 293.801 99.9132 295.353 109.046C296.293 114.575 296.116 125.023 293.317 130.621" stroke="black" stroke-width="4.75244" stroke-linecap="round"/>
<path d="M278.66 275.967C278.66 254.145 279.296 232.289 277.23 210.542C276.073 198.367 276.086 186.267 276.086 174.054" stroke="#F6F6FC" stroke-width="4.75244" stroke-linecap="round"/>
<path d="M188.541 109.808C193.071 109.808 197.196 109.884 201.076 107.182C206.845 103.165 211.129 95.42 214.882 89.5224C217.933 84.7277 220.192 83.973 224.368 80.8408" stroke="black" stroke-width="4.75244" stroke-linecap="round"/>
<path d="M39.8807 226.041V267.777" stroke="#F6F6FC" stroke-width="4.75244" stroke-linecap="round"/>
<path d="M90.0293 243.47C111.772 238.167 135.132 242.375 157.325 240.445" stroke="#191919" stroke-width="4.75244" stroke-linecap="round"/>
<path d="M93.8097 264.642H149.764" stroke="#191919" stroke-width="4.75244" stroke-linecap="round"/>
<path d="M245.374 247.66C245.374 241.821 245.187 235.386 248.392 230.399C249.129 229.254 249.707 232.086 249.823 232.434C250.536 234.57 251.349 236.677 252.014 238.828C252.886 241.645 253.825 244.437 254.63 247.257" stroke="#191919" stroke-width="4.75244" stroke-linecap="round"/>
</svg>
