<svg width="529" height="606" viewBox="0 0 529 606" fill="none" xmlns="http://www.w3.org/2000/svg">
<g clip-path="url(#clip0_2793_11462)">
<path opacity="0.05" d="M566.87 234.224C564.705 68.5652 428.658 -63.9734 262.999 -61.8093C97.3401 -59.6451 -35.1986 76.4024 -33.0344 242.061C-30.8702 407.72 105.177 540.259 270.836 538.095C436.495 535.931 569.034 399.883 566.87 234.224Z" stroke="url(#paint0_linear_2793_11462)" stroke-opacity="0.3" stroke-width="3.69203" stroke-linecap="round" stroke-dasharray="18.09 11.08"/>
<path opacity="0.13" d="M484.371 409.578C579.051 289.483 558.449 115.373 438.354 20.6919C318.258 -73.9887 144.148 -53.3861 49.4676 66.7091C-45.213 186.804 -24.6104 360.914 95.4848 455.595C215.58 550.276 389.69 529.673 484.371 409.578Z" stroke="url(#paint1_linear_2793_11462)" stroke-opacity="0.3" stroke-width="3.32283" stroke-linecap="round" stroke-dasharray="9.97 6.28"/>
<path opacity="0.21" d="M327.242 484.697C463.41 451.381 546.789 313.986 513.472 177.818C480.156 41.6495 342.761 -41.7286 206.593 -8.41227C70.4245 24.9041 -12.9535 162.299 20.3628 298.467C53.6791 434.635 191.074 518.013 327.242 484.697Z" stroke="url(#paint2_linear_2793_11462)" stroke-opacity="0.3" stroke-width="3.32283" stroke-linecap="round" stroke-dasharray="12.55 20.31"/>
<path opacity="0.29" d="M300.038 9.78189C173.917 -8.5083 56.848 78.9063 38.5578 205.028C20.2676 331.149 107.682 448.218 233.804 466.508C359.925 484.799 476.994 397.384 495.284 271.262C513.574 145.141 426.16 28.0721 300.038 9.78189Z" stroke="url(#paint3_linear_2793_11462)" stroke-opacity="0.3" stroke-width="2.95363" stroke-linecap="round" stroke-dasharray="17.72 12.92"/>
<path opacity="0.37" d="M457.727 320.128C503.006 214.746 454.283 92.6125 348.902 47.3338C243.521 2.05515 121.387 50.7778 76.1085 156.159C30.8299 261.54 79.5526 383.674 184.934 428.953C290.315 474.231 412.449 425.509 457.727 320.128Z" stroke="url(#paint4_linear_2793_11462)" stroke-opacity="0.3" stroke-width="2.95363" stroke-linecap="round" stroke-dasharray="17.35 14.4"/>
<path opacity="0.45" d="M332.312 410.77C427.652 374.652 475.661 268.083 439.543 172.743C403.425 77.4021 296.856 29.3931 201.516 65.5114C106.175 101.63 58.1661 208.198 94.2845 303.539C130.403 398.879 236.971 446.888 332.312 410.77Z" stroke="url(#paint5_linear_2793_11462)" stroke-opacity="0.3" stroke-width="2.58442" stroke-linecap="round" stroke-dasharray="9.23 12.92"/>
<path opacity="0.53" d="M159.365 117.633C92.8084 177.034 87.0075 279.142 146.408 345.698C205.809 412.255 307.917 418.056 374.473 358.655C441.029 299.254 446.83 197.146 387.43 130.59C328.029 64.0336 225.921 58.2328 159.365 117.633Z" stroke="url(#paint6_linear_2793_11462)" stroke-opacity="0.3" stroke-width="2.58442" stroke-linecap="round" stroke-dasharray="6.65 13.66"/>
<path d="M157.285 284.063C157.285 297.244 157.285 310.425 157.285 323.606C157.285 328.806 169.153 325.404 173.262 325.404C184.607 325.404 196.395 324.433 207.613 326.303" stroke="#F6F6FC" stroke-width="4.36532" stroke-linecap="round"/>
</g>
<path fill-rule="evenodd" clip-rule="evenodd" d="M288.673 10.2485C332.362 11.6853 369.09 38.8401 399.71 69.9532C429.972 100.704 450.275 138.041 456.411 180.691C463.769 231.838 473.955 292.408 436.908 328.528C399.971 364.542 339.4 353.965 288.673 344.237C248.231 336.481 220.305 306.633 188.253 280.842C149.49 249.652 89.5415 230.194 85.4196 180.691C81.2409 130.506 131.417 94.809 170.064 62.4004C204.444 33.5704 243.78 8.77196 288.673 10.2485Z" fill="#05BC94" fill-opacity="0.68"/>
<path d="M397.648 96.4494C397.098 95.8718 396.984 96.266 394.933 96.7959C394.041 97.0263 393.115 97.094 392.199 96.9957C386.626 96.6565 385.782 89.0991 385.524 83.3733L384.941 79.4901C384.954 79.3756 384.943 79.2597 384.908 79.1497C384.874 79.0397 384.817 78.9381 384.742 78.8512C384.666 78.7644 384.573 78.6944 384.469 78.6455C384.364 78.5967 384.251 78.5701 384.136 78.5676C384.02 78.565 383.906 78.5865 383.8 78.6307C383.693 78.6748 383.597 78.7407 383.518 78.824C383.438 78.9074 383.377 79.0064 383.338 79.1148C383.299 79.2232 383.283 79.3385 383.291 79.4534C382.179 86.2811 382.981 97.3202 390.052 99.2673C390.274 101.555 390.236 101.101 390.727 104.755C390.739 104.98 390.84 105.191 391.008 105.341C391.175 105.491 391.396 105.569 391.621 105.557C391.846 105.545 392.056 105.444 392.207 105.276C392.357 105.109 392.435 104.888 392.423 104.663L392.529 99.8687C393.699 99.9696 394.876 99.7649 395.943 99.2747C396.889 98.6678 398.413 97.2579 397.648 96.4494Z" fill="#191919"/>
<path d="M403.086 68.3374C400.711 66.8121 397.943 66.0136 395.121 66.0401C390.422 47.5536 366.958 56.9334 371.103 67.9359C372.515 71.6522 375.647 73.4362 379.106 74.7892C385.09 77.3565 391.702 78.0859 398.101 76.8848C398.486 79.3654 399.509 81.7032 401.071 83.6686C401.194 83.8061 401.353 83.9076 401.529 83.9622C401.706 84.0168 401.894 84.0224 402.074 83.9784C402.67 83.8152 403.748 84.6971 404.136 85.4745C404.332 85.9247 404.42 86.414 404.395 86.9041C404.37 87.3942 404.232 87.8719 403.992 88.2998C403.003 90.3606 401.058 89.9371 401.058 91.545C401.137 95.3613 401.602 99.1599 402.444 102.883C402.461 103.108 402.567 103.316 402.738 103.463C402.908 103.61 403.131 103.683 403.355 103.666C403.58 103.649 403.789 103.543 403.935 103.372C404.082 103.201 404.155 102.979 404.138 102.755C404.212 96.5833 403.938 95.5565 403.883 92.3829C405.29 91.6085 406.349 90.3276 406.845 88.8004C407.34 87.2733 407.236 85.6147 406.553 84.1617C408.689 77.9317 406.877 71.4597 403.086 68.3374Z" fill="#191919"/>
<path d="M395.463 81.6451C396.12 81.6451 396.648 82.4482 396.648 83.4327C396.648 84.4173 396.12 85.2185 395.463 85.2185C394.807 85.2185 394.279 84.4155 394.279 83.4327C394.279 82.45 394.807 81.6451 395.463 81.6451Z" fill="#191919"/>
<path d="M390.359 86.6353C391.393 86.7068 392.334 86.6573 392.402 87.53C392.451 88.1753 392.024 88.4137 390.201 88.9967C389.419 89.2754 388.707 89.5046 388.086 88.9601C387.811 88.7044 387.647 88.3507 387.631 87.9755C387.594 87.2275 387.539 86.4629 387.539 85.6782C387.539 81.9857 389.079 80.5134 389.837 80.7756C390.871 81.1753 390.359 83.3589 390.359 86.6353Z" fill="#191919"/>
<path d="M434.296 113.241C428.5 108.683 423.141 104.235 415.685 102.667C412.961 102.3 410.214 102.123 407.465 102.139C407.249 104.118 406.602 106.024 405.569 107.725C404.536 109.426 403.142 110.879 401.487 111.983C395.125 115.573 387.919 110.962 385.864 104.692C373.294 104.569 351.175 124.61 350.411 150.645C354.221 149.768 358.111 151.829 361.347 153.578C366.543 156.367 371.884 158.829 376.988 161.763C378.788 157.336 381.18 153.173 384.097 149.387C387.77 151.8 391.19 154.577 394.305 157.676C400.211 155.744 411.074 151.242 411.074 151.242C414.776 149.762 418.755 149.099 422.738 149.297C426.72 149.495 430.613 150.55 434.151 152.39C441.96 145.546 445.088 133.102 452.469 128.147C452.469 127.85 445.124 121.73 434.296 113.241Z" fill="white"/>
<path d="M373.397 134.391C374.458 137.8 376.078 141.01 378.191 143.888C380.659 147.062 381.308 147.794 382.056 147.315C382.789 146.792 382.492 146.226 380.415 142.449C378.657 139.642 377.168 136.676 375.967 133.59C374.735 130.567 374.477 130.389 373.872 130.51C372.748 130.737 373.164 133.524 373.397 134.391Z" fill="#191919"/>
<path d="M425.283 159.478C427.554 159.364 429.803 159.963 431.716 161.192C431.894 161.323 432.115 161.379 432.333 161.35C432.551 161.321 432.75 161.209 432.887 161.036C433.024 160.864 433.088 160.645 433.067 160.426C433.047 160.207 432.941 160.004 432.774 159.861C431.79 158.889 430.57 158.19 429.234 157.832C427.899 157.474 426.492 157.47 425.154 157.821C423.917 158.259 424.342 159.463 425.283 159.478Z" fill="#191919"/>
<path d="M420.75 165.284C423.181 164.96 425.654 165.184 427.987 165.94C428.189 166.036 428.421 166.049 428.632 165.976C428.844 165.903 429.019 165.75 429.119 165.549C429.219 165.349 429.237 165.118 429.168 164.905C429.1 164.691 428.951 164.514 428.753 164.409C427.522 163.561 426.09 163.049 424.6 162.924C423.11 162.8 421.614 163.066 420.259 163.698C419.291 164.251 419.584 165.377 420.75 165.284Z" fill="#191919"/>
<path d="M483.031 168.772C485.249 167.744 487.165 166.163 488.595 164.181C490.026 162.198 490.922 159.881 491.197 157.452C491.296 156.169 491.432 152.887 490.14 152.986C489.199 153.024 489.392 153.969 489.084 155.72C488.67 158.082 487.763 160.331 486.421 162.32C485.197 163.998 483.624 165.391 481.81 166.403C479.295 167.96 478.662 168.143 478.893 168.937C479.22 170.099 482.225 169.131 483.031 168.772Z" fill="#191919"/>
<path d="M498.626 160.484C499.147 158.836 499.435 157.125 499.484 155.398C499.557 154.3 499.415 153.198 499.064 152.155C498.533 150.739 498.087 149.643 497.231 149.931C496.331 150.255 496.905 150.591 496.701 155.248C496.556 156.773 496.319 158.288 495.992 159.785C495.893 160.308 495.57 162.667 496.501 162.939C497.422 163.254 498.408 161.142 498.626 160.484Z" fill="#191919"/>
<path d="M505.981 154.039C506.069 151.998 505.589 149.972 504.595 148.187C503.759 146.951 502.985 145.877 502.19 146.383C501.515 146.78 501.843 147.499 502.19 148.48C502.318 148.935 502.39 149.397 502.518 149.864C502.921 151.21 503.136 152.605 503.156 154.01C503.167 154.264 502.973 157.493 503.939 157.764C504.905 158.036 505.913 155.986 505.981 154.039Z" fill="#191919"/>
<path d="M239.648 90.6618C243.018 90.3611 247.09 90.4784 250.13 90.5151C259.183 90.6581 292.249 90.2804 304.583 90.5334C304.807 90.5456 305.028 90.4679 305.196 90.3175C305.363 90.167 305.464 89.9562 305.476 89.7313C305.489 89.5064 305.411 89.2859 305.26 89.1183C305.11 88.9506 304.899 88.8496 304.674 88.8375C298.855 88.3516 292.83 87.8896 286.956 87.7081C274.742 87.3414 248.025 87.8768 247.803 87.8914C244.979 88.0657 242.17 88.4437 239.4 89.0227C239.194 89.0675 239.013 89.1892 238.893 89.3629C238.773 89.5367 238.724 89.7496 238.756 89.9583C238.787 90.167 238.897 90.3558 239.063 90.4865C239.228 90.6172 239.438 90.6798 239.648 90.6618Z" fill="white"/>
<path d="M207.157 116.972C221.74 117.227 235.632 118.52 259.593 117.464C290.503 116.089 307.781 115.408 318.961 115.46C325.285 115.434 331.59 114.726 338.084 115.093C338.31 115.11 338.533 115.037 338.705 114.89C338.877 114.743 338.983 114.534 339.001 114.308C339.014 114.084 338.94 113.863 338.794 113.692C338.647 113.521 338.44 113.413 338.216 113.392C331.812 112.794 325.4 113.283 319.004 113.1C290.563 112.451 260.073 114.862 243.815 115.033C237.726 115.088 210.221 115.216 207.157 115.287C206.933 115.287 206.719 115.376 206.561 115.534C206.403 115.692 206.314 115.906 206.314 116.13C206.314 116.353 206.403 116.568 206.561 116.726C206.719 116.884 206.933 116.972 207.157 116.972Z" fill="white"/>
<path d="M206.74 148.428C215.044 148.572 217.997 149.11 232.932 149.265C264.365 149.658 287.695 146.913 318.554 146.913C324.876 146.887 331.19 146.18 337.675 146.546C337.896 146.556 338.112 146.48 338.277 146.333C338.442 146.186 338.544 145.98 338.56 145.76C338.577 145.539 338.507 145.321 338.365 145.151C338.223 144.982 338.021 144.874 337.801 144.851C331.37 144.244 324.879 144.757 318.59 144.577C298.949 144.027 284.256 144.97 259.075 146.09C243.618 146.792 215.676 146.497 206.762 146.765C206.653 146.762 206.544 146.782 206.442 146.822C206.341 146.862 206.248 146.922 206.17 146.998C206.092 147.074 206.03 147.165 205.987 147.266C205.945 147.367 205.923 147.475 205.922 147.584C205.921 147.804 206.006 148.015 206.159 148.173C206.312 148.33 206.521 148.422 206.74 148.428Z" fill="white"/>
<path d="M207.233 179.914C214.42 180.05 234.286 181.526 259.67 180.407C268.001 180.024 313.096 178.092 319.038 178.073C319.263 178.073 319.48 177.985 319.643 177.829C319.806 177.673 319.902 177.461 319.913 177.235C319.914 177.011 319.827 176.795 319.67 176.635C319.513 176.474 319.299 176.383 319.075 176.379C311.109 176.122 303.164 176.055 295.24 176.177C290.473 176.269 249.124 177.928 243.891 177.965C238.041 178.018 209.696 178.165 207.235 178.238C207.013 178.238 206.8 178.327 206.643 178.484C206.486 178.641 206.397 178.854 206.397 179.076C206.397 179.298 206.486 179.511 206.643 179.669C206.8 179.826 207.011 179.914 207.233 179.914Z" fill="white"/>
<path d="M206.625 210.026C213.508 210.169 234.332 211.625 259.061 210.536C267.392 210.135 312.487 208.22 318.43 208.184C318.656 208.186 318.874 208.1 319.038 207.943C319.201 207.787 319.297 207.572 319.304 207.346C319.305 207.122 319.218 206.906 319.061 206.746C318.904 206.586 318.69 206.494 318.466 206.49C286.931 205.48 268.811 207.826 243.295 208.094C237.428 208.131 209.082 208.294 206.64 208.367C206.53 208.365 206.422 208.384 206.32 208.424C206.219 208.464 206.126 208.524 206.048 208.601C205.97 208.677 205.908 208.768 205.866 208.869C205.824 208.969 205.802 209.078 205.802 209.187C205.802 209.407 205.888 209.618 206.042 209.775C206.196 209.932 206.405 210.022 206.625 210.026Z" fill="white"/>
<path d="M267.178 245.56C267.05 245.423 266.895 245.312 266.724 245.236C266.553 245.159 266.369 245.116 266.181 245.111C265.993 245.106 265.807 245.138 265.632 245.206C265.457 245.273 265.297 245.375 265.161 245.505C262.296 247.831 259.6 250.358 257.094 253.067C254.24 250.153 250.613 248.113 246.641 247.187C242.668 246.261 238.514 246.486 234.665 247.837C230.816 249.188 227.432 251.609 224.91 254.815C222.388 258.021 220.832 261.879 220.425 265.938C220.125 268.816 220.395 271.725 221.221 274.499C222.046 277.272 223.411 279.856 225.236 282.101C227.061 284.346 229.312 286.209 231.858 287.584C234.405 288.958 237.197 289.817 240.076 290.11C258.552 292.028 270.986 271.389 259.969 256.478C262.182 253.727 264.602 250.409 267.134 247.565C267.403 247.304 267.558 246.947 267.567 246.571C267.575 246.196 267.435 245.833 267.178 245.56ZM259.732 269.968C259.425 272.806 258.426 275.525 256.821 277.886C255.216 280.246 253.056 282.177 250.531 283.506C248.005 284.836 245.191 285.525 242.337 285.512C239.482 285.499 236.675 284.785 234.161 283.432C231.648 282.079 229.505 280.13 227.922 277.754C226.339 275.379 225.364 272.651 225.083 269.811C224.802 266.97 225.223 264.104 226.309 261.464C227.396 258.825 229.115 256.493 231.314 254.674C234.667 251.86 238.931 250.367 243.307 250.473C247.683 250.579 251.87 252.277 255.083 255.249C250.848 259.758 246.9 264.527 243.263 269.53C242.162 268.179 239.245 265.117 238.158 263.734C237.972 263.411 237.665 263.174 237.305 263.076C236.944 262.979 236.56 263.029 236.236 263.215C235.912 263.401 235.675 263.708 235.578 264.068C235.48 264.429 235.53 264.813 235.716 265.137C237.172 268.713 239.177 272.04 241.658 274.999C241.894 275.299 242.199 275.537 242.548 275.692C242.896 275.847 243.277 275.915 243.658 275.89C244.038 275.865 244.407 275.747 244.732 275.547C245.056 275.347 245.327 275.071 245.521 274.742C248.563 269.645 253.671 264.152 257.895 259.013C259.634 262.384 260.28 266.215 259.732 269.968Z" fill="white"/>
<path d="M207.599 241.113C208.123 251.704 208.717 250.711 207.782 258.065C207.79 258.249 207.762 258.433 207.699 258.606C207.636 258.78 207.54 258.939 207.416 259.075C207.164 259.351 206.814 259.515 206.442 259.531C206.069 259.548 205.706 259.416 205.431 259.165C205.156 258.914 204.992 258.563 204.975 258.191C204.313 255.214 203.182 252.3 202.734 238.65C202.724 238.311 202.787 237.974 202.918 237.661C203.048 237.348 203.245 237.066 203.493 236.835C203.741 236.604 204.036 236.428 204.358 236.32C204.679 236.212 205.021 236.174 205.358 236.208C210.268 236.758 215.259 235.995 223.313 236.536C223.5 236.53 223.686 236.561 223.861 236.628C224.036 236.695 224.196 236.795 224.332 236.924C224.467 237.053 224.576 237.208 224.651 237.379C224.727 237.551 224.767 237.735 224.77 237.922C224.779 238.108 224.749 238.294 224.685 238.468C224.62 238.643 224.521 238.803 224.394 238.939C224.267 239.074 224.114 239.183 223.944 239.259C223.774 239.335 223.591 239.376 223.405 239.38C218.57 239.996 214.347 241.261 207.599 241.113Z" fill="white"/>
<path d="M283.118 287.27C282.557 275.38 282.867 277.107 283.373 272.942C283.349 272.572 283.471 272.208 283.713 271.928C283.955 271.648 284.299 271.476 284.668 271.447C284.852 271.43 285.037 271.451 285.213 271.507C285.389 271.564 285.551 271.655 285.691 271.776C285.83 271.897 285.944 272.045 286.025 272.211C286.106 272.377 286.153 272.557 286.162 272.742C287.887 278.647 287.352 277.63 287.984 289.476C288 289.798 287.95 290.12 287.837 290.423C287.724 290.725 287.551 291.001 287.328 291.235C287.105 291.469 286.837 291.654 286.54 291.781C286.243 291.908 285.924 291.973 285.601 291.973C283.322 291.899 280.988 291.973 278.656 291.899C276.324 291.826 273.99 291.59 271.674 291.516C271.297 291.545 270.924 291.423 270.637 291.177C270.35 290.931 270.172 290.581 270.143 290.204C270.127 290.018 270.148 289.831 270.204 289.653C270.26 289.475 270.351 289.311 270.472 289.168C270.592 289.026 270.739 288.909 270.905 288.824C271.071 288.739 271.252 288.687 271.438 288.673C275.273 287.806 279.187 287.336 283.118 287.27Z" fill="white"/>
<path d="M366.683 252.363C366.201 255.631 365.977 256.483 365.479 260.966C365.06 264.999 363 289.511 362.945 290.787C362.818 294.032 362.745 297.24 362.708 300.485C362.701 300.595 362.716 300.704 362.752 300.807C362.788 300.911 362.844 301.006 362.917 301.087C362.99 301.169 363.079 301.235 363.178 301.282C363.276 301.328 363.384 301.355 363.493 301.36C363.603 301.367 363.714 301.353 363.818 301.317C363.923 301.282 364.019 301.226 364.102 301.153C364.185 301.08 364.253 300.991 364.301 300.892C364.35 300.793 364.379 300.686 364.386 300.575C369.037 254.681 368.341 258.916 368.341 252.472C368.352 252.253 368.277 252.04 368.132 251.876C367.987 251.713 367.783 251.614 367.565 251.599C367.347 251.585 367.132 251.657 366.967 251.8C366.802 251.943 366.7 252.146 366.683 252.363Z" fill="#191919"/>
<path d="M379.588 258.648C378.467 262.779 377.822 263.84 374.32 283.328C373.317 288.862 372.636 294.449 372.28 300.062C372.253 300.175 372.251 300.293 372.273 300.407C372.295 300.522 372.341 300.63 372.407 300.726C372.473 300.822 372.559 300.903 372.659 300.963C372.758 301.024 372.869 301.063 372.985 301.079C373.1 301.094 373.218 301.085 373.329 301.052C373.441 301.019 373.545 300.964 373.634 300.888C373.723 300.813 373.795 300.72 373.846 300.615C373.897 300.511 373.926 300.396 373.93 300.28C381.08 260.45 380.323 269.078 381.203 258.958C381.225 258.752 381.17 258.545 381.046 258.378C380.923 258.211 380.742 258.097 380.538 258.058C380.335 258.019 380.124 258.058 379.948 258.167C379.772 258.277 379.643 258.448 379.588 258.648Z" fill="#191919"/>
<path d="M367.02 312.993C364.58 314.173 361.89 314.739 359.182 314.643C356.003 314.786 350.721 315.144 348.137 313.36C347.626 313.095 347.22 312.664 346.987 312.137C346.753 311.61 346.707 311.02 346.854 310.463C347.954 307.077 355.224 308.446 359.558 306.325C360.58 305.727 361.457 304.911 362.127 303.934C362.788 303.036 363.382 303.491 368.835 303.223C372.638 303.052 372.815 302.631 373.501 303.186C373.647 303.307 373.766 303.457 373.851 303.627C373.935 303.796 373.984 303.981 373.992 304.171C373.992 305.428 373.974 306.631 373.866 307.816C373.692 309.979 373.198 312.105 372.399 314.123C372.333 314.249 372.235 314.357 372.115 314.434C371.995 314.512 371.857 314.558 371.715 314.567C371.572 314.576 371.429 314.549 371.3 314.487C371.171 314.425 371.061 314.331 370.978 314.214C370.155 314.245 369.343 314.333 368.061 314.288C367.849 314.275 367.647 314.194 367.485 314.055C367.324 313.917 367.213 313.729 367.168 313.521L367.02 312.993ZM371.42 305.738C368.944 306.001 366.456 306.135 363.965 306.14C363.122 307.255 362.054 308.18 360.83 308.855C356.921 310.81 352.323 310.267 349.931 311.224C351.711 312.242 357.07 312.095 359.118 312.064C361.865 312.368 364.638 311.821 367.064 310.496C367.205 310.4 367.367 310.34 367.536 310.321C367.706 310.303 367.877 310.326 368.036 310.389C368.194 310.452 368.335 310.553 368.445 310.683C368.555 310.813 368.632 310.968 368.668 311.134L368.923 312.427C369.138 312.427 370.973 312.476 371.165 312.482C371.466 310.247 371.556 307.989 371.42 305.738ZM349.566 311.006C349.566 310.896 349.547 310.806 349.474 310.859C349.401 310.912 349.492 310.969 349.566 311.006Z" fill="#191919"/>
<path d="M431.34 273.643C431.57 275.527 431.941 277.392 432.451 279.22C433.034 281.408 436.808 294.586 437.173 295.736C437.737 297.485 438.32 299.181 438.887 300.912C438.913 301.018 438.96 301.118 439.025 301.206C439.09 301.295 439.172 301.369 439.266 301.426C439.36 301.482 439.464 301.52 439.573 301.536C439.681 301.553 439.792 301.548 439.898 301.521C440.004 301.495 440.105 301.448 440.193 301.383C440.281 301.318 440.356 301.236 440.412 301.142C440.469 301.048 440.506 300.944 440.523 300.835C440.539 300.727 440.534 300.616 440.508 300.51C439.464 293.858 437.898 287.298 435.823 280.892C435.115 278.226 434.145 275.637 432.926 273.163C432.859 272.956 432.714 272.785 432.522 272.684C432.329 272.584 432.106 272.563 431.898 272.626C431.691 272.689 431.516 272.831 431.412 273.021C431.307 273.211 431.282 273.434 431.34 273.643Z" fill="#191919"/>
<path d="M446.537 310.369C445.448 312.509 445.27 313.686 444.368 313.741C442.24 313.871 441.283 313.906 440.742 313.906C440.49 313.901 440.25 313.8 440.07 313.624C439.89 313.448 439.785 313.209 439.776 312.958C439.484 310.626 439.55 306.665 439.429 304.663C439.423 304.361 439.519 304.066 439.7 303.825C439.882 303.583 440.14 303.41 440.432 303.332C443.361 302.599 446.34 302.081 449.344 301.783C450.553 301.657 450.714 303.017 455.725 304.955C463.377 307.866 469.387 306.99 471.894 308.765C473.47 310.011 472.592 312.065 470.762 313.049C468.437 313.861 465.989 314.261 463.526 314.234C459.8 314.481 454.359 315.431 450.767 313.317C449.205 312.43 447.857 311.093 446.537 310.369ZM449.089 304.627C446.738 304.859 444.402 305.219 442.089 305.703C442.089 306.436 441.833 310.325 441.798 311.937C442.491 311.973 443.329 312.01 443.859 312.047C444.268 310.838 444.78 309.667 445.39 308.547C446.633 307.038 450.542 311.198 452.991 311.755C456.658 312.551 458.724 311.938 463.326 311.535C465.347 311.5 467.355 311.212 469.305 310.679C466.997 309.986 456.706 309.975 449.089 304.627ZM469.888 310.351C469.98 310.277 470.033 310.206 469.943 310.151C469.853 310.096 469.87 310.219 469.888 310.351Z" fill="#191919"/>
<path d="M430.761 221.784C429.278 214.397 425.994 208.766 418.603 202.663C411.501 196.805 377.08 174.881 359.765 163.728C355.086 160.714 350.011 156.435 344.344 158.077C342.649 158.605 341.136 159.596 339.976 160.94C338.816 162.283 338.056 163.925 337.782 165.679C336.682 170.262 337.415 175.995 337.69 179.677C339.912 209.195 339.093 216.369 342.175 224.136C343.717 228.19 346.417 231.701 349.94 234.233C366.292 246.135 408.708 274.167 410.655 275.41C412.797 276.866 415.243 277.813 417.806 278.18C428.088 279.421 430.457 268.967 431.239 258.623C431.586 254.065 431.221 243.548 431.258 241.708C431.48 233.1 432.14 228.512 430.761 221.784ZM429.551 258.56C428.759 267.388 426.902 277.359 418.075 276.161C413.934 275.571 411.222 273.131 407.992 270.947C394.868 261.851 357.062 236.079 351.558 232.031C348.466 229.795 346.096 226.704 344.74 223.137C341.99 216.118 342.723 210.766 340.494 179.481C339.993 172.739 338.602 162.729 345.141 160.796C349.466 159.491 354.404 163.636 358.228 166.1C376.709 178.018 410.404 199.445 416.869 204.762C424.032 210.607 426.907 215.774 428.352 222.297C429.819 228.908 429.19 233.785 429.19 241.674C429.193 246.313 429.591 258.146 429.551 258.56Z" fill="#191919"/>
<path d="M513.64 109.293C512.048 107.084 509.98 105.26 507.589 103.957C505.197 102.654 502.543 101.905 499.823 101.765C487.099 100.766 473.827 107.926 464.333 116.294C450.498 128.359 446.17 140.827 434.265 154.062C434.016 154.341 433.885 154.705 433.898 155.078C428.134 150.408 419.414 151.411 412.147 153.149C405.666 154.766 399.382 157.088 393.407 160.074C391.077 157.568 388.426 155.38 385.523 153.567C385.434 153.506 385.333 153.463 385.226 153.441C385.12 153.419 385.01 153.418 384.903 153.438C384.797 153.458 384.695 153.5 384.604 153.559C384.513 153.619 384.435 153.696 384.374 153.785C384.313 153.875 384.27 153.976 384.248 154.083C384.225 154.189 384.225 154.299 384.245 154.405C384.265 154.512 384.306 154.614 384.366 154.705C384.425 154.796 384.502 154.874 384.592 154.935C387.288 157.397 389.839 160.014 392.23 162.773C392.448 162.988 392.731 163.125 393.035 163.161C393.338 163.197 393.646 163.131 393.908 162.973C397.084 161.25 400.408 159.817 403.841 158.69C413.08 155.305 428.459 150.989 434.801 158.475C434.555 158.512 434.322 158.61 434.123 158.759C433.924 158.908 433.766 159.104 433.661 159.329C433.556 159.554 433.509 159.802 433.523 160.05C433.537 160.298 433.613 160.539 433.743 160.751C433.871 160.971 434.344 161.609 434.417 161.717C434.601 162.461 432.632 162.335 432.448 162.355C432.198 162.36 431.954 162.427 431.737 162.552C431.521 162.676 431.339 162.853 431.209 163.066C430.598 164.084 431.585 165.36 430.842 166.311C430.523 166.792 429.823 166.794 429.421 166.894C429.209 166.941 429.01 167.033 428.835 167.162C428.661 167.291 428.516 167.455 428.409 167.644C428.302 167.833 428.237 168.043 428.216 168.259C428.196 168.475 428.221 168.693 428.29 168.898C428.424 169.448 428.946 170.182 428.673 170.904C428.536 171.355 427.927 171.579 427.463 171.676C427.451 171.468 427.362 171.273 427.213 171.128C427.064 170.983 426.866 170.898 426.658 170.891C422.625 170.38 417.957 170.862 411.017 174.52C409.018 175.402 407.208 176.662 405.686 178.231C362.176 152.946 360.809 151.411 355.594 150.848C351.816 150.786 348.081 151.668 344.729 153.415C344.537 153.51 344.389 153.675 344.316 153.877C344.243 154.078 344.251 154.3 344.339 154.496C344.426 154.692 344.586 154.846 344.784 154.927C344.983 155.007 345.205 155.007 345.404 154.928C348.508 153.48 351.918 152.81 355.34 152.977C359.665 153.551 364.398 157.214 368.243 159.484C404.897 181.127 414.378 186.289 423.529 192.841C429.029 196.757 434.879 200.635 437.675 206.823C442.028 216.529 440.878 228.413 441.357 238.886C441.724 247.089 442.153 255.471 438.112 262.636C436.252 265.509 433.916 268.042 431.203 270.128C431.032 270.274 430.925 270.482 430.907 270.706C430.889 270.931 430.96 271.153 431.106 271.325C431.252 271.497 431.46 271.603 431.685 271.622C431.909 271.64 432.132 271.568 432.303 271.422C435.226 269.254 437.77 266.618 439.833 263.621C442.95 258.322 440.933 256.758 442.752 268.045C444.653 280.707 445.159 287.296 447.418 299.835C447.45 300.05 447.565 300.245 447.739 300.377C447.912 300.508 448.13 300.568 448.346 300.541C448.562 300.515 448.76 300.405 448.896 300.236C449.033 300.066 449.098 299.85 449.077 299.633C448.698 295.6 448.872 293.753 447.783 284.031C445.409 264.046 444.362 262.891 443.372 259.241C443.344 259.1 443.279 258.969 443.184 258.861C443.09 258.754 442.968 258.673 442.832 258.627C442.696 258.582 442.55 258.573 442.41 258.602C442.269 258.631 442.139 258.696 442.032 258.792C444.208 252.422 444.058 245.529 443.865 238.807C443.454 226.69 445.332 210.989 437.136 200.729C438.222 198.604 438.72 196.878 439.712 195.138C441.405 192.216 447.618 186.565 450.229 184.402C455.168 180.275 460.591 176.765 466.38 173.951C477.91 168.288 478.114 169.769 482.895 161.484C484.976 157.817 485.462 152.584 488.727 150.219C489.703 149.486 490.618 149.303 491.389 150.238C491.714 150.757 492 151.299 492.246 151.86C492.36 152.07 492.538 152.238 492.754 152.34C492.971 152.441 493.214 152.47 493.448 152.423C493.683 152.377 493.896 152.256 494.057 152.079C494.217 151.902 494.317 151.678 494.341 151.44C494.508 149.742 495.203 148.139 496.329 146.857C496.95 146.276 497.475 146.189 498.296 147.095C498.407 147.225 498.551 147.323 498.712 147.38C498.874 147.436 499.047 147.45 499.215 147.418C499.383 147.387 499.54 147.312 499.67 147.201C499.8 147.09 499.898 146.946 499.955 146.785C501.143 143.485 504.249 142.644 506.136 147.623C506.13 147.78 506.168 147.936 506.246 148.073C506.323 148.21 506.437 148.322 506.575 148.398C506.713 148.474 506.869 148.511 507.026 148.503C507.183 148.496 507.335 148.445 507.465 148.357C514.174 143.859 519.522 136.047 519.806 128.068C519.67 121.335 517.523 114.796 513.64 109.293ZM415.263 178.287C414.364 178.939 413.376 179.461 412.33 179.837C411.884 180.02 410.715 179.948 410.223 180.862C409.336 180.33 408.432 179.827 407.543 179.305C411.173 177.35 414.953 175.689 418.848 174.336C417.915 175.869 416.698 177.21 415.263 178.287Z" fill="#191919"/>
<path d="M430.596 211.644C432.711 211.098 434.715 210.192 436.52 208.965C437.479 208.323 436.953 207.15 435.846 207.416C433.698 207.898 431.674 208.823 429.903 210.131C429.014 210.846 429.462 211.856 430.596 211.644Z" fill="#191919"/>
<path d="M396.452 217.029C394.855 208.19 388.597 200.307 379.208 199.967C378.905 199.956 378.605 200.039 378.35 200.206C375.378 200.658 372.59 201.928 370.298 203.873C368.771 200.655 367.254 197.432 365.582 194.28C361.644 187.06 360.722 185.982 359.404 186.642C358.214 187.192 358.227 188.444 361.499 196.229C362.557 198.746 363.742 201.179 364.908 203.667C367.108 208.368 366.961 207.662 366.758 207.991C359.376 219.767 365.571 241.48 383.4 239.87C393.612 238.926 398.335 226.939 396.452 217.029ZM391.949 224.867C390.939 229.843 388.038 234.656 382.965 235.135C371.559 236.174 366.219 223.584 369.275 213.333C369.59 212.266 368.673 212.622 376.321 225.505C376.524 225.853 376.82 226.138 377.174 226.329C377.529 226.52 377.929 226.61 378.331 226.59C378.734 226.569 379.123 226.438 379.456 226.212C379.789 225.986 380.053 225.672 380.22 225.305C381.321 222.344 383.24 217.667 384.705 214.642C384.8 214.482 384.862 214.304 384.888 214.12C384.914 213.936 384.903 213.748 384.857 213.568C384.81 213.387 384.729 213.218 384.617 213.069C384.505 212.921 384.365 212.795 384.205 212.701C384.044 212.606 383.867 212.544 383.682 212.518C383.498 212.492 383.31 212.502 383.13 212.549C382.95 212.595 382.78 212.677 382.632 212.789C382.483 212.901 382.358 213.041 382.263 213.201C380.798 215.303 379.448 217.482 378.217 219.728C377.85 219.017 372.326 208.069 372.115 207.627C373.909 205.259 376.456 203.572 379.337 202.844C388.981 203.876 393.839 215.931 391.949 224.867Z" fill="white"/>
<path d="M333.159 308.701C313.756 308.354 197.654 307.845 180.136 307.845C178.931 307.837 177.756 307.464 176.768 306.774C175.78 306.085 175.024 305.112 174.6 303.983C173.647 301.378 174.835 301.904 175.11 265.687C175.33 237.758 177.043 73.7609 176.988 61.7317C176.977 60.1757 177.579 58.6779 178.664 57.5624C179.749 56.447 181.229 55.8035 182.785 55.7713C205.259 55.2597 317.575 54.2697 351.31 54.057C352.93 54.0413 354.492 54.6567 355.666 55.7726C356.84 56.8886 357.533 58.4176 357.599 60.0358C358.254 78.0585 357.221 96.094 359.167 114.027C359.173 114.14 359.203 114.251 359.253 114.353C359.304 114.454 359.374 114.545 359.46 114.618C359.547 114.692 359.647 114.748 359.755 114.782C359.863 114.816 359.977 114.828 360.09 114.817C360.203 114.806 360.313 114.772 360.412 114.718C360.512 114.664 360.6 114.59 360.67 114.501C360.741 114.412 360.792 114.309 360.822 114.2C360.852 114.09 360.86 113.976 360.844 113.864C359.049 96.2626 360.197 77.8531 359.678 59.9606C359.591 57.795 358.669 55.7471 357.106 54.2455C355.543 52.744 353.46 51.9051 351.292 51.9045C317.572 51.9595 205.215 52.5426 182.739 53.0046C180.458 53.0526 178.288 53.994 176.694 55.6261C175.1 57.2582 174.211 59.4506 174.217 61.7317C174.254 73.7426 172.303 153.836 172.103 181.89C171.821 221.24 173.18 261.389 171.465 301.501C171.408 302.675 171.59 303.849 172 304.951C172.41 306.052 173.04 307.059 173.852 307.91C174.663 308.761 175.639 309.438 176.72 309.899C177.802 310.361 178.965 310.598 180.141 310.597C197.203 310.578 318.437 310.014 333.11 310.36C333.325 310.359 333.531 310.274 333.685 310.124C333.839 309.973 333.928 309.769 333.935 309.554C333.941 309.339 333.864 309.13 333.719 308.971C333.575 308.812 333.374 308.715 333.159 308.701Z" fill="white"/>
<path d="M419.135 131.428C420.507 135.289 422.317 138.98 424.531 142.428C424.872 142.962 427.802 147.399 428.815 146.675C429.732 146.059 428.936 145.234 425.77 139.158C421.975 132.04 420.614 126.822 419.1 127.328C418.092 127.68 418.875 130.542 419.135 131.428Z" fill="#191919"/>
<path d="M433.972 179.867V178.285" stroke="#F6F6FC" stroke-width="4.36532" stroke-linecap="round"/>
<path d="M433.972 178.285C434.968 175.296 439.148 171.74 441.885 170.371" stroke="#F6F6FC" stroke-width="4.36532" stroke-linecap="round"/>
<path d="M475.122 138.717C477.614 136.759 480.741 135.378 483.827 134.761" stroke="#F6F6FC" stroke-width="4.36532" stroke-linecap="round"/>
<path d="M454.099 294.814C454.099 282.886 452.873 272.861 449.814 261.387" stroke="#F6F6FC" stroke-width="4.36532" stroke-linecap="round"/>
<path d="M517.237 105.463C517.102 103.581 516.182 101.715 514.671 100.564C512.084 98.5929 508.179 97.2982 505.009 96.7699C499.066 95.7794 492.504 96.1707 486.64 97.3568C481.931 98.309 476.715 100.592 473.156 103.867C472.066 104.869 470.823 105.812 469.635 106.692C468.694 107.389 468.139 108.886 467.124 109.394" stroke="#F6F6FC" stroke-width="4.36532" stroke-linecap="round"/>
<defs>
<linearGradient id="paint0_linear_2793_11462" x1="-420.973" y1="-29453.2" x2="59569.4" y2="-30236.9" gradientUnits="userSpaceOnUse">
<stop stop-color="white"/>
<stop offset="1" stop-color="#04D2A5"/>
</linearGradient>
<linearGradient id="paint1_linear_2793_11462" x1="17021.5" y1="-21461" x2="60511.8" y2="12825.9" gradientUnits="userSpaceOnUse">
<stop stop-color="white"/>
<stop offset="1" stop-color="#04D2A5"/>
</linearGradient>
<linearGradient id="paint2_linear_2793_11462" x1="24615.5" y1="-5980.54" x2="36680.4" y2="43330.4" gradientUnits="userSpaceOnUse">
<stop stop-color="white"/>
<stop offset="1" stop-color="#04D2A5"/>
</linearGradient>
<linearGradient id="paint3_linear_2793_11462" x1="-22374.2" y1="-2812.11" x2="-15750.7" y2="-48484.8" gradientUnits="userSpaceOnUse">
<stop stop-color="white"/>
<stop offset="1" stop-color="#04D2A5"/>
</linearGradient>
<linearGradient id="paint4_linear_2793_11462" x1="8192.55" y1="-18734" x2="46354.4" y2="-2337.13" gradientUnits="userSpaceOnUse">
<stop stop-color="white"/>
<stop offset="1" stop-color="#04D2A5"/>
</linearGradient>
<linearGradient id="paint5_linear_2793_11462" x1="17291.8" y1="-6408.9" x2="30371.4" y2="28116.9" gradientUnits="userSpaceOnUse">
<stop stop-color="white"/>
<stop offset="1" stop-color="#04D2A5"/>
</linearGradient>
<linearGradient id="paint6_linear_2793_11462" x1="-11556.1" y1="11006.5" x2="-33066.9" y2="-13095.6" gradientUnits="userSpaceOnUse">
<stop stop-color="white"/>
<stop offset="1" stop-color="#04D2A5"/>
</linearGradient>
<clipPath id="clip0_2793_11462">
<rect x="8.4122" y="53.8389" width="605.324" height="263.374" rx="67.1279" transform="rotate(33.2515 8.4122 53.8389)" fill="white"/>
</clipPath>
</defs>
</svg>
