<svg width="62" height="43" viewBox="0 0 62 43" fill="none" xmlns="http://www.w3.org/2000/svg">
<path d="M6.45689 31H2.21867V9.38222H6.45689V31ZM24.9938 23.2062C24.9938 24.4957 24.8136 25.643 24.4533 26.648C24.112 27.653 23.6095 28.5064 22.9458 29.208C22.301 29.8907 21.5141 30.4121 20.5849 30.7724C19.6557 31.1138 18.6033 31.2844 17.4276 31.2844C16.3467 31.2844 15.3416 31.1138 14.4124 30.7724C13.5022 30.4121 12.7153 29.8907 12.0516 29.208C11.3879 28.5064 10.8664 27.653 10.4871 26.648C10.1268 25.643 9.94667 24.4957 9.94667 23.2062C9.94667 21.4806 10.2501 20.0299 10.8569 18.8542C11.4637 17.6596 12.336 16.7493 13.4738 16.1236C14.6116 15.4978 15.9579 15.1849 17.5129 15.1849C18.973 15.1849 20.2625 15.4978 21.3813 16.1236C22.5001 16.7493 23.3819 17.6596 24.0267 18.8542C24.6714 20.0299 24.9938 21.4806 24.9938 23.2062ZM14.2702 23.2062C14.2702 24.2302 14.3745 25.093 14.5831 25.7947C14.8107 26.4773 15.1615 26.9988 15.6356 27.3591C16.1096 27.7004 16.7259 27.8711 17.4844 27.8711C18.243 27.8711 18.8498 27.7004 19.3049 27.3591C19.779 26.9988 20.1203 26.4773 20.3289 25.7947C20.5564 25.093 20.6702 24.2302 20.6702 23.2062C20.6702 22.1822 20.5564 21.3289 20.3289 20.6462C20.1203 19.9636 19.779 19.4516 19.3049 19.1102C18.8308 18.7689 18.2145 18.5982 17.456 18.5982C16.3372 18.5982 15.5218 18.987 15.0098 19.7644C14.5167 20.523 14.2702 21.6702 14.2702 23.2062ZM33.5311 15.1849C34.4793 15.1849 35.3326 15.3745 36.0911 15.7538C36.8496 16.133 37.4944 16.7019 38.0253 17.4604H38.1391L38.4804 15.4693H42.0644V31.0284C42.0644 32.5076 41.7705 33.7496 41.1827 34.7547C40.6138 35.7597 39.751 36.5182 38.5942 37.0302C37.4375 37.5612 36.0058 37.8267 34.2991 37.8267C33.1993 37.8267 32.1753 37.7603 31.2271 37.6276C30.2979 37.4948 29.3877 37.2578 28.4964 36.9164V33.5316C29.1412 33.797 29.7859 34.0151 30.4307 34.1858C31.0944 34.3754 31.7676 34.5081 32.4502 34.584C33.1519 34.6788 33.8535 34.7262 34.5551 34.7262C35.655 34.7262 36.4704 34.4323 37.0013 33.8444C37.5513 33.2566 37.8262 32.3748 37.8262 31.1991V30.8862C37.8262 30.5639 37.8357 30.232 37.8547 29.8907C37.8926 29.5493 37.921 29.2459 37.94 28.9804H37.8262C37.2953 29.7959 36.66 30.3837 35.9204 30.744C35.1809 31.1043 34.3465 31.2844 33.4173 31.2844C31.5779 31.2844 30.1367 30.5828 29.0938 29.1796C28.0698 27.7573 27.5578 25.7852 27.5578 23.2631C27.5578 21.5564 27.7948 20.1058 28.2689 18.9111C28.743 17.6975 29.4256 16.7778 30.3169 16.152C31.2271 15.5073 32.2985 15.1849 33.5311 15.1849ZM34.868 18.6267C34.2043 18.6267 33.6449 18.8068 33.1898 19.1671C32.7536 19.5084 32.4218 20.0299 32.1942 20.7316C31.9856 21.4142 31.8813 22.277 31.8813 23.32C31.8813 24.875 32.1279 26.0412 32.6209 26.8187C33.1139 27.5772 33.8819 27.9564 34.9249 27.9564C35.4748 27.9564 35.9489 27.8901 36.3471 27.7573C36.7453 27.6056 37.0677 27.3686 37.3142 27.0462C37.5797 26.7049 37.7788 26.2687 37.9116 25.7378C38.0443 25.2068 38.1107 24.5621 38.1107 23.8036V23.2916C38.1107 22.1727 37.9969 21.272 37.7693 20.5893C37.5418 19.9067 37.191 19.4136 36.7169 19.1102C36.2428 18.7879 35.6265 18.6267 34.868 18.6267ZM60.6049 23.2062C60.6049 24.4957 60.4247 25.643 60.0644 26.648C59.7231 27.653 59.2206 28.5064 58.5569 29.208C57.9121 29.8907 57.1252 30.4121 56.196 30.7724C55.2668 31.1138 54.2144 31.2844 53.0387 31.2844C51.9578 31.2844 50.9527 31.1138 50.0236 30.7724C49.1133 30.4121 48.3264 29.8907 47.6627 29.208C46.999 28.5064 46.4775 27.653 46.0982 26.648C45.7379 25.643 45.5578 24.4957 45.5578 23.2062C45.5578 21.4806 45.8612 20.0299 46.468 18.8542C47.0748 17.6596 47.9471 16.7493 49.0849 16.1236C50.2227 15.4978 51.569 15.1849 53.124 15.1849C54.5841 15.1849 55.8736 15.4978 56.9924 16.1236C58.1113 16.7493 58.993 17.6596 59.6378 18.8542C60.2825 20.0299 60.6049 21.4806 60.6049 23.2062ZM49.8813 23.2062C49.8813 24.2302 49.9856 25.093 50.1942 25.7947C50.4218 26.4773 50.7726 26.9988 51.2467 27.3591C51.7207 27.7004 52.337 27.8711 53.0956 27.8711C53.8541 27.8711 54.4609 27.7004 54.916 27.3591C55.3901 26.9988 55.7314 26.4773 55.94 25.7947C56.1676 25.093 56.2813 24.2302 56.2813 23.2062C56.2813 22.1822 56.1676 21.3289 55.94 20.6462C55.7314 19.9636 55.3901 19.4516 54.916 19.1102C54.4419 18.7689 53.8256 18.5982 53.0671 18.5982C51.9483 18.5982 51.1329 18.987 50.6209 19.7644C50.1279 20.523 49.8813 21.6702 49.8813 23.2062Z" fill="white"/>
</svg>
