<svg width="325" height="392" viewBox="0 0 325 392" fill="none" xmlns="http://www.w3.org/2000/svg">
<path d="M324.357 56.3262C324.407 58.4936 309.339 60.3928 306.92 60.8058C306.306 60.9128 305.847 61.6484 305.075 61.1684C300.084 58.0556 324.29 53.5026 324.357 56.3262Z" fill="#04D2A5"/>
<path d="M300.122 47.7562C299.284 47.8064 298.351 46.815 299.236 45.6956C308.419 34.0844 312.151 33.4494 310.803 36.7342C310.096 38.4594 302.292 47.4374 300.116 47.7562H300.122Z" fill="#04D2A5"/>
<path d="M286.537 87.6472C285.983 95.4892 286.26 98.8622 284.667 98.9124C283.948 98.9334 283.432 98.3506 283.388 97.6442C283.227 94.9108 282.81 92.1836 283.189 89.429C283.61 86.3748 282.759 83.6456 284.816 83.5806C286.872 83.5178 286.537 85.7816 286.537 87.6472Z" fill="#04D2A5"/>
<path d="M297.525 82.842C297.274 81.8716 297.368 80.3412 298.364 80.2742C303.787 79.9158 305.093 111.898 297.525 82.842Z" fill="#04D2A5"/>
<path d="M268.949 80.1644C269.54 79.6152 270.248 79.0576 271.108 79.9862C271.967 80.9148 271.372 81.6506 270.877 82.3298C261.809 94.6766 254.709 93.4462 268.949 80.1664V80.1644Z" fill="#04D2A5"/>
<path d="M305.558 74.9592C304.034 74.3324 303.833 71.9784 306.082 72.3262C311.746 73.2046 318.341 77.3908 317.603 78.9798C316.76 80.8034 306.631 75.4014 305.558 74.9634V74.9592Z" fill="#04D2A5"/>
<path d="M283.908 37.6878C283.908 36.9856 283.38 28.6154 285.556 28.825C287.669 29.0304 286.698 40.981 286.438 43.0858C286.344 43.832 286.021 44.6054 285.038 44.5426C283.619 44.4482 283.914 43.048 283.906 37.69H283.91L283.908 37.6878Z" fill="#04D2A5"/>
<path fill-rule="evenodd" clip-rule="evenodd" d="M267.14 42.5776C267.609 41.5966 268.051 40.599 268.452 39.5748C269.666 40.972 271.007 42.8356 272.378 45.2576C272.54 45.5426 272.642 45.7942 272.646 46.1044V46.1086C272.531 48.5898 269.758 45.9626 267.14 42.5776Z" fill="#04D2A5"/>
<path fill-rule="evenodd" clip-rule="evenodd" d="M260.329 55.1124C260.788 54.1982 261.264 53.3068 261.744 52.4306C264.134 53.6028 265.964 54.972 265.502 56.0082C265.029 57.077 263.687 56.6296 260.329 55.1124Z" fill="#04D2A5"/>
<path fill-rule="evenodd" clip-rule="evenodd" d="M255.288 73.859C255.328 72.9038 255.397 71.9782 255.489 71.0798C256.284 70.8706 257.118 70.6304 257.95 70.3906C261.711 69.3068 265.432 68.235 265.44 70.0964V70.2064C265.444 70.7468 265.446 71.2382 264.738 71.4464C264.736 71.4468 264.717 71.4534 264.679 71.4658C264.069 71.6718 258.797 73.4516 255.288 73.859Z" fill="#04D2A5"/>
<path d="M238.935 41.6138C237.789 41.5928 237.78 39.3226 238.927 39.3686C239.835 39.4064 239.963 41.6306 238.935 41.6138Z" fill="#191919"/>
<path d="M242.274 40.263C242.283 38.7934 243.702 38.8312 243.689 40.1686C243.685 40.7052 243.635 41.2124 242.958 41.225C242.323 41.2376 242.272 40.7556 242.277 40.2628L242.274 40.263Z" fill="#191919"/>
<path d="M269.172 23.4376C270.373 24.404 273.222 18.8428 272.149 18.7022C271.694 19.0398 268.491 22.8884 269.172 23.4376Z" fill="#191919"/>
<path d="M269.849 16.9698C269.572 16.9152 269.568 17.1752 269.503 17.3366C268.83 18.9926 267.01 21.6338 267.702 22.0762C269.065 22.9398 270.637 17.1228 269.849 16.9698Z" fill="#191919"/>
<path d="M266.233 21.1516C266.761 21.2374 267.013 20.8622 267.067 20.42C268.298 9.8234 264.929 20.9398 266.233 21.1516Z" fill="#191919"/>
<path fill-rule="evenodd" clip-rule="evenodd" d="M205.991 36.6198C206.716 38.2534 207.544 40.0378 208.429 41.9458C213.114 52.046 219.407 65.6132 220.652 78.6232C221.489 87.3742 221.38 88.772 221.828 88.9826C221.916 89.024 222.025 89.0196 222.168 89.0164C222.826 89.0012 222.82 88.8178 222.683 85.3122C222.667 84.8698 222.648 84.3744 222.627 83.8198C221.952 65.1942 213.923 48.6306 208.859 38.1868C208.211 36.8466 207.609 35.6074 207.079 34.4772C206.729 35.1978 206.366 35.911 205.991 36.6198ZM210.137 26.3744C213.276 29.8516 215.63 34.3512 217.942 38.768C221.784 46.112 225.509 53.2284 232.513 55.0406C234.85 57.6336 238.057 57.8892 239.208 54.703C247.664 51.5172 250.8 46.9298 255.376 40.2358C257.433 37.2264 259.781 33.7916 263.034 29.8666C263.77 28.9796 264.113 28.5378 264.524 28.461C264.92 28.3874 265.38 28.6524 266.314 29.1854C267.008 29.5816 267.189 30.1602 267.008 30.8416C264.562 40.2558 261.673 45.0906 259.074 49.438C254.594 56.935 250.978 62.983 251.995 88.5698C251.997 88.6118 251.995 88.6564 251.993 88.7018C251.985 88.9188 251.976 89.1508 252.301 89.184L252.335 89.1874C253.142 89.2724 253.228 89.2814 253.114 76.4744C252.999 63.3252 257.871 54.8232 261.938 47.7288C263.09 45.7164 264.178 43.8174 265.069 41.9578C267.755 36.3574 268.107 33.3996 268.337 31.4656C268.516 29.964 268.62 29.08 269.687 28.0554C273.385 24.5066 274.117 21.5134 273.593 21.2828L273.588 21.2784V21.2828C273.02 21.0324 272.88 21.2128 271.794 22.6022C271.18 23.3894 270.262 24.5646 268.792 26.2698C267.459 27.8202 267.155 27.6316 266.449 27.1924C266.155 27.0106 265.795 26.7858 265.262 26.6238C265.006 26.5462 264.925 26.406 264.956 26.1166C265.076 24.8824 264.925 23.6612 264.776 22.4394C264.623 21.1938 264.47 19.9478 264.602 18.6874C264.793 16.8594 262.361 19.987 263.724 24.8922C264.197 26.5882 247.188 48.1604 244.245 50.3574C243.992 50.5464 242.122 51.501 240.724 52.2146C240.294 52.4348 239.908 52.6318 239.627 52.7764C239.722 51.9546 239.734 51.1624 239.743 50.5606C239.749 50.0866 240.128 50.0074 240.696 49.8896C241.745 49.6716 243.432 49.3208 244.589 46.102C246.174 41.702 245.207 35.4764 245.155 35.3042C243.547 30.2144 240.499 29.8792 238.401 29.6486C237.443 29.5432 236.682 29.4596 236.347 28.955C234.345 25.9302 230.593 26.0118 228.425 29.1162C226.872 31.3404 227.496 32.1466 228.167 33.0142C228.796 33.8296 229.469 34.6996 228.417 36.8516C227.786 38.1428 227.121 42.989 231.198 44.6892C231.974 45.0122 231.963 50.5346 231.957 53.0474V53.5354C227.855 51.7306 223.549 45.3454 215.282 30.6088C213.424 27.2952 211.896 25.809 210.915 24.8546C210.789 24.7328 210.672 24.6196 210.565 24.5124C210.439 25.1438 210.295 25.7642 210.137 26.3744ZM233.582 52.9064C233.582 52.8644 233.531 53.2858 233.825 53.7198L233.827 53.7178H233.831C236.143 57.1136 238.072 56.1116 238.703 52.0532C239.024 49.991 237.959 49.5908 236.802 49.1552C236.095 48.8892 235.353 48.6098 234.869 47.9302C234.133 46.8922 234.643 47.1092 235.728 47.5714C237.758 48.435 241.793 50.1534 243.463 46.1418C244.713 43.1486 244.486 37.646 244.21 36.4614C243.528 33.5646 240.317 32.6528 239.959 33.8456C239.225 36.2646 237.722 38.2246 236.125 40.1152C235.311 41.0838 235.02 41.0144 234.292 39.9412C233.402 38.6332 231.328 39.0296 231.894 40.9326C232.253 42.136 232.817 42.5836 233.173 42.8676C233.536 43.1552 233.685 43.2746 233.194 43.8422C232.754 44.352 232.865 44.9346 233.081 46.0802C233.328 47.3844 233.714 49.4186 233.582 52.9064Z" fill="#191919"/>
<path d="M108.408 40.0376C107.71 40.0878 107.658 40.6936 107.587 41.222C107.434 42.3644 109.006 42.4734 108.987 40.9368C108.983 40.5114 109.037 39.9956 108.404 40.0376H108.408Z" fill="#191919"/>
<path d="M102.241 40.2262C102.168 41.3288 103.489 41.1548 103.629 40.1486C103.736 38.5514 102.333 38.8238 102.241 40.2262Z" fill="#191919"/>
<path d="M140.927 28.0898C142.128 29.0144 144.977 23.7024 143.903 23.5662C143.448 23.889 140.245 27.5658 140.927 28.0898Z" fill="#191919"/>
<path d="M76.9123 23.5616C78.8283 22.9872 75.0926 16.8998 75.1954 19.7632C75.3442 20.4738 76.2143 23.7712 76.9123 23.5616Z" fill="#191919"/>
<path d="M74.7824 24.4154C76.6984 23.841 72.963 17.7536 73.0656 20.617C73.2144 21.3276 74.0844 24.625 74.7824 24.4154Z" fill="#191919"/>
<path d="M78.4151 23.2144C80.4129 23.1726 78.4361 16.3094 77.7715 19.0954C77.7255 19.8228 77.6857 23.2312 78.4151 23.2144Z" fill="#191919"/>
<path d="M141.6 21.9108C141.323 21.8604 141.319 22.1058 141.254 22.2608C140.581 23.8414 138.761 26.3674 139.453 26.7888C140.816 27.6146 142.388 22.0576 141.6 21.9128V21.9108Z" fill="#191919"/>
<path d="M137.984 25.9054C138.512 25.9872 138.763 25.6328 138.818 25.2032C140.044 15.0866 136.68 25.702 137.984 25.9054Z" fill="#191919"/>
<path fill-rule="evenodd" clip-rule="evenodd" d="M133.4 33.1736C129.877 38.1666 122.74 46.823 118.642 51.2284C117.556 38.131 116.562 34.077 112.07 31.444C108.029 29.0752 97.388 28.9432 100.107 49.589C100.239 50.6018 100.149 51.9338 100.058 53.2642C100.018 53.8528 99.9786 54.4412 99.958 55.0016C97.6132 53.37 95.6398 49.9132 91.6934 43C90.3866 40.7108 88.8636 38.0426 87.039 34.9364C85.1818 31.7742 83.6542 30.3544 82.673 29.4426C81.624 28.4676 81.1994 28.0728 81.6642 26.7506C82.7584 23.6376 81.2094 17.4348 80.5826 19.506C80.2436 20.6238 80.3688 21.5784 80.475 22.3898C80.5266 22.7832 80.5738 23.1434 80.5616 23.472C80.5368 24.092 80.4168 24.7026 80.2964 25.3132C80.1084 26.2676 79.9206 27.222 80.0984 28.2116C80.1444 28.4674 79.9746 28.5658 79.8048 28.5826C79.1258 28.6578 78.5178 28.9654 78.003 29.226C77.3556 29.5536 76.8554 29.8066 76.5474 29.4296C76.4612 29.3246 76.3752 29.2196 76.289 29.1146C74.7972 27.2972 73.309 25.4844 72.4114 23.2708C71.8664 21.9166 70.7282 23.994 71.8202 25.8554C73.356 28.479 74.5066 29.5576 75.1026 30.1162C75.5746 30.5588 75.6986 30.6752 75.3902 30.9744C73.7712 32.5468 76.4736 38.1108 80.1858 45.7542C84.871 55.4008 91.165 68.3596 92.4092 80.7852C93.2412 89.1062 93.1374 90.4648 93.5788 90.6744C93.6678 90.7168 93.7792 90.7122 93.925 90.7088C94.584 90.694 94.5768 90.517 94.4406 87.1706C94.4236 86.7484 94.4042 86.2758 94.3842 85.747C93.7102 67.935 85.6814 52.146 80.6154 42.1834C77.4536 35.9658 75.4462 32.0176 77.1006 31.2638C77.845 30.9242 78.4276 30.6502 78.888 30.4336C80.548 29.6528 80.6194 29.6192 80.9724 29.9556C84.4452 33.2506 87.0162 38.2612 89.4994 43.101C92.6038 49.1518 95.5714 54.9356 99.9936 56.7666C100.117 57.9426 100.509 58.7224 101.501 58.6406C101.971 58.6024 102.045 57.96 102.113 57.3592C102.177 56.8006 102.237 56.2784 102.608 56.3116C103.059 56.3536 102.99 56.9488 102.921 57.5348C102.857 58.088 102.793 58.633 103.17 58.6972C105.24 59.0496 105.334 56.4106 105.422 53.951C105.49 52.0376 105.554 50.2328 106.542 50.0292C107.037 49.9266 108.292 48.782 107.723 48.0106C107.525 47.7446 107.025 48.0314 106.43 48.3722C106.027 48.6034 105.58 48.8598 105.155 48.9854C101.3 50.1214 100.048 44.2584 100.912 41.114C101.205 40.0504 101.384 39.1576 101.535 38.4042C101.964 36.2604 102.167 35.2456 104.14 34.6408C106.794 33.8274 107.211 33.8904 107.534 35.0496C108.272 37.7034 110.435 42.5792 112.458 40.9694C113.213 40.3698 114.431 41.2838 113.582 42.2984C113.148 42.8146 112.734 43.2574 112.346 43.672C110.122 46.0484 108.757 47.5066 109.668 56.6554C109.838 58.3722 110.571 58.9634 112.206 58.823C112.975 58.7578 112.976 58.7366 113.079 56.2632C113.105 55.6266 113.139 54.8276 113.194 53.8234C113.859 54.6478 113.958 55.9242 114.034 56.9102C114.086 57.5882 114.128 58.1288 114.336 58.2906C114.687 58.5632 114.986 58.426 115.385 58.2422C115.679 58.107 116.027 57.9468 116.491 57.9068C119.164 57.6716 119.002 55.6612 118.865 53.9652C118.86 53.907 118.856 53.8492 118.851 53.792C122.31 50.761 125.763 46.0806 129.043 41.635C130.826 39.2178 132.558 36.87 134.212 34.8944C133.937 34.312 133.665 33.7384 133.4 33.1736ZM136.986 40.7826C134.983 46.271 132.821 49.7266 130.83 52.9088C126.349 60.0698 122.734 65.8466 123.75 90.2854C123.752 90.326 123.75 90.369 123.748 90.4126C123.74 90.6208 123.732 90.8412 124.056 90.8724C124.068 90.8734 124.079 90.8744 124.091 90.8756C124.897 90.9566 124.983 90.9652 124.87 78.733C124.754 66.1774 129.624 58.06 133.689 51.2846C134.843 49.361 135.933 47.5456 136.825 45.7676C137.308 44.804 137.716 43.9224 138.062 43.1136C137.702 42.3264 137.343 41.5494 136.986 40.7826Z" fill="#191919"/>
<path d="M207.281 20.8042C207.499 19.9908 207.281 19.3012 206.438 18.8274C204.126 17.5362 204.206 17.5676 202.455 19.6366C195.59 27.7594 187.545 41.972 179.673 46.6318C176.309 48.6254 174.72 47.1852 173.659 48.443C170.704 51.9396 167.827 49.1578 166.721 49.29C153.734 50.8264 148.022 24.9358 137.132 14.3226C136.583 13.7902 136.596 14.0082 132.435 15.9534C131.667 16.312 131.584 16.7962 131.856 17.6536C138.581 38.706 152.267 52.7404 153.416 83.8758C153.634 89.7662 153.758 90.0428 152.858 90.0596C151.802 90.0806 152.236 90.154 151.018 77.6876C148.309 49.9272 125.909 20.0264 130.357 15.593C131.208 14.746 129.366 15.073 126.026 9.20777C124.706 6.88717 126.081 4.29637 126.745 5.98377C127.896 8.90597 129.85 11.26 131.762 13.6622C132.435 14.505 133.854 12.8154 135.719 12.6058C135.929 12.5806 136.132 12.4612 136.078 12.1426C135.728 10.1196 136.564 8.21197 136.64 6.23537C136.69 4.97957 136.057 3.36137 136.669 1.29037C137.432 -1.29023 139.31 6.43857 137.981 10.325C136.891 13.5198 139.843 12.3732 144.507 20.5296C156.734 41.9112 158.596 47.047 165.691 47.4348C165.882 47.4432 166.067 47.4054 166.1 47.137C166.331 45.3134 166.955 41.8944 165.031 41.383C159.744 39.9826 159.801 33.1888 160.568 29.0152C161.237 25.3698 162.912 23.3154 161.472 21.8858C159.763 20.1858 159.524 17.9596 159.304 15.637C158.883 11.1908 164.356 7.65437 168.295 8.14077C176.311 9.13237 175.336 15.7312 178.26 16.4964C179.317 16.7732 179.841 17.8002 180.535 18.5528C182.524 20.7078 182.644 23.3008 182.046 26.0112C181.072 30.4364 180.394 32.7968 176.445 35.7482C173.68 37.813 174.67 39.339 174.418 44.9822C174.32 47.2356 177.873 45.3574 179.661 44.0494C183.231 41.4374 203.874 15.746 203.304 13.7314C201.648 7.89137 204.604 4.16637 204.369 6.34217C204.055 9.31457 205.088 12.22 204.799 15.1884C204.765 15.5342 204.862 15.6998 205.174 15.7942C207.379 16.4544 207.168 17.9868 209.463 15.3728C214.395 9.75497 214.202 8.96677 215.286 9.43197C215.917 9.70457 215.035 13.2702 210.547 17.4942C207.583 20.2842 210.729 22.2002 204.941 34.046C200.042 44.0682 190.247 55.044 190.431 75.1428C190.572 90.6004 190.465 90.374 189.444 90.2756C188.97 90.2294 189.085 89.8332 189.073 89.544C187.121 41.4144 199.21 51.3484 207.298 20.8084H207.285L207.281 20.8042ZM167.765 44.5106C167.599 46.8016 167.274 47.6632 168.479 48.1056C171.15 49.0844 172.802 47.2502 172.705 46.437C172.5 44.7768 172.659 43.1102 172.582 41.4458C172.437 38.312 173.341 35.654 175.69 33.5368C177.518 31.889 179.485 29.3422 177.082 29.273C175.936 29.2394 175.422 30.3044 175.366 28.946C175.213 25.2524 172.393 23.4434 169.769 23.8354C164.738 24.5858 163.849 22.716 163.516 24.0094C161.786 30.7634 160.25 39.8526 167.029 39.274C168.704 39.1294 169.538 37.6516 170.418 38.0394C171.441 38.486 169.733 40.3914 169.379 40.4878C167.182 41.1104 167.756 42.5358 167.756 44.5126H167.76L167.765 44.5106ZM166.637 10.6038C165.509 10.7276 164.469 10.935 164.473 12.2054C164.482 13.9768 166.943 12.2222 170.59 15.0668C172.634 16.66 171.374 10.7528 166.637 10.608V10.6038Z" fill="#191919"/>
<path d="M128.035 1.12996C128.641 3.60976 131.102 6.84216 130.1 7.50656C129.559 7.86516 129.377 7.39136 129.06 7.03296C127.731 5.52576 127.582 3.58676 127.144 1.75676C126.702 -0.0964409 127.937 0.721159 128.039 1.12996H128.035Z" fill="#191919"/>
<path d="M213.525 6.35217C214.829 6.52197 211.37 13.146 209.913 11.991C209.087 11.339 212.976 6.75257 213.525 6.35217Z" fill="#191919"/>
<path d="M130.122 1.61956C130.003 -1.95024 134.531 5.63596 132.206 6.35496C131.359 6.61496 130.299 2.50836 130.122 1.61956Z" fill="#191919"/>
<path d="M208.125 10.3682C207.287 9.84418 209.496 6.69778 210.31 4.72538C210.391 4.53458 210.396 4.22638 210.727 4.29138C211.681 4.46958 209.773 11.3996 208.121 10.3682H208.125Z" fill="#191919"/>
<path d="M207.849 4.34177C207.87 5.72097 207.511 7.04577 207.35 8.40017C207.287 8.93257 206.983 9.37477 206.34 9.27417C204.96 9.05197 207.776 -0.657833 207.847 4.34177H207.849Z" fill="#191919"/>
<path d="M133.98 4.30598C133.925 2.94358 133.579 2.42778 133.439 1.24339C133.332 0.360985 133.613 -0.787815 134.426 0.765585C136.738 5.17399 134.107 7.37918 133.98 4.30398V4.30598Z" fill="#191919"/>
<path d="M165.448 27.967C165.329 29.4072 163.698 29.8326 163.756 28.2102C163.782 27.5372 163.918 26.9106 164.74 26.8854C165.383 26.8644 165.442 27.3634 165.446 27.967H165.448Z" fill="#191919"/>
<path d="M170.357 29.4834C170.523 28.888 170.527 28.125 171.357 28.1376C173.062 28.1628 170.743 32.307 170.357 29.4834Z" fill="#191919"/>
<path d="M170.814 126.385C188.703 126.611 203.823 141.492 203.222 160.411C202.656 178.185 187.936 192.888 169.456 192.525C151.751 192.179 136.622 177.063 137.291 158.26C137.909 140.924 152.296 126.154 170.816 126.385H170.814ZM173.497 145.7C173.839 145.899 173.692 145.7 173.579 148.94C172.992 165.436 172.468 170.108 172.591 178.797C172.625 181.204 175.457 181.545 175.845 178.963C176.3 175.934 177.054 156.172 177.128 154.349C177.635 141.673 179.121 135.067 171.579 142.696C164.406 149.949 152.885 160.717 155.027 162.411C156.905 163.893 168.236 151.345 173.499 145.706V145.697L173.497 145.7Z" fill="#04D2A5"/>
<path d="M300.659 119.455C296.502 118.868 283.499 119.455 278.225 119.641C253.982 120.484 255.98 120.92 256.158 118.836C257.393 104.517 255.391 103.521 257.158 103.666C258.738 103.798 260.306 103.513 261.893 103.576C264.117 103.666 264.717 102.894 264.91 100.628C265.025 99.2364 265.124 92.5452 264.296 90.2916C262.711 85.9902 82.7176 89.7886 77.7474 89.973C75.7832 90.0464 75.123 93.0356 75.188 94.0188C75.4268 97.7626 74.1776 103.926 77.5084 103.62C79.437 103.446 81.3592 103.739 83.2836 103.661C84.9396 103.599 82.7678 105.229 84.0298 118.972C84.2122 120.962 84.9458 120.387 64.275 119.691C42.4594 118.96 37.7407 118.383 38.7531 121.771C34.7745 157.889 85.8514 217.364 123.712 220.946C131.633 221.697 135.723 219.963 138.415 220.179C138.84 220.324 142.423 222.573 142.473 222.875C143.691 229.843 142.857 230.235 145.825 237.05C148.858 244.013 155.208 248.822 160.339 250.245C163.257 251.054 163.205 250.122 162.959 254.224C162.725 258.142 161.366 261.209 160.004 265.546C158.207 271.254 153.491 274.557 148.053 277.174C143.309 279.456 142.645 282.617 142.724 287.303C142.802 291.707 146.55 290.139 146.621 292.239C146.663 293.503 147.393 297.436 145.489 301.278C144.165 303.953 135.809 309.256 129.858 308.672C129.003 308.586 126.412 308.581 126.386 309.808C126.181 318.356 126.441 318.262 125.112 318.216C116.568 317.906 116.035 317.667 115.8 319.639C115.111 325.435 114.918 365.119 115.362 379.885C115.444 382.556 114.792 380.558 107.64 381.73C105.332 382.109 107.153 385.899 106.761 389.192C106.583 390.699 106.787 391.71 108.153 391.982C108.426 392.037 222.159 391.953 229.94 391.896C233.47 391.871 233.494 391.555 233.387 388.463C233.135 381.044 236.351 381.495 225.58 381.346C224.17 381.325 225.779 381.338 224.92 333.348C224.652 318.501 224.635 317.815 222.191 318.046C219.839 318.268 217.485 318.092 215.133 318.212C214.386 318.249 214.145 318.042 214.133 317.266C214.064 311.868 213.713 309.091 213.076 308.936C210.567 308.309 207.228 309.064 204.524 308.02C202.299 307.164 200.342 305.808 198.224 304.75C193.284 302.28 193.019 297.155 193.778 291.589C193.969 290.179 198.587 291.644 197.378 284.374C195.598 273.683 184.767 279.727 179.228 262.865C178.432 260.441 175.954 251.117 177.822 250.713C190.213 248.042 196.983 236.456 197.26 223.782C197.294 222.143 198.027 222.577 200.996 220.464C204.257 218.139 223.545 231.226 262.925 195.982C301.189 161.738 304.034 119.939 300.661 119.461L300.653 119.457L300.659 119.455ZM79.8018 100.668C78.5628 100.681 78.217 100.4 78.196 99.1524C78.0808 90.9666 77.5398 91.822 86.9142 91.8388C118.326 91.8932 259.216 91.8554 259.369 91.8638C262.415 92.0588 262.164 92.8428 262.095 99.4628C262.086 100.314 261.612 100.727 260.761 100.681C260.719 100.681 79.8394 100.664 79.7976 100.664L79.8018 100.668ZM116.729 201.003C99.6069 195.879 97.5881 191.777 96.1061 191.819C77.3197 178.841 58.9923 155.849 53.3661 135.797C52.7351 133.548 53.8944 135.566 85.122 134.413C86.0128 134.38 86.3733 135.35 86.7151 136.428C95.4752 182.258 120.423 201.428 116.733 200.998L116.729 201.003ZM76.1647 190.683C43.4927 158.449 39.3004 121.901 42.2184 122.062C78.303 124.138 83.9753 122.662 84.6692 124.205C85.537 130.858 85.7172 130.879 85.5978 131.296C85.4532 131.627 61.1409 131.837 61.0991 131.837C50.8253 131.824 49.1987 131.764 50.1105 135.271C52.9299 146.123 57.6844 157.036 68.2556 170.575C95.9448 206.034 120.529 204.382 121.947 205.927C126.309 210.681 129.877 213.435 134.346 217.146C115.362 217.196 99.4035 213.607 76.1647 190.678V190.683ZM230.263 383.79C232.014 383.748 230.454 386.048 231.263 389.578C100.489 388.968 109.015 390.316 109.143 388.863C109.535 384.392 108.594 383.769 109.881 383.79C113.224 383.849 228.943 383.824 230.267 383.79H230.263ZM221.537 322.215C220.361 341.063 222.128 381.296 220.962 381.281C114.023 380.17 118.674 382.172 118.704 380.6C119.926 321.444 117.985 321.431 119.463 321.436C228.312 321.891 221.629 320.738 221.539 322.211V322.215H221.537ZM209.905 310.81C211.556 310.785 210.751 311.024 211.429 317.564C211.527 318.501 217.591 318.57 129.468 318.245C128.283 318.241 129.195 317.734 129.254 311.72C129.275 309.602 129.262 312.086 209.898 310.808H209.902L209.905 310.81ZM198.797 308.399C137.721 308.399 140.198 308.701 142.601 307.777C150.434 304.764 149.663 297.49 149.663 291.625C178.132 299.731 191.152 288.954 190.76 292.822C189.443 305.783 196.556 306.942 198.797 308.397V308.399ZM191.548 280.515C195.065 282.158 195.747 287.219 193.034 288.08C175.43 293.661 163.203 292.923 148.07 288.303C145.902 287.642 145.353 286.615 145.749 284.397C146.2 281.888 147.999 280.76 150.088 279.865C150.803 279.559 158.488 282.578 174.233 281.437C191.525 280.182 186.93 278.362 191.546 280.521V280.517L191.548 280.515ZM185.261 277.381C175.027 279.012 164.957 278.932 154.522 277.608C164.003 271.292 166.666 257.976 165.163 251.379C168.523 251.742 171.78 251.78 174.801 251.4C174.591 261.567 176.535 270.707 185.265 277.381H185.261ZM161.341 246.663C154.675 244.967 150.988 240.376 148.202 234.651C146.988 232.151 145.177 225.273 145.552 224.097C161.936 232.595 178.335 232.603 194.883 224.024C193.208 241.533 181.241 251.717 161.341 246.661L161.341 246.663ZM140.794 217.59C140.827 217.548 138.102 215.729 138.28 215.844C103.569 193.045 85.8032 144.305 87.1448 104.248C87.1742 103.353 87.149 103.873 139.618 104.492C212.036 105.347 253.104 103.005 253.16 104.198C256.236 173.026 197.055 253.539 140.798 217.586L140.794 217.59ZM255.097 134.407C286.688 135.545 287.62 133.577 286.998 135.799C278.416 166.377 242.818 199.542 222.828 201.084C254.269 161.635 251.404 134.275 255.095 134.411V134.407H255.097ZM264.195 190.685C234.674 219.81 214.852 217.152 205.886 217.152C218.608 207.122 217.65 205.566 219.652 205.338C253.991 201.407 285.99 158.751 290.337 134.635C290.857 131.766 288.681 131.833 279.259 131.841C274.747 131.845 263.103 131.51 255.76 131.564C254.072 131.577 254.699 131.59 255.577 124.639C255.879 122.261 258.694 124.379 298.123 122.062C300.963 121.897 297.095 158.222 264.193 190.683V190.687L264.195 190.685Z" fill="#191919"/>
<path d="M72.214 56.7498C72.2642 58.9174 57.1966 60.8166 54.7774 61.2294C54.1632 61.3364 53.7042 62.0722 52.9328 61.5922C47.9416 58.4792 72.147 53.9262 72.214 56.7498Z" fill="#04D2A5"/>
<path d="M47.9789 48.1798C47.1403 48.23 46.2075 47.2386 47.0921 46.1192C56.2757 34.5082 60.0071 33.873 58.6591 37.1578C57.9527 38.883 50.1485 47.8612 47.9725 48.1798H47.9789Z" fill="#04D2A5"/>
<path d="M34.3913 88.0712C33.8379 95.9132 34.1145 99.286 32.5215 99.3364C31.8025 99.3572 31.2867 98.7744 31.2427 98.0678C31.0813 95.3344 30.6641 92.6072 31.0435 89.8528C31.4649 86.7986 30.6139 84.0692 32.6703 84.0042C34.7267 83.9392 34.3913 86.2054 34.3913 88.0712Z" fill="#04D2A5"/>
<path d="M45.3797 83.27C45.1283 82.2994 45.2225 80.7692 46.2183 80.702C51.6413 80.3436 52.9471 112.326 45.3797 83.27Z" fill="#04D2A5"/>
<path d="M16.8061 80.59C17.3973 80.0408 18.1059 79.4832 18.9653 80.412C19.8247 81.3406 19.2293 82.0764 18.7347 82.7556C9.66628 95.1024 2.56648 93.8718 16.8061 80.5922V80.59Z" fill="#04D2A5"/>
<path d="M53.4124 75.3852C51.8884 74.7584 51.6872 72.4042 53.9364 72.7522C59.6004 73.6306 66.1952 77.8168 65.4574 79.4058C64.6148 81.2294 54.4856 75.8274 53.4124 75.3894V75.3852Z" fill="#04D2A5"/>
<path d="M31.7644 38.1118C31.7644 37.4096 31.2362 29.0392 33.412 29.2488C35.525 29.4544 34.5544 41.405 34.2946 43.5096C34.2002 44.2558 33.8774 45.0294 32.8942 44.9664C31.4752 44.8722 31.7706 43.4718 31.7624 38.1138H31.7666L31.7644 38.1118Z" fill="#04D2A5"/>
<path d="M0.0023183 73.3058C0.0757183 72.654 0.465518 72.1174 1.13432 72.002C5.58052 71.239 13.2819 67.841 13.2945 70.52C13.2945 71.1028 13.3491 71.6478 12.5923 71.87C12.5421 71.8826 -0.330882 76.3412 0.00651828 73.31L0.0023183 73.3058Z" fill="#04D2A5"/>
<path d="M2.36688 52.9056C2.14048 52.807 0.467675 51.763 0.884875 50.6856C1.45508 49.2078 14.5061 53.855 13.3595 56.4356C12.6741 57.9826 10.1691 56.3538 2.36688 52.9014V52.9056Z" fill="#04D2A5"/>
<path d="M20.5016 46.5326C20.3192 50.4294 13.584 41.7238 11.1816 37.2734C10.1252 35.3092 14.9548 36.3574 20.2332 45.6814C20.3946 45.9666 20.4974 46.2182 20.5016 46.5284V46.5326Z" fill="#04D2A5"/>
<path d="M86.384 304.509C86.7466 303.337 99.651 310.722 105.703 295.841C106.392 294.149 107.002 292.315 106.571 290.334C106.464 289.839 106.749 289.158 106.749 288.558C106.749 286.634 105.749 290.271 99.1416 288.133C95.253 286.877 93.379 282.63 96.1942 280.691C99.5964 278.347 105.223 278.962 107.625 283.139C107.996 283.783 108.277 283.915 108.768 283.198C110.088 281.265 110.151 279.272 109.482 277.073C108.723 274.585 108.652 271.818 106.931 272.193C97.5737 274.233 92.6454 268.065 97.1564 265.535C101.928 262.856 107.311 267.363 108.017 268.355C108.877 269.556 113.972 263.644 107.715 256.574C107.348 256.161 105.671 256.037 106.003 255.167C106.944 252.715 113.853 258.127 113.367 264.06C112.813 270.788 109.38 269.26 110.522 272.002C112.631 277.054 113.474 282.14 109.654 286.057C108.147 287.604 110.579 290.981 107.908 297.583C101.745 312.801 85.5726 307.143 86.3902 304.496L86.3818 304.504L86.384 304.509ZM106.263 269.963C106.313 270.078 106.288 270.048 106.369 270.053C106.093 269.883 106.336 269.644 106.151 269.438C104.294 267.374 101.041 265.609 98.2675 267.066C95.1841 268.684 101.678 271.524 106.263 269.967V269.963ZM103.217 286.573C103.89 286.82 104.546 285.946 105.445 285.917C107.48 285.854 102.829 279.069 97.5066 282.672C96.2592 283.515 98.1019 286.514 103.219 286.573H103.217Z" fill="#04D2A5"/>
<path d="M270.725 253.727C268.05 247.13 270.486 243.751 268.979 242.202C265.158 238.284 266.002 233.199 268.111 228.147C269.254 225.409 265.82 226.933 265.267 220.204C264.78 214.268 271.689 208.853 272.631 211.312C272.962 212.18 271.281 212.303 270.918 212.719C264.661 219.789 269.755 225.701 270.616 224.499C271.323 223.508 276.708 219.001 281.477 221.68C285.988 224.21 281.06 230.377 271.702 228.338C269.981 227.962 269.91 230.731 269.151 233.218C268.482 235.414 268.545 237.408 269.866 239.343C270.356 240.058 270.637 239.926 271.008 239.284C273.41 235.106 279.037 234.492 282.439 236.836C285.254 238.773 283.38 243.015 279.492 244.277C272.886 246.416 271.88 242.779 271.884 244.703C271.884 245.302 272.17 245.986 272.063 246.478C271.633 248.459 272.241 250.289 272.93 251.985C278.982 266.862 291.889 259.481 292.249 260.653C293.063 263.303 276.894 268.958 270.731 253.74L270.723 253.731L270.725 253.727ZM280.364 223.198C277.59 221.741 274.337 223.504 272.48 225.571C272.297 225.776 272.538 226.017 272.262 226.185C272.344 226.185 272.316 226.214 272.369 226.095C276.951 227.654 283.447 224.812 280.364 223.193V223.198ZM281.123 238.808C275.798 235.205 271.147 241.99 273.184 242.053C274.083 242.083 274.744 242.957 275.412 242.709C280.523 242.651 282.372 239.655 281.125 238.808H281.123Z" fill="#04D2A5"/>
<path d="M249.136 239.538C249.102 241.217 247.109 245.37 246.019 252.469C245.614 255.107 244.69 255.8 242.08 255.272C226.444 252.094 232.792 250.579 238.757 237.716C239.059 237.068 239.43 236.383 240.38 236.588C245.103 237.607 249.498 236.985 249.14 239.54H249.136V239.538Z" fill="#04D2A5"/>
<path d="M27.6583 113.465C27.6249 115.144 25.6313 119.296 24.5413 126.396C24.1367 129.033 23.2123 129.727 20.6025 129.199C4.96666 126.021 11.3141 124.506 17.2799 111.643C17.5817 110.995 17.9529 110.31 18.9023 110.515C23.6253 111.534 28.0211 110.911 27.6625 113.467H27.6583V113.465Z" fill="#04D2A5"/>
<path d="M223.837 113.997C225.174 115.012 227.358 119.07 232.461 124.126C234.356 126.004 234.372 127.159 232.406 128.96C220.642 139.737 223.147 133.714 216.255 121.319C215.904 120.693 215.569 119.99 216.296 119.343C219.9 116.123 221.981 112.201 223.834 113.993V113.997H223.837Z" fill="#04D2A5"/>
<path d="M90.072 205.319C90.1182 207.201 77.0124 208.853 74.91 209.216C74.3774 209.306 73.977 209.954 73.3042 209.53C68.965 206.822 90.009 202.864 90.0678 205.319H90.072Z" fill="#04D2A5"/>
<path d="M69.0025 197.869C68.2709 197.911 67.4659 197.051 68.2351 196.077C76.2177 185.983 79.4627 185.432 78.2951 188.283C77.6809 189.782 70.8933 197.59 69.0067 197.871H69.0025V197.869Z" fill="#04D2A5"/>
<path d="M57.1882 232.551C56.706 239.366 56.9491 242.305 55.5655 242.347C54.9387 242.368 54.4881 241.856 54.4545 241.244C54.3141 238.867 53.9516 236.5 54.2806 234.102C54.6476 231.444 53.9054 229.071 55.6956 229.017C57.4858 228.962 57.1901 230.933 57.1901 232.551H57.1882Z" fill="#04D2A5"/>
<path d="M66.7409 228.38C66.5187 227.537 66.6047 226.204 67.4683 226.147C72.1829 225.837 73.3211 253.645 66.7409 228.38Z" fill="#04D2A5"/>
<path d="M41.9003 226.051C42.4161 225.568 43.0281 225.088 43.7787 225.898C44.5293 226.707 44.0091 227.346 43.5795 227.933C35.6955 238.666 29.5201 237.601 41.9003 226.055V226.051Z" fill="#04D2A5"/>
<path d="M73.7295 221.525C72.4005 220.98 72.2307 218.936 74.1843 219.234C79.1083 219.997 84.8415 223.638 84.2023 225.017C83.4707 226.602 74.6665 221.908 73.7295 221.525Z" fill="#04D2A5"/>
<path d="M54.9034 189.117C54.9034 188.507 54.4444 181.229 56.3394 181.412C58.1756 181.59 57.3308 191.983 57.1066 193.811C57.0248 194.459 56.744 195.132 55.8886 195.075C54.6582 194.993 54.914 193.775 54.9056 189.115L54.9034 189.117Z" fill="#04D2A5"/>
<path d="M27.2871 219.714C27.3501 219.148 27.6875 218.678 28.2703 218.582C32.1379 217.917 38.8291 214.966 38.8415 217.29C38.8415 217.798 38.8919 218.269 38.2273 218.462C38.1855 218.475 26.9915 222.351 27.2809 219.714L27.2871 219.714Z" fill="#04D2A5"/>
<path d="M29.3433 201.975C29.1485 201.889 27.6957 200.984 28.0563 200.047C28.5551 198.76 39.9021 202.799 38.9043 205.046C38.3089 206.388 36.1267 204.977 29.3475 201.975H29.3433Z" fill="#04D2A5"/>
<path d="M45.1115 196.433C44.9543 199.818 39.0973 192.255 37.0095 188.383C36.0893 186.679 40.2901 187.587 44.8767 195.697C45.0171 195.949 45.1073 196.167 45.1115 196.435V196.433Z" fill="#04D2A5"/>
<path d="M224.546 313.368C226.374 313.368 234.767 312.139 234.824 314.738C235.041 324.721 234.824 334.73 234.824 344.716" stroke="black" stroke-width="3" stroke-linecap="round"/>
<path d="M112.024 314.111C109.716 314.111 107.356 313.957 105.054 314.111C102.153 314.304 104.026 319.641 104.341 321.24C105.823 328.776 106.321 336.381 106.321 344.053" stroke="black" stroke-width="3" stroke-linecap="round"/>
<path d="M303.427 153.83C306.301 149.851 307.001 144.108 307.678 139.415C308.764 131.896 309.421 124.397 309.755 116.813C309.892 113.676 310.141 113.61 307.006 113.61C304.033 113.61 301.061 113.61 298.088 113.61" stroke="black" stroke-width="3" stroke-linecap="round"/>
<path d="M42.6774 115C38.9004 115 35.1234 115 31.3464 115C28.359 115 29.8917 124.735 29.9866 126.728C30.428 135.996 31.913 145.708 34.7457 154.546C35.2718 156.187 36.3193 160.516 38.0884 161.401" stroke="black" stroke-width="3" stroke-linecap="round"/>
</svg>
