<svg width="116" height="115" viewBox="0 0 116 115" fill="none" xmlns="http://www.w3.org/2000/svg">
<path d="M4 5.67188C4.92335 5.67188 5.67188 4.92335 5.67188 4C5.67188 3.07665 4.92335 2.32812 4 2.32812C3.07665 2.32812 2.32812 3.07665 2.32812 4C2.32812 4.92335 3.07665 5.67188 4 5.67188Z" fill="white"/>
<path d="M30.75 5.67188C31.6734 5.67188 32.4219 4.92335 32.4219 4C32.4219 3.07665 31.6734 2.32812 30.75 2.32812C29.8266 2.32812 29.0781 3.07665 29.0781 4C29.0781 4.92335 29.8266 5.67188 30.75 5.67188Z" fill="white"/>
<path d="M57.5 5.67188C58.4234 5.67188 59.1719 4.92335 59.1719 4C59.1719 3.07665 58.4234 2.32812 57.5 2.32812C56.5766 2.32812 55.8281 3.07665 55.8281 4C55.8281 4.92335 56.5766 5.67188 57.5 5.67188Z" fill="white"/>
<path d="M84.25 5.67188C85.1734 5.67188 85.9219 4.92335 85.9219 4C85.9219 3.07665 85.1734 2.32812 84.25 2.32812C83.3266 2.32812 82.5781 3.07665 82.5781 4C82.5781 4.92335 83.3266 5.67188 84.25 5.67188Z" fill="white"/>
<path d="M111 5.67188C111.923 5.67188 112.672 4.92335 112.672 4C112.672 3.07665 111.923 2.32812 111 2.32812C110.077 2.32812 109.328 3.07665 109.328 4C109.328 4.92335 110.077 5.67188 111 5.67188Z" fill="white"/>
<path d="M4 23.5052C4.92335 23.5052 5.67188 22.7567 5.67188 21.8333C5.67188 20.91 4.92335 20.1614 4 20.1614C3.07665 20.1614 2.32812 20.91 2.32812 21.8333C2.32812 22.7567 3.07665 23.5052 4 23.5052Z" fill="white"/>
<path d="M30.75 23.5052C31.6734 23.5052 32.4219 22.7567 32.4219 21.8333C32.4219 20.91 31.6734 20.1614 30.75 20.1614C29.8266 20.1614 29.0781 20.91 29.0781 21.8333C29.0781 22.7567 29.8266 23.5052 30.75 23.5052Z" fill="white"/>
<path d="M57.5 23.5052C58.4234 23.5052 59.1719 22.7567 59.1719 21.8333C59.1719 20.91 58.4234 20.1614 57.5 20.1614C56.5766 20.1614 55.8281 20.91 55.8281 21.8333C55.8281 22.7567 56.5766 23.5052 57.5 23.5052Z" fill="white"/>
<path d="M84.25 23.5052C85.1734 23.5052 85.9219 22.7567 85.9219 21.8333C85.9219 20.91 85.1734 20.1614 84.25 20.1614C83.3266 20.1614 82.5781 20.91 82.5781 21.8333C82.5781 22.7567 83.3266 23.5052 84.25 23.5052Z" fill="white"/>
<path d="M111 23.5052C111.923 23.5052 112.672 22.7567 112.672 21.8333C112.672 20.91 111.923 20.1614 111 20.1614C110.077 20.1614 109.328 20.91 109.328 21.8333C109.328 22.7567 110.077 23.5052 111 23.5052Z" fill="white"/>
<path d="M4 41.3386C4.92335 41.3386 5.67188 40.59 5.67188 39.6667C5.67188 38.7433 4.92335 37.9948 4 37.9948C3.07665 37.9948 2.32812 38.7433 2.32812 39.6667C2.32812 40.59 3.07665 41.3386 4 41.3386Z" fill="white"/>
<path d="M30.75 41.3386C31.6734 41.3386 32.4219 40.59 32.4219 39.6667C32.4219 38.7433 31.6734 37.9948 30.75 37.9948C29.8266 37.9948 29.0781 38.7433 29.0781 39.6667C29.0781 40.59 29.8266 41.3386 30.75 41.3386Z" fill="white"/>
<path d="M57.5 41.3386C58.4234 41.3386 59.1719 40.59 59.1719 39.6667C59.1719 38.7433 58.4234 37.9948 57.5 37.9948C56.5766 37.9948 55.8281 38.7433 55.8281 39.6667C55.8281 40.59 56.5766 41.3386 57.5 41.3386Z" fill="white"/>
<path d="M84.25 41.3386C85.1734 41.3386 85.9219 40.59 85.9219 39.6667C85.9219 38.7433 85.1734 37.9948 84.25 37.9948C83.3266 37.9948 82.5781 38.7433 82.5781 39.6667C82.5781 40.59 83.3266 41.3386 84.25 41.3386Z" fill="white"/>
<path d="M111 41.3386C111.923 41.3386 112.672 40.59 112.672 39.6667C112.672 38.7433 111.923 37.9948 111 37.9948C110.077 37.9948 109.328 38.7433 109.328 39.6667C109.328 40.59 110.077 41.3386 111 41.3386Z" fill="white"/>
<path d="M4 59.1719C4.92335 59.1719 5.67188 58.4234 5.67188 57.5C5.67188 56.5766 4.92335 55.8281 4 55.8281C3.07665 55.8281 2.32812 56.5766 2.32812 57.5C2.32812 58.4234 3.07665 59.1719 4 59.1719Z" fill="white"/>
<path d="M30.75 59.1719C31.6734 59.1719 32.4219 58.4234 32.4219 57.5C32.4219 56.5766 31.6734 55.8281 30.75 55.8281C29.8266 55.8281 29.0781 56.5766 29.0781 57.5C29.0781 58.4234 29.8266 59.1719 30.75 59.1719Z" fill="white"/>
<path d="M57.5 59.1719C58.4234 59.1719 59.1719 58.4234 59.1719 57.5C59.1719 56.5766 58.4234 55.8281 57.5 55.8281C56.5766 55.8281 55.8281 56.5766 55.8281 57.5C55.8281 58.4234 56.5766 59.1719 57.5 59.1719Z" fill="white"/>
<path d="M84.25 59.1719C85.1734 59.1719 85.9219 58.4234 85.9219 57.5C85.9219 56.5766 85.1734 55.8281 84.25 55.8281C83.3266 55.8281 82.5781 56.5766 82.5781 57.5C82.5781 58.4234 83.3266 59.1719 84.25 59.1719Z" fill="white"/>
<path d="M111 59.1719C111.923 59.1719 112.672 58.4234 112.672 57.5C112.672 56.5766 111.923 55.8281 111 55.8281C110.077 55.8281 109.328 56.5766 109.328 57.5C109.328 58.4234 110.077 59.1719 111 59.1719Z" fill="white"/>
<path d="M4 77.0052C4.92335 77.0052 5.67188 76.2567 5.67188 75.3333C5.67188 74.41 4.92335 73.6614 4 73.6614C3.07665 73.6614 2.32812 74.41 2.32812 75.3333C2.32812 76.2567 3.07665 77.0052 4 77.0052Z" fill="white"/>
<path d="M30.75 77.0052C31.6734 77.0052 32.4219 76.2567 32.4219 75.3333C32.4219 74.41 31.6734 73.6614 30.75 73.6614C29.8266 73.6614 29.0781 74.41 29.0781 75.3333C29.0781 76.2567 29.8266 77.0052 30.75 77.0052Z" fill="white"/>
<path d="M57.5 77.0052C58.4234 77.0052 59.1719 76.2567 59.1719 75.3333C59.1719 74.41 58.4234 73.6614 57.5 73.6614C56.5766 73.6614 55.8281 74.41 55.8281 75.3333C55.8281 76.2567 56.5766 77.0052 57.5 77.0052Z" fill="white"/>
<path d="M84.25 77.0052C85.1734 77.0052 85.9219 76.2567 85.9219 75.3333C85.9219 74.41 85.1734 73.6614 84.25 73.6614C83.3266 73.6614 82.5781 74.41 82.5781 75.3333C82.5781 76.2567 83.3266 77.0052 84.25 77.0052Z" fill="white"/>
<path d="M111 77.0052C111.923 77.0052 112.672 76.2567 112.672 75.3333C112.672 74.41 111.923 73.6614 111 73.6614C110.077 73.6614 109.328 74.41 109.328 75.3333C109.328 76.2567 110.077 77.0052 111 77.0052Z" fill="white"/>
<path d="M4 94.8386C4.92335 94.8386 5.67188 94.09 5.67188 93.1667C5.67188 92.2433 4.92335 91.4948 4 91.4948C3.07665 91.4948 2.32812 92.2433 2.32812 93.1667C2.32812 94.09 3.07665 94.8386 4 94.8386Z" fill="white"/>
<path d="M30.75 94.8386C31.6734 94.8386 32.4219 94.09 32.4219 93.1667C32.4219 92.2433 31.6734 91.4948 30.75 91.4948C29.8266 91.4948 29.0781 92.2433 29.0781 93.1667C29.0781 94.09 29.8266 94.8386 30.75 94.8386Z" fill="white"/>
<path d="M57.5 94.8386C58.4234 94.8386 59.1719 94.09 59.1719 93.1667C59.1719 92.2433 58.4234 91.4948 57.5 91.4948C56.5766 91.4948 55.8281 92.2433 55.8281 93.1667C55.8281 94.09 56.5766 94.8386 57.5 94.8386Z" fill="white"/>
<path d="M84.25 94.8386C85.1734 94.8386 85.9219 94.09 85.9219 93.1667C85.9219 92.2433 85.1734 91.4948 84.25 91.4948C83.3266 91.4948 82.5781 92.2433 82.5781 93.1667C82.5781 94.09 83.3266 94.8386 84.25 94.8386Z" fill="white"/>
<path d="M111 94.8386C111.923 94.8386 112.672 94.09 112.672 93.1667C112.672 92.2433 111.923 91.4948 111 91.4948C110.077 91.4948 109.328 92.2433 109.328 93.1667C109.328 94.09 110.077 94.8386 111 94.8386Z" fill="white"/>
<path d="M4 112.672C4.92335 112.672 5.67188 111.923 5.67188 111C5.67188 110.077 4.92335 109.328 4 109.328C3.07665 109.328 2.32812 110.077 2.32812 111C2.32812 111.923 3.07665 112.672 4 112.672Z" fill="white"/>
<path d="M30.75 112.672C31.6734 112.672 32.4219 111.923 32.4219 111C32.4219 110.077 31.6734 109.328 30.75 109.328C29.8266 109.328 29.0781 110.077 29.0781 111C29.0781 111.923 29.8266 112.672 30.75 112.672Z" fill="white"/>
<path d="M57.5 112.672C58.4234 112.672 59.1719 111.923 59.1719 111C59.1719 110.077 58.4234 109.328 57.5 109.328C56.5766 109.328 55.8281 110.077 55.8281 111C55.8281 111.923 56.5766 112.672 57.5 112.672Z" fill="white"/>
<path d="M84.25 112.672C85.1734 112.672 85.9219 111.923 85.9219 111C85.9219 110.077 85.1734 109.328 84.25 109.328C83.3266 109.328 82.5781 110.077 82.5781 111C82.5781 111.923 83.3266 112.672 84.25 112.672Z" fill="white"/>
<path d="M111 112.672C111.923 112.672 112.672 111.923 112.672 111C112.672 110.077 111.923 109.328 111 109.328C110.077 109.328 109.328 110.077 109.328 111C109.328 111.923 110.077 112.672 111 112.672Z" fill="white"/>
</svg>
