<svg width="745" height="825" viewBox="0 0 745 825" fill="none" xmlns="http://www.w3.org/2000/svg">
<path d="M141 5.67188C141.923 5.67188 142.672 4.92335 142.672 4C142.672 3.07665 141.923 2.32812 141 2.32812C140.077 2.32812 139.328 3.07665 139.328 4C139.328 4.92335 140.077 5.67188 141 5.67188Z" fill="white"/>
<path d="M167.75 5.67188C168.673 5.67188 169.422 4.92335 169.422 4C169.422 3.07665 168.673 2.32812 167.75 2.32812C166.827 2.32812 166.078 3.07665 166.078 4C166.078 4.92335 166.827 5.67188 167.75 5.67188Z" fill="white"/>
<path d="M194.5 5.67188C195.423 5.67188 196.172 4.92335 196.172 4C196.172 3.07665 195.423 2.32812 194.5 2.32812C193.577 2.32812 192.828 3.07665 192.828 4C192.828 4.92335 193.577 5.67188 194.5 5.67188Z" fill="white"/>
<path d="M221.25 5.67188C222.173 5.67188 222.922 4.92335 222.922 4C222.922 3.07665 222.173 2.32812 221.25 2.32812C220.327 2.32812 219.578 3.07665 219.578 4C219.578 4.92335 220.327 5.67188 221.25 5.67188Z" fill="white"/>
<path d="M248 5.67188C248.923 5.67188 249.672 4.92335 249.672 4C249.672 3.07665 248.923 2.32812 248 2.32812C247.077 2.32812 246.328 3.07665 246.328 4C246.328 4.92335 247.077 5.67188 248 5.67188Z" fill="white"/>
<path d="M141 23.5052C141.923 23.5052 142.672 22.7567 142.672 21.8333C142.672 20.91 141.923 20.1614 141 20.1614C140.077 20.1614 139.328 20.91 139.328 21.8333C139.328 22.7567 140.077 23.5052 141 23.5052Z" fill="white"/>
<path d="M167.75 23.5052C168.673 23.5052 169.422 22.7567 169.422 21.8333C169.422 20.91 168.673 20.1614 167.75 20.1614C166.827 20.1614 166.078 20.91 166.078 21.8333C166.078 22.7567 166.827 23.5052 167.75 23.5052Z" fill="white"/>
<path d="M194.5 23.5052C195.423 23.5052 196.172 22.7567 196.172 21.8333C196.172 20.91 195.423 20.1614 194.5 20.1614C193.577 20.1614 192.828 20.91 192.828 21.8333C192.828 22.7567 193.577 23.5052 194.5 23.5052Z" fill="white"/>
<path d="M221.25 23.5052C222.173 23.5052 222.922 22.7567 222.922 21.8333C222.922 20.91 222.173 20.1614 221.25 20.1614C220.327 20.1614 219.578 20.91 219.578 21.8333C219.578 22.7567 220.327 23.5052 221.25 23.5052Z" fill="white"/>
<path d="M248 23.5052C248.923 23.5052 249.672 22.7567 249.672 21.8333C249.672 20.91 248.923 20.1614 248 20.1614C247.077 20.1614 246.328 20.91 246.328 21.8333C246.328 22.7567 247.077 23.5052 248 23.5052Z" fill="white"/>
<path d="M141 41.3386C141.923 41.3386 142.672 40.59 142.672 39.6667C142.672 38.7433 141.923 37.9948 141 37.9948C140.077 37.9948 139.328 38.7433 139.328 39.6667C139.328 40.59 140.077 41.3386 141 41.3386Z" fill="white"/>
<path d="M167.75 41.3386C168.673 41.3386 169.422 40.59 169.422 39.6667C169.422 38.7433 168.673 37.9948 167.75 37.9948C166.827 37.9948 166.078 38.7433 166.078 39.6667C166.078 40.59 166.827 41.3386 167.75 41.3386Z" fill="white"/>
<path d="M194.5 41.3386C195.423 41.3386 196.172 40.59 196.172 39.6667C196.172 38.7433 195.423 37.9948 194.5 37.9948C193.577 37.9948 192.828 38.7433 192.828 39.6667C192.828 40.59 193.577 41.3386 194.5 41.3386Z" fill="white"/>
<path d="M221.25 41.3386C222.173 41.3386 222.922 40.59 222.922 39.6667C222.922 38.7433 222.173 37.9948 221.25 37.9948C220.327 37.9948 219.578 38.7433 219.578 39.6667C219.578 40.59 220.327 41.3386 221.25 41.3386Z" fill="white"/>
<path d="M248 41.3386C248.923 41.3386 249.672 40.59 249.672 39.6667C249.672 38.7433 248.923 37.9948 248 37.9948C247.077 37.9948 246.328 38.7433 246.328 39.6667C246.328 40.59 247.077 41.3386 248 41.3386Z" fill="white"/>
<path d="M141 59.1719C141.923 59.1719 142.672 58.4234 142.672 57.5C142.672 56.5766 141.923 55.8281 141 55.8281C140.077 55.8281 139.328 56.5766 139.328 57.5C139.328 58.4234 140.077 59.1719 141 59.1719Z" fill="white"/>
<path d="M167.75 59.1719C168.673 59.1719 169.422 58.4234 169.422 57.5C169.422 56.5766 168.673 55.8281 167.75 55.8281C166.827 55.8281 166.078 56.5766 166.078 57.5C166.078 58.4234 166.827 59.1719 167.75 59.1719Z" fill="white"/>
<path d="M194.5 59.1719C195.423 59.1719 196.172 58.4234 196.172 57.5C196.172 56.5766 195.423 55.8281 194.5 55.8281C193.577 55.8281 192.828 56.5766 192.828 57.5C192.828 58.4234 193.577 59.1719 194.5 59.1719Z" fill="white"/>
<path d="M221.25 59.1719C222.173 59.1719 222.922 58.4234 222.922 57.5C222.922 56.5766 222.173 55.8281 221.25 55.8281C220.327 55.8281 219.578 56.5766 219.578 57.5C219.578 58.4234 220.327 59.1719 221.25 59.1719Z" fill="white"/>
<path d="M248 59.1719C248.923 59.1719 249.672 58.4234 249.672 57.5C249.672 56.5766 248.923 55.8281 248 55.8281C247.077 55.8281 246.328 56.5766 246.328 57.5C246.328 58.4234 247.077 59.1719 248 59.1719Z" fill="white"/>
<path d="M141 77.0052C141.923 77.0052 142.672 76.2567 142.672 75.3333C142.672 74.41 141.923 73.6614 141 73.6614C140.077 73.6614 139.328 74.41 139.328 75.3333C139.328 76.2567 140.077 77.0052 141 77.0052Z" fill="white"/>
<path d="M167.75 77.0052C168.673 77.0052 169.422 76.2567 169.422 75.3333C169.422 74.41 168.673 73.6614 167.75 73.6614C166.827 73.6614 166.078 74.41 166.078 75.3333C166.078 76.2567 166.827 77.0052 167.75 77.0052Z" fill="white"/>
<path d="M194.5 77.0052C195.423 77.0052 196.172 76.2567 196.172 75.3333C196.172 74.41 195.423 73.6614 194.5 73.6614C193.577 73.6614 192.828 74.41 192.828 75.3333C192.828 76.2567 193.577 77.0052 194.5 77.0052Z" fill="white"/>
<path d="M221.25 77.0052C222.173 77.0052 222.922 76.2567 222.922 75.3333C222.922 74.41 222.173 73.6614 221.25 73.6614C220.327 73.6614 219.578 74.41 219.578 75.3333C219.578 76.2567 220.327 77.0052 221.25 77.0052Z" fill="white"/>
<path d="M248 77.0052C248.923 77.0052 249.672 76.2567 249.672 75.3333C249.672 74.41 248.923 73.6614 248 73.6614C247.077 73.6614 246.328 74.41 246.328 75.3333C246.328 76.2567 247.077 77.0052 248 77.0052Z" fill="white"/>
<path d="M141 94.8386C141.923 94.8386 142.672 94.09 142.672 93.1667C142.672 92.2433 141.923 91.4948 141 91.4948C140.077 91.4948 139.328 92.2433 139.328 93.1667C139.328 94.09 140.077 94.8386 141 94.8386Z" fill="white"/>
<path d="M167.75 94.8386C168.673 94.8386 169.422 94.09 169.422 93.1667C169.422 92.2433 168.673 91.4948 167.75 91.4948C166.827 91.4948 166.078 92.2433 166.078 93.1667C166.078 94.09 166.827 94.8386 167.75 94.8386Z" fill="white"/>
<path d="M194.5 94.8386C195.423 94.8386 196.172 94.09 196.172 93.1667C196.172 92.2433 195.423 91.4948 194.5 91.4948C193.577 91.4948 192.828 92.2433 192.828 93.1667C192.828 94.09 193.577 94.8386 194.5 94.8386Z" fill="white"/>
<path d="M221.25 94.8386C222.173 94.8386 222.922 94.09 222.922 93.1667C222.922 92.2433 222.173 91.4948 221.25 91.4948C220.327 91.4948 219.578 92.2433 219.578 93.1667C219.578 94.09 220.327 94.8386 221.25 94.8386Z" fill="white"/>
<path d="M248 94.8386C248.923 94.8386 249.672 94.09 249.672 93.1667C249.672 92.2433 248.923 91.4948 248 91.4948C247.077 91.4948 246.328 92.2433 246.328 93.1667C246.328 94.09 247.077 94.8386 248 94.8386Z" fill="white"/>
<path d="M141 112.672C141.923 112.672 142.672 111.923 142.672 111C142.672 110.077 141.923 109.328 141 109.328C140.077 109.328 139.328 110.077 139.328 111C139.328 111.923 140.077 112.672 141 112.672Z" fill="white"/>
<path d="M167.75 112.672C168.673 112.672 169.422 111.923 169.422 111C169.422 110.077 168.673 109.328 167.75 109.328C166.827 109.328 166.078 110.077 166.078 111C166.078 111.923 166.827 112.672 167.75 112.672Z" fill="white"/>
<path d="M194.5 112.672C195.423 112.672 196.172 111.923 196.172 111C196.172 110.077 195.423 109.328 194.5 109.328C193.577 109.328 192.828 110.077 192.828 111C192.828 111.923 193.577 112.672 194.5 112.672Z" fill="white"/>
<path d="M221.25 112.672C222.173 112.672 222.922 111.923 222.922 111C222.922 110.077 222.173 109.328 221.25 109.328C220.327 109.328 219.578 110.077 219.578 111C219.578 111.923 220.327 112.672 221.25 112.672Z" fill="white"/>
<path d="M248 112.672C248.923 112.672 249.672 111.923 249.672 111C249.672 110.077 248.923 109.328 248 109.328C247.077 109.328 246.328 110.077 246.328 111C246.328 111.923 247.077 112.672 248 112.672Z" fill="white"/>
<path d="M633 715.672C633.923 715.672 634.672 714.923 634.672 714C634.672 713.077 633.923 712.328 633 712.328C632.077 712.328 631.328 713.077 631.328 714C631.328 714.923 632.077 715.672 633 715.672Z" fill="white"/>
<path d="M659.75 715.672C660.673 715.672 661.422 714.923 661.422 714C661.422 713.077 660.673 712.328 659.75 712.328C658.827 712.328 658.078 713.077 658.078 714C658.078 714.923 658.827 715.672 659.75 715.672Z" fill="white"/>
<path d="M686.5 715.672C687.423 715.672 688.172 714.923 688.172 714C688.172 713.077 687.423 712.328 686.5 712.328C685.577 712.328 684.828 713.077 684.828 714C684.828 714.923 685.577 715.672 686.5 715.672Z" fill="white"/>
<path d="M713.25 715.672C714.173 715.672 714.922 714.923 714.922 714C714.922 713.077 714.173 712.328 713.25 712.328C712.327 712.328 711.578 713.077 711.578 714C711.578 714.923 712.327 715.672 713.25 715.672Z" fill="white"/>
<path d="M740 715.672C740.923 715.672 741.672 714.923 741.672 714C741.672 713.077 740.923 712.328 740 712.328C739.077 712.328 738.328 713.077 738.328 714C738.328 714.923 739.077 715.672 740 715.672Z" fill="white"/>
<path d="M633 733.505C633.923 733.505 634.672 732.757 634.672 731.833C634.672 730.91 633.923 730.161 633 730.161C632.077 730.161 631.328 730.91 631.328 731.833C631.328 732.757 632.077 733.505 633 733.505Z" fill="white"/>
<path d="M659.75 733.505C660.673 733.505 661.422 732.757 661.422 731.833C661.422 730.91 660.673 730.161 659.75 730.161C658.827 730.161 658.078 730.91 658.078 731.833C658.078 732.757 658.827 733.505 659.75 733.505Z" fill="white"/>
<path d="M686.5 733.505C687.423 733.505 688.172 732.757 688.172 731.833C688.172 730.91 687.423 730.161 686.5 730.161C685.577 730.161 684.828 730.91 684.828 731.833C684.828 732.757 685.577 733.505 686.5 733.505Z" fill="white"/>
<path d="M713.25 733.505C714.173 733.505 714.922 732.757 714.922 731.833C714.922 730.91 714.173 730.161 713.25 730.161C712.327 730.161 711.578 730.91 711.578 731.833C711.578 732.757 712.327 733.505 713.25 733.505Z" fill="white"/>
<path d="M740 733.505C740.923 733.505 741.672 732.757 741.672 731.833C741.672 730.91 740.923 730.161 740 730.161C739.077 730.161 738.328 730.91 738.328 731.833C738.328 732.757 739.077 733.505 740 733.505Z" fill="white"/>
<path d="M633 751.339C633.923 751.339 634.672 750.59 634.672 749.667C634.672 748.743 633.923 747.995 633 747.995C632.077 747.995 631.328 748.743 631.328 749.667C631.328 750.59 632.077 751.339 633 751.339Z" fill="white"/>
<path d="M659.75 751.339C660.673 751.339 661.422 750.59 661.422 749.667C661.422 748.743 660.673 747.995 659.75 747.995C658.827 747.995 658.078 748.743 658.078 749.667C658.078 750.59 658.827 751.339 659.75 751.339Z" fill="white"/>
<path d="M686.5 751.339C687.423 751.339 688.172 750.59 688.172 749.667C688.172 748.743 687.423 747.995 686.5 747.995C685.577 747.995 684.828 748.743 684.828 749.667C684.828 750.59 685.577 751.339 686.5 751.339Z" fill="white"/>
<path d="M713.25 751.339C714.173 751.339 714.922 750.59 714.922 749.667C714.922 748.743 714.173 747.995 713.25 747.995C712.327 747.995 711.578 748.743 711.578 749.667C711.578 750.59 712.327 751.339 713.25 751.339Z" fill="white"/>
<path d="M740 751.339C740.923 751.339 741.672 750.59 741.672 749.667C741.672 748.743 740.923 747.995 740 747.995C739.077 747.995 738.328 748.743 738.328 749.667C738.328 750.59 739.077 751.339 740 751.339Z" fill="white"/>
<path d="M633 769.172C633.923 769.172 634.672 768.423 634.672 767.5C634.672 766.577 633.923 765.828 633 765.828C632.077 765.828 631.328 766.577 631.328 767.5C631.328 768.423 632.077 769.172 633 769.172Z" fill="white"/>
<path d="M659.75 769.172C660.673 769.172 661.422 768.423 661.422 767.5C661.422 766.577 660.673 765.828 659.75 765.828C658.827 765.828 658.078 766.577 658.078 767.5C658.078 768.423 658.827 769.172 659.75 769.172Z" fill="white"/>
<path d="M686.5 769.172C687.423 769.172 688.172 768.423 688.172 767.5C688.172 766.577 687.423 765.828 686.5 765.828C685.577 765.828 684.828 766.577 684.828 767.5C684.828 768.423 685.577 769.172 686.5 769.172Z" fill="white"/>
<path d="M713.25 769.172C714.173 769.172 714.922 768.423 714.922 767.5C714.922 766.577 714.173 765.828 713.25 765.828C712.327 765.828 711.578 766.577 711.578 767.5C711.578 768.423 712.327 769.172 713.25 769.172Z" fill="white"/>
<path d="M740 769.172C740.923 769.172 741.672 768.423 741.672 767.5C741.672 766.577 740.923 765.828 740 765.828C739.077 765.828 738.328 766.577 738.328 767.5C738.328 768.423 739.077 769.172 740 769.172Z" fill="white"/>
<path d="M633 787.005C633.923 787.005 634.672 786.257 634.672 785.333C634.672 784.41 633.923 783.661 633 783.661C632.077 783.661 631.328 784.41 631.328 785.333C631.328 786.257 632.077 787.005 633 787.005Z" fill="white"/>
<path d="M659.75 787.005C660.673 787.005 661.422 786.257 661.422 785.333C661.422 784.41 660.673 783.661 659.75 783.661C658.827 783.661 658.078 784.41 658.078 785.333C658.078 786.257 658.827 787.005 659.75 787.005Z" fill="white"/>
<path d="M686.5 787.005C687.423 787.005 688.172 786.257 688.172 785.333C688.172 784.41 687.423 783.661 686.5 783.661C685.577 783.661 684.828 784.41 684.828 785.333C684.828 786.257 685.577 787.005 686.5 787.005Z" fill="white"/>
<path d="M713.25 787.005C714.173 787.005 714.922 786.257 714.922 785.333C714.922 784.41 714.173 783.661 713.25 783.661C712.327 783.661 711.578 784.41 711.578 785.333C711.578 786.257 712.327 787.005 713.25 787.005Z" fill="white"/>
<path d="M740 787.005C740.923 787.005 741.672 786.257 741.672 785.333C741.672 784.41 740.923 783.661 740 783.661C739.077 783.661 738.328 784.41 738.328 785.333C738.328 786.257 739.077 787.005 740 787.005Z" fill="white"/>
<path d="M633 804.839C633.923 804.839 634.672 804.09 634.672 803.167C634.672 802.243 633.923 801.495 633 801.495C632.077 801.495 631.328 802.243 631.328 803.167C631.328 804.09 632.077 804.839 633 804.839Z" fill="white"/>
<path d="M659.75 804.839C660.673 804.839 661.422 804.09 661.422 803.167C661.422 802.243 660.673 801.495 659.75 801.495C658.827 801.495 658.078 802.243 658.078 803.167C658.078 804.09 658.827 804.839 659.75 804.839Z" fill="white"/>
<path d="M686.5 804.839C687.423 804.839 688.172 804.09 688.172 803.167C688.172 802.243 687.423 801.495 686.5 801.495C685.577 801.495 684.828 802.243 684.828 803.167C684.828 804.09 685.577 804.839 686.5 804.839Z" fill="white"/>
<path d="M713.25 804.839C714.173 804.839 714.922 804.09 714.922 803.167C714.922 802.243 714.173 801.495 713.25 801.495C712.327 801.495 711.578 802.243 711.578 803.167C711.578 804.09 712.327 804.839 713.25 804.839Z" fill="white"/>
<path d="M740 804.839C740.923 804.839 741.672 804.09 741.672 803.167C741.672 802.243 740.923 801.495 740 801.495C739.077 801.495 738.328 802.243 738.328 803.167C738.328 804.09 739.077 804.839 740 804.839Z" fill="white"/>
<path d="M633 822.672C633.923 822.672 634.672 821.923 634.672 821C634.672 820.077 633.923 819.328 633 819.328C632.077 819.328 631.328 820.077 631.328 821C631.328 821.923 632.077 822.672 633 822.672Z" fill="white"/>
<path d="M659.75 822.672C660.673 822.672 661.422 821.923 661.422 821C661.422 820.077 660.673 819.328 659.75 819.328C658.827 819.328 658.078 820.077 658.078 821C658.078 821.923 658.827 822.672 659.75 822.672Z" fill="white"/>
<path d="M686.5 822.672C687.423 822.672 688.172 821.923 688.172 821C688.172 820.077 687.423 819.328 686.5 819.328C685.577 819.328 684.828 820.077 684.828 821C684.828 821.923 685.577 822.672 686.5 822.672Z" fill="white"/>
<path d="M713.25 822.672C714.173 822.672 714.922 821.923 714.922 821C714.922 820.077 714.173 819.328 713.25 819.328C712.327 819.328 711.578 820.077 711.578 821C711.578 821.923 712.327 822.672 713.25 822.672Z" fill="white"/>
<path d="M740 822.672C740.923 822.672 741.672 821.923 741.672 821C741.672 820.077 740.923 819.328 740 819.328C739.077 819.328 738.328 820.077 738.328 821C738.328 821.923 739.077 822.672 740 822.672Z" fill="white"/>
<g clip-path="url(#clip0_2832_335)">
<path opacity="0.05" d="M702.87 415.224C700.705 249.565 564.658 117.027 398.999 119.191C233.34 121.355 100.801 257.402 102.966 423.061C105.13 588.72 241.177 721.259 406.836 719.095C572.495 716.931 705.034 580.883 702.87 415.224Z" stroke="url(#paint0_linear_2832_335)" stroke-opacity="0.3" stroke-width="3.69203" stroke-linecap="round" stroke-dasharray="18.09 11.08"/>
<path opacity="0.13" d="M620.371 590.578C715.051 470.483 694.449 296.372 574.354 201.692C454.258 107.011 280.148 127.614 185.468 247.709C90.787 367.804 111.39 541.914 231.485 636.595C351.58 731.276 525.69 710.673 620.371 590.578Z" stroke="url(#paint1_linear_2832_335)" stroke-opacity="0.3" stroke-width="3.32283" stroke-linecap="round" stroke-dasharray="9.97 6.28"/>
<path opacity="0.21" d="M463.242 665.697C599.41 632.381 682.788 494.986 649.472 358.818C616.156 222.649 478.761 139.271 342.593 172.588C206.424 205.904 123.046 343.299 156.363 479.467C189.679 615.635 327.074 699.013 463.242 665.697Z" stroke="url(#paint2_linear_2832_335)" stroke-opacity="0.3" stroke-width="3.32283" stroke-linecap="round" stroke-dasharray="12.55 20.31"/>
<path opacity="0.29" d="M436.038 190.782C309.917 172.492 192.848 259.906 174.558 386.028C156.268 512.149 243.682 629.218 369.804 647.508C495.925 665.798 612.994 578.384 631.284 452.262C649.574 326.141 562.16 209.072 436.038 190.782Z" stroke="url(#paint3_linear_2832_335)" stroke-opacity="0.3" stroke-width="2.95363" stroke-linecap="round" stroke-dasharray="17.72 12.92"/>
<path opacity="0.37" d="M593.727 501.127C639.006 395.746 590.283 273.612 484.902 228.334C379.521 183.055 257.387 231.778 212.109 337.159C166.83 442.54 215.553 564.674 320.934 609.953C426.315 655.231 548.449 606.509 593.727 501.127Z" stroke="url(#paint4_linear_2832_335)" stroke-opacity="0.3" stroke-width="2.95363" stroke-linecap="round" stroke-dasharray="17.35 14.4"/>
<path opacity="0.45" d="M468.312 591.77C563.652 555.652 611.661 449.083 575.543 353.743C539.425 258.402 432.856 210.393 337.516 246.511C242.175 282.63 194.166 389.198 230.284 484.539C266.403 579.879 372.971 627.888 468.312 591.77Z" stroke="url(#paint5_linear_2832_335)" stroke-opacity="0.3" stroke-width="2.58442" stroke-linecap="round" stroke-dasharray="9.23 12.92"/>
<path opacity="0.53" d="M295.365 298.633C228.808 358.034 223.008 460.142 282.408 526.698C341.809 593.255 443.917 599.056 510.473 539.655C577.029 480.254 582.83 378.146 523.43 311.59C464.029 245.034 361.921 239.233 295.365 298.633Z" stroke="url(#paint6_linear_2832_335)" stroke-opacity="0.3" stroke-width="2.58442" stroke-linecap="round" stroke-dasharray="6.65 13.66"/>
<path d="M293.285 465.063C293.285 478.244 293.285 491.425 293.285 504.606C293.285 509.806 305.153 506.404 309.262 506.404C320.607 506.404 332.395 505.433 343.613 507.303" stroke="#F6F6FC" stroke-width="4.36532" stroke-linecap="round"/>
</g>
<path fill-rule="evenodd" clip-rule="evenodd" d="M424.673 191.248C468.362 192.685 505.09 219.84 535.709 250.953C565.972 281.704 586.275 319.041 592.411 361.691C599.769 412.838 609.955 473.408 572.908 509.528C535.971 545.542 475.4 534.965 424.673 525.237C384.231 517.481 356.305 487.633 324.253 461.842C285.49 430.652 225.542 411.194 221.42 361.691C217.241 311.506 267.417 275.809 306.064 243.4C340.444 214.57 379.78 189.772 424.673 191.248Z" fill="#05BC94" fill-opacity="0.68"/>
<path d="M533.648 277.449C533.098 276.872 532.984 277.266 530.933 277.796C530.041 278.026 529.115 278.094 528.199 277.996C522.626 277.657 521.782 270.099 521.524 264.373L520.941 260.49C520.954 260.376 520.943 260.26 520.908 260.15C520.874 260.04 520.817 259.938 520.742 259.851C520.666 259.764 520.573 259.694 520.469 259.646C520.364 259.597 520.251 259.57 520.136 259.568C520.02 259.565 519.906 259.587 519.8 259.631C519.693 259.675 519.597 259.741 519.518 259.824C519.438 259.907 519.377 260.006 519.338 260.115C519.299 260.223 519.283 260.338 519.291 260.453C518.179 267.281 518.981 278.32 526.052 280.267C526.274 282.555 526.236 282.101 526.727 285.755C526.739 285.98 526.84 286.191 527.008 286.341C527.175 286.491 527.396 286.569 527.621 286.557C527.846 286.545 528.056 286.444 528.207 286.276C528.357 286.109 528.435 285.888 528.423 285.663L528.529 280.869C529.699 280.97 530.876 280.765 531.943 280.275C532.889 279.668 534.413 278.258 533.648 277.449Z" fill="#191919"/>
<path d="M539.086 249.337C536.711 247.812 533.943 247.014 531.121 247.04C526.422 228.554 502.958 237.933 507.103 248.936C508.515 252.652 511.647 254.436 515.106 255.789C521.09 258.356 527.701 259.086 534.101 257.885C534.486 260.365 535.509 262.703 537.071 264.669C537.194 264.806 537.353 264.908 537.529 264.962C537.706 265.017 537.894 265.022 538.074 264.978C538.67 264.815 539.748 265.697 540.136 266.474C540.332 266.925 540.42 267.414 540.395 267.904C540.37 268.394 540.232 268.872 539.991 269.3C539.003 271.361 537.058 270.937 537.058 272.545C537.137 276.361 537.602 280.16 538.444 283.883C538.461 284.108 538.567 284.316 538.737 284.463C538.908 284.61 539.131 284.683 539.355 284.666C539.58 284.649 539.789 284.543 539.935 284.372C540.082 284.201 540.155 283.979 540.138 283.755C540.211 277.583 539.938 276.557 539.883 273.383C541.29 272.608 542.349 271.328 542.845 269.8C543.34 268.273 543.236 266.615 542.553 265.162C544.689 258.932 542.877 252.46 539.086 249.337Z" fill="#191919"/>
<path d="M531.463 262.645C532.12 262.645 532.648 263.448 532.648 264.433C532.648 265.417 532.12 266.218 531.463 266.218C530.807 266.218 530.279 265.415 530.279 264.433C530.279 263.45 530.807 262.645 531.463 262.645Z" fill="#191919"/>
<path d="M526.359 267.635C527.393 267.707 528.334 267.657 528.402 268.53C528.451 269.175 528.024 269.414 526.201 269.997C525.419 270.275 524.707 270.505 524.086 269.96C523.811 269.704 523.647 269.351 523.631 268.976C523.594 268.227 523.539 267.463 523.539 266.678C523.539 262.986 525.079 261.513 525.837 261.776C526.871 262.175 526.359 264.359 526.359 267.635Z" fill="#191919"/>
<path d="M570.296 294.241C564.501 289.683 559.141 285.235 551.685 283.667C548.961 283.3 546.214 283.123 543.466 283.139C543.249 285.118 542.602 287.024 541.569 288.725C540.536 290.426 539.142 291.879 537.487 292.983C531.125 296.573 523.919 291.962 521.864 285.692C509.294 285.569 487.175 305.61 486.411 331.645C490.221 330.768 494.111 332.829 497.347 334.578C502.543 337.367 507.884 339.829 512.988 342.763C514.788 338.336 517.18 334.173 520.097 330.387C523.77 332.8 527.19 335.577 530.305 338.676C536.211 336.744 547.074 332.242 547.074 332.242C550.776 330.762 554.755 330.099 558.738 330.297C562.72 330.495 566.614 331.55 570.151 333.39C577.96 326.546 581.088 314.102 588.469 309.147C588.469 308.85 581.124 302.73 570.296 294.241Z" fill="white"/>
<path d="M509.397 315.391C510.458 318.8 512.078 322.01 514.191 324.888C516.659 328.062 517.308 328.793 518.056 328.315C518.79 327.792 518.492 327.226 516.415 323.449C514.658 320.642 513.168 317.676 511.967 314.59C510.735 311.567 510.477 311.389 509.872 311.51C508.748 311.737 509.164 314.524 509.397 315.391Z" fill="#191919"/>
<path d="M561.283 340.478C563.554 340.364 565.803 340.963 567.716 342.192C567.894 342.323 568.115 342.379 568.333 342.35C568.551 342.321 568.75 342.209 568.887 342.036C569.024 341.864 569.088 341.645 569.067 341.426C569.047 341.207 568.941 341.004 568.774 340.861C567.79 339.889 566.57 339.19 565.234 338.832C563.899 338.474 562.492 338.47 561.154 338.821C559.917 339.259 560.342 340.463 561.283 340.478Z" fill="#191919"/>
<path d="M556.75 346.284C559.181 345.96 561.654 346.184 563.987 346.94C564.189 347.036 564.421 347.049 564.632 346.976C564.844 346.903 565.019 346.75 565.119 346.549C565.219 346.349 565.237 346.118 565.168 345.905C565.1 345.691 564.951 345.514 564.753 345.409C563.522 344.561 562.09 344.049 560.6 343.924C559.11 343.8 557.614 344.066 556.259 344.698C555.291 345.251 555.584 346.377 556.75 346.284Z" fill="#191919"/>
<path d="M619.031 349.772C621.249 348.744 623.165 347.163 624.595 345.181C626.026 343.198 626.922 340.881 627.197 338.452C627.296 337.169 627.432 333.887 626.14 333.986C625.199 334.024 625.392 334.969 625.084 336.72C624.67 339.082 623.763 341.331 622.421 343.32C621.197 344.998 619.624 346.391 617.81 347.403C615.295 348.96 614.662 349.143 614.893 349.937C615.22 351.099 618.225 350.131 619.031 349.772Z" fill="#191919"/>
<path d="M634.626 341.484C635.147 339.836 635.435 338.125 635.484 336.398C635.557 335.3 635.415 334.198 635.064 333.155C634.533 331.739 634.087 330.643 633.231 330.931C632.331 331.255 632.905 331.591 632.701 336.248C632.556 337.773 632.319 339.288 631.992 340.785C631.893 341.308 631.57 343.667 632.501 343.939C633.422 344.254 634.408 342.142 634.626 341.484Z" fill="#191919"/>
<path d="M641.981 335.039C642.069 332.998 641.589 330.972 640.595 329.187C639.759 327.951 638.985 326.877 638.19 327.383C637.515 327.78 637.843 328.499 638.19 329.48C638.318 329.935 638.39 330.397 638.518 330.864C638.921 332.21 639.136 333.605 639.156 335.01C639.167 335.264 638.973 338.493 639.939 338.764C640.905 339.036 641.913 336.986 641.981 335.039Z" fill="#191919"/>
<path d="M375.648 271.662C379.018 271.361 383.09 271.478 386.13 271.515C395.183 271.658 428.249 271.28 440.583 271.533C440.807 271.546 441.028 271.468 441.196 271.317C441.363 271.167 441.464 270.956 441.476 270.731C441.489 270.506 441.411 270.286 441.26 270.118C441.11 269.951 440.899 269.85 440.674 269.838C434.855 269.352 428.83 268.89 422.956 268.708C410.742 268.341 384.025 268.877 383.803 268.891C380.979 269.066 378.17 269.444 375.4 270.023C375.194 270.068 375.013 270.189 374.893 270.363C374.773 270.537 374.724 270.75 374.756 270.958C374.787 271.167 374.897 271.356 375.063 271.487C375.228 271.617 375.438 271.68 375.648 271.662Z" fill="white"/>
<path d="M343.157 297.972C357.74 298.227 371.632 299.52 395.593 298.464C426.503 297.089 443.781 296.408 454.961 296.46C461.285 296.434 467.59 295.726 474.084 296.093C474.31 296.11 474.533 296.037 474.705 295.89C474.877 295.743 474.983 295.534 475.001 295.308C475.014 295.084 474.94 294.863 474.794 294.692C474.647 294.521 474.44 294.413 474.216 294.392C467.812 293.794 461.4 294.284 455.004 294.1C426.563 293.451 396.073 295.862 379.814 296.033C373.726 296.088 346.22 296.216 343.157 296.287C342.933 296.287 342.719 296.376 342.561 296.534C342.403 296.692 342.314 296.906 342.314 297.13C342.314 297.353 342.403 297.568 342.561 297.726C342.719 297.884 342.933 297.972 343.157 297.972Z" fill="white"/>
<path d="M342.74 329.428C351.044 329.572 353.997 330.11 368.933 330.265C400.365 330.658 423.695 327.913 454.554 327.913C460.876 327.887 467.19 327.18 473.675 327.546C473.896 327.556 474.112 327.479 474.277 327.333C474.442 327.186 474.544 326.98 474.561 326.76C474.577 326.539 474.507 326.321 474.365 326.151C474.223 325.982 474.021 325.874 473.801 325.851C467.37 325.244 460.879 325.757 454.591 325.577C434.949 325.027 420.256 325.97 395.075 327.09C379.618 327.792 351.676 327.497 342.762 327.765C342.653 327.762 342.544 327.782 342.443 327.822C342.341 327.862 342.248 327.922 342.17 327.998C342.092 328.074 342.03 328.165 341.987 328.266C341.945 328.367 341.923 328.475 341.922 328.584C341.921 328.804 342.006 329.015 342.159 329.173C342.312 329.33 342.521 329.422 342.74 329.428Z" fill="white"/>
<path d="M343.233 360.914C350.42 361.05 370.286 362.526 395.67 361.407C404.001 361.024 449.096 359.092 455.038 359.073C455.263 359.073 455.48 358.985 455.643 358.829C455.806 358.673 455.902 358.461 455.913 358.235C455.914 358.011 455.827 357.795 455.67 357.635C455.513 357.474 455.299 357.383 455.075 357.379C447.109 357.122 439.164 357.055 431.24 357.177C426.473 357.269 385.124 358.928 379.891 358.965C374.041 359.018 345.696 359.165 343.235 359.238C343.013 359.238 342.8 359.327 342.643 359.484C342.486 359.641 342.397 359.854 342.397 360.076C342.397 360.298 342.486 360.511 342.643 360.669C342.8 360.826 343.011 360.914 343.233 360.914Z" fill="white"/>
<path d="M342.625 391.026C349.508 391.169 370.332 392.625 395.061 391.536C403.392 391.135 448.487 389.22 454.43 389.184C454.656 389.186 454.874 389.1 455.038 388.943C455.201 388.787 455.297 388.572 455.304 388.346C455.305 388.122 455.218 387.906 455.061 387.746C454.904 387.586 454.69 387.494 454.466 387.49C422.931 386.48 404.811 388.826 379.295 389.094C373.428 389.131 345.082 389.294 342.64 389.367C342.53 389.365 342.422 389.384 342.32 389.424C342.219 389.464 342.126 389.524 342.048 389.601C341.97 389.677 341.908 389.768 341.866 389.869C341.824 389.969 341.802 390.078 341.802 390.187C341.802 390.407 341.888 390.618 342.042 390.775C342.196 390.932 342.405 391.022 342.625 391.026Z" fill="white"/>
<path d="M403.178 426.56C403.05 426.423 402.895 426.312 402.724 426.236C402.553 426.159 402.369 426.116 402.181 426.111C401.993 426.106 401.807 426.138 401.632 426.206C401.457 426.273 401.297 426.375 401.161 426.505C398.296 428.831 395.6 431.358 393.094 434.067C390.24 431.153 386.613 429.113 382.641 428.187C378.668 427.261 374.514 427.486 370.665 428.837C366.816 430.188 363.432 432.609 360.91 435.815C358.388 439.021 356.832 442.879 356.425 446.938C356.125 449.816 356.395 452.725 357.221 455.499C358.046 458.272 359.411 460.856 361.236 463.101C363.061 465.346 365.312 467.209 367.858 468.584C370.405 469.958 373.197 470.817 376.076 471.11C394.552 473.028 406.986 452.389 395.969 437.478C398.182 434.727 400.602 431.409 403.134 428.565C403.403 428.304 403.558 427.947 403.567 427.571C403.575 427.196 403.435 426.833 403.178 426.56ZM395.732 450.968C395.425 453.806 394.426 456.525 392.821 458.886C391.216 461.246 389.056 463.177 386.531 464.506C384.005 465.836 381.191 466.525 378.337 466.512C375.482 466.499 372.675 465.785 370.161 464.432C367.648 463.079 365.505 461.13 363.922 458.754C362.339 456.379 361.364 453.651 361.083 450.811C360.802 447.97 361.223 445.104 362.309 442.464C363.396 439.825 365.115 437.493 367.314 435.674C370.667 432.86 374.931 431.367 379.307 431.473C383.683 431.579 387.87 433.277 391.083 436.249C386.848 440.758 382.9 445.527 379.263 450.53C378.162 449.179 375.245 446.117 374.158 444.734C373.972 444.411 373.665 444.174 373.305 444.076C372.944 443.979 372.56 444.029 372.236 444.215C371.912 444.401 371.675 444.708 371.578 445.068C371.48 445.429 371.53 445.813 371.716 446.137C373.172 449.713 375.177 453.04 377.658 455.999C377.894 456.299 378.199 456.537 378.548 456.692C378.896 456.847 379.277 456.915 379.658 456.89C380.038 456.865 380.407 456.747 380.732 456.547C381.056 456.347 381.327 456.071 381.521 455.742C384.563 450.645 389.671 445.152 393.895 440.013C395.634 443.384 396.28 447.215 395.732 450.968Z" fill="white"/>
<path d="M343.599 422.113C344.123 432.704 344.717 431.711 343.782 439.065C343.79 439.249 343.762 439.433 343.699 439.606C343.636 439.78 343.54 439.939 343.416 440.075C343.164 440.351 342.814 440.515 342.442 440.531C342.069 440.548 341.706 440.416 341.431 440.165C341.156 439.914 340.992 439.563 340.975 439.191C340.313 436.214 339.182 433.3 338.734 419.65C338.724 419.311 338.787 418.974 338.918 418.661C339.048 418.348 339.245 418.066 339.493 417.835C339.741 417.604 340.036 417.428 340.358 417.32C340.679 417.212 341.021 417.174 341.358 417.208C346.268 417.758 351.259 416.995 359.313 417.536C359.5 417.53 359.686 417.561 359.861 417.628C360.036 417.695 360.196 417.795 360.332 417.924C360.467 418.053 360.576 418.208 360.651 418.379C360.727 418.551 360.767 418.735 360.77 418.922C360.779 419.108 360.749 419.294 360.685 419.468C360.62 419.643 360.521 419.803 360.394 419.939C360.267 420.074 360.114 420.183 359.944 420.259C359.774 420.335 359.591 420.376 359.405 420.38C354.57 420.996 350.347 422.261 343.599 422.113Z" fill="white"/>
<path d="M419.118 468.27C418.557 456.38 418.867 458.107 419.373 453.942C419.349 453.572 419.471 453.208 419.713 452.928C419.955 452.649 420.299 452.476 420.668 452.448C420.852 452.43 421.037 452.451 421.213 452.507C421.389 452.564 421.551 452.655 421.691 452.776C421.83 452.897 421.944 453.045 422.025 453.211C422.106 453.377 422.153 453.558 422.162 453.742C423.887 459.647 423.352 458.63 423.984 470.476C424 470.798 423.95 471.12 423.837 471.423C423.724 471.725 423.551 472.002 423.328 472.235C423.105 472.469 422.837 472.654 422.54 472.781C422.243 472.908 421.924 472.973 421.601 472.973C419.322 472.899 416.988 472.973 414.656 472.899C412.324 472.826 409.99 472.59 407.674 472.516C407.297 472.545 406.924 472.423 406.637 472.177C406.35 471.931 406.172 471.581 406.143 471.204C406.127 471.018 406.148 470.831 406.204 470.653C406.26 470.476 406.351 470.311 406.472 470.168C406.592 470.026 406.739 469.909 406.905 469.824C407.071 469.739 407.252 469.687 407.438 469.673C411.273 468.806 415.187 468.336 419.118 468.27Z" fill="white"/>
<path d="M502.683 433.363C502.201 436.631 501.977 437.483 501.479 441.966C501.06 445.999 499 470.511 498.945 471.787C498.818 475.032 498.745 478.24 498.708 481.485C498.701 481.595 498.716 481.704 498.752 481.807C498.788 481.911 498.844 482.006 498.917 482.087C498.99 482.169 499.079 482.235 499.178 482.282C499.276 482.328 499.384 482.355 499.493 482.36C499.603 482.367 499.714 482.353 499.818 482.317C499.923 482.282 500.019 482.226 500.102 482.153C500.185 482.08 500.253 481.991 500.301 481.892C500.35 481.793 500.379 481.686 500.386 481.575C505.037 435.681 504.341 439.916 504.341 433.472C504.352 433.253 504.277 433.04 504.132 432.876C503.987 432.713 503.783 432.614 503.565 432.599C503.347 432.585 503.132 432.657 502.967 432.8C502.802 432.943 502.7 433.146 502.683 433.363Z" fill="#191919"/>
<path d="M515.588 439.648C514.467 443.779 513.822 444.84 510.32 464.328C509.317 469.862 508.636 475.449 508.28 481.062C508.253 481.175 508.251 481.293 508.273 481.407C508.295 481.522 508.341 481.63 508.407 481.726C508.473 481.822 508.559 481.903 508.659 481.963C508.758 482.024 508.869 482.063 508.985 482.079C509.1 482.094 509.218 482.085 509.329 482.052C509.441 482.019 509.545 481.964 509.634 481.888C509.723 481.813 509.795 481.72 509.846 481.615C509.897 481.511 509.926 481.396 509.93 481.28C517.08 441.45 516.323 450.078 517.203 439.958C517.225 439.752 517.17 439.545 517.046 439.378C516.923 439.211 516.742 439.097 516.538 439.058C516.335 439.019 516.124 439.058 515.948 439.167C515.772 439.277 515.643 439.448 515.588 439.648Z" fill="#191919"/>
<path d="M503.02 493.993C500.58 495.173 497.89 495.739 495.182 495.643C492.003 495.786 486.721 496.144 484.137 494.36C483.626 494.095 483.22 493.664 482.987 493.137C482.753 492.61 482.706 492.02 482.854 491.463C483.954 488.077 491.224 489.446 495.558 487.325C496.58 486.727 497.457 485.911 498.126 484.934C498.788 484.036 499.382 484.491 504.835 484.223C508.638 484.052 508.815 483.631 509.501 484.186C509.647 484.307 509.766 484.457 509.851 484.627C509.935 484.796 509.984 484.981 509.992 485.171C509.992 486.428 509.974 487.631 509.866 488.816C509.692 490.979 509.198 493.105 508.399 495.123C508.333 495.249 508.235 495.356 508.115 495.434C507.995 495.512 507.857 495.558 507.714 495.567C507.572 495.576 507.429 495.549 507.3 495.487C507.171 495.425 507.06 495.331 506.978 495.214C506.155 495.245 505.343 495.333 504.061 495.288C503.849 495.275 503.647 495.194 503.485 495.055C503.324 494.917 503.213 494.729 503.168 494.521L503.02 493.993ZM507.42 486.738C504.944 487.001 502.456 487.135 499.965 487.14C499.122 488.255 498.054 489.18 496.83 489.855C492.921 491.81 488.323 491.267 485.93 492.224C487.711 493.242 493.07 493.095 495.118 493.064C497.865 493.368 500.638 492.821 503.064 491.496C503.205 491.4 503.367 491.34 503.536 491.321C503.706 491.303 503.877 491.326 504.036 491.389C504.194 491.452 504.334 491.553 504.445 491.683C504.555 491.813 504.632 491.968 504.668 492.134L504.923 493.427C505.138 493.427 506.973 493.476 507.165 493.482C507.466 491.247 507.556 488.989 507.42 486.738ZM485.566 492.006C485.566 491.896 485.547 491.806 485.474 491.859C485.401 491.912 485.492 491.969 485.566 492.006Z" fill="#191919"/>
<path d="M567.34 454.643C567.57 456.527 567.941 458.392 568.451 460.22C569.034 462.408 572.808 475.586 573.173 476.736C573.737 478.485 574.32 480.181 574.887 481.912C574.913 482.018 574.96 482.118 575.025 482.206C575.09 482.295 575.172 482.369 575.266 482.426C575.36 482.482 575.464 482.52 575.573 482.536C575.681 482.553 575.792 482.548 575.898 482.521C576.004 482.495 576.105 482.448 576.193 482.383C576.281 482.318 576.356 482.236 576.412 482.142C576.469 482.048 576.506 481.944 576.523 481.835C576.539 481.727 576.534 481.616 576.508 481.51C575.464 474.858 573.898 468.298 571.823 461.892C571.115 459.226 570.145 456.637 568.926 454.163C568.859 453.956 568.714 453.785 568.522 453.684C568.329 453.584 568.106 453.563 567.898 453.626C567.691 453.689 567.516 453.831 567.412 454.021C567.307 454.211 567.282 454.434 567.34 454.643Z" fill="#191919"/>
<path d="M582.537 491.369C581.448 493.509 581.27 494.686 580.368 494.741C578.24 494.871 577.283 494.906 576.742 494.906C576.49 494.901 576.25 494.8 576.07 494.624C575.89 494.448 575.785 494.209 575.776 493.958C575.484 491.626 575.55 487.665 575.429 485.663C575.423 485.361 575.519 485.066 575.7 484.825C575.882 484.583 576.14 484.41 576.432 484.332C579.361 483.599 582.34 483.081 585.344 482.783C586.553 482.657 586.714 484.017 591.725 485.955C599.377 488.866 605.387 487.99 607.894 489.765C609.47 491.012 608.592 493.065 606.762 494.05C604.437 494.861 601.989 495.261 599.526 495.234C595.8 495.481 590.359 496.431 586.767 494.317C585.205 493.43 583.857 492.093 582.537 491.369ZM585.089 485.627C582.738 485.859 580.402 486.219 578.089 486.703C578.089 487.436 577.833 491.325 577.798 492.937C578.491 492.973 579.329 493.01 579.859 493.047C580.268 491.838 580.78 490.667 581.39 489.547C582.633 488.038 586.542 492.198 588.991 492.755C592.658 493.551 594.724 492.938 599.326 492.535C601.347 492.5 603.355 492.212 605.305 491.679C602.997 490.986 592.706 490.975 585.089 485.627ZM605.888 491.351C605.98 491.277 606.033 491.206 605.943 491.151C605.853 491.096 605.87 491.219 605.888 491.351Z" fill="#191919"/>
<path d="M566.761 402.784C565.278 395.397 561.994 389.766 554.603 383.663C547.501 377.805 513.08 355.881 495.765 344.728C491.086 341.714 486.011 337.435 480.344 339.077C478.649 339.605 477.136 340.596 475.976 341.94C474.816 343.283 474.056 344.925 473.782 346.679C472.682 351.262 473.415 356.995 473.69 360.677C475.912 390.195 475.093 397.369 478.175 405.136C479.717 409.19 482.417 412.701 485.94 415.233C502.292 427.135 544.708 455.167 546.655 456.41C548.797 457.866 551.243 458.813 553.806 459.18C564.088 460.421 566.457 449.967 567.239 439.623C567.586 435.065 567.221 424.548 567.258 422.708C567.48 414.1 568.14 409.512 566.761 402.784ZM565.551 439.56C564.759 448.388 562.902 458.359 554.075 457.161C549.934 456.571 547.222 454.131 543.992 451.947C530.868 442.851 493.062 417.079 487.558 413.031C484.466 410.795 482.096 407.704 480.74 404.137C477.99 397.118 478.723 391.767 476.494 360.481C475.993 353.739 474.602 343.729 481.141 341.796C485.466 340.491 490.404 344.636 494.228 347.1C512.709 359.018 546.404 380.445 552.869 385.762C560.032 391.607 562.907 396.774 564.352 403.297C565.819 409.908 565.19 414.785 565.19 422.675C565.193 427.313 565.591 439.146 565.551 439.56Z" fill="#191919"/>
<path d="M649.64 290.293C648.048 288.084 645.98 286.26 643.588 284.957C641.197 283.654 638.543 282.905 635.823 282.765C623.099 281.766 609.827 288.926 600.333 297.293C586.498 309.359 582.17 321.827 570.265 335.062C570.016 335.341 569.885 335.705 569.898 336.078C564.134 331.408 555.414 332.411 548.147 334.149C541.666 335.766 535.382 338.088 529.407 341.074C527.077 338.568 524.426 336.38 521.523 334.567C521.433 334.506 521.332 334.463 521.226 334.441C521.12 334.419 521.01 334.418 520.903 334.438C520.797 334.458 520.695 334.5 520.604 334.559C520.513 334.619 520.435 334.696 520.374 334.785C520.313 334.875 520.27 334.976 520.248 335.083C520.225 335.189 520.224 335.299 520.245 335.405C520.265 335.512 520.306 335.614 520.366 335.705C520.425 335.796 520.502 335.874 520.592 335.935C523.288 338.397 525.839 341.014 528.23 343.773C528.447 343.988 528.731 344.125 529.034 344.161C529.338 344.197 529.646 344.131 529.908 343.973C533.084 342.25 536.408 340.817 539.841 339.69C549.08 336.305 564.459 331.989 570.8 339.475C570.555 339.512 570.322 339.61 570.123 339.759C569.924 339.908 569.766 340.104 569.661 340.329C569.556 340.554 569.509 340.802 569.523 341.05C569.537 341.298 569.613 341.539 569.743 341.751C569.871 341.971 570.344 342.609 570.417 342.717C570.601 343.461 568.632 343.335 568.448 343.355C568.198 343.36 567.954 343.427 567.737 343.552C567.521 343.676 567.339 343.853 567.209 344.066C566.598 345.084 567.585 346.36 566.842 347.311C566.523 347.792 565.823 347.794 565.421 347.894C565.209 347.941 565.01 348.033 564.835 348.162C564.661 348.291 564.516 348.455 564.409 348.644C564.302 348.833 564.237 349.043 564.216 349.259C564.196 349.475 564.221 349.693 564.29 349.898C564.424 350.448 564.946 351.182 564.673 351.904C564.536 352.355 563.927 352.579 563.463 352.676C563.451 352.468 563.362 352.273 563.213 352.128C563.064 351.983 562.866 351.898 562.658 351.891C558.625 351.38 553.957 351.862 547.017 355.52C545.018 356.402 543.207 357.662 541.686 359.231C498.176 333.946 496.809 332.411 491.594 331.848C487.815 331.786 484.081 332.668 480.729 334.415C480.537 334.51 480.389 334.675 480.316 334.877C480.243 335.078 480.251 335.3 480.338 335.496C480.426 335.692 480.586 335.846 480.784 335.927C480.983 336.007 481.205 336.007 481.404 335.928C484.508 334.48 487.918 333.81 491.339 333.977C495.665 334.551 500.398 338.214 504.243 340.484C540.897 362.127 550.378 367.288 559.529 373.841C565.029 377.757 570.879 381.635 573.675 387.823C578.028 397.529 576.878 409.413 577.357 419.886C577.724 428.089 578.153 436.471 574.112 443.636C572.252 446.508 569.916 449.042 567.203 451.128C567.032 451.274 566.925 451.482 566.907 451.706C566.889 451.931 566.96 452.153 567.106 452.325C567.252 452.497 567.46 452.603 567.685 452.622C567.909 452.64 568.132 452.568 568.303 452.422C571.226 450.254 573.77 447.618 575.833 444.621C578.95 439.322 576.933 437.758 578.752 449.045C580.653 461.707 581.159 468.296 583.418 480.835C583.45 481.05 583.565 481.245 583.739 481.377C583.912 481.508 584.13 481.568 584.346 481.541C584.562 481.515 584.759 481.405 584.896 481.236C585.033 481.066 585.098 480.85 585.077 480.633C584.698 476.6 584.872 474.753 583.783 465.031C581.409 445.046 580.362 443.891 579.372 440.241C579.344 440.1 579.279 439.969 579.184 439.861C579.09 439.754 578.968 439.673 578.832 439.627C578.696 439.582 578.55 439.573 578.41 439.602C578.269 439.631 578.139 439.696 578.032 439.792C580.208 433.422 580.057 426.529 579.865 419.807C579.454 407.69 581.332 391.988 573.136 381.729C574.222 379.604 574.72 377.878 575.712 376.138C577.404 373.216 583.618 367.565 586.229 365.402C591.167 361.275 596.591 357.765 602.38 354.951C613.91 349.288 614.114 350.769 618.895 342.484C620.976 338.817 621.462 333.584 624.727 331.219C625.703 330.486 626.618 330.303 627.389 331.238C627.714 331.757 628 332.299 628.246 332.86C628.36 333.07 628.538 333.238 628.754 333.34C628.971 333.441 629.214 333.47 629.448 333.423C629.683 333.377 629.896 333.256 630.056 333.079C630.217 332.902 630.317 332.678 630.341 332.44C630.508 330.742 631.203 329.139 632.329 327.857C632.95 327.276 633.475 327.189 634.296 328.095C634.407 328.225 634.551 328.323 634.712 328.38C634.873 328.436 635.047 328.45 635.215 328.418C635.383 328.387 635.54 328.312 635.67 328.201C635.8 328.09 635.898 327.946 635.955 327.785C637.143 324.485 640.249 323.644 642.136 328.623C642.13 328.78 642.168 328.936 642.246 329.073C642.323 329.21 642.437 329.322 642.575 329.398C642.713 329.474 642.869 329.511 643.026 329.503C643.183 329.496 643.335 329.445 643.465 329.357C650.173 324.859 655.522 317.047 655.806 309.068C655.67 302.335 653.523 295.796 649.64 290.293ZM551.263 359.287C550.363 359.939 549.376 360.461 548.33 360.837C547.884 361.02 546.715 360.948 546.223 361.862C545.336 361.33 544.432 360.827 543.543 360.305C547.173 358.35 550.953 356.689 554.848 355.336C553.915 356.869 552.698 358.21 551.263 359.287Z" fill="#191919"/>
<path d="M566.596 392.643C568.711 392.098 570.715 391.192 572.52 389.965C573.479 389.323 572.953 388.15 571.846 388.416C569.698 388.898 567.674 389.823 565.903 391.131C565.014 391.846 565.462 392.856 566.596 392.643Z" fill="#191919"/>
<path d="M532.452 398.029C530.855 389.19 524.597 381.307 515.208 380.967C514.905 380.956 514.605 381.039 514.35 381.206C511.378 381.658 508.59 382.928 506.298 384.873C504.771 381.655 503.254 378.432 501.582 375.28C497.644 368.06 496.722 366.982 495.404 367.642C494.214 368.192 494.227 369.444 497.499 377.229C498.557 379.746 499.742 382.179 500.908 384.667C503.108 389.368 502.961 388.662 502.758 388.991C495.376 400.767 501.571 422.48 519.4 420.87C529.612 419.926 534.335 407.939 532.452 398.029ZM527.949 405.867C526.939 410.843 524.038 415.656 518.965 416.135C507.559 417.174 502.219 404.584 505.275 394.333C505.59 393.266 504.673 393.622 512.321 406.505C512.524 406.853 512.82 407.138 513.174 407.329C513.529 407.52 513.929 407.61 514.331 407.59C514.734 407.569 515.123 407.438 515.456 407.212C515.789 406.986 516.053 406.672 516.22 406.305C517.321 403.344 519.24 398.667 520.705 395.642C520.8 395.482 520.862 395.304 520.888 395.12C520.914 394.936 520.903 394.748 520.857 394.568C520.81 394.387 520.729 394.218 520.617 394.069C520.505 393.921 520.365 393.795 520.205 393.701C520.044 393.606 519.867 393.544 519.682 393.518C519.498 393.492 519.31 393.502 519.13 393.549C518.95 393.595 518.78 393.677 518.632 393.789C518.483 393.901 518.358 394.041 518.263 394.201C516.798 396.303 515.448 398.482 514.217 400.728C513.85 400.017 508.326 389.069 508.115 388.628C509.909 386.259 512.456 384.572 515.337 383.844C524.981 384.876 529.839 396.931 527.949 405.867Z" fill="white"/>
<path d="M469.159 489.701C449.756 489.354 333.654 488.845 316.136 488.845C314.931 488.837 313.756 488.464 312.768 487.774C311.78 487.085 311.024 486.112 310.6 484.983C309.647 482.378 310.835 482.904 311.11 446.687C311.33 418.758 313.043 254.761 312.988 242.732C312.977 241.176 313.579 239.678 314.664 238.562C315.749 237.447 317.229 236.804 318.785 236.771C341.259 236.26 453.575 235.27 487.31 235.057C488.93 235.041 490.492 235.657 491.666 236.773C492.84 237.889 493.533 239.418 493.599 241.036C494.254 259.059 493.221 277.094 495.167 295.027C495.173 295.14 495.203 295.251 495.253 295.353C495.304 295.454 495.374 295.545 495.46 295.618C495.547 295.692 495.647 295.748 495.755 295.782C495.863 295.816 495.977 295.828 496.09 295.817C496.203 295.806 496.313 295.772 496.412 295.718C496.512 295.664 496.6 295.59 496.67 295.501C496.741 295.412 496.792 295.309 496.822 295.2C496.852 295.09 496.86 294.976 496.844 294.864C495.049 277.263 496.197 258.853 495.678 240.961C495.591 238.795 494.669 236.747 493.106 235.246C491.543 233.744 489.46 232.905 487.292 232.905C453.572 232.96 341.215 233.543 318.739 234.005C316.458 234.053 314.288 234.994 312.694 236.626C311.1 238.258 310.211 240.451 310.217 242.732C310.254 254.743 308.303 334.836 308.103 362.89C307.821 402.241 309.18 442.389 307.465 482.501C307.408 483.675 307.59 484.849 308 485.951C308.41 487.052 309.04 488.059 309.852 488.91C310.663 489.761 311.639 490.438 312.72 490.899C313.802 491.361 314.965 491.598 316.141 491.597C333.203 491.578 454.437 491.014 469.11 491.36C469.325 491.359 469.531 491.274 469.685 491.124C469.839 490.973 469.928 490.769 469.935 490.554C469.941 490.339 469.864 490.13 469.719 489.971C469.575 489.812 469.374 489.715 469.159 489.701Z" fill="white"/>
<path d="M555.135 312.428C556.507 316.289 558.317 319.98 560.531 323.428C560.872 323.962 563.802 328.399 564.815 327.675C565.732 327.059 564.936 326.234 561.77 320.158C557.975 313.04 556.614 307.822 555.1 308.328C554.092 308.68 554.875 311.542 555.135 312.428Z" fill="#191919"/>
<path d="M569.972 360.867V359.285" stroke="#F6F6FC" stroke-width="4.36532" stroke-linecap="round"/>
<path d="M569.972 359.285C570.968 356.296 575.148 352.74 577.885 351.371" stroke="#F6F6FC" stroke-width="4.36532" stroke-linecap="round"/>
<path d="M611.122 319.717C613.614 317.759 616.741 316.378 619.827 315.761" stroke="#F6F6FC" stroke-width="4.36532" stroke-linecap="round"/>
<path d="M590.099 475.814C590.099 463.886 588.873 453.861 585.814 442.387" stroke="#F6F6FC" stroke-width="4.36532" stroke-linecap="round"/>
<path d="M653.237 286.463C653.102 284.581 652.182 282.715 650.671 281.564C648.084 279.593 644.179 278.298 641.009 277.77C635.066 276.779 628.504 277.171 622.64 278.357C617.931 279.309 612.715 281.592 609.156 284.867C608.066 285.869 606.823 286.812 605.635 287.692C604.694 288.389 604.139 289.886 603.124 290.394" stroke="#F6F6FC" stroke-width="4.36532" stroke-linecap="round"/>
<defs>
<linearGradient id="paint0_linear_2832_335" x1="-284.973" y1="-29272.2" x2="59705.4" y2="-30055.9" gradientUnits="userSpaceOnUse">
<stop stop-color="white"/>
<stop offset="1" stop-color="#04D2A5"/>
</linearGradient>
<linearGradient id="paint1_linear_2832_335" x1="17157.5" y1="-21280" x2="60647.8" y2="13006.9" gradientUnits="userSpaceOnUse">
<stop stop-color="white"/>
<stop offset="1" stop-color="#04D2A5"/>
</linearGradient>
<linearGradient id="paint2_linear_2832_335" x1="24751.5" y1="-5799.54" x2="36816.4" y2="43511.4" gradientUnits="userSpaceOnUse">
<stop stop-color="white"/>
<stop offset="1" stop-color="#04D2A5"/>
</linearGradient>
<linearGradient id="paint3_linear_2832_335" x1="-22238.2" y1="-2631.11" x2="-15614.7" y2="-48303.8" gradientUnits="userSpaceOnUse">
<stop stop-color="white"/>
<stop offset="1" stop-color="#04D2A5"/>
</linearGradient>
<linearGradient id="paint4_linear_2832_335" x1="8328.55" y1="-18553" x2="46490.4" y2="-2156.13" gradientUnits="userSpaceOnUse">
<stop stop-color="white"/>
<stop offset="1" stop-color="#04D2A5"/>
</linearGradient>
<linearGradient id="paint5_linear_2832_335" x1="17427.8" y1="-6227.9" x2="30507.4" y2="28297.9" gradientUnits="userSpaceOnUse">
<stop stop-color="white"/>
<stop offset="1" stop-color="#04D2A5"/>
</linearGradient>
<linearGradient id="paint6_linear_2832_335" x1="-11420.1" y1="11187.5" x2="-32930.9" y2="-12914.6" gradientUnits="userSpaceOnUse">
<stop stop-color="white"/>
<stop offset="1" stop-color="#04D2A5"/>
</linearGradient>
<clipPath id="clip0_2832_335">
<rect x="144.412" y="234.839" width="605.324" height="263.374" rx="67.1279" transform="rotate(33.2515 144.412 234.839)" fill="white"/>
</clipPath>
</defs>
</svg>
