<svg width="482" height="439" viewBox="0 0 482 439" fill="none" xmlns="http://www.w3.org/2000/svg">
<path fill-rule="evenodd" clip-rule="evenodd" d="M270.617 61.1522C333.376 57.3242 406.859 -2.92403 451.024 41.781C495.247 86.5446 436.197 159.463 429.524 222C424.152 272.342 448.069 328.081 416.267 367.498C382.672 409.136 323.945 423.644 270.617 418.953C221.147 414.601 188.639 373.22 148.545 343.946C94.9411 304.809 9.64012 287.744 0.863192 222C-8.02053 155.457 53.2694 96.9305 110.974 62.5227C158.477 34.1976 215.398 64.5203 270.617 61.1522Z" fill="#05BC94" fill-opacity="0.68"/>
<path d="M369.314 439C431.546 439 481.995 430.092 481.995 419.103C481.995 408.113 431.546 399.205 369.314 399.205C307.081 399.205 256.632 408.113 256.632 419.103C256.632 430.092 307.081 439 369.314 439Z" fill="white"/>
<path d="M348.019 174.654C346.951 172.137 344.698 169.284 346.752 159.808C347.355 157.03 348.079 150.753 343.371 151.237C339.992 151.538 337.879 156.004 337.034 158.78C335.946 162.101 335.526 166.627 337.819 169.464C338.302 170.067 339.268 169.524 339.268 168.861C339.206 165.722 337.94 157.875 341.922 155.159C342.404 154.193 344.639 154.435 344.156 156.486C343.252 160.23 342.164 171.938 347.053 175.438C347.476 175.809 348.251 175.194 348.019 174.654Z" fill="#191919"/>
<path d="M381.909 82.8561C368.78 87.6648 363.077 77.4854 361.507 73.5014C357.827 64.3888 360.482 54.5499 362.654 45.4373C362.699 45.2706 362.676 45.0932 362.591 44.9431C362.506 44.793 362.365 44.6822 362.2 44.6347C362.034 44.5871 361.856 44.6065 361.704 44.6887C361.553 44.7709 361.439 44.9093 361.388 45.0742C357.706 55.3951 355.413 67.1644 360.543 77.7274C361.729 79.9365 363.37 81.8693 365.356 83.3986C367.343 84.9278 369.631 86.019 372.07 86.6C371.784 90.2418 371.885 93.9037 372.372 97.5241C372.419 97.6879 372.518 97.8318 372.655 97.9343C372.791 98.0367 372.957 98.0921 373.127 98.0921C373.297 98.0921 373.463 98.0367 373.599 97.9343C373.736 97.8318 373.835 97.6879 373.882 97.5241C374.226 94.0104 374.205 90.4706 373.82 86.9611C375.428 87.2991 377.091 87.2627 378.682 86.8546C380.273 86.4466 381.748 85.6779 382.995 84.6081C383.594 83.7629 382.878 82.5012 381.909 82.8561Z" fill="#191919"/>
<path d="M369.881 77.0622C371.932 79.1137 375.736 78.6911 377.968 77.2428C380.019 75.9155 382.253 72.9572 381.166 70.4729C380.926 69.9293 379.839 69.7487 379.718 70.2924C378.269 76.2683 372.718 75.9647 370.363 75.9052C370.228 75.9022 370.094 75.9401 369.981 76.0139C369.867 76.0878 369.779 76.1941 369.727 76.3191C369.675 76.4441 369.662 76.5819 369.689 76.7145C369.717 76.847 369.783 76.9682 369.881 77.0622Z" fill="#191919"/>
<path d="M365.431 52.0116C363.934 54.6149 361.025 65.7729 361.991 68.1875C362.955 70.5425 367.06 72.7151 368.63 69.7568C368.711 69.5971 368.745 69.418 368.731 69.2395C368.716 69.0611 368.651 68.8903 368.545 68.7462C368.439 68.6022 368.294 68.4905 368.128 68.4237C367.962 68.3569 367.78 68.3376 367.604 68.368C362.594 69.8184 364.104 61.4894 366.215 52.2537C366.336 51.8311 365.673 51.5911 365.431 52.0116Z" fill="#191919"/>
<path d="M373.807 53.7674C372.482 54.0751 372.539 55.7594 372.781 56.7851C373.532 59.9731 376.09 59.1402 375.92 57.4477C375.799 56.9656 375.077 53.472 373.807 53.7674Z" fill="#191919"/>
<path d="M371.998 49.478C377.25 49.4165 377.248 52.0116 378.214 52.6763C378.373 52.7694 378.554 52.8188 378.738 52.8195C378.922 52.8202 379.103 52.7721 379.262 52.6802C379.421 52.5883 379.554 52.4558 379.645 52.2962C379.737 52.1366 379.785 51.9556 379.784 51.7716C379.663 50.0811 375.256 45.8572 371.635 48.2102C371.51 48.2897 371.413 48.4076 371.361 48.5464C371.308 48.6851 371.301 48.8373 371.342 48.98C371.383 49.1227 371.469 49.2484 371.587 49.3382C371.706 49.428 371.85 49.477 371.998 49.478Z" fill="#191919"/>
<path d="M394.937 82.6148C395.5 79.1001 395.823 75.551 395.903 71.9923C395.897 71.7965 395.822 71.6092 395.691 71.4629C395.561 71.3167 395.383 71.2209 395.19 71.1921C394.996 71.1633 394.798 71.2034 394.631 71.3053C394.464 71.4073 394.337 71.5647 394.274 71.7502C393.245 76.3847 392.779 81.1263 392.885 85.8725C390.834 93.1163 381.358 96.1935 377.555 97.0387C377.253 97.1002 376.709 98.4275 377.073 98.9096C380.354 103.328 382.245 108.622 382.505 114.119C382.521 114.281 382.577 114.436 382.667 114.571C382.757 114.706 382.879 114.817 383.021 114.895C383.164 114.972 383.324 115.014 383.486 115.015C383.648 115.017 383.809 114.979 383.953 114.905C389.747 113.576 395.236 107.725 398.016 102.773C398.56 101.806 396.929 100.479 396.447 101.566C393.973 106.816 386.427 111.163 384.616 112.73C384.765 110.056 384.342 107.381 383.374 104.883C382.407 102.385 380.917 100.123 379.005 98.247C386.427 97.9434 394.756 91.9695 395.782 84.297C400.611 88.1599 399.224 92.2649 399.163 94.3164C399.171 94.518 399.244 94.7117 399.369 94.8696C399.495 95.0276 399.667 95.1416 399.862 95.1954C400.056 95.2492 400.263 95.24 400.451 95.169C400.64 95.0981 400.802 94.9691 400.913 94.8005C402.302 92.5726 400.972 81.7696 394.937 82.6148Z" fill="#191919"/>
<path d="M390.94 54.7899C391.027 54.5776 391.159 54.3869 391.328 54.2315C391.497 54.0761 391.698 53.9598 391.917 53.8907C392.136 53.8216 392.367 53.8014 392.595 53.8317C392.822 53.8619 393.04 53.9419 393.233 54.0658C395.695 55.2966 396.288 63.3281 391.844 64.8093C392.379 66.627 393.354 68.2849 394.682 69.6364C395.361 70.2789 396.24 70.6709 397.172 70.7477C398.104 70.8245 399.035 70.5816 399.81 70.059C402.427 64.0584 404.273 57.7506 405.304 51.286C406.258 39.4367 401.599 31.1119 389.852 29.2573C385.567 28.5332 371.389 6.38343 354.424 10.8495C345.855 13.0815 339.273 27.1443 350.44 37.2232C364.082 49.532 377.359 42.3519 377.359 42.3519C378.871 44.4262 380.861 46.1048 383.161 47.2446C384.681 47.9763 386.313 48.4458 387.99 48.6335C386.297 52.5903 385.573 56.8936 385.877 61.1864C385.938 62.2737 386.24 63.601 387.266 63.9026C388.17 64.2041 389.137 63.4205 389.5 62.5158C389.974 61.4285 390.164 56.1234 390.94 54.7899Z" fill="#191919"/>
<path d="M371.323 99.2716C370.258 99.3588 369.248 99.7788 368.436 100.472C367.624 101.166 367.05 102.097 366.797 103.135C364.563 110.678 369.21 115.687 371.323 115.749C376.451 115.989 378.685 109.531 378.685 103.738C378.626 100.539 374.338 99.009 371.323 99.2716Z" fill="white"/>
<path d="M367.888 177.37C365.886 179.229 357.99 175.861 355.938 174.956C354.912 174.474 354.609 146.106 366.741 117.738C366.801 117.558 367.767 118.354 368.914 118.584C370.06 118.813 371.81 118.584 371.691 118.766C366.077 130.414 368.6 176.702 367.888 177.37Z" fill="white"/>
<path d="M352.088 127.518C350.603 133.453 348.586 139.347 347.561 145.444C347.521 145.596 347.543 145.758 347.622 145.894C347.701 146.029 347.831 146.128 347.983 146.168C348.135 146.208 348.297 146.186 348.433 146.107C348.569 146.028 348.668 145.898 348.708 145.746C350.821 139.95 352.027 133.915 353.596 127.941C353.629 127.84 353.641 127.734 353.632 127.629C353.623 127.524 353.592 127.421 353.542 127.328C353.492 127.235 353.424 127.153 353.342 127.087C353.259 127.021 353.164 126.972 353.063 126.943C352.961 126.915 352.854 126.907 352.75 126.921C352.645 126.934 352.544 126.969 352.453 127.023C352.362 127.077 352.283 127.148 352.22 127.233C352.157 127.319 352.113 127.415 352.088 127.518Z" fill="#191919"/>
<path d="M370.256 91.9674C370.74 91.5468 369.893 90.8801 369.411 91.1222C363.556 94.1399 358.667 104.159 359.994 110.919C349.493 115.022 339.654 132.948 335.489 138.38C330.843 144.477 318.409 156.548 295.352 159.988C294.69 160.109 294.811 161.194 295.535 161.194C309.778 160.651 325.109 154.314 334.644 143.511C339.231 138.259 349.493 119.188 364.22 111.22C364.386 111.122 364.51 110.968 364.57 110.785C364.629 110.602 364.621 110.404 364.546 110.227C364.471 110.05 364.334 109.907 364.161 109.823C363.988 109.739 363.79 109.721 363.605 109.772C363.196 109.844 362.793 109.944 362.399 110.074C362.712 107.115 363.281 98.0295 370.256 91.9674Z" fill="#191919"/>
<path d="M299.976 173.87C304.757 176.324 310.251 177.008 315.487 175.801C315.641 175.753 315.772 175.653 315.859 175.517C315.945 175.382 315.981 175.22 315.959 175.061C315.937 174.902 315.86 174.755 315.74 174.648C315.621 174.54 315.467 174.478 315.307 174.474C310.298 174.537 305.304 173.928 300.458 172.662C299.796 172.422 299.309 173.575 299.976 173.87Z" fill="#191919"/>
<path d="M431.367 134.761C427.692 121.24 419.468 107.239 407.828 99.2111C406.86 98.5485 405.715 100.056 406.558 100.852C430.956 123.113 431.736 153.592 428.96 165.242C423.165 189.141 403.128 207.49 378.141 208.577C366.31 209.059 350.92 205.678 343.617 195.419C346.429 193.904 348.71 191.566 350.155 188.718C351.6 185.87 352.141 182.649 351.704 179.485C365.586 189.141 380.796 184.011 386.651 180.993C392.326 178.013 397.066 173.521 400.347 168.014C403.628 162.507 405.321 156.2 405.239 149.79C405.239 149.566 405.15 149.351 404.992 149.192C404.833 149.034 404.618 148.945 404.394 148.945C404.17 148.945 403.955 149.034 403.796 149.192C403.638 149.351 403.549 149.566 403.549 149.79C403.165 155.663 401.325 161.348 398.195 166.332C395.065 171.316 390.743 175.442 385.619 178.338C380.367 181.176 367.814 185.822 350.613 176.527C349.706 175.2 348.621 175.983 348.801 176.588C351.759 186.304 345.361 192.159 342.946 194.453C342.585 193.85 342.222 193.246 341.861 192.582C342.741 192.195 343.525 191.618 344.155 190.891C344.276 190.759 344.356 190.594 344.386 190.417C344.417 190.241 344.396 190.059 344.326 189.893C344.256 189.728 344.14 189.586 343.991 189.485C343.843 189.384 343.669 189.327 343.49 189.322C341.619 189.262 337.335 191.989 331.963 191.012C329.759 190.68 327.58 190.196 325.443 189.564C323.271 188.84 318.503 185.461 322.306 182.864C322.506 182.746 322.671 182.579 322.786 182.377C322.901 182.176 322.961 181.949 322.961 181.717C322.961 181.486 322.901 181.258 322.786 181.057C322.671 180.856 322.506 180.688 322.306 180.57C321.4 178.578 321.761 177.614 323.392 177.614C323.579 177.561 323.752 177.466 323.898 177.337C324.043 177.207 324.158 177.047 324.233 176.867C324.308 176.687 324.342 176.493 324.332 176.299C324.322 176.104 324.269 175.914 324.175 175.743C320.495 170.793 328.643 168.801 331.971 169.224C332.514 169.285 332.816 168.5 332.213 168.319C329.013 167.595 325.814 167.051 323.098 169.406C322.23 170.144 321.601 171.122 321.289 172.218C320.978 173.314 320.998 174.477 321.348 175.561C320.806 175.81 320.326 176.177 319.943 176.635C319.56 177.093 319.284 177.63 319.134 178.208C318.984 178.785 318.964 179.389 319.075 179.975C319.187 180.562 319.427 181.116 319.779 181.598C316.519 185.098 319.658 190.288 323.822 191.979C329.144 194.062 334.967 194.504 340.542 193.246C346.994 212.908 388.019 219.3 412.846 197.893C412.727 198.256 409.89 204.593 409.045 207.549C408.985 207.751 409.001 207.969 409.091 208.159C409.181 208.35 409.338 208.501 409.532 208.583C409.726 208.665 409.944 208.673 410.144 208.605C410.343 208.537 410.511 208.398 410.614 208.214C411.941 205.74 415.743 196.504 416.469 194.514C423.832 186.645 429.064 177.027 431.671 166.571C434.278 156.114 434.173 145.166 431.367 134.761Z" fill="#191919"/>
<path d="M414.408 388.86C414.1 386.93 413.805 382.402 408.916 380.892C410.849 380.531 412.295 379.807 412.478 378.962C414.47 368.46 408.916 214.976 407.287 214.13C405.659 213.285 395.879 222.098 350.667 214.916C350.365 213.466 348.314 206.466 347.528 204.413C347.472 204.246 347.354 204.108 347.199 204.026C347.044 203.943 346.863 203.923 346.694 203.969C346.524 204.016 346.379 204.125 346.287 204.275C346.196 204.425 346.165 204.604 346.201 204.776C346.891 208.756 347.838 212.688 349.038 216.545C347.397 229.469 347.528 378.117 347.951 379.021C348.246 379.648 348.666 380.207 349.185 380.666C349.704 381.124 350.311 381.472 350.968 381.688C350.123 381.809 349.28 381.928 348.433 382.111C349.173 382.581 349.769 383.247 350.153 384.036C350.537 384.825 350.694 385.704 350.607 386.577C350.555 386.734 350.458 386.873 350.33 386.978C350.201 387.082 350.045 387.148 349.88 387.167C349.715 387.186 349.549 387.157 349.399 387.085C349.25 387.012 349.125 386.899 349.038 386.758C348.798 385.887 348.372 385.08 347.788 384.392C347.204 383.704 346.477 383.152 345.657 382.774C345.296 382.895 343.667 383.377 343.183 383.559C344.27 383.98 345.899 386.515 345.477 387.662C345.434 387.812 345.348 387.945 345.23 388.046C345.112 388.148 344.967 388.212 344.813 388.231C344.658 388.251 344.502 388.225 344.362 388.156C344.223 388.087 344.107 387.979 344.028 387.845C343.786 387.482 342.76 384.827 341.07 384.283C340.104 384.645 339.14 385.067 338.173 385.43C338.415 385.611 340.768 388.146 340.709 389.293C340.649 389.956 339.562 390.561 339.32 389.896C338.559 388.504 337.558 387.257 336.362 386.214C332.822 387.943 329.431 389.962 326.224 392.249C325.654 392.682 325.205 393.253 324.918 393.907C324.631 394.562 324.515 395.279 324.582 395.991C325.067 397.924 365.444 397.983 365.745 396.295C366.088 394.198 366.129 392.064 365.866 389.956C365.748 388.397 365.245 386.893 364.403 385.576C363.56 384.26 362.404 383.173 361.039 382.413C361.842 382.358 362.623 382.131 363.331 381.748C363.755 381.325 379.084 264.779 379.084 258.865C379.084 270.995 397.914 378.068 398.821 379.333C399.908 380.385 401.352 380.988 402.864 381.024C401.108 381.214 399.371 381.557 397.674 382.049C398.314 382.316 398.859 382.77 399.236 383.352C399.613 383.934 399.805 384.616 399.787 385.309C399.751 385.407 399.695 385.496 399.623 385.572C399.551 385.647 399.464 385.706 399.367 385.746C399.271 385.786 399.167 385.805 399.063 385.803C398.959 385.8 398.856 385.776 398.761 385.732C398.337 385.369 397.373 383.137 396.406 382.413C394.733 382.889 393.098 383.494 391.518 384.222C392.281 384.462 392.943 384.947 393.402 385.602C393.86 386.257 394.089 387.046 394.053 387.845C394.018 387.958 393.954 388.06 393.868 388.142C393.782 388.224 393.677 388.283 393.562 388.313C393.447 388.343 393.327 388.344 393.212 388.314C393.097 388.285 392.991 388.227 392.905 388.146C392.115 386.948 391.227 385.817 390.25 384.766C389.887 384.946 387.655 386.033 386.81 386.456C387.505 386.681 388.12 387.103 388.581 387.671C389.041 388.239 389.327 388.927 389.405 389.654C389.348 389.84 389.224 389.999 389.057 390.099C388.89 390.2 388.691 390.235 388.5 390.198C387.897 389.956 387.413 388.327 385.542 387.121C383.111 388.439 380.754 389.89 378.481 391.466C377.393 392.19 374.015 395.329 376.128 396.594C376.55 396.834 412.822 397.741 413.487 395.93C414.172 393.638 414.483 391.251 414.408 388.86Z" fill="#191919"/>
<path d="M253.11 244.488C246.34 241.169 238.988 237.788 231.383 240.504C225.142 243.182 219.964 247.85 216.655 253.781C216.534 253.991 216.493 254.237 216.541 254.475C216.588 254.712 216.719 254.925 216.911 255.072C217.103 255.22 217.342 255.293 217.584 255.278C217.825 255.262 218.053 255.16 218.225 254.989C220.242 252.972 222.136 250.835 223.897 248.591C232.745 239.279 240.775 241.304 252.618 245.635C253.28 245.875 253.703 244.849 253.11 244.488Z" fill="#191919"/>
<path d="M228.585 247.627C226.435 249.388 224.437 251.326 222.612 253.421C222.514 253.589 222.474 253.785 222.499 253.978C222.524 254.171 222.612 254.351 222.75 254.489C222.888 254.626 223.067 254.715 223.26 254.74C223.454 254.765 223.65 254.725 223.818 254.627C225.898 252.78 227.82 250.761 229.562 248.592C230.216 247.989 229.304 247.022 228.585 247.627Z" fill="#191919"/>
<path d="M231.236 249.678C229.466 250.983 227.864 252.503 226.469 254.203C226.381 254.363 226.348 254.548 226.374 254.728C226.4 254.909 226.484 255.076 226.613 255.206C226.742 255.335 226.91 255.418 227.09 255.444C227.271 255.47 227.455 255.437 227.615 255.35C229.318 253.956 230.838 252.355 232.141 250.582C232.443 250.041 231.72 249.316 231.236 249.678Z" fill="#191919"/>
<path d="M233.305 251.305C232.347 252.242 231.441 253.229 230.589 254.263C230.166 254.866 231.011 255.711 231.615 255.289C232.641 254.429 233.61 253.501 234.513 252.513C234.661 252.35 234.74 252.137 234.734 251.918C234.729 251.698 234.639 251.489 234.484 251.334C234.329 251.179 234.12 251.089 233.9 251.084C233.681 251.078 233.468 251.157 233.305 251.305Z" fill="#191919"/>
<path d="M234.188 235.856C231.96 228.694 228.268 206.885 231.232 192.338C231.412 191.433 230.024 191.374 229.722 192.157C222.601 209.72 229.784 229.336 232.68 236.338C233.041 237.183 234.508 236.875 234.188 235.856Z" fill="#191919"/>
<path d="M268.135 124.077C268.203 125.103 268.256 126.793 269.341 127.335C269.427 127.387 269.523 127.421 269.623 127.434C269.723 127.447 269.824 127.439 269.921 127.411C270.018 127.383 270.107 127.334 270.184 127.269C270.261 127.204 270.323 127.124 270.367 127.033C270.983 125.948 270.127 124.619 269.583 123.654C269.495 123.506 269.36 123.392 269.199 123.329C269.039 123.266 268.862 123.258 268.696 123.306C268.53 123.354 268.385 123.456 268.284 123.596C268.182 123.735 268.13 123.905 268.135 124.077Z" fill="#191919"/>
<path d="M267.629 121.544C269.377 121.243 269.5 122.51 269.982 122.629C270.143 122.668 270.312 122.653 270.464 122.588C270.617 122.523 270.744 122.411 270.827 122.268C271.309 121.302 269.681 119.13 267.085 120.217C266.938 120.307 266.827 120.446 266.773 120.61C266.719 120.774 266.726 120.952 266.791 121.112C266.856 121.272 266.977 121.404 267.13 121.483C267.284 121.562 267.461 121.584 267.629 121.544Z" fill="#191919"/>
<path d="M254.655 126.553C254.672 127.892 254.917 129.219 255.379 130.476C255.534 130.621 255.739 130.702 255.952 130.702C256.165 130.702 256.37 130.621 256.526 130.476C257.611 129.329 256.768 127.337 256.224 126.131C255.923 125.345 254.587 125.708 254.655 126.553Z" fill="#191919"/>
<path d="M254.173 122.691C252.616 123.618 251.215 126.01 252.532 127.701C252.955 128.183 253.62 127.822 253.8 127.337C254.042 126.796 253.197 125.105 255.068 123.897C255.864 123.415 254.965 122.219 254.173 122.691Z" fill="#191919"/>
<path d="M258.167 120.336C257.678 119.887 257.105 119.54 256.48 119.315C255.856 119.09 255.192 118.991 254.53 119.025C253.867 119.059 253.217 119.224 252.619 119.512C252.02 119.799 251.485 120.203 251.044 120.699C248.207 124.199 249.534 130.355 251.949 133.675C254.242 136.875 258.407 137.176 260.278 133.373C261.191 131.222 261.477 128.857 261.103 126.55C260.73 124.243 259.712 122.089 258.167 120.336ZM258.407 132.409C256.417 137.948 249.132 128.183 251.828 123.114C255.088 118.104 258.649 121.544 259.072 127.881C259.106 129.417 258.881 130.948 258.407 132.409Z" fill="#191919"/>
<path d="M275.017 122.45C273.886 118.823 269.463 115.448 266.023 117.44C263.186 119.373 264.093 124.563 264.997 127.287C264.871 127.077 264.73 126.875 264.575 126.684C264.273 126.321 263.549 126.502 263.729 127.045C264.843 129.863 265.711 132.771 266.325 135.737C266.085 137.608 264.214 137.186 263.005 137.547C262.821 137.608 262.661 137.726 262.548 137.883C262.434 138.04 262.373 138.229 262.373 138.423C262.373 138.617 262.434 138.806 262.548 138.963C262.661 139.12 262.821 139.238 263.005 139.299C263.549 139.529 264.137 139.634 264.726 139.607C265.316 139.581 265.892 139.423 266.413 139.145C266.933 138.867 267.385 138.477 267.736 138.002C268.086 137.527 268.326 136.98 268.438 136.4C268.523 134.709 268.17 133.025 267.412 131.511C267.915 132.125 268.569 132.599 269.309 132.886C270.048 133.174 270.85 133.265 271.636 133.153C271.695 135.869 274.05 141.904 269.584 149.87C268.058 152.588 265.563 154.631 262.598 155.593C259.633 156.555 256.414 156.365 253.583 155.06C253.431 154.98 253.254 154.961 253.089 155.008C252.924 155.055 252.784 155.165 252.698 155.314C252.612 155.462 252.587 155.639 252.629 155.805C252.67 155.972 252.775 156.116 252.92 156.207C254.27 157.186 255.821 157.851 257.46 158.154C259.099 158.457 260.786 158.39 262.396 157.959C262.475 160.041 262.882 162.098 263.602 164.054C263.687 164.189 263.808 164.297 263.952 164.366C264.096 164.434 264.256 164.461 264.414 164.442C264.573 164.423 264.722 164.359 264.846 164.259C264.969 164.158 265.062 164.024 265.112 163.873C265.119 161.68 264.773 159.499 264.086 157.415C273.876 153.831 277.31 139.941 273.622 132.182C276.344 130.065 275.936 125.404 275.017 122.45ZM267.533 128.305C266.283 126.254 264.993 119.818 266.626 118.528C267.533 117.804 270.551 116.899 272.662 122.631C273.623 124.811 273.689 127.281 272.844 129.509C271.515 131.805 268.708 130.223 267.533 128.305Z" fill="#191919"/>
<path d="M253.866 145.202C256.432 148.724 262.739 150.513 265.395 146.047C265.493 145.87 265.53 145.666 265.502 145.465C265.473 145.265 265.38 145.08 265.238 144.937C265.095 144.794 264.909 144.701 264.709 144.673C264.509 144.644 264.305 144.681 264.127 144.779C262.558 145.503 259.298 149.186 255.195 144.176C254.59 143.396 253.257 144.363 253.866 145.202Z" fill="#191919"/>
<path d="M265.882 93.4783C259.143 89.4615 252.547 91.1848 246.085 94.8672C241.135 97.3782 236.915 101.123 233.834 105.74C231.598 105.599 229.37 106.126 227.434 107.255C225.498 108.383 223.941 110.062 222.961 112.077C221.9 114.073 221.267 116.269 221.1 118.524C220.934 120.778 221.239 123.043 221.995 125.174C227.548 139.78 236.903 145.756 239.802 146.117C244.276 150.579 245.302 161.499 245.482 165.122C245.389 165.146 245.303 165.192 245.23 165.254C245.157 165.317 245.098 165.395 245.06 165.483C243.611 170.493 248.621 175.804 253.149 177.072C258.097 178.46 264.495 176.046 266.245 170.975C266.547 170.129 265.338 169.467 264.735 170.07C261.839 173.088 258.339 175.683 253.862 174.536C249.636 173.51 248.118 170.433 246.74 166.931C247.726 159.254 246.092 151.468 242.103 144.835C242.405 144.111 243.129 140.851 243.552 140.851C242.61 140.863 241.679 140.657 240.831 140.249C239.983 139.841 239.241 139.241 238.663 138.498C238.102 137.738 237.774 136.831 237.72 135.887C237.666 134.944 237.888 134.006 238.36 133.187C238.878 132.396 239.669 131.824 240.582 131.579C241.494 131.334 242.466 131.434 243.31 131.859C242.455 126.727 242.414 121.493 243.189 116.348C252.121 117.312 256.708 116.408 260.813 114.598C262.898 113.757 264.785 112.491 266.353 110.88C267.921 109.269 269.135 107.349 269.919 105.241C270.572 103.105 270.533 100.818 269.808 98.7054C269.083 96.5929 267.709 94.7635 265.882 93.4783Z" fill="#191919"/>
<path d="M193.158 246.6C189.941 244.959 181.811 241.23 174.206 248.714C173.664 249.196 174.629 250.342 175.113 249.922C180.545 245.203 189.658 246.845 192.616 247.87C193.34 248.17 193.83 246.947 193.158 246.6Z" fill="#191919"/>
<path d="M327.148 254.021C316.404 254.083 305.722 254.444 294.979 254.807C297.875 253.48 310.188 249.555 317.311 227.405C320.267 218.11 320.267 200.736 299.022 174.291C295.866 170.222 291.835 166.917 287.228 164.618C282.62 162.32 277.555 161.088 272.406 161.014C271.621 161.014 271.621 162.16 272.406 162.281C298.177 165.781 312.18 200.365 314.353 210.928C316.587 221.852 310.853 249.615 282.122 255.348C276.571 255.531 261.361 256.013 259.308 256.073C259.792 254.083 257.619 245.089 256.29 243.097C265.464 242.012 291.479 238.087 292.866 213.946C292.927 213.1 291.417 213.16 291.296 213.946C287.554 234.889 263.895 239.536 255.748 241.77C255.506 241.829 254.419 242.252 254.723 242.976C256.364 246.718 256.593 254.323 257.016 256.134C255.869 256.196 254.663 256.196 253.516 256.255C254.093 255.808 254.602 255.28 255.026 254.686C255.568 253.962 254.663 253.045 253.939 253.237C251.223 253.9 245.429 257.825 237.527 254.083C237.376 254.004 237.201 253.987 237.037 254.035C236.874 254.083 236.735 254.191 236.649 254.338C236.564 254.486 236.538 254.66 236.578 254.826C236.618 254.991 236.72 255.135 236.862 255.227C237.665 255.765 238.513 256.23 239.398 256.616C174.007 258.151 81.8452 258.657 74.3245 258.065C74.1566 258.059 73.9895 258.089 73.8333 258.151C73.6772 258.213 73.5354 258.306 73.4166 258.425C73.2979 258.543 73.2047 258.685 73.1428 258.841C73.0808 258.997 73.0516 259.164 73.0567 259.332C72.8958 263.599 72.9766 267.87 73.2987 272.127C73.2987 272.319 73.375 272.504 73.5108 272.639C73.6467 272.775 73.8309 272.852 74.0229 272.852C74.215 272.852 74.3992 272.775 74.535 272.639C74.6708 272.504 74.7471 272.319 74.7471 272.127C75.1102 268.326 75.1697 264.523 75.4713 260.721C76.8601 260.781 298.485 259.936 327.154 256.073C328.356 255.833 328.415 254.015 327.148 254.021Z" fill="#191919"/>
<path d="M337.761 271.288C336.799 265.864 336.071 260.362 334.805 254.991C334.442 253.543 331.968 253.785 332.148 255.354C332.692 260.362 333.656 265.312 334.563 270.26C267.145 273.701 93.6833 274.425 74.4897 274.847C74.2656 274.847 74.0506 274.936 73.8921 275.095C73.7336 275.253 73.6445 275.468 73.6445 275.693C73.6445 275.917 73.7336 276.132 73.8921 276.29C74.0506 276.449 74.2656 276.538 74.4897 276.538C78.4737 276.718 82.4576 276.839 86.5011 276.96C85.9575 278.893 87.5884 369.605 88.8562 388.316C88.8694 388.643 89.0086 388.953 89.2447 389.18C89.4808 389.406 89.7956 389.533 90.123 389.533C90.4504 389.533 90.7651 389.406 91.0012 389.18C91.2374 388.953 91.3766 388.643 91.3897 388.316C91.7529 369.365 89.4593 280.409 88.3125 277.022C100.927 277.262 304.868 277.744 324 273.641C323.819 291.325 325.992 370.39 326.174 379.745C326.174 380.017 326.282 380.278 326.475 380.47C326.667 380.663 326.928 380.771 327.2 380.771C327.472 380.771 327.733 380.663 327.925 380.47C328.118 380.278 328.226 380.017 328.226 379.745C330.376 357.464 325.45 267.593 325.45 273.582C329.071 273.461 332.692 273.339 336.372 273.159C336.594 273.146 336.81 273.085 337.006 272.979C337.202 272.874 337.372 272.727 337.504 272.548C337.637 272.37 337.728 272.164 337.773 271.947C337.817 271.729 337.813 271.504 337.761 271.288Z" fill="#191919"/>
<path d="M53.7999 400.026C103.897 400.175 410.682 399 438.861 397.913C439.061 397.913 439.253 397.833 439.395 397.692C439.536 397.55 439.616 397.358 439.616 397.158C439.616 396.957 439.536 396.765 439.395 396.624C439.253 396.482 439.061 396.403 438.861 396.403C388.947 396.042 82.1102 398.214 53.7999 398.516C53.5996 398.516 53.4076 398.595 53.266 398.737C53.1245 398.878 53.0449 399.07 53.0449 399.271C53.0449 399.471 53.1245 399.663 53.266 399.805C53.4076 399.946 53.5996 400.026 53.7999 400.026Z" fill="white"/>
<path d="M190.678 91.7253C184.608 83.0599 170.641 81.948 162.673 88.4655C156.215 95.4077 155.551 105.608 160.38 111.161C162.68 113.803 165.617 115.812 168.914 116.997C172.21 118.183 175.755 118.504 179.21 117.931C191.244 115.598 197.737 101.798 190.678 91.7253ZM185.428 94.503C181.028 98.3228 176.917 107.177 175.409 109.889C175.226 110.189 174.968 110.437 174.662 110.609C174.355 110.781 174.01 110.871 173.658 110.871C173.306 110.871 172.961 110.781 172.654 110.609C172.348 110.437 172.09 110.189 171.907 109.889C169.88 106.814 167.227 104.202 164.122 102.223C163.096 101.62 163.761 99.7486 164.967 100.231C167.98 101.323 170.733 103.028 173.054 105.238C175.347 100.048 178.798 93.3501 184.337 92.6259C185.367 92.5192 186.042 93.9696 185.428 94.503Z" fill="white"/>
<path d="M211.761 28.2355C169.694 29.6223 88.2133 31.7353 86.5845 32.642C85.1361 33.4852 86.1003 40.1853 86.4019 44.1077C80.4875 44.4113 74.5034 44.7724 68.6587 45.2545C68.5972 45.2545 67.6925 45.2545 67.633 46.4012C66.9683 56.2996 67.5714 104.405 71.5554 128.425V128.546C71.5387 128.675 71.5497 128.805 71.5876 128.929C71.6255 129.053 71.6894 129.167 71.7751 129.264C71.8607 129.361 71.9662 129.439 72.0843 129.492C72.2025 129.545 72.3306 129.572 72.4601 129.572C83.4457 130.237 132.636 130.296 137.525 129.33C143.252 135.733 148.574 142.487 153.458 149.553C153.592 149.763 153.783 149.931 154.008 150.036C154.233 150.142 154.484 150.181 154.731 150.149C154.977 150.118 155.21 150.016 155.401 149.857C155.593 149.699 155.735 149.488 155.811 149.252C158.708 142.312 162.21 135.552 164.563 128.429C164.864 127.463 163.476 126.919 162.934 127.765C159.515 133.682 156.604 139.879 154.234 146.289C149.66 139.749 144.466 133.665 138.723 128.124C138.433 127.874 138.107 127.671 137.756 127.52C132.808 126.495 84.2827 127.036 73.7792 127.701C69.744 100.843 71.0733 73.8027 69.508 46.7746C89.4853 47.1357 193.236 43.2133 194.203 43.2748C194.203 45.5622 199.06 114.256 200.176 120.89C188.528 122.642 176.88 123.789 165.17 124.632C164.97 124.632 164.778 124.712 164.636 124.853C164.495 124.995 164.415 125.187 164.415 125.387C164.415 125.587 164.495 125.779 164.636 125.921C164.778 126.062 164.97 126.142 165.17 126.142C177.183 126.615 189.21 125.724 201.022 123.485C201.202 123.426 202.228 123.245 202.349 122.338C202.365 117.656 202.063 112.978 201.444 108.337C205.488 108.337 213.636 108.216 215.989 108.278C215.866 95.8335 213.521 33.3662 211.761 28.2355Z" fill="white"/>
<path d="M81.2751 61.1357C95.7072 62.1902 153.218 60.9552 167.1 58.7827C168.126 58.6001 167.884 56.9713 166.858 56.9713C159.736 56.9713 95.5185 59.2053 81.2751 59.7469C81.0975 59.7566 80.9303 59.8339 80.808 59.9631C80.6856 60.0923 80.6174 60.2634 80.6174 60.4413C80.6174 60.6192 80.6856 60.7904 80.808 60.9195C80.9303 61.0487 81.0975 61.1261 81.2751 61.1357Z" fill="#191919"/>
<path d="M81.935 75.3125C109.944 75.0396 137.94 73.5625 165.951 72.1142C167.701 72.0527 167.701 69.3365 165.951 69.3981C137.946 70.6043 109.88 71.9316 81.935 73.9852C81.1514 74.1041 81.0898 75.3207 81.935 75.3125Z" fill="#191919"/>
<path d="M82.1563 89.2533C92.4957 90.2257 134.725 89.0112 145.046 87.7434C146.556 87.5629 146.687 85.2693 145.046 85.2693C134.606 85.3904 92.5286 86.8982 82.1563 88.045C82.0161 88.0722 81.8897 88.1474 81.7988 88.2576C81.7079 88.3679 81.6582 88.5063 81.6582 88.6491C81.6582 88.792 81.7079 88.9304 81.7988 89.0407C81.8897 89.1509 82.0161 89.2261 82.1563 89.2533Z" fill="#191919"/>
<path d="M81.931 105.005C92.7361 105.487 136.01 103.253 146.813 102.771C148.503 102.712 148.503 100.055 146.813 100.116C135.77 100.658 92.3135 102.469 81.7505 103.979C81.2068 104.039 81.3894 104.944 81.931 105.005Z" fill="#191919"/>
<path d="M191.778 172.663C191.706 172.399 191.548 172.167 191.329 172.003C191.11 171.84 190.843 171.753 190.57 171.758C183.509 171.276 118.99 173.026 104.322 172.663C103.974 172.676 103.644 172.82 103.398 173.066C103.152 173.312 103.008 173.642 102.995 173.99C104.203 195.297 105.288 216.661 106.737 237.967C106.737 238.271 106.857 238.563 107.072 238.778C107.287 238.993 107.579 239.114 107.883 239.114C115.679 238.933 123.456 238.874 131.301 238.451C131.477 238.451 131.646 238.381 131.771 238.257C131.895 238.132 131.965 237.963 131.965 237.787C131.965 237.61 131.895 237.441 131.771 237.317C131.646 237.192 131.477 237.122 131.301 237.122C123.879 236.82 116.454 236.82 109.03 236.82C108.125 216.306 106.858 195.84 105.711 175.319C119.954 175.621 182.663 173.871 189.544 174.173C189.907 176.647 192.683 225.474 193.469 235.07C188.881 234.89 174.938 236.82 164.748 237.243C163.905 237.305 163.784 238.933 164.748 239.114C169.637 239.779 189.554 237.967 194.084 237.062C194.264 237.224 194.488 237.329 194.727 237.364C194.967 237.399 195.211 237.363 195.43 237.259C195.649 237.156 195.833 236.991 195.958 236.784C196.084 236.577 196.145 236.338 196.135 236.096C195.286 225.837 192.281 174.954 191.778 172.663Z" fill="#191919"/>
<path d="M194.243 172.665C194.333 182.923 197.261 230.909 198.106 233.202C198.467 234.168 200.036 234.408 200.278 233.202C200.822 230.788 196.717 182.865 195.449 172.665C195.39 171.941 194.237 171.882 194.243 172.665Z" fill="#191919"/>
<path d="M169.091 250.039C166.375 248.954 145.975 249.859 143.921 249.92C142.957 244.246 136.86 216.061 136.801 215.999C138.042 213.797 139.927 212.027 142.203 210.927C144.479 209.827 147.037 209.449 149.534 209.845C155.028 210.87 160.881 219.14 161.002 219.199C160.52 223.918 159.796 238.937 158.708 248.472C158.587 249.438 160.038 249.559 160.399 248.714C162.149 244.307 163.236 223.481 162.571 218.352C162.149 213.704 154.062 207.849 148.57 207.426C142.775 207.016 135.352 212.678 135.049 216.781C134.93 219.558 141.086 244.607 142.473 250.037C138.7 250.014 134.929 250.256 131.19 250.761C130.043 251.065 130.575 251.908 130.706 252.331C131.203 254.045 131.828 255.72 132.577 257.34C132.878 257.884 133.904 257.642 133.785 257.039C133.664 255.954 132.999 252.995 132.878 252.513C160.573 251.305 165.109 252.392 167.524 252.029C166.886 253.381 166.478 254.829 166.315 256.315C166.377 256.979 167.222 257.521 167.764 256.918C168.547 256.077 170.66 250.523 169.091 250.039Z" fill="#191919"/>
<path d="M240.166 167.171C224.323 171.274 220.31 189.684 219.223 203.625C218.499 212.857 218.318 222.517 214.504 231.148C211.126 238.943 204.366 245.451 195.615 246.236C195.553 246.236 194.468 246.357 194.285 246.84C193.912 247.883 193.808 249.005 193.984 250.099C193.259 250.159 178.715 251.246 172.195 251.79C171.352 251.849 171.29 253.238 172.195 253.179C178.534 252.754 204.124 253.298 210.402 252.633C211.608 252.514 212.211 250.462 210.703 250.28C205.812 249.735 200.879 249.675 195.976 250.099C195.905 249.555 195.865 249.007 195.855 248.458C212.755 248.218 219.514 229.689 220.962 215.565C222.712 198.907 221.264 175.67 240.519 168.609C241.371 168.196 241.071 166.935 240.166 167.171Z" fill="#191919"/>
<path d="M67.1413 39.3559C62.0347 39.3559 56.9281 39.3559 51.8215 39.3559C51.1495 39.3559 51.7183 39.5812 51.9836 40.0854C52.8964 41.8197 53.1576 43.422 53.4427 45.3541C54.0457 49.4412 54.7742 53.3024 55.307 57.4316C55.6125 59.7998 54.7396 61.2727 54.7396 63.4299" stroke="#F6F6FC" stroke-width="4.75244" stroke-linecap="round"/>
<path d="M208.459 19.5577C211.563 19.5577 215.829 20.2484 218.9 19.4587C221.1 18.893 221.82 17.4717 221.82 20.2999C221.82 24.2223 221.374 28.108 221.374 32.0271" stroke="#F6F6FC" stroke-width="4.75244" stroke-linecap="round"/>
<path d="M426.135 98.2171C427.72 100.593 431.176 107.665 432.602 111.628C436.9 123.567 440.258 135.713 442.367 148.118C443.644 155.629 443.403 169.82 439.601 177.424" stroke="#F6F6FC" stroke-width="4.75244" stroke-linecap="round"/>
<path d="M419.692 374.848C419.692 345.206 420.557 315.519 417.75 285.98C416.179 269.442 416.197 253.008 416.197 236.419" stroke="#F6F6FC" stroke-width="4.75244" stroke-linecap="round"/>
<path d="M297.284 149.152C303.437 149.152 309.04 149.257 314.311 145.586C322.146 140.129 327.965 129.609 333.063 121.599C337.208 115.086 340.276 114.061 345.948 109.806" stroke="#F6F6FC" stroke-width="4.75244" stroke-linecap="round"/>
<path d="M95.3586 307.032V363.722" stroke="#F6F6FC" stroke-width="4.75244" stroke-linecap="round"/>
<path d="M163.475 330.707C193.008 323.503 224.738 329.22 254.883 326.598" stroke="#F6F6FC" stroke-width="4.75244" stroke-linecap="round"/>
<path d="M168.61 359.464H244.612" stroke="#F6F6FC" stroke-width="4.75244" stroke-linecap="round"/>
<path d="M374.481 336.397C374.481 328.467 374.227 319.726 378.581 312.952C379.581 311.397 380.367 315.243 380.524 315.716C381.492 318.618 382.596 321.48 383.501 324.402C384.685 328.228 385.959 332.02 387.054 335.851" stroke="#F6F6FC" stroke-width="4.75244" stroke-linecap="round"/>
</svg>
