<svg width="170" height="37" viewBox="0 0 170 37" fill="none" xmlns="http://www.w3.org/2000/svg">
<path d="M17.1288 17.2207H27.4088V21.1981H17.1288V17.2207ZM17.4959 29H12.5394V7.58314H28.7245V11.5606H17.4959V29ZM41.3618 29V25.7875L41.0559 25.0838V19.3318C41.0559 18.312 40.7397 17.5165 40.1074 16.9454C39.4955 16.3743 38.547 16.0887 37.262 16.0887C36.385 16.0887 35.5181 16.2315 34.6614 16.517C33.8251 16.7822 33.1112 17.1493 32.5197 17.6185L30.8064 14.2836C31.7038 13.6513 32.7849 13.1617 34.0495 12.815C35.3141 12.4682 36.5991 12.2949 37.9045 12.2949C40.4134 12.2949 42.3613 12.8864 43.7483 14.0694C45.1353 15.2524 45.8288 17.0983 45.8288 19.6072V29H41.3618ZM36.3442 29.2448C35.0592 29.2448 33.9577 29.0306 33.0399 28.6023C32.122 28.1535 31.4183 27.5518 30.9288 26.7971C30.4392 26.0424 30.1945 25.196 30.1945 24.2577C30.1945 23.2786 30.429 22.422 30.8982 21.6877C31.3877 20.9534 32.1526 20.3823 33.1928 19.9743C34.2331 19.546 35.5895 19.3318 37.262 19.3318H41.6372V22.116H37.7822C36.6603 22.116 35.8852 22.2996 35.4569 22.6667C35.049 23.0339 34.845 23.4928 34.845 24.0435C34.845 24.6554 35.0796 25.145 35.5487 25.5121C36.0382 25.8589 36.7011 26.0322 37.5374 26.0322C38.3329 26.0322 39.0468 25.8487 39.6791 25.4815C40.3114 25.094 40.7703 24.5331 41.0559 23.7988L41.7902 26.0016C41.4434 27.0623 40.8111 27.868 39.8932 28.4187C38.9754 28.9694 37.7924 29.2448 36.3442 29.2448ZM55.6863 29.2448C54.2789 29.2448 52.9225 29.0816 51.6171 28.7552C50.3321 28.4085 49.3122 27.9801 48.5575 27.4702L50.1485 24.0435C50.9032 24.5127 51.7904 24.9002 52.8103 25.2062C53.8505 25.4917 54.8704 25.6345 55.8698 25.6345C56.9713 25.6345 57.7464 25.5019 58.1951 25.2368C58.6642 24.9716 58.8988 24.6044 58.8988 24.1353C58.8988 23.7478 58.7152 23.4622 58.3481 23.2786C58.0013 23.0747 57.5322 22.9217 56.9407 22.8197C56.3492 22.7177 55.6965 22.6157 54.9826 22.5138C54.2891 22.4118 53.5854 22.2792 52.8715 22.116C52.1576 21.9324 51.5049 21.6673 50.9134 21.3205C50.3219 20.9738 49.8425 20.5046 49.4754 19.9131C49.1286 19.3216 48.9553 18.5567 48.9553 17.6185C48.9553 16.5782 49.251 15.6604 49.8425 14.8649C50.4544 14.0694 51.3315 13.4473 52.4737 12.9985C53.616 12.5294 54.9826 12.2949 56.5735 12.2949C57.6954 12.2949 58.8376 12.4172 60.0002 12.662C61.1629 12.9068 62.1317 13.2637 62.9068 13.7328L61.3158 17.1289C60.5204 16.6598 59.7147 16.3437 58.8988 16.1805C58.1033 15.9969 57.3282 15.9051 56.5735 15.9051C55.5129 15.9051 54.7378 16.0479 54.2483 16.3335C53.7587 16.619 53.514 16.9862 53.514 17.4349C53.514 17.8428 53.6874 18.1488 54.0341 18.3528C54.4013 18.5567 54.8806 18.7199 55.4721 18.8423C56.0636 18.9647 56.7061 19.0769 57.3996 19.1788C58.1135 19.2604 58.8274 19.393 59.5413 19.5766C60.2552 19.7602 60.8977 20.0253 61.4688 20.3721C62.0603 20.6984 62.5397 21.1574 62.9068 21.7489C63.274 22.32 63.4575 23.0747 63.4575 24.0129C63.4575 25.0328 63.1516 25.9404 62.5397 26.7359C61.9278 27.511 61.0405 28.1229 59.8779 28.5717C58.7356 29.0204 57.3384 29.2448 55.6863 29.2448ZM73.1334 29.2448C71.1956 29.2448 69.6863 28.7552 68.6052 27.7762C67.5242 26.7767 66.9837 25.2979 66.9837 23.3398V8.89875H71.7566V23.2786C71.7566 23.9721 71.9401 24.5127 72.3073 24.9002C72.6744 25.2673 73.1741 25.4509 73.8065 25.4509C74.5611 25.4509 75.2036 25.247 75.734 24.839L77.019 28.2045C76.5295 28.5513 75.9379 28.8164 75.2444 29C74.5713 29.1632 73.8676 29.2448 73.1334 29.2448ZM64.4442 16.5782V12.9068H75.8564V16.5782H64.4442ZM86.0707 29.2448C84.133 29.2448 82.6236 28.7552 81.5426 27.7762C80.4615 26.7767 79.921 25.2979 79.921 23.3398V8.89875H84.6939V23.2786C84.6939 23.9721 84.8775 24.5127 85.2446 24.9002C85.6118 25.2673 86.1115 25.4509 86.7438 25.4509C87.4985 25.4509 88.141 25.247 88.6713 24.839L89.9563 28.2045C89.4668 28.5513 88.8753 28.8164 88.1818 29C87.5087 29.1632 86.805 29.2448 86.0707 29.2448ZM77.3816 16.5782V12.9068H88.7937V16.5782H77.3816ZM92.6356 29V12.5396H97.1943V17.1901L96.5518 15.8439C97.0414 14.6813 97.8266 13.8042 98.9077 13.2127C99.9887 12.6008 101.304 12.2949 102.855 12.2949V16.7006C102.651 16.6802 102.467 16.67 102.304 16.67C102.141 16.6496 101.967 16.6394 101.784 16.6394C100.478 16.6394 99.4176 17.0168 98.6017 17.7714C97.8062 18.5057 97.4085 19.6582 97.4085 21.2287V29H92.6356ZM114.713 29V25.7875L114.407 25.0838V19.3318C114.407 18.312 114.091 17.5165 113.459 16.9454C112.847 16.3743 111.899 16.0887 110.614 16.0887C109.736 16.0887 108.87 16.2315 108.013 16.517C107.177 16.7822 106.463 17.1493 105.871 17.6185L104.158 14.2836C105.055 13.6513 106.136 13.1617 107.401 12.815C108.666 12.4682 109.951 12.2949 111.256 12.2949C113.765 12.2949 115.713 12.8864 117.1 14.0694C118.487 15.2524 119.18 17.0983 119.18 19.6072V29H114.713ZM109.696 29.2448C108.411 29.2448 107.309 29.0306 106.391 28.6023C105.474 28.1535 104.77 27.5518 104.28 26.7971C103.791 26.0424 103.546 25.196 103.546 24.2577C103.546 23.2786 103.781 22.422 104.25 21.6877C104.739 20.9534 105.504 20.3823 106.544 19.9743C107.585 19.546 108.941 19.3318 110.614 19.3318H114.989V22.116H111.134C110.012 22.116 109.237 22.2996 108.808 22.6667C108.4 23.0339 108.197 23.4928 108.197 24.0435C108.197 24.6554 108.431 25.145 108.9 25.5121C109.39 25.8589 110.053 26.0322 110.889 26.0322C111.684 26.0322 112.398 25.8487 113.031 25.4815C113.663 25.094 114.122 24.5331 114.407 23.7988L115.142 26.0016C114.795 27.0623 114.163 27.868 113.245 28.4187C112.327 28.9694 111.144 29.2448 109.696 29.2448ZM131.574 29.2448C129.8 29.2448 128.219 28.8878 126.832 28.1739C125.445 27.4396 124.354 26.43 123.558 25.145C122.783 23.86 122.396 22.4016 122.396 20.7698C122.396 19.1177 122.783 17.6593 123.558 16.3946C124.354 15.1096 125.445 14.1102 126.832 13.3963C128.219 12.662 129.8 12.2949 131.574 12.2949C133.308 12.2949 134.817 12.662 136.102 13.3963C137.388 14.1102 138.336 15.1402 138.948 16.4864L135.246 18.4751C134.817 17.7001 134.277 17.1289 133.624 16.7618C132.992 16.3947 132.298 16.2111 131.544 16.2111C130.728 16.2111 129.994 16.3947 129.341 16.7618C128.688 17.1289 128.168 17.6491 127.781 18.3222C127.413 18.9953 127.23 19.8111 127.23 20.7698C127.23 21.7285 127.413 22.5443 127.781 23.2174C128.168 23.8905 128.688 24.4107 129.341 24.7778C129.994 25.145 130.728 25.3285 131.544 25.3285C132.298 25.3285 132.992 25.1552 133.624 24.8084C134.277 24.4413 134.817 23.86 135.246 23.0645L138.948 25.0838C138.336 26.4096 137.388 27.4396 136.102 28.1739C134.817 28.8878 133.308 29.2448 131.574 29.2448ZM145.553 25.6345L145.676 19.8213L153.355 12.5396H159.046L151.672 20.0355L149.194 22.0548L145.553 25.6345ZM141.606 29V6.29813H146.379V29H141.606ZM153.875 29L148.307 22.0854L151.305 18.3834L159.658 29H153.875Z" fill="#00B478"/>
</svg>
